%TF.GenerationSoftware,KiCad,Pcbnew,4.0.4+e1-6308~48~ubuntu16.04.1-stable*%
%TF.CreationDate,2016-10-27T02:56:18-07:00*%
%TF.ProjectId,CY8CMBR2010,435938434D4252323031302E6B696361,rev?*%
%TF.FileFunction,Soldermask,Top*%
%FSLAX46Y46*%
G04 Gerber Fmt 4.6, Leading zero omitted, Abs format (unit mm)*
G04 Created by KiCad (PCBNEW 4.0.4+e1-6308~48~ubuntu16.04.1-stable) date Thu Oct 27 02:56:18 2016*
%MOMM*%
%LPD*%
G01*
G04 APERTURE LIST*
%ADD10C,0.050000*%
%ADD11R,1.800000X2.100000*%
%ADD12R,1.700000X2.100000*%
%ADD13R,1.300000X0.850000*%
%ADD14R,2.132000X2.132000*%
%ADD15O,2.132000X2.132000*%
%ADD16R,2.132000X1.827200*%
%ADD17O,2.132000X1.827200*%
%ADD18R,2.335200X2.335200*%
%ADD19R,1.827200X2.132000*%
%ADD20O,1.827200X2.132000*%
%ADD21R,2.100000X1.800000*%
%ADD22R,0.800000X0.350000*%
%ADD23R,0.350000X0.800000*%
%ADD24R,1.525000X1.525000*%
G04 APERTURE END LIST*
D10*
D11*
X142875000Y-114395000D03*
X142875000Y-110395000D03*
D12*
X119761000Y-79216000D03*
X119761000Y-75216000D03*
D13*
X116520000Y-88900000D03*
X114620000Y-88900000D03*
D14*
X116586000Y-78486000D03*
D15*
X116586000Y-75946000D03*
D14*
X137160000Y-75565000D03*
D15*
X137160000Y-78105000D03*
D16*
X148590000Y-104775000D03*
D17*
X148590000Y-102235000D03*
X148590000Y-99695000D03*
X148590000Y-97155000D03*
X148590000Y-94615000D03*
X148590000Y-92075000D03*
X148590000Y-89535000D03*
X148590000Y-86995000D03*
X148590000Y-84455000D03*
X148590000Y-81915000D03*
D18*
X140970000Y-75565000D03*
X146050000Y-114935000D03*
D19*
X148590000Y-117475000D03*
D20*
X146050000Y-117475000D03*
X143510000Y-117475000D03*
D18*
X119380000Y-120015000D03*
D19*
X116840000Y-117475000D03*
D20*
X119380000Y-117475000D03*
X121920000Y-117475000D03*
D18*
X119380000Y-114935000D03*
X128270000Y-120015000D03*
X109220000Y-102235000D03*
D19*
X125730000Y-117475000D03*
D20*
X128270000Y-117475000D03*
X130810000Y-117475000D03*
D16*
X111760000Y-99695000D03*
D17*
X111760000Y-102235000D03*
X111760000Y-104775000D03*
D18*
X128270000Y-114935000D03*
X114300000Y-102235000D03*
X137160000Y-120015000D03*
X110490000Y-120015000D03*
D19*
X139700000Y-117475000D03*
D20*
X137160000Y-117475000D03*
X134620000Y-117475000D03*
D19*
X107950000Y-117475000D03*
D20*
X110490000Y-117475000D03*
X113030000Y-117475000D03*
D18*
X137160000Y-114300000D03*
X110490000Y-114935000D03*
D21*
X112300000Y-95250000D03*
X116300000Y-95250000D03*
X112300000Y-91440000D03*
X116300000Y-91440000D03*
X112300000Y-86360000D03*
X116300000Y-86360000D03*
X112300000Y-82550000D03*
X116300000Y-82550000D03*
D11*
X125730000Y-78645000D03*
X125730000Y-82645000D03*
X129540000Y-78645000D03*
X129540000Y-82645000D03*
X133350000Y-78645000D03*
X133350000Y-82645000D03*
D21*
X136620000Y-87630000D03*
X132620000Y-87630000D03*
X136620000Y-91440000D03*
X132620000Y-91440000D03*
X136620000Y-95250000D03*
X132620000Y-95250000D03*
D11*
X116205000Y-114395000D03*
X116205000Y-110395000D03*
X120015000Y-111855000D03*
X120015000Y-107855000D03*
X122555000Y-114395000D03*
X122555000Y-110395000D03*
X131445000Y-114395000D03*
X131445000Y-110395000D03*
X125095000Y-110395000D03*
X125095000Y-114395000D03*
D21*
X114840000Y-99060000D03*
X118840000Y-99060000D03*
X117380000Y-101600000D03*
X121380000Y-101600000D03*
D11*
X140335000Y-114395000D03*
X140335000Y-110395000D03*
X133985000Y-114395000D03*
X133985000Y-110395000D03*
X113665000Y-114395000D03*
X113665000Y-110395000D03*
X107315000Y-110395000D03*
X107315000Y-114395000D03*
D12*
X122301000Y-79216000D03*
X122301000Y-75216000D03*
D18*
X109220000Y-95250000D03*
X109220000Y-91440000D03*
X109220000Y-86360000D03*
X109220000Y-82550000D03*
X125730000Y-75565000D03*
X129540000Y-75565000D03*
X133350000Y-75565000D03*
X139700000Y-87630000D03*
X139700000Y-91440000D03*
X139700000Y-95250000D03*
D22*
X122080000Y-90960000D03*
X122080000Y-91460000D03*
X122080000Y-91960000D03*
X122080000Y-92460000D03*
X122080000Y-92960000D03*
X122080000Y-93460000D03*
X122080000Y-93960000D03*
X122080000Y-94460000D03*
D23*
X122730000Y-95110000D03*
X123230000Y-95110000D03*
X123730000Y-95110000D03*
X124230000Y-95110000D03*
X124730000Y-95110000D03*
X125230000Y-95110000D03*
X125730000Y-95110000D03*
X126230000Y-95110000D03*
D22*
X126880000Y-94460000D03*
X126880000Y-93960000D03*
X126880000Y-93460000D03*
X126880000Y-92960000D03*
X126880000Y-92460000D03*
X126880000Y-91960000D03*
X126880000Y-91460000D03*
X126880000Y-90960000D03*
D23*
X126230000Y-90310000D03*
X125730000Y-90310000D03*
X125230000Y-90310000D03*
X124730000Y-90310000D03*
X124230000Y-90310000D03*
X123730000Y-90310000D03*
X123230000Y-90310000D03*
X122730000Y-90310000D03*
D24*
X125342500Y-93572500D03*
X125342500Y-91847500D03*
X123617500Y-93572500D03*
X123617500Y-91847500D03*
M02*
