%TF.GenerationSoftware,KiCad,Pcbnew,4.0.4+e1-6308~48~ubuntu16.04.1-stable*%
%TF.CreationDate,2016-10-27T02:56:18-07:00*%
%TF.ProjectId,CY8CMBR2010,435938434D4252323031302E6B696361,rev?*%
%TF.FileFunction,Paste,Top*%
%FSLAX46Y46*%
G04 Gerber Fmt 4.6, Leading zero omitted, Abs format (unit mm)*
G04 Created by KiCad (PCBNEW 4.0.4+e1-6308~48~ubuntu16.04.1-stable) date Thu Oct 27 02:56:18 2016*
%MOMM*%
%LPD*%
G01*
G04 APERTURE LIST*
%ADD10C,0.050000*%
%ADD11R,1.700000X2.000000*%
%ADD12R,1.600000X2.000000*%
%ADD13R,1.200000X0.750000*%
%ADD14R,2.000000X1.700000*%
%ADD15R,0.700000X0.250000*%
%ADD16R,0.250000X0.700000*%
%ADD17R,1.035000X1.035000*%
G04 APERTURE END LIST*
D10*
D11*
X142875000Y-114395000D03*
X142875000Y-110395000D03*
D12*
X119761000Y-79216000D03*
X119761000Y-75216000D03*
D13*
X116520000Y-88900000D03*
X114620000Y-88900000D03*
D14*
X112300000Y-95250000D03*
X116300000Y-95250000D03*
X112300000Y-91440000D03*
X116300000Y-91440000D03*
X112300000Y-86360000D03*
X116300000Y-86360000D03*
X112300000Y-82550000D03*
X116300000Y-82550000D03*
D11*
X125730000Y-78645000D03*
X125730000Y-82645000D03*
X129540000Y-78645000D03*
X129540000Y-82645000D03*
X133350000Y-78645000D03*
X133350000Y-82645000D03*
D14*
X136620000Y-87630000D03*
X132620000Y-87630000D03*
X136620000Y-91440000D03*
X132620000Y-91440000D03*
X136620000Y-95250000D03*
X132620000Y-95250000D03*
D11*
X116205000Y-114395000D03*
X116205000Y-110395000D03*
X120015000Y-111855000D03*
X120015000Y-107855000D03*
X122555000Y-114395000D03*
X122555000Y-110395000D03*
X131445000Y-114395000D03*
X131445000Y-110395000D03*
X125095000Y-110395000D03*
X125095000Y-114395000D03*
D14*
X114840000Y-99060000D03*
X118840000Y-99060000D03*
X117380000Y-101600000D03*
X121380000Y-101600000D03*
D11*
X140335000Y-114395000D03*
X140335000Y-110395000D03*
X133985000Y-114395000D03*
X133985000Y-110395000D03*
X113665000Y-114395000D03*
X113665000Y-110395000D03*
X107315000Y-110395000D03*
X107315000Y-114395000D03*
D12*
X122301000Y-79216000D03*
X122301000Y-75216000D03*
D15*
X122080000Y-90960000D03*
X122080000Y-91460000D03*
X122080000Y-91960000D03*
X122080000Y-92460000D03*
X122080000Y-92960000D03*
X122080000Y-93460000D03*
X122080000Y-93960000D03*
X122080000Y-94460000D03*
D16*
X122730000Y-95110000D03*
X123230000Y-95110000D03*
X123730000Y-95110000D03*
X124230000Y-95110000D03*
X124730000Y-95110000D03*
X125230000Y-95110000D03*
X125730000Y-95110000D03*
X126230000Y-95110000D03*
D15*
X126880000Y-94460000D03*
X126880000Y-93960000D03*
X126880000Y-93460000D03*
X126880000Y-92960000D03*
X126880000Y-92460000D03*
X126880000Y-91960000D03*
X126880000Y-91460000D03*
X126880000Y-90960000D03*
D16*
X126230000Y-90310000D03*
X125730000Y-90310000D03*
X125230000Y-90310000D03*
X124730000Y-90310000D03*
X124230000Y-90310000D03*
X123730000Y-90310000D03*
X123230000Y-90310000D03*
X122730000Y-90310000D03*
D17*
X125342500Y-93572500D03*
X125342500Y-91847500D03*
X123617500Y-93572500D03*
X123617500Y-91847500D03*
M02*
