M48
;DRILL file {KiCad 4.0.4+e1-6308~48~ubuntu16.04.1-stable} date Thu Oct 27 02:56:20 2016
;FORMAT={-:-/ absolute / metric / decimal}
FMAT,2
METRIC,TZ
T1C0.400
T2C1.016
%
G90
G05
M71
T1
X108.4Y-119.2
X112.Y-110.4
X117.72Y-96.78
X118.25Y-96.25
X119.Y-95.75
X119.8Y-95.6
X120.6Y-95.4
X120.8Y-103.2
X121.2Y-121.2
X121.412Y-95.25
X121.412Y-107.188
X123.617Y-91.847
X123.617Y-93.572
X125.343Y-91.847
X125.343Y-93.572
X127.508Y-95.25
X135.89Y-110.236
X144.6Y-110.3
T2
X107.95Y-117.475
X109.22Y-82.55
X109.22Y-86.36
X109.22Y-91.44
X109.22Y-95.25
X109.22Y-102.235
X110.49Y-114.935
X110.49Y-117.475
X110.49Y-120.015
X111.76Y-99.695
X111.76Y-102.235
X111.76Y-104.775
X113.03Y-117.475
X114.3Y-102.235
X116.586Y-75.946
X116.586Y-78.486
X116.84Y-117.475
X119.38Y-114.935
X119.38Y-117.475
X119.38Y-120.015
X121.92Y-117.475
X125.73Y-75.565
X125.73Y-117.475
X128.27Y-114.935
X128.27Y-117.475
X128.27Y-120.015
X129.54Y-75.565
X130.81Y-117.475
X133.35Y-75.565
X134.62Y-117.475
X137.16Y-75.565
X137.16Y-78.105
X137.16Y-114.3
X137.16Y-117.475
X137.16Y-120.015
X139.7Y-87.63
X139.7Y-91.44
X139.7Y-95.25
X139.7Y-117.475
X140.97Y-75.565
X143.51Y-117.475
X146.05Y-114.935
X146.05Y-117.475
X148.59Y-81.915
X148.59Y-84.455
X148.59Y-86.995
X148.59Y-89.535
X148.59Y-92.075
X148.59Y-94.615
X148.59Y-97.155
X148.59Y-99.695
X148.59Y-102.235
X148.59Y-104.775
X148.59Y-117.475
T0
M30
