G04 #@! TF.FileFunction,Soldermask,Bot*
%FSLAX46Y46*%
G04 Gerber Fmt 4.6, Leading zero omitted, Abs format (unit mm)*
G04 Created by KiCad (PCBNEW 4.0.4+e1-6308~48~ubuntu16.04.1-stable) date Thu Nov  3 23:12:30 2016*
%MOMM*%
%LPD*%
G01*
G04 APERTURE LIST*
%ADD10C,0.100000*%
%ADD11R,2.132000X2.132000*%
%ADD12O,2.132000X2.132000*%
%ADD13R,2.132000X1.827200*%
%ADD14O,2.132000X1.827200*%
%ADD15R,2.335200X2.335200*%
%ADD16R,1.827200X2.132000*%
%ADD17O,1.827200X2.132000*%
G04 APERTURE END LIST*
D10*
D11*
X116586000Y-78486000D03*
D12*
X116586000Y-75946000D03*
D11*
X137160000Y-75565000D03*
D12*
X137160000Y-78105000D03*
D13*
X148590000Y-104775000D03*
D14*
X148590000Y-102235000D03*
X148590000Y-99695000D03*
X148590000Y-97155000D03*
X148590000Y-94615000D03*
X148590000Y-92075000D03*
X148590000Y-89535000D03*
X148590000Y-86995000D03*
X148590000Y-84455000D03*
X148590000Y-81915000D03*
D15*
X140970000Y-75565000D03*
X146050000Y-114935000D03*
D16*
X148590000Y-117475000D03*
D17*
X146050000Y-117475000D03*
X143510000Y-117475000D03*
D15*
X119380000Y-120015000D03*
D16*
X116840000Y-117475000D03*
D17*
X119380000Y-117475000D03*
X121920000Y-117475000D03*
D15*
X119380000Y-114935000D03*
X128270000Y-120015000D03*
X109220000Y-102235000D03*
D16*
X125730000Y-117475000D03*
D17*
X128270000Y-117475000D03*
X130810000Y-117475000D03*
D13*
X111760000Y-99695000D03*
D14*
X111760000Y-102235000D03*
X111760000Y-104775000D03*
D15*
X128270000Y-114935000D03*
X114300000Y-102235000D03*
X137160000Y-120015000D03*
X110490000Y-120015000D03*
D16*
X139700000Y-117475000D03*
D17*
X137160000Y-117475000D03*
X134620000Y-117475000D03*
D16*
X107950000Y-117475000D03*
D17*
X110490000Y-117475000D03*
X113030000Y-117475000D03*
D15*
X137160000Y-114300000D03*
X110490000Y-114935000D03*
X109220000Y-95250000D03*
X109220000Y-91440000D03*
X109220000Y-86360000D03*
X109220000Y-82550000D03*
X125730000Y-75565000D03*
X129540000Y-75565000D03*
X133350000Y-75565000D03*
X139700000Y-87630000D03*
X139700000Y-91440000D03*
X139700000Y-95250000D03*
M02*
