G04 #@! TF.FileFunction,Legend,Top*
%FSLAX46Y46*%
G04 Gerber Fmt 4.6, Leading zero omitted, Abs format (unit mm)*
G04 Created by KiCad (PCBNEW 4.0.4+e1-6308~48~ubuntu16.04.1-stable) date Thu Nov  3 23:10:20 2016*
%MOMM*%
%LPD*%
G01*
G04 APERTURE LIST*
%ADD10C,0.100000*%
%ADD11C,0.300000*%
%ADD12C,0.312500*%
%ADD13C,0.250000*%
%ADD14C,0.150000*%
%ADD15R,2.400000X2.000000*%
%ADD16R,1.543000X0.908000*%
%ADD17R,2.432000X2.432000*%
%ADD18O,2.432000X2.432000*%
%ADD19R,2.000000X2.400000*%
G04 APERTURE END LIST*
D10*
D11*
X183142859Y-84535714D02*
X183071430Y-84607143D01*
X182857144Y-84678571D01*
X182714287Y-84678571D01*
X182500002Y-84607143D01*
X182357144Y-84464286D01*
X182285716Y-84321429D01*
X182214287Y-84035714D01*
X182214287Y-83821429D01*
X182285716Y-83535714D01*
X182357144Y-83392857D01*
X182500002Y-83250000D01*
X182714287Y-83178571D01*
X182857144Y-83178571D01*
X183071430Y-83250000D01*
X183142859Y-83321429D01*
X184071430Y-83964286D02*
X184071430Y-84678571D01*
X183571430Y-83178571D02*
X184071430Y-83964286D01*
X184571430Y-83178571D01*
X185285716Y-83821429D02*
X185142858Y-83750000D01*
X185071430Y-83678571D01*
X185000001Y-83535714D01*
X185000001Y-83464286D01*
X185071430Y-83321429D01*
X185142858Y-83250000D01*
X185285716Y-83178571D01*
X185571430Y-83178571D01*
X185714287Y-83250000D01*
X185785716Y-83321429D01*
X185857144Y-83464286D01*
X185857144Y-83535714D01*
X185785716Y-83678571D01*
X185714287Y-83750000D01*
X185571430Y-83821429D01*
X185285716Y-83821429D01*
X185142858Y-83892857D01*
X185071430Y-83964286D01*
X185000001Y-84107143D01*
X185000001Y-84392857D01*
X185071430Y-84535714D01*
X185142858Y-84607143D01*
X185285716Y-84678571D01*
X185571430Y-84678571D01*
X185714287Y-84607143D01*
X185785716Y-84535714D01*
X185857144Y-84392857D01*
X185857144Y-84107143D01*
X185785716Y-83964286D01*
X185714287Y-83892857D01*
X185571430Y-83821429D01*
X187357144Y-84535714D02*
X187285715Y-84607143D01*
X187071429Y-84678571D01*
X186928572Y-84678571D01*
X186714287Y-84607143D01*
X186571429Y-84464286D01*
X186500001Y-84321429D01*
X186428572Y-84035714D01*
X186428572Y-83821429D01*
X186500001Y-83535714D01*
X186571429Y-83392857D01*
X186714287Y-83250000D01*
X186928572Y-83178571D01*
X187071429Y-83178571D01*
X187285715Y-83250000D01*
X187357144Y-83321429D01*
X188000001Y-84678571D02*
X188000001Y-83178571D01*
X188500001Y-84250000D01*
X189000001Y-83178571D01*
X189000001Y-84678571D01*
X190214287Y-83892857D02*
X190428573Y-83964286D01*
X190500001Y-84035714D01*
X190571430Y-84178571D01*
X190571430Y-84392857D01*
X190500001Y-84535714D01*
X190428573Y-84607143D01*
X190285715Y-84678571D01*
X189714287Y-84678571D01*
X189714287Y-83178571D01*
X190214287Y-83178571D01*
X190357144Y-83250000D01*
X190428573Y-83321429D01*
X190500001Y-83464286D01*
X190500001Y-83607143D01*
X190428573Y-83750000D01*
X190357144Y-83821429D01*
X190214287Y-83892857D01*
X189714287Y-83892857D01*
X192071430Y-84678571D02*
X191571430Y-83964286D01*
X191214287Y-84678571D02*
X191214287Y-83178571D01*
X191785715Y-83178571D01*
X191928573Y-83250000D01*
X192000001Y-83321429D01*
X192071430Y-83464286D01*
X192071430Y-83678571D01*
X192000001Y-83821429D01*
X191928573Y-83892857D01*
X191785715Y-83964286D01*
X191214287Y-83964286D01*
X192571430Y-83178571D02*
X193500001Y-83178571D01*
X193000001Y-83750000D01*
X193214287Y-83750000D01*
X193357144Y-83821429D01*
X193428573Y-83892857D01*
X193500001Y-84035714D01*
X193500001Y-84392857D01*
X193428573Y-84535714D01*
X193357144Y-84607143D01*
X193214287Y-84678571D01*
X192785715Y-84678571D01*
X192642858Y-84607143D01*
X192571430Y-84535714D01*
X194428572Y-83178571D02*
X194571429Y-83178571D01*
X194714286Y-83250000D01*
X194785715Y-83321429D01*
X194857144Y-83464286D01*
X194928572Y-83750000D01*
X194928572Y-84107143D01*
X194857144Y-84392857D01*
X194785715Y-84535714D01*
X194714286Y-84607143D01*
X194571429Y-84678571D01*
X194428572Y-84678571D01*
X194285715Y-84607143D01*
X194214286Y-84535714D01*
X194142858Y-84392857D01*
X194071429Y-84107143D01*
X194071429Y-83750000D01*
X194142858Y-83464286D01*
X194214286Y-83321429D01*
X194285715Y-83250000D01*
X194428572Y-83178571D01*
X195857143Y-83178571D02*
X196000000Y-83178571D01*
X196142857Y-83250000D01*
X196214286Y-83321429D01*
X196285715Y-83464286D01*
X196357143Y-83750000D01*
X196357143Y-84107143D01*
X196285715Y-84392857D01*
X196214286Y-84535714D01*
X196142857Y-84607143D01*
X196000000Y-84678571D01*
X195857143Y-84678571D01*
X195714286Y-84607143D01*
X195642857Y-84535714D01*
X195571429Y-84392857D01*
X195500000Y-84107143D01*
X195500000Y-83750000D01*
X195571429Y-83464286D01*
X195642857Y-83321429D01*
X195714286Y-83250000D01*
X195857143Y-83178571D01*
X196928571Y-83321429D02*
X197000000Y-83250000D01*
X197142857Y-83178571D01*
X197500000Y-83178571D01*
X197642857Y-83250000D01*
X197714286Y-83321429D01*
X197785714Y-83464286D01*
X197785714Y-83607143D01*
X197714286Y-83821429D01*
X196857143Y-84678571D01*
X197785714Y-84678571D01*
D12*
X198445238Y-71265476D02*
X198445238Y-70015476D01*
X199040476Y-71265476D02*
X199040476Y-70015476D01*
X199754762Y-71265476D01*
X199754762Y-70015476D01*
D13*
X186152381Y-77233333D02*
X187152381Y-76900000D01*
X186152381Y-76566666D01*
X187152381Y-76233333D02*
X186152381Y-76233333D01*
X186152381Y-75995238D01*
X186200000Y-75852380D01*
X186295238Y-75757142D01*
X186390476Y-75709523D01*
X186580952Y-75661904D01*
X186723810Y-75661904D01*
X186914286Y-75709523D01*
X187009524Y-75757142D01*
X187104762Y-75852380D01*
X187152381Y-75995238D01*
X187152381Y-76233333D01*
X187152381Y-75233333D02*
X186152381Y-75233333D01*
X186152381Y-74995238D01*
X186200000Y-74852380D01*
X186295238Y-74757142D01*
X186390476Y-74709523D01*
X186580952Y-74661904D01*
X186723810Y-74661904D01*
X186914286Y-74709523D01*
X187009524Y-74757142D01*
X187104762Y-74852380D01*
X187152381Y-74995238D01*
X187152381Y-75233333D01*
D12*
X193000000Y-70015476D02*
X193238096Y-70015476D01*
X193357143Y-70075000D01*
X193476191Y-70194048D01*
X193535715Y-70432143D01*
X193535715Y-70848810D01*
X193476191Y-71086905D01*
X193357143Y-71205952D01*
X193238096Y-71265476D01*
X193000000Y-71265476D01*
X192880953Y-71205952D01*
X192761905Y-71086905D01*
X192702381Y-70848810D01*
X192702381Y-70432143D01*
X192761905Y-70194048D01*
X192880953Y-70075000D01*
X193000000Y-70015476D01*
X194071429Y-70015476D02*
X194071429Y-71027381D01*
X194130953Y-71146429D01*
X194190477Y-71205952D01*
X194309524Y-71265476D01*
X194547620Y-71265476D01*
X194666667Y-71205952D01*
X194726191Y-71146429D01*
X194785715Y-71027381D01*
X194785715Y-70015476D01*
X195202382Y-70015476D02*
X195916667Y-70015476D01*
X195559524Y-71265476D02*
X195559524Y-70015476D01*
D13*
X179100000Y-76661904D02*
X179052381Y-76757142D01*
X179052381Y-76899999D01*
X179100000Y-77042857D01*
X179195238Y-77138095D01*
X179290476Y-77185714D01*
X179480952Y-77233333D01*
X179623810Y-77233333D01*
X179814286Y-77185714D01*
X179909524Y-77138095D01*
X180004762Y-77042857D01*
X180052381Y-76899999D01*
X180052381Y-76804761D01*
X180004762Y-76661904D01*
X179957143Y-76614285D01*
X179623810Y-76614285D01*
X179623810Y-76804761D01*
X180052381Y-76185714D02*
X179052381Y-76185714D01*
X180052381Y-75614285D01*
X179052381Y-75614285D01*
X180052381Y-75138095D02*
X179052381Y-75138095D01*
X179052381Y-74900000D01*
X179100000Y-74757142D01*
X179195238Y-74661904D01*
X179290476Y-74614285D01*
X179480952Y-74566666D01*
X179623810Y-74566666D01*
X179814286Y-74614285D01*
X179909524Y-74661904D01*
X180004762Y-74757142D01*
X180052381Y-74900000D01*
X180052381Y-75138095D01*
D11*
X197228572Y-76478571D02*
X196371429Y-76478571D01*
X196800001Y-76478571D02*
X196800001Y-74978571D01*
X196657144Y-75192857D01*
X196514286Y-75335714D01*
X196371429Y-75407143D01*
X196678572Y-72428571D02*
X196821429Y-72428571D01*
X196964286Y-72500000D01*
X197035715Y-72571429D01*
X197107144Y-72714286D01*
X197178572Y-73000000D01*
X197178572Y-73357143D01*
X197107144Y-73642857D01*
X197035715Y-73785714D01*
X196964286Y-73857143D01*
X196821429Y-73928571D01*
X196678572Y-73928571D01*
X196535715Y-73857143D01*
X196464286Y-73785714D01*
X196392858Y-73642857D01*
X196321429Y-73357143D01*
X196321429Y-73000000D01*
X196392858Y-72714286D01*
X196464286Y-72571429D01*
X196535715Y-72500000D01*
X196678572Y-72428571D01*
D14*
X181250000Y-80025000D02*
X183250000Y-80025000D01*
X183250000Y-77975000D02*
X181250000Y-77975000D01*
X192286000Y-77460000D02*
X192286000Y-82540000D01*
X192286000Y-82540000D02*
X187714000Y-82540000D01*
X187714000Y-82540000D02*
X187714000Y-77460000D01*
X187714000Y-77460000D02*
X192286000Y-77460000D01*
X190762000Y-77460000D02*
X190762000Y-77968000D01*
X190762000Y-77968000D02*
X189492000Y-77968000D01*
X189492000Y-77968000D02*
X189492000Y-77460000D01*
X181250000Y-82525000D02*
X183250000Y-82525000D01*
X183250000Y-80475000D02*
X181250000Y-80475000D01*
X181250000Y-71525000D02*
X183250000Y-71525000D01*
X183250000Y-69475000D02*
X181250000Y-69475000D01*
X181250000Y-74025000D02*
X183250000Y-74025000D01*
X183250000Y-71975000D02*
X181250000Y-71975000D01*
X183220000Y-74730000D02*
X185760000Y-74730000D01*
X180400000Y-74450000D02*
X181950000Y-74450000D01*
X183220000Y-74730000D02*
X183220000Y-77270000D01*
X181950000Y-77550000D02*
X180400000Y-77550000D01*
X180400000Y-77550000D02*
X180400000Y-74450000D01*
X183220000Y-77270000D02*
X185760000Y-77270000D01*
X185760000Y-77270000D02*
X185760000Y-74730000D01*
X197930000Y-74530000D02*
X197930000Y-71990000D01*
X197650000Y-77350000D02*
X197650000Y-75800000D01*
X197930000Y-74530000D02*
X200470000Y-74530000D01*
X200750000Y-75800000D02*
X200750000Y-77350000D01*
X200750000Y-77350000D02*
X197650000Y-77350000D01*
X200470000Y-74530000D02*
X200470000Y-71990000D01*
X200470000Y-71990000D02*
X197930000Y-71990000D01*
X195670000Y-74530000D02*
X195670000Y-77070000D01*
X195950000Y-71710000D02*
X195950000Y-73260000D01*
X195670000Y-74530000D02*
X193130000Y-74530000D01*
X192850000Y-73260000D02*
X192850000Y-71710000D01*
X192850000Y-71710000D02*
X195950000Y-71710000D01*
X193130000Y-74530000D02*
X193130000Y-77070000D01*
X193130000Y-77070000D02*
X195670000Y-77070000D01*
X196450000Y-80025000D02*
X198450000Y-80025000D01*
X198450000Y-77975000D02*
X196450000Y-77975000D01*
X190025000Y-72100000D02*
X190025000Y-74100000D01*
X192075000Y-74100000D02*
X192075000Y-72100000D01*
X198450000Y-80475000D02*
X196450000Y-80475000D01*
X196450000Y-82525000D02*
X198450000Y-82525000D01*
X189675000Y-74100000D02*
X189675000Y-72100000D01*
X187625000Y-72100000D02*
X187625000Y-74100000D01*
X182557143Y-79166666D02*
X182604762Y-79214285D01*
X182652381Y-79357142D01*
X182652381Y-79452380D01*
X182604762Y-79595238D01*
X182509524Y-79690476D01*
X182414286Y-79738095D01*
X182223810Y-79785714D01*
X182080952Y-79785714D01*
X181890476Y-79738095D01*
X181795238Y-79690476D01*
X181700000Y-79595238D01*
X181652381Y-79452380D01*
X181652381Y-79357142D01*
X181700000Y-79214285D01*
X181747619Y-79166666D01*
X181747619Y-78785714D02*
X181700000Y-78738095D01*
X181652381Y-78642857D01*
X181652381Y-78404761D01*
X181700000Y-78309523D01*
X181747619Y-78261904D01*
X181842857Y-78214285D01*
X181938095Y-78214285D01*
X182080952Y-78261904D01*
X182652381Y-78833333D01*
X182652381Y-78214285D01*
X189238095Y-79452381D02*
X189238095Y-80261905D01*
X189285714Y-80357143D01*
X189333333Y-80404762D01*
X189428571Y-80452381D01*
X189619048Y-80452381D01*
X189714286Y-80404762D01*
X189761905Y-80357143D01*
X189809524Y-80261905D01*
X189809524Y-79452381D01*
X190809524Y-80452381D02*
X190238095Y-80452381D01*
X190523809Y-80452381D02*
X190523809Y-79452381D01*
X190428571Y-79595238D01*
X190333333Y-79690476D01*
X190238095Y-79738095D01*
X182557143Y-81666666D02*
X182604762Y-81714285D01*
X182652381Y-81857142D01*
X182652381Y-81952380D01*
X182604762Y-82095238D01*
X182509524Y-82190476D01*
X182414286Y-82238095D01*
X182223810Y-82285714D01*
X182080952Y-82285714D01*
X181890476Y-82238095D01*
X181795238Y-82190476D01*
X181700000Y-82095238D01*
X181652381Y-81952380D01*
X181652381Y-81857142D01*
X181700000Y-81714285D01*
X181747619Y-81666666D01*
X182652381Y-80714285D02*
X182652381Y-81285714D01*
X182652381Y-81000000D02*
X181652381Y-81000000D01*
X181795238Y-81095238D01*
X181890476Y-81190476D01*
X181938095Y-81285714D01*
X182557143Y-70666666D02*
X182604762Y-70714285D01*
X182652381Y-70857142D01*
X182652381Y-70952380D01*
X182604762Y-71095238D01*
X182509524Y-71190476D01*
X182414286Y-71238095D01*
X182223810Y-71285714D01*
X182080952Y-71285714D01*
X181890476Y-71238095D01*
X181795238Y-71190476D01*
X181700000Y-71095238D01*
X181652381Y-70952380D01*
X181652381Y-70857142D01*
X181700000Y-70714285D01*
X181747619Y-70666666D01*
X181652381Y-70333333D02*
X181652381Y-69714285D01*
X182033333Y-70047619D01*
X182033333Y-69904761D01*
X182080952Y-69809523D01*
X182128571Y-69761904D01*
X182223810Y-69714285D01*
X182461905Y-69714285D01*
X182557143Y-69761904D01*
X182604762Y-69809523D01*
X182652381Y-69904761D01*
X182652381Y-70190476D01*
X182604762Y-70285714D01*
X182557143Y-70333333D01*
X182557143Y-73166666D02*
X182604762Y-73214285D01*
X182652381Y-73357142D01*
X182652381Y-73452380D01*
X182604762Y-73595238D01*
X182509524Y-73690476D01*
X182414286Y-73738095D01*
X182223810Y-73785714D01*
X182080952Y-73785714D01*
X181890476Y-73738095D01*
X181795238Y-73690476D01*
X181700000Y-73595238D01*
X181652381Y-73452380D01*
X181652381Y-73357142D01*
X181700000Y-73214285D01*
X181747619Y-73166666D01*
X181985714Y-72309523D02*
X182652381Y-72309523D01*
X181604762Y-72547619D02*
X182319048Y-72785714D01*
X182319048Y-72166666D01*
X197852381Y-79166666D02*
X197376190Y-79500000D01*
X197852381Y-79738095D02*
X196852381Y-79738095D01*
X196852381Y-79357142D01*
X196900000Y-79261904D01*
X196947619Y-79214285D01*
X197042857Y-79166666D01*
X197185714Y-79166666D01*
X197280952Y-79214285D01*
X197328571Y-79261904D01*
X197376190Y-79357142D01*
X197376190Y-79738095D01*
X197852381Y-78214285D02*
X197852381Y-78785714D01*
X197852381Y-78500000D02*
X196852381Y-78500000D01*
X196995238Y-78595238D01*
X197090476Y-78690476D01*
X197138095Y-78785714D01*
X190833334Y-73552381D02*
X190500000Y-73076190D01*
X190261905Y-73552381D02*
X190261905Y-72552381D01*
X190642858Y-72552381D01*
X190738096Y-72600000D01*
X190785715Y-72647619D01*
X190833334Y-72742857D01*
X190833334Y-72885714D01*
X190785715Y-72980952D01*
X190738096Y-73028571D01*
X190642858Y-73076190D01*
X190261905Y-73076190D01*
X191214286Y-72647619D02*
X191261905Y-72600000D01*
X191357143Y-72552381D01*
X191595239Y-72552381D01*
X191690477Y-72600000D01*
X191738096Y-72647619D01*
X191785715Y-72742857D01*
X191785715Y-72838095D01*
X191738096Y-72980952D01*
X191166667Y-73552381D01*
X191785715Y-73552381D01*
X197852381Y-81666666D02*
X197376190Y-82000000D01*
X197852381Y-82238095D02*
X196852381Y-82238095D01*
X196852381Y-81857142D01*
X196900000Y-81761904D01*
X196947619Y-81714285D01*
X197042857Y-81666666D01*
X197185714Y-81666666D01*
X197280952Y-81714285D01*
X197328571Y-81761904D01*
X197376190Y-81857142D01*
X197376190Y-82238095D01*
X196852381Y-81333333D02*
X196852381Y-80714285D01*
X197233333Y-81047619D01*
X197233333Y-80904761D01*
X197280952Y-80809523D01*
X197328571Y-80761904D01*
X197423810Y-80714285D01*
X197661905Y-80714285D01*
X197757143Y-80761904D01*
X197804762Y-80809523D01*
X197852381Y-80904761D01*
X197852381Y-81190476D01*
X197804762Y-81285714D01*
X197757143Y-81333333D01*
X188433334Y-73552381D02*
X188100000Y-73076190D01*
X187861905Y-73552381D02*
X187861905Y-72552381D01*
X188242858Y-72552381D01*
X188338096Y-72600000D01*
X188385715Y-72647619D01*
X188433334Y-72742857D01*
X188433334Y-72885714D01*
X188385715Y-72980952D01*
X188338096Y-73028571D01*
X188242858Y-73076190D01*
X187861905Y-73076190D01*
X189290477Y-72885714D02*
X189290477Y-73552381D01*
X189052381Y-72504762D02*
X188814286Y-73219048D01*
X189433334Y-73219048D01*
%LPC*%
D15*
X184250000Y-79000000D03*
X180250000Y-79000000D03*
D16*
X193175000Y-78095000D03*
X193175000Y-79365000D03*
X193175000Y-80635000D03*
X193175000Y-81905000D03*
X186825000Y-81905000D03*
X186825000Y-80635000D03*
X186825000Y-79365000D03*
X186825000Y-78095000D03*
D15*
X184250000Y-81500000D03*
X180250000Y-81500000D03*
X184250000Y-70500000D03*
X180250000Y-70500000D03*
X184250000Y-73000000D03*
X180250000Y-73000000D03*
D17*
X181950000Y-76000000D03*
D18*
X184490000Y-76000000D03*
D17*
X199200000Y-75800000D03*
D18*
X199200000Y-73260000D03*
D17*
X194400000Y-73260000D03*
D18*
X194400000Y-75800000D03*
D15*
X199450000Y-79000000D03*
X195450000Y-79000000D03*
D19*
X191050000Y-75100000D03*
X191050000Y-71100000D03*
D15*
X195450000Y-81500000D03*
X199450000Y-81500000D03*
D19*
X188650000Y-71100000D03*
X188650000Y-75100000D03*
M02*
