%TF.GenerationSoftware,KiCad,Pcbnew,4.0.4+e1-6308~48~ubuntu16.04.1-stable*%
%TF.CreationDate,2016-10-26T09:29:44-07:00*%
%TF.ProjectId,azoteq_IQS127D-00000TSR,617A6F7465715F495153313237442D30,rev?*%
%TF.FileFunction,Legend,Top*%
%FSLAX46Y46*%
G04 Gerber Fmt 4.6, Leading zero omitted, Abs format (unit mm)*
G04 Created by KiCad (PCBNEW 4.0.4+e1-6308~48~ubuntu16.04.1-stable) date Wed Oct 26 09:29:44 2016*
%MOMM*%
%LPD*%
G01*
G04 APERTURE LIST*
%ADD10C,0.100000*%
%ADD11C,0.250000*%
%ADD12C,0.150000*%
%ADD13R,2.400000X2.000000*%
%ADD14R,2.432000X2.127200*%
%ADD15O,2.432000X2.127200*%
%ADD16R,2.432000X2.432000*%
%ADD17O,2.432000X2.432000*%
%ADD18R,2.400000X2.100000*%
%ADD19R,1.460000X1.050000*%
G04 APERTURE END LIST*
D10*
D11*
X139821429Y-108652381D02*
X139821429Y-107652381D01*
X140964286Y-108747619D02*
X140869048Y-108700000D01*
X140773810Y-108604762D01*
X140630953Y-108461905D01*
X140535714Y-108414286D01*
X140440476Y-108414286D01*
X140488095Y-108652381D02*
X140392857Y-108604762D01*
X140297619Y-108509524D01*
X140250000Y-108319048D01*
X140250000Y-107985714D01*
X140297619Y-107795238D01*
X140392857Y-107700000D01*
X140488095Y-107652381D01*
X140678572Y-107652381D01*
X140773810Y-107700000D01*
X140869048Y-107795238D01*
X140916667Y-107985714D01*
X140916667Y-108319048D01*
X140869048Y-108509524D01*
X140773810Y-108604762D01*
X140678572Y-108652381D01*
X140488095Y-108652381D01*
X141297619Y-108604762D02*
X141440476Y-108652381D01*
X141678572Y-108652381D01*
X141773810Y-108604762D01*
X141821429Y-108557143D01*
X141869048Y-108461905D01*
X141869048Y-108366667D01*
X141821429Y-108271429D01*
X141773810Y-108223810D01*
X141678572Y-108176190D01*
X141488095Y-108128571D01*
X141392857Y-108080952D01*
X141345238Y-108033333D01*
X141297619Y-107938095D01*
X141297619Y-107842857D01*
X141345238Y-107747619D01*
X141392857Y-107700000D01*
X141488095Y-107652381D01*
X141726191Y-107652381D01*
X141869048Y-107700000D01*
X142821429Y-108652381D02*
X142250000Y-108652381D01*
X142535714Y-108652381D02*
X142535714Y-107652381D01*
X142440476Y-107795238D01*
X142345238Y-107890476D01*
X142250000Y-107938095D01*
X143202381Y-107747619D02*
X143250000Y-107700000D01*
X143345238Y-107652381D01*
X143583334Y-107652381D01*
X143678572Y-107700000D01*
X143726191Y-107747619D01*
X143773810Y-107842857D01*
X143773810Y-107938095D01*
X143726191Y-108080952D01*
X143154762Y-108652381D01*
X143773810Y-108652381D01*
X144107143Y-107652381D02*
X144773810Y-107652381D01*
X144345238Y-108652381D01*
X145154762Y-108652381D02*
X145154762Y-107652381D01*
X145392857Y-107652381D01*
X145535715Y-107700000D01*
X145630953Y-107795238D01*
X145678572Y-107890476D01*
X145726191Y-108080952D01*
X145726191Y-108223810D01*
X145678572Y-108414286D01*
X145630953Y-108509524D01*
X145535715Y-108604762D01*
X145392857Y-108652381D01*
X145154762Y-108652381D01*
D12*
X139882143Y-102767857D02*
X139846429Y-102803571D01*
X139739286Y-102839286D01*
X139667857Y-102839286D01*
X139560714Y-102803571D01*
X139489286Y-102732143D01*
X139453571Y-102660714D01*
X139417857Y-102517857D01*
X139417857Y-102410714D01*
X139453571Y-102267857D01*
X139489286Y-102196429D01*
X139560714Y-102125000D01*
X139667857Y-102089286D01*
X139739286Y-102089286D01*
X139846429Y-102125000D01*
X139882143Y-102160714D01*
X139253571Y-107739286D02*
X139253571Y-106989286D01*
X139539286Y-106989286D01*
X139610714Y-107025000D01*
X139646429Y-107060714D01*
X139682143Y-107132143D01*
X139682143Y-107239286D01*
X139646429Y-107310714D01*
X139610714Y-107346429D01*
X139539286Y-107382143D01*
X139253571Y-107382143D01*
X139235715Y-104389286D02*
X139664286Y-104389286D01*
X139450000Y-105139286D02*
X139450000Y-104389286D01*
X150250000Y-104175000D02*
X148250000Y-104175000D01*
X148250000Y-106225000D02*
X150250000Y-106225000D01*
X150250000Y-106675000D02*
X148250000Y-106675000D01*
X148250000Y-108725000D02*
X150250000Y-108725000D01*
X136380000Y-103590000D02*
X136380000Y-108670000D01*
X136380000Y-108670000D02*
X138920000Y-108670000D01*
X138920000Y-108670000D02*
X138920000Y-103590000D01*
X139200000Y-100770000D02*
X139200000Y-102320000D01*
X138920000Y-103590000D02*
X136380000Y-103590000D01*
X136100000Y-102320000D02*
X136100000Y-100770000D01*
X136100000Y-100770000D02*
X139200000Y-100770000D01*
X149730000Y-103470000D02*
X147190000Y-103470000D01*
X152550000Y-103750000D02*
X151000000Y-103750000D01*
X149730000Y-103470000D02*
X149730000Y-100930000D01*
X151000000Y-100650000D02*
X152550000Y-100650000D01*
X152550000Y-100650000D02*
X152550000Y-103750000D01*
X149730000Y-100930000D02*
X147190000Y-100930000D01*
X147190000Y-100930000D02*
X147190000Y-103470000D01*
X142400000Y-100925000D02*
X144400000Y-100925000D01*
X144400000Y-103075000D02*
X142400000Y-103075000D01*
X142400000Y-104200000D02*
G75*
G03X142400000Y-104200000I-100000J0D01*
G01*
X142950000Y-104450000D02*
X142450000Y-104450000D01*
X142950000Y-107350000D02*
X142950000Y-104450000D01*
X142450000Y-107350000D02*
X142950000Y-107350000D01*
X142450000Y-104450000D02*
X142450000Y-107350000D01*
X149075000Y-105467857D02*
X149039286Y-105503571D01*
X148932143Y-105539286D01*
X148860714Y-105539286D01*
X148753571Y-105503571D01*
X148682143Y-105432143D01*
X148646428Y-105360714D01*
X148610714Y-105217857D01*
X148610714Y-105110714D01*
X148646428Y-104967857D01*
X148682143Y-104896429D01*
X148753571Y-104825000D01*
X148860714Y-104789286D01*
X148932143Y-104789286D01*
X149039286Y-104825000D01*
X149075000Y-104860714D01*
X149789286Y-105539286D02*
X149360714Y-105539286D01*
X149575000Y-105539286D02*
X149575000Y-104789286D01*
X149503571Y-104896429D01*
X149432143Y-104967857D01*
X149360714Y-105003571D01*
X149075000Y-107967857D02*
X149039286Y-108003571D01*
X148932143Y-108039286D01*
X148860714Y-108039286D01*
X148753571Y-108003571D01*
X148682143Y-107932143D01*
X148646428Y-107860714D01*
X148610714Y-107717857D01*
X148610714Y-107610714D01*
X148646428Y-107467857D01*
X148682143Y-107396429D01*
X148753571Y-107325000D01*
X148860714Y-107289286D01*
X148932143Y-107289286D01*
X149039286Y-107325000D01*
X149075000Y-107360714D01*
X149360714Y-107360714D02*
X149396428Y-107325000D01*
X149467857Y-107289286D01*
X149646428Y-107289286D01*
X149717857Y-107325000D01*
X149753571Y-107360714D01*
X149789286Y-107432143D01*
X149789286Y-107503571D01*
X149753571Y-107610714D01*
X149325000Y-108039286D01*
X149789286Y-108039286D01*
X143275000Y-102339286D02*
X143025000Y-101982143D01*
X142846428Y-102339286D02*
X142846428Y-101589286D01*
X143132143Y-101589286D01*
X143203571Y-101625000D01*
X143239286Y-101660714D01*
X143275000Y-101732143D01*
X143275000Y-101839286D01*
X143239286Y-101910714D01*
X143203571Y-101946429D01*
X143132143Y-101982143D01*
X142846428Y-101982143D01*
X143989286Y-102339286D02*
X143560714Y-102339286D01*
X143775000Y-102339286D02*
X143775000Y-101589286D01*
X143703571Y-101696429D01*
X143632143Y-101767857D01*
X143560714Y-101803571D01*
X140628571Y-103439286D02*
X140628571Y-104046429D01*
X140664286Y-104117857D01*
X140700000Y-104153571D01*
X140771429Y-104189286D01*
X140914286Y-104189286D01*
X140985714Y-104153571D01*
X141021429Y-104117857D01*
X141057143Y-104046429D01*
X141057143Y-103439286D01*
X141807143Y-104189286D02*
X141378571Y-104189286D01*
X141592857Y-104189286D02*
X141592857Y-103439286D01*
X141521428Y-103546429D01*
X141450000Y-103617857D01*
X141378571Y-103653571D01*
%LPC*%
D13*
X147250000Y-105200000D03*
X151250000Y-105200000D03*
X147250000Y-107700000D03*
X151250000Y-107700000D03*
D14*
X137650000Y-102320000D03*
D15*
X137650000Y-104860000D03*
X137650000Y-107400000D03*
D16*
X151000000Y-102200000D03*
D17*
X148460000Y-102200000D03*
D18*
X145400000Y-102000000D03*
X141400000Y-102000000D03*
D19*
X141600000Y-104950000D03*
X141600000Y-105900000D03*
X141600000Y-106850000D03*
X143800000Y-106850000D03*
X143800000Y-104950000D03*
X143800000Y-105900000D03*
M02*
