%TF.GenerationSoftware,KiCad,Pcbnew,4.0.4+e1-6308~48~ubuntu16.04.1-stable*%
%TF.CreationDate,2016-10-27T02:54:46-07:00*%
%TF.ProjectId,envelope-gen_LM358_DIP,656E76656C6F70652D67656E5F4C4D33,rev?*%
%TF.FileFunction,Copper,L2,Bot,Signal*%
%FSLAX46Y46*%
G04 Gerber Fmt 4.6, Leading zero omitted, Abs format (unit mm)*
G04 Created by KiCad (PCBNEW 4.0.4+e1-6308~48~ubuntu16.04.1-stable) date Thu Oct 27 02:54:46 2016*
%MOMM*%
%LPD*%
G01*
G04 APERTURE LIST*
%ADD10C,0.100000*%
%ADD11R,2.235200X2.235200*%
%ADD12O,1.600000X1.600000*%
%ADD13C,0.600000*%
%ADD14C,0.250000*%
%ADD15C,0.254000*%
G04 APERTURE END LIST*
D10*
D11*
X177241200Y-61620400D03*
D12*
X180880000Y-62420000D03*
X180880000Y-64960000D03*
X180880000Y-67500000D03*
X180880000Y-70040000D03*
X188500000Y-70040000D03*
X188500000Y-67500000D03*
X188500000Y-64960000D03*
X188500000Y-62420000D03*
D11*
X194360800Y-59690000D03*
X194360800Y-57150000D03*
X194360800Y-62230000D03*
X179100000Y-57850000D03*
X182700000Y-51300000D03*
D13*
X174000000Y-72250000D03*
X173500000Y-67250000D03*
X194000000Y-68750000D03*
X190500000Y-53250000D03*
X189250000Y-58250000D03*
X178250000Y-67500000D03*
X190250000Y-66500000D03*
D14*
X179500000Y-66250000D02*
X178250000Y-67500000D01*
X179750000Y-66250000D02*
X179500000Y-66250000D01*
X184670000Y-66250000D02*
X179750000Y-66250000D01*
X188500000Y-62420000D02*
X184670000Y-66250000D01*
X190250000Y-66500000D02*
X190250000Y-64170000D01*
X190250000Y-64170000D02*
X188500000Y-62420000D01*
D15*
G36*
X195815000Y-55493849D02*
X195730290Y-55435969D01*
X195478400Y-55384960D01*
X193243200Y-55384960D01*
X193007883Y-55429238D01*
X192791759Y-55568310D01*
X192646769Y-55780510D01*
X192595760Y-56032400D01*
X192595760Y-58267600D01*
X192622740Y-58410987D01*
X192608200Y-58446090D01*
X192608200Y-59404250D01*
X192766950Y-59563000D01*
X194233800Y-59563000D01*
X194233800Y-59543000D01*
X194487800Y-59543000D01*
X194487800Y-59563000D01*
X194507800Y-59563000D01*
X194507800Y-59817000D01*
X194487800Y-59817000D01*
X194487800Y-59837000D01*
X194233800Y-59837000D01*
X194233800Y-59817000D01*
X192766950Y-59817000D01*
X192608200Y-59975750D01*
X192608200Y-60933910D01*
X192624121Y-60972347D01*
X192595760Y-61112400D01*
X192595760Y-63347600D01*
X192640038Y-63582917D01*
X192779110Y-63799041D01*
X192991310Y-63944031D01*
X193243200Y-63995040D01*
X195478400Y-63995040D01*
X195713717Y-63950762D01*
X195815000Y-63885588D01*
X195815000Y-72315000D01*
X172185000Y-72315000D01*
X172185000Y-70389039D01*
X179488096Y-70389039D01*
X179648959Y-70777423D01*
X180024866Y-71192389D01*
X180530959Y-71431914D01*
X180753000Y-71310629D01*
X180753000Y-70167000D01*
X181007000Y-70167000D01*
X181007000Y-71310629D01*
X181229041Y-71431914D01*
X181735134Y-71192389D01*
X182111041Y-70777423D01*
X182271904Y-70389039D01*
X182149915Y-70167000D01*
X181007000Y-70167000D01*
X180753000Y-70167000D01*
X179610085Y-70167000D01*
X179488096Y-70389039D01*
X172185000Y-70389039D01*
X172185000Y-67685167D01*
X177314838Y-67685167D01*
X177456883Y-68028943D01*
X177719673Y-68292192D01*
X178063201Y-68434838D01*
X178435167Y-68435162D01*
X178778943Y-68293117D01*
X179042192Y-68030327D01*
X179184838Y-67686799D01*
X179184879Y-67639923D01*
X179439752Y-67385050D01*
X179416887Y-67500000D01*
X179526120Y-68049151D01*
X179837189Y-68514698D01*
X180241703Y-68784986D01*
X180024866Y-68887611D01*
X179648959Y-69302577D01*
X179488096Y-69690961D01*
X179610085Y-69913000D01*
X180753000Y-69913000D01*
X180753000Y-69893000D01*
X181007000Y-69893000D01*
X181007000Y-69913000D01*
X182149915Y-69913000D01*
X182271904Y-69690961D01*
X182111041Y-69302577D01*
X181735134Y-68887611D01*
X181518297Y-68784986D01*
X181922811Y-68514698D01*
X182233880Y-68049151D01*
X182343113Y-67500000D01*
X182245646Y-67010000D01*
X184670000Y-67010000D01*
X184960839Y-66952148D01*
X185207401Y-66787401D01*
X187037405Y-64957397D01*
X187036887Y-64960000D01*
X187146120Y-65509151D01*
X187457189Y-65974698D01*
X187839275Y-66230000D01*
X187457189Y-66485302D01*
X187146120Y-66950849D01*
X187036887Y-67500000D01*
X187146120Y-68049151D01*
X187457189Y-68514698D01*
X187839275Y-68770000D01*
X187457189Y-69025302D01*
X187146120Y-69490849D01*
X187036887Y-70040000D01*
X187146120Y-70589151D01*
X187457189Y-71054698D01*
X187922736Y-71365767D01*
X188471887Y-71475000D01*
X188528113Y-71475000D01*
X189077264Y-71365767D01*
X189542811Y-71054698D01*
X189853880Y-70589151D01*
X189963113Y-70040000D01*
X189853880Y-69490849D01*
X189542811Y-69025302D01*
X189160725Y-68770000D01*
X189542811Y-68514698D01*
X189853880Y-68049151D01*
X189963113Y-67500000D01*
X189939973Y-67383669D01*
X190063201Y-67434838D01*
X190435167Y-67435162D01*
X190778943Y-67293117D01*
X191042192Y-67030327D01*
X191184838Y-66686799D01*
X191185162Y-66314833D01*
X191043117Y-65971057D01*
X191010000Y-65937882D01*
X191010000Y-64170000D01*
X190952148Y-63879161D01*
X190787401Y-63632599D01*
X189898688Y-62743886D01*
X189963113Y-62420000D01*
X189853880Y-61870849D01*
X189542811Y-61405302D01*
X189077264Y-61094233D01*
X188528113Y-60985000D01*
X188471887Y-60985000D01*
X187922736Y-61094233D01*
X187457189Y-61405302D01*
X187146120Y-61870849D01*
X187036887Y-62420000D01*
X187101312Y-62743886D01*
X184355198Y-65490000D01*
X182237689Y-65490000D01*
X182343113Y-64960000D01*
X182233880Y-64410849D01*
X181922811Y-63945302D01*
X181540725Y-63690000D01*
X181922811Y-63434698D01*
X182233880Y-62969151D01*
X182343113Y-62420000D01*
X182233880Y-61870849D01*
X181922811Y-61405302D01*
X181457264Y-61094233D01*
X180908113Y-60985000D01*
X180851887Y-60985000D01*
X180302736Y-61094233D01*
X179837189Y-61405302D01*
X179526120Y-61870849D01*
X179416887Y-62420000D01*
X179526120Y-62969151D01*
X179837189Y-63434698D01*
X180219275Y-63690000D01*
X179837189Y-63945302D01*
X179526120Y-64410849D01*
X179416887Y-64960000D01*
X179522311Y-65490000D01*
X179500000Y-65490000D01*
X179209161Y-65547852D01*
X178962599Y-65712599D01*
X178110320Y-66564878D01*
X178064833Y-66564838D01*
X177721057Y-66706883D01*
X177457808Y-66969673D01*
X177315162Y-67313201D01*
X177314838Y-67685167D01*
X172185000Y-67685167D01*
X172185000Y-60502800D01*
X175476160Y-60502800D01*
X175476160Y-62738000D01*
X175520438Y-62973317D01*
X175659510Y-63189441D01*
X175871710Y-63334431D01*
X176123600Y-63385440D01*
X178358800Y-63385440D01*
X178594117Y-63341162D01*
X178810241Y-63202090D01*
X178955231Y-62989890D01*
X179006240Y-62738000D01*
X179006240Y-60502800D01*
X178961962Y-60267483D01*
X178822890Y-60051359D01*
X178610690Y-59906369D01*
X178358800Y-59855360D01*
X176123600Y-59855360D01*
X175888283Y-59899638D01*
X175672159Y-60038710D01*
X175527169Y-60250910D01*
X175476160Y-60502800D01*
X172185000Y-60502800D01*
X172185000Y-56732400D01*
X177334960Y-56732400D01*
X177334960Y-58967600D01*
X177379238Y-59202917D01*
X177518310Y-59419041D01*
X177730510Y-59564031D01*
X177982400Y-59615040D01*
X180217600Y-59615040D01*
X180452917Y-59570762D01*
X180669041Y-59431690D01*
X180814031Y-59219490D01*
X180865040Y-58967600D01*
X180865040Y-56732400D01*
X180820762Y-56497083D01*
X180681690Y-56280959D01*
X180469490Y-56135969D01*
X180217600Y-56084960D01*
X177982400Y-56084960D01*
X177747083Y-56129238D01*
X177530959Y-56268310D01*
X177385969Y-56480510D01*
X177334960Y-56732400D01*
X172185000Y-56732400D01*
X172185000Y-50182400D01*
X180934960Y-50182400D01*
X180934960Y-52417600D01*
X180979238Y-52652917D01*
X181118310Y-52869041D01*
X181330510Y-53014031D01*
X181582400Y-53065040D01*
X183817600Y-53065040D01*
X184052917Y-53020762D01*
X184269041Y-52881690D01*
X184414031Y-52669490D01*
X184465040Y-52417600D01*
X184465040Y-50182400D01*
X184420762Y-49947083D01*
X184281690Y-49730959D01*
X184069490Y-49585969D01*
X183817600Y-49534960D01*
X181582400Y-49534960D01*
X181347083Y-49579238D01*
X181130959Y-49718310D01*
X180985969Y-49930510D01*
X180934960Y-50182400D01*
X172185000Y-50182400D01*
X172185000Y-46685000D01*
X195815000Y-46685000D01*
X195815000Y-55493849D01*
X195815000Y-55493849D01*
G37*
X195815000Y-55493849D02*
X195730290Y-55435969D01*
X195478400Y-55384960D01*
X193243200Y-55384960D01*
X193007883Y-55429238D01*
X192791759Y-55568310D01*
X192646769Y-55780510D01*
X192595760Y-56032400D01*
X192595760Y-58267600D01*
X192622740Y-58410987D01*
X192608200Y-58446090D01*
X192608200Y-59404250D01*
X192766950Y-59563000D01*
X194233800Y-59563000D01*
X194233800Y-59543000D01*
X194487800Y-59543000D01*
X194487800Y-59563000D01*
X194507800Y-59563000D01*
X194507800Y-59817000D01*
X194487800Y-59817000D01*
X194487800Y-59837000D01*
X194233800Y-59837000D01*
X194233800Y-59817000D01*
X192766950Y-59817000D01*
X192608200Y-59975750D01*
X192608200Y-60933910D01*
X192624121Y-60972347D01*
X192595760Y-61112400D01*
X192595760Y-63347600D01*
X192640038Y-63582917D01*
X192779110Y-63799041D01*
X192991310Y-63944031D01*
X193243200Y-63995040D01*
X195478400Y-63995040D01*
X195713717Y-63950762D01*
X195815000Y-63885588D01*
X195815000Y-72315000D01*
X172185000Y-72315000D01*
X172185000Y-70389039D01*
X179488096Y-70389039D01*
X179648959Y-70777423D01*
X180024866Y-71192389D01*
X180530959Y-71431914D01*
X180753000Y-71310629D01*
X180753000Y-70167000D01*
X181007000Y-70167000D01*
X181007000Y-71310629D01*
X181229041Y-71431914D01*
X181735134Y-71192389D01*
X182111041Y-70777423D01*
X182271904Y-70389039D01*
X182149915Y-70167000D01*
X181007000Y-70167000D01*
X180753000Y-70167000D01*
X179610085Y-70167000D01*
X179488096Y-70389039D01*
X172185000Y-70389039D01*
X172185000Y-67685167D01*
X177314838Y-67685167D01*
X177456883Y-68028943D01*
X177719673Y-68292192D01*
X178063201Y-68434838D01*
X178435167Y-68435162D01*
X178778943Y-68293117D01*
X179042192Y-68030327D01*
X179184838Y-67686799D01*
X179184879Y-67639923D01*
X179439752Y-67385050D01*
X179416887Y-67500000D01*
X179526120Y-68049151D01*
X179837189Y-68514698D01*
X180241703Y-68784986D01*
X180024866Y-68887611D01*
X179648959Y-69302577D01*
X179488096Y-69690961D01*
X179610085Y-69913000D01*
X180753000Y-69913000D01*
X180753000Y-69893000D01*
X181007000Y-69893000D01*
X181007000Y-69913000D01*
X182149915Y-69913000D01*
X182271904Y-69690961D01*
X182111041Y-69302577D01*
X181735134Y-68887611D01*
X181518297Y-68784986D01*
X181922811Y-68514698D01*
X182233880Y-68049151D01*
X182343113Y-67500000D01*
X182245646Y-67010000D01*
X184670000Y-67010000D01*
X184960839Y-66952148D01*
X185207401Y-66787401D01*
X187037405Y-64957397D01*
X187036887Y-64960000D01*
X187146120Y-65509151D01*
X187457189Y-65974698D01*
X187839275Y-66230000D01*
X187457189Y-66485302D01*
X187146120Y-66950849D01*
X187036887Y-67500000D01*
X187146120Y-68049151D01*
X187457189Y-68514698D01*
X187839275Y-68770000D01*
X187457189Y-69025302D01*
X187146120Y-69490849D01*
X187036887Y-70040000D01*
X187146120Y-70589151D01*
X187457189Y-71054698D01*
X187922736Y-71365767D01*
X188471887Y-71475000D01*
X188528113Y-71475000D01*
X189077264Y-71365767D01*
X189542811Y-71054698D01*
X189853880Y-70589151D01*
X189963113Y-70040000D01*
X189853880Y-69490849D01*
X189542811Y-69025302D01*
X189160725Y-68770000D01*
X189542811Y-68514698D01*
X189853880Y-68049151D01*
X189963113Y-67500000D01*
X189939973Y-67383669D01*
X190063201Y-67434838D01*
X190435167Y-67435162D01*
X190778943Y-67293117D01*
X191042192Y-67030327D01*
X191184838Y-66686799D01*
X191185162Y-66314833D01*
X191043117Y-65971057D01*
X191010000Y-65937882D01*
X191010000Y-64170000D01*
X190952148Y-63879161D01*
X190787401Y-63632599D01*
X189898688Y-62743886D01*
X189963113Y-62420000D01*
X189853880Y-61870849D01*
X189542811Y-61405302D01*
X189077264Y-61094233D01*
X188528113Y-60985000D01*
X188471887Y-60985000D01*
X187922736Y-61094233D01*
X187457189Y-61405302D01*
X187146120Y-61870849D01*
X187036887Y-62420000D01*
X187101312Y-62743886D01*
X184355198Y-65490000D01*
X182237689Y-65490000D01*
X182343113Y-64960000D01*
X182233880Y-64410849D01*
X181922811Y-63945302D01*
X181540725Y-63690000D01*
X181922811Y-63434698D01*
X182233880Y-62969151D01*
X182343113Y-62420000D01*
X182233880Y-61870849D01*
X181922811Y-61405302D01*
X181457264Y-61094233D01*
X180908113Y-60985000D01*
X180851887Y-60985000D01*
X180302736Y-61094233D01*
X179837189Y-61405302D01*
X179526120Y-61870849D01*
X179416887Y-62420000D01*
X179526120Y-62969151D01*
X179837189Y-63434698D01*
X180219275Y-63690000D01*
X179837189Y-63945302D01*
X179526120Y-64410849D01*
X179416887Y-64960000D01*
X179522311Y-65490000D01*
X179500000Y-65490000D01*
X179209161Y-65547852D01*
X178962599Y-65712599D01*
X178110320Y-66564878D01*
X178064833Y-66564838D01*
X177721057Y-66706883D01*
X177457808Y-66969673D01*
X177315162Y-67313201D01*
X177314838Y-67685167D01*
X172185000Y-67685167D01*
X172185000Y-60502800D01*
X175476160Y-60502800D01*
X175476160Y-62738000D01*
X175520438Y-62973317D01*
X175659510Y-63189441D01*
X175871710Y-63334431D01*
X176123600Y-63385440D01*
X178358800Y-63385440D01*
X178594117Y-63341162D01*
X178810241Y-63202090D01*
X178955231Y-62989890D01*
X179006240Y-62738000D01*
X179006240Y-60502800D01*
X178961962Y-60267483D01*
X178822890Y-60051359D01*
X178610690Y-59906369D01*
X178358800Y-59855360D01*
X176123600Y-59855360D01*
X175888283Y-59899638D01*
X175672159Y-60038710D01*
X175527169Y-60250910D01*
X175476160Y-60502800D01*
X172185000Y-60502800D01*
X172185000Y-56732400D01*
X177334960Y-56732400D01*
X177334960Y-58967600D01*
X177379238Y-59202917D01*
X177518310Y-59419041D01*
X177730510Y-59564031D01*
X177982400Y-59615040D01*
X180217600Y-59615040D01*
X180452917Y-59570762D01*
X180669041Y-59431690D01*
X180814031Y-59219490D01*
X180865040Y-58967600D01*
X180865040Y-56732400D01*
X180820762Y-56497083D01*
X180681690Y-56280959D01*
X180469490Y-56135969D01*
X180217600Y-56084960D01*
X177982400Y-56084960D01*
X177747083Y-56129238D01*
X177530959Y-56268310D01*
X177385969Y-56480510D01*
X177334960Y-56732400D01*
X172185000Y-56732400D01*
X172185000Y-50182400D01*
X180934960Y-50182400D01*
X180934960Y-52417600D01*
X180979238Y-52652917D01*
X181118310Y-52869041D01*
X181330510Y-53014031D01*
X181582400Y-53065040D01*
X183817600Y-53065040D01*
X184052917Y-53020762D01*
X184269041Y-52881690D01*
X184414031Y-52669490D01*
X184465040Y-52417600D01*
X184465040Y-50182400D01*
X184420762Y-49947083D01*
X184281690Y-49730959D01*
X184069490Y-49585969D01*
X183817600Y-49534960D01*
X181582400Y-49534960D01*
X181347083Y-49579238D01*
X181130959Y-49718310D01*
X180985969Y-49930510D01*
X180934960Y-50182400D01*
X172185000Y-50182400D01*
X172185000Y-46685000D01*
X195815000Y-46685000D01*
X195815000Y-55493849D01*
M02*
