%FSLAX45Y45*%
G04 Gerber Fmt 4.5, Leading zero omitted, Abs format (unit mm)*
G04 Created by KiCad (PCBNEW 4.0.4+e1-6308~48~ubuntu16.04.1-stable) date Thu Oct 27 02:54:48 2016*
%MOMM*%
%LPD*%
G01*
G04 APERTURE LIST*
%ADD10C,0.127000*%
%ADD11C,0.100000*%
%ADD12C,0.200000*%
%ADD13C,0.300000*%
G04 APERTURE END LIST*
D10*
D11*
X17150000Y-7300000D02*
X17150000Y-4600000D01*
X19650000Y-7300000D02*
X17150000Y-7300000D01*
X19650000Y-4600000D02*
X19650000Y-7300000D01*
X17150000Y-4600000D02*
X19650000Y-4600000D01*
D12*
X17330000Y-6705000D02*
X17370000Y-6745000D01*
X17370000Y-6705000D02*
X17330000Y-6745000D01*
X17380000Y-7205000D02*
X17420000Y-7245000D01*
X17420000Y-7205000D02*
X17380000Y-7245000D01*
X17805000Y-6730000D02*
X17845000Y-6770000D01*
X17845000Y-6730000D02*
X17805000Y-6770000D01*
X18905000Y-5805000D02*
X18945000Y-5845000D01*
X18945000Y-5805000D02*
X18905000Y-5845000D01*
X19005000Y-6630000D02*
X19045000Y-6670000D01*
X19045000Y-6630000D02*
X19005000Y-6670000D01*
X19030000Y-5305000D02*
X19070000Y-5345000D01*
X19070000Y-5305000D02*
X19030000Y-5345000D01*
X19380000Y-6855000D02*
X19420000Y-6895000D01*
X19420000Y-6855000D02*
X19380000Y-6895000D01*
X18128000Y-6242000D02*
G75*
G03X18128000Y-6242000I-40000J0D01*
G01*
X18128000Y-6496000D02*
G75*
G03X18128000Y-6496000I-40000J0D01*
G01*
X18128000Y-6750000D02*
G75*
G03X18128000Y-6750000I-40000J0D01*
G01*
X18128000Y-7004000D02*
G75*
G03X18128000Y-7004000I-40000J0D01*
G01*
X18890000Y-6242000D02*
G75*
G03X18890000Y-6242000I-40000J0D01*
G01*
X18890000Y-6496000D02*
G75*
G03X18890000Y-6496000I-40000J0D01*
G01*
X18890000Y-6750000D02*
G75*
G03X18890000Y-6750000I-40000J0D01*
G01*
X18890000Y-7004000D02*
G75*
G03X18890000Y-7004000I-40000J0D01*
G01*
X17724120Y-6111240D02*
X17724120Y-6212840D01*
X17673320Y-6162040D02*
X17774920Y-6162040D01*
X17910000Y-5734200D02*
X17910000Y-5835800D01*
X17859200Y-5785000D02*
X17960800Y-5785000D01*
X18270000Y-5079200D02*
X18270000Y-5180800D01*
X18219200Y-5130000D02*
X18320800Y-5130000D01*
X19436080Y-5664200D02*
X19436080Y-5765800D01*
X19385280Y-5715000D02*
X19486880Y-5715000D01*
X19436080Y-5918200D02*
X19436080Y-6019800D01*
X19385280Y-5969000D02*
X19486880Y-5969000D01*
X19436080Y-6172200D02*
X19436080Y-6273800D01*
X19385280Y-6223000D02*
X19486880Y-6223000D01*
D13*
X17416429Y-7770714D02*
X17416429Y-7470714D01*
X17487857Y-7470714D01*
X17530714Y-7485000D01*
X17559286Y-7513571D01*
X17573571Y-7542143D01*
X17587857Y-7599286D01*
X17587857Y-7642143D01*
X17573571Y-7699286D01*
X17559286Y-7727857D01*
X17530714Y-7756429D01*
X17487857Y-7770714D01*
X17416429Y-7770714D01*
X17716429Y-7770714D02*
X17716429Y-7570714D01*
X17716429Y-7627857D02*
X17730714Y-7599286D01*
X17745000Y-7585000D01*
X17773571Y-7570714D01*
X17802143Y-7570714D01*
X17902143Y-7770714D02*
X17902143Y-7570714D01*
X17902143Y-7470714D02*
X17887857Y-7485000D01*
X17902143Y-7499286D01*
X17916429Y-7485000D01*
X17902143Y-7470714D01*
X17902143Y-7499286D01*
X18087857Y-7770714D02*
X18059286Y-7756429D01*
X18045000Y-7727857D01*
X18045000Y-7470714D01*
X18245000Y-7770714D02*
X18216429Y-7756429D01*
X18202143Y-7727857D01*
X18202143Y-7470714D01*
X18587857Y-7770714D02*
X18587857Y-7470714D01*
X18687857Y-7685000D01*
X18787857Y-7470714D01*
X18787857Y-7770714D01*
X19059286Y-7770714D02*
X19059286Y-7613571D01*
X19045000Y-7585000D01*
X19016429Y-7570714D01*
X18959286Y-7570714D01*
X18930714Y-7585000D01*
X19059286Y-7756429D02*
X19030714Y-7770714D01*
X18959286Y-7770714D01*
X18930714Y-7756429D01*
X18916429Y-7727857D01*
X18916429Y-7699286D01*
X18930714Y-7670714D01*
X18959286Y-7656429D01*
X19030714Y-7656429D01*
X19059286Y-7642143D01*
X19202143Y-7570714D02*
X19202143Y-7870714D01*
X19202143Y-7585000D02*
X19230714Y-7570714D01*
X19287857Y-7570714D01*
X19316429Y-7585000D01*
X19330714Y-7599286D01*
X19345000Y-7627857D01*
X19345000Y-7713571D01*
X19330714Y-7742143D01*
X19316429Y-7756429D01*
X19287857Y-7770714D01*
X19230714Y-7770714D01*
X19202143Y-7756429D01*
X19473571Y-7742143D02*
X19487857Y-7756429D01*
X19473571Y-7770714D01*
X19459286Y-7756429D01*
X19473571Y-7742143D01*
X19473571Y-7770714D01*
X19473571Y-7585000D02*
X19487857Y-7599286D01*
X19473571Y-7613571D01*
X19459286Y-7599286D01*
X19473571Y-7585000D01*
X19473571Y-7613571D01*
X17105000Y-8245000D02*
X17145000Y-8285000D01*
X17145000Y-8245000D02*
X17105000Y-8285000D01*
X17473571Y-8100714D02*
X17502143Y-8100714D01*
X17530714Y-8115000D01*
X17545000Y-8129286D01*
X17559286Y-8157857D01*
X17573571Y-8215000D01*
X17573571Y-8286429D01*
X17559286Y-8343571D01*
X17545000Y-8372143D01*
X17530714Y-8386429D01*
X17502143Y-8400714D01*
X17473571Y-8400714D01*
X17445000Y-8386429D01*
X17430714Y-8372143D01*
X17416429Y-8343571D01*
X17402143Y-8286429D01*
X17402143Y-8215000D01*
X17416429Y-8157857D01*
X17430714Y-8129286D01*
X17445000Y-8115000D01*
X17473571Y-8100714D01*
X17702143Y-8372143D02*
X17716429Y-8386429D01*
X17702143Y-8400714D01*
X17687857Y-8386429D01*
X17702143Y-8372143D01*
X17702143Y-8400714D01*
X17973571Y-8200714D02*
X17973571Y-8400714D01*
X17902143Y-8086429D02*
X17830714Y-8300714D01*
X18016428Y-8300714D01*
X18187857Y-8100714D02*
X18216429Y-8100714D01*
X18245000Y-8115000D01*
X18259286Y-8129286D01*
X18273571Y-8157857D01*
X18287857Y-8215000D01*
X18287857Y-8286429D01*
X18273571Y-8343571D01*
X18259286Y-8372143D01*
X18245000Y-8386429D01*
X18216429Y-8400714D01*
X18187857Y-8400714D01*
X18159286Y-8386429D01*
X18145000Y-8372143D01*
X18130714Y-8343571D01*
X18116429Y-8286429D01*
X18116429Y-8215000D01*
X18130714Y-8157857D01*
X18145000Y-8129286D01*
X18159286Y-8115000D01*
X18187857Y-8100714D01*
X18416429Y-8400714D02*
X18416429Y-8200714D01*
X18416429Y-8229286D02*
X18430714Y-8215000D01*
X18459286Y-8200714D01*
X18502143Y-8200714D01*
X18530714Y-8215000D01*
X18545000Y-8243571D01*
X18545000Y-8400714D01*
X18545000Y-8243571D02*
X18559286Y-8215000D01*
X18587857Y-8200714D01*
X18630714Y-8200714D01*
X18659286Y-8215000D01*
X18673571Y-8243571D01*
X18673571Y-8400714D01*
X18816429Y-8400714D02*
X18816429Y-8200714D01*
X18816429Y-8229286D02*
X18830714Y-8215000D01*
X18859286Y-8200714D01*
X18902143Y-8200714D01*
X18930714Y-8215000D01*
X18945000Y-8243571D01*
X18945000Y-8400714D01*
X18945000Y-8243571D02*
X18959286Y-8215000D01*
X18987857Y-8200714D01*
X19030714Y-8200714D01*
X19059286Y-8215000D01*
X19073571Y-8243571D01*
X19073571Y-8400714D01*
X19659286Y-8086429D02*
X19402143Y-8472143D01*
X20045000Y-8100714D02*
X20073571Y-8100714D01*
X20102143Y-8115000D01*
X20116428Y-8129286D01*
X20130714Y-8157857D01*
X20145000Y-8215000D01*
X20145000Y-8286429D01*
X20130714Y-8343571D01*
X20116428Y-8372143D01*
X20102143Y-8386429D01*
X20073571Y-8400714D01*
X20045000Y-8400714D01*
X20016428Y-8386429D01*
X20002143Y-8372143D01*
X19987857Y-8343571D01*
X19973571Y-8286429D01*
X19973571Y-8215000D01*
X19987857Y-8157857D01*
X20002143Y-8129286D01*
X20016428Y-8115000D01*
X20045000Y-8100714D01*
X20273571Y-8372143D02*
X20287857Y-8386429D01*
X20273571Y-8400714D01*
X20259286Y-8386429D01*
X20273571Y-8372143D01*
X20273571Y-8400714D01*
X20473571Y-8100714D02*
X20502143Y-8100714D01*
X20530714Y-8115000D01*
X20545000Y-8129286D01*
X20559286Y-8157857D01*
X20573571Y-8215000D01*
X20573571Y-8286429D01*
X20559286Y-8343571D01*
X20545000Y-8372143D01*
X20530714Y-8386429D01*
X20502143Y-8400714D01*
X20473571Y-8400714D01*
X20445000Y-8386429D01*
X20430714Y-8372143D01*
X20416428Y-8343571D01*
X20402143Y-8286429D01*
X20402143Y-8215000D01*
X20416428Y-8157857D01*
X20430714Y-8129286D01*
X20445000Y-8115000D01*
X20473571Y-8100714D01*
X20859286Y-8400714D02*
X20687857Y-8400714D01*
X20773571Y-8400714D02*
X20773571Y-8100714D01*
X20745000Y-8143571D01*
X20716428Y-8172143D01*
X20687857Y-8186429D01*
X21116428Y-8100714D02*
X21059286Y-8100714D01*
X21030714Y-8115000D01*
X21016428Y-8129286D01*
X20987857Y-8172143D01*
X20973571Y-8229286D01*
X20973571Y-8343571D01*
X20987857Y-8372143D01*
X21002143Y-8386429D01*
X21030714Y-8400714D01*
X21087857Y-8400714D01*
X21116428Y-8386429D01*
X21130714Y-8372143D01*
X21145000Y-8343571D01*
X21145000Y-8272143D01*
X21130714Y-8243571D01*
X21116428Y-8229286D01*
X21087857Y-8215000D01*
X21030714Y-8215000D01*
X21002143Y-8229286D01*
X20987857Y-8243571D01*
X20973571Y-8272143D01*
X21259286Y-8100714D02*
X21259286Y-8157857D01*
X21373571Y-8100714D02*
X21373571Y-8157857D01*
X21816428Y-8515000D02*
X21802143Y-8500714D01*
X21773571Y-8457857D01*
X21759286Y-8429286D01*
X21745000Y-8386429D01*
X21730714Y-8315000D01*
X21730714Y-8257857D01*
X21745000Y-8186429D01*
X21759286Y-8143571D01*
X21773571Y-8115000D01*
X21802143Y-8072143D01*
X21816428Y-8057857D01*
X21902143Y-8100714D02*
X22102143Y-8100714D01*
X21973571Y-8400714D01*
X22445000Y-8400714D02*
X22445000Y-8100714D01*
X22573571Y-8400714D02*
X22573571Y-8243571D01*
X22559285Y-8215000D01*
X22530714Y-8200714D01*
X22487857Y-8200714D01*
X22459285Y-8215000D01*
X22445000Y-8229286D01*
X22759285Y-8400714D02*
X22730714Y-8386429D01*
X22716428Y-8372143D01*
X22702143Y-8343571D01*
X22702143Y-8257857D01*
X22716428Y-8229286D01*
X22730714Y-8215000D01*
X22759285Y-8200714D01*
X22802143Y-8200714D01*
X22830714Y-8215000D01*
X22845000Y-8229286D01*
X22859285Y-8257857D01*
X22859285Y-8343571D01*
X22845000Y-8372143D01*
X22830714Y-8386429D01*
X22802143Y-8400714D01*
X22759285Y-8400714D01*
X23030714Y-8400714D02*
X23002143Y-8386429D01*
X22987857Y-8357857D01*
X22987857Y-8100714D01*
X23259286Y-8386429D02*
X23230714Y-8400714D01*
X23173571Y-8400714D01*
X23145000Y-8386429D01*
X23130714Y-8357857D01*
X23130714Y-8243571D01*
X23145000Y-8215000D01*
X23173571Y-8200714D01*
X23230714Y-8200714D01*
X23259286Y-8215000D01*
X23273571Y-8243571D01*
X23273571Y-8272143D01*
X23130714Y-8300714D01*
X23387857Y-8386429D02*
X23416428Y-8400714D01*
X23473571Y-8400714D01*
X23502143Y-8386429D01*
X23516428Y-8357857D01*
X23516428Y-8343571D01*
X23502143Y-8315000D01*
X23473571Y-8300714D01*
X23430714Y-8300714D01*
X23402143Y-8286429D01*
X23387857Y-8257857D01*
X23387857Y-8243571D01*
X23402143Y-8215000D01*
X23430714Y-8200714D01*
X23473571Y-8200714D01*
X23502143Y-8215000D01*
X23616428Y-8515000D02*
X23630714Y-8500714D01*
X23659286Y-8457857D01*
X23673571Y-8429286D01*
X23687857Y-8386429D01*
X23702143Y-8315000D01*
X23702143Y-8257857D01*
X23687857Y-8186429D01*
X23673571Y-8143571D01*
X23659286Y-8115000D01*
X23630714Y-8072143D01*
X23616428Y-8057857D01*
X17145000Y-8661000D02*
G75*
G03X17145000Y-8661000I-40000J0D01*
G01*
X17473571Y-8496714D02*
X17502143Y-8496714D01*
X17530714Y-8511000D01*
X17545000Y-8525286D01*
X17559286Y-8553857D01*
X17573571Y-8611000D01*
X17573571Y-8682429D01*
X17559286Y-8739572D01*
X17545000Y-8768143D01*
X17530714Y-8782429D01*
X17502143Y-8796714D01*
X17473571Y-8796714D01*
X17445000Y-8782429D01*
X17430714Y-8768143D01*
X17416429Y-8739572D01*
X17402143Y-8682429D01*
X17402143Y-8611000D01*
X17416429Y-8553857D01*
X17430714Y-8525286D01*
X17445000Y-8511000D01*
X17473571Y-8496714D01*
X17702143Y-8768143D02*
X17716429Y-8782429D01*
X17702143Y-8796714D01*
X17687857Y-8782429D01*
X17702143Y-8768143D01*
X17702143Y-8796714D01*
X17887857Y-8625286D02*
X17859286Y-8611000D01*
X17845000Y-8596714D01*
X17830714Y-8568143D01*
X17830714Y-8553857D01*
X17845000Y-8525286D01*
X17859286Y-8511000D01*
X17887857Y-8496714D01*
X17945000Y-8496714D01*
X17973571Y-8511000D01*
X17987857Y-8525286D01*
X18002143Y-8553857D01*
X18002143Y-8568143D01*
X17987857Y-8596714D01*
X17973571Y-8611000D01*
X17945000Y-8625286D01*
X17887857Y-8625286D01*
X17859286Y-8639572D01*
X17845000Y-8653857D01*
X17830714Y-8682429D01*
X17830714Y-8739572D01*
X17845000Y-8768143D01*
X17859286Y-8782429D01*
X17887857Y-8796714D01*
X17945000Y-8796714D01*
X17973571Y-8782429D01*
X17987857Y-8768143D01*
X18002143Y-8739572D01*
X18002143Y-8682429D01*
X17987857Y-8653857D01*
X17973571Y-8639572D01*
X17945000Y-8625286D01*
X18187857Y-8496714D02*
X18216429Y-8496714D01*
X18245000Y-8511000D01*
X18259286Y-8525286D01*
X18273571Y-8553857D01*
X18287857Y-8611000D01*
X18287857Y-8682429D01*
X18273571Y-8739572D01*
X18259286Y-8768143D01*
X18245000Y-8782429D01*
X18216429Y-8796714D01*
X18187857Y-8796714D01*
X18159286Y-8782429D01*
X18145000Y-8768143D01*
X18130714Y-8739572D01*
X18116429Y-8682429D01*
X18116429Y-8611000D01*
X18130714Y-8553857D01*
X18145000Y-8525286D01*
X18159286Y-8511000D01*
X18187857Y-8496714D01*
X18416429Y-8796714D02*
X18416429Y-8596714D01*
X18416429Y-8625286D02*
X18430714Y-8611000D01*
X18459286Y-8596714D01*
X18502143Y-8596714D01*
X18530714Y-8611000D01*
X18545000Y-8639572D01*
X18545000Y-8796714D01*
X18545000Y-8639572D02*
X18559286Y-8611000D01*
X18587857Y-8596714D01*
X18630714Y-8596714D01*
X18659286Y-8611000D01*
X18673571Y-8639572D01*
X18673571Y-8796714D01*
X18816429Y-8796714D02*
X18816429Y-8596714D01*
X18816429Y-8625286D02*
X18830714Y-8611000D01*
X18859286Y-8596714D01*
X18902143Y-8596714D01*
X18930714Y-8611000D01*
X18945000Y-8639572D01*
X18945000Y-8796714D01*
X18945000Y-8639572D02*
X18959286Y-8611000D01*
X18987857Y-8596714D01*
X19030714Y-8596714D01*
X19059286Y-8611000D01*
X19073571Y-8639572D01*
X19073571Y-8796714D01*
X19659286Y-8482429D02*
X19402143Y-8868143D01*
X20045000Y-8496714D02*
X20073571Y-8496714D01*
X20102143Y-8511000D01*
X20116428Y-8525286D01*
X20130714Y-8553857D01*
X20145000Y-8611000D01*
X20145000Y-8682429D01*
X20130714Y-8739572D01*
X20116428Y-8768143D01*
X20102143Y-8782429D01*
X20073571Y-8796714D01*
X20045000Y-8796714D01*
X20016428Y-8782429D01*
X20002143Y-8768143D01*
X19987857Y-8739572D01*
X19973571Y-8682429D01*
X19973571Y-8611000D01*
X19987857Y-8553857D01*
X20002143Y-8525286D01*
X20016428Y-8511000D01*
X20045000Y-8496714D01*
X20273571Y-8768143D02*
X20287857Y-8782429D01*
X20273571Y-8796714D01*
X20259286Y-8782429D01*
X20273571Y-8768143D01*
X20273571Y-8796714D01*
X20473571Y-8496714D02*
X20502143Y-8496714D01*
X20530714Y-8511000D01*
X20545000Y-8525286D01*
X20559286Y-8553857D01*
X20573571Y-8611000D01*
X20573571Y-8682429D01*
X20559286Y-8739572D01*
X20545000Y-8768143D01*
X20530714Y-8782429D01*
X20502143Y-8796714D01*
X20473571Y-8796714D01*
X20445000Y-8782429D01*
X20430714Y-8768143D01*
X20416428Y-8739572D01*
X20402143Y-8682429D01*
X20402143Y-8611000D01*
X20416428Y-8553857D01*
X20430714Y-8525286D01*
X20445000Y-8511000D01*
X20473571Y-8496714D01*
X20673571Y-8496714D02*
X20859286Y-8496714D01*
X20759286Y-8611000D01*
X20802143Y-8611000D01*
X20830714Y-8625286D01*
X20845000Y-8639572D01*
X20859286Y-8668143D01*
X20859286Y-8739572D01*
X20845000Y-8768143D01*
X20830714Y-8782429D01*
X20802143Y-8796714D01*
X20716428Y-8796714D01*
X20687857Y-8782429D01*
X20673571Y-8768143D01*
X21145000Y-8796714D02*
X20973571Y-8796714D01*
X21059286Y-8796714D02*
X21059286Y-8496714D01*
X21030714Y-8539572D01*
X21002143Y-8568143D01*
X20973571Y-8582429D01*
X21259286Y-8496714D02*
X21259286Y-8553857D01*
X21373571Y-8496714D02*
X21373571Y-8553857D01*
X21816428Y-8911000D02*
X21802143Y-8896714D01*
X21773571Y-8853857D01*
X21759286Y-8825286D01*
X21745000Y-8782429D01*
X21730714Y-8711000D01*
X21730714Y-8653857D01*
X21745000Y-8582429D01*
X21759286Y-8539572D01*
X21773571Y-8511000D01*
X21802143Y-8468143D01*
X21816428Y-8453857D01*
X21973571Y-8625286D02*
X21945000Y-8611000D01*
X21930714Y-8596714D01*
X21916428Y-8568143D01*
X21916428Y-8553857D01*
X21930714Y-8525286D01*
X21945000Y-8511000D01*
X21973571Y-8496714D01*
X22030714Y-8496714D01*
X22059286Y-8511000D01*
X22073571Y-8525286D01*
X22087857Y-8553857D01*
X22087857Y-8568143D01*
X22073571Y-8596714D01*
X22059286Y-8611000D01*
X22030714Y-8625286D01*
X21973571Y-8625286D01*
X21945000Y-8639572D01*
X21930714Y-8653857D01*
X21916428Y-8682429D01*
X21916428Y-8739572D01*
X21930714Y-8768143D01*
X21945000Y-8782429D01*
X21973571Y-8796714D01*
X22030714Y-8796714D01*
X22059286Y-8782429D01*
X22073571Y-8768143D01*
X22087857Y-8739572D01*
X22087857Y-8682429D01*
X22073571Y-8653857D01*
X22059286Y-8639572D01*
X22030714Y-8625286D01*
X22445000Y-8796714D02*
X22445000Y-8496714D01*
X22573571Y-8796714D02*
X22573571Y-8639572D01*
X22559285Y-8611000D01*
X22530714Y-8596714D01*
X22487857Y-8596714D01*
X22459285Y-8611000D01*
X22445000Y-8625286D01*
X22759285Y-8796714D02*
X22730714Y-8782429D01*
X22716428Y-8768143D01*
X22702143Y-8739572D01*
X22702143Y-8653857D01*
X22716428Y-8625286D01*
X22730714Y-8611000D01*
X22759285Y-8596714D01*
X22802143Y-8596714D01*
X22830714Y-8611000D01*
X22845000Y-8625286D01*
X22859285Y-8653857D01*
X22859285Y-8739572D01*
X22845000Y-8768143D01*
X22830714Y-8782429D01*
X22802143Y-8796714D01*
X22759285Y-8796714D01*
X23030714Y-8796714D02*
X23002143Y-8782429D01*
X22987857Y-8753857D01*
X22987857Y-8496714D01*
X23259286Y-8782429D02*
X23230714Y-8796714D01*
X23173571Y-8796714D01*
X23145000Y-8782429D01*
X23130714Y-8753857D01*
X23130714Y-8639572D01*
X23145000Y-8611000D01*
X23173571Y-8596714D01*
X23230714Y-8596714D01*
X23259286Y-8611000D01*
X23273571Y-8639572D01*
X23273571Y-8668143D01*
X23130714Y-8696714D01*
X23387857Y-8782429D02*
X23416428Y-8796714D01*
X23473571Y-8796714D01*
X23502143Y-8782429D01*
X23516428Y-8753857D01*
X23516428Y-8739572D01*
X23502143Y-8711000D01*
X23473571Y-8696714D01*
X23430714Y-8696714D01*
X23402143Y-8682429D01*
X23387857Y-8653857D01*
X23387857Y-8639572D01*
X23402143Y-8611000D01*
X23430714Y-8596714D01*
X23473571Y-8596714D01*
X23502143Y-8611000D01*
X23616428Y-8911000D02*
X23630714Y-8896714D01*
X23659286Y-8853857D01*
X23673571Y-8825286D01*
X23687857Y-8782429D01*
X23702143Y-8711000D01*
X23702143Y-8653857D01*
X23687857Y-8582429D01*
X23673571Y-8539572D01*
X23659286Y-8511000D01*
X23630714Y-8468143D01*
X23616428Y-8453857D01*
X17094200Y-9006200D02*
X17094200Y-9107800D01*
X17043400Y-9057000D02*
X17145000Y-9057000D01*
X17573571Y-9192714D02*
X17402143Y-9192714D01*
X17487857Y-9192714D02*
X17487857Y-8892714D01*
X17459286Y-8935572D01*
X17430714Y-8964143D01*
X17402143Y-8978429D01*
X17702143Y-9164143D02*
X17716429Y-9178429D01*
X17702143Y-9192714D01*
X17687857Y-9178429D01*
X17702143Y-9164143D01*
X17702143Y-9192714D01*
X17902143Y-8892714D02*
X17930714Y-8892714D01*
X17959286Y-8907000D01*
X17973571Y-8921286D01*
X17987857Y-8949857D01*
X18002143Y-9007000D01*
X18002143Y-9078429D01*
X17987857Y-9135572D01*
X17973571Y-9164143D01*
X17959286Y-9178429D01*
X17930714Y-9192714D01*
X17902143Y-9192714D01*
X17873571Y-9178429D01*
X17859286Y-9164143D01*
X17845000Y-9135572D01*
X17830714Y-9078429D01*
X17830714Y-9007000D01*
X17845000Y-8949857D01*
X17859286Y-8921286D01*
X17873571Y-8907000D01*
X17902143Y-8892714D01*
X18116429Y-8921286D02*
X18130714Y-8907000D01*
X18159286Y-8892714D01*
X18230714Y-8892714D01*
X18259286Y-8907000D01*
X18273571Y-8921286D01*
X18287857Y-8949857D01*
X18287857Y-8978429D01*
X18273571Y-9021286D01*
X18102143Y-9192714D01*
X18287857Y-9192714D01*
X18416429Y-9192714D02*
X18416429Y-8992714D01*
X18416429Y-9021286D02*
X18430714Y-9007000D01*
X18459286Y-8992714D01*
X18502143Y-8992714D01*
X18530714Y-9007000D01*
X18545000Y-9035572D01*
X18545000Y-9192714D01*
X18545000Y-9035572D02*
X18559286Y-9007000D01*
X18587857Y-8992714D01*
X18630714Y-8992714D01*
X18659286Y-9007000D01*
X18673571Y-9035572D01*
X18673571Y-9192714D01*
X18816429Y-9192714D02*
X18816429Y-8992714D01*
X18816429Y-9021286D02*
X18830714Y-9007000D01*
X18859286Y-8992714D01*
X18902143Y-8992714D01*
X18930714Y-9007000D01*
X18945000Y-9035572D01*
X18945000Y-9192714D01*
X18945000Y-9035572D02*
X18959286Y-9007000D01*
X18987857Y-8992714D01*
X19030714Y-8992714D01*
X19059286Y-9007000D01*
X19073571Y-9035572D01*
X19073571Y-9192714D01*
X19659286Y-8878429D02*
X19402143Y-9264143D01*
X20045000Y-8892714D02*
X20073571Y-8892714D01*
X20102143Y-8907000D01*
X20116428Y-8921286D01*
X20130714Y-8949857D01*
X20145000Y-9007000D01*
X20145000Y-9078429D01*
X20130714Y-9135572D01*
X20116428Y-9164143D01*
X20102143Y-9178429D01*
X20073571Y-9192714D01*
X20045000Y-9192714D01*
X20016428Y-9178429D01*
X20002143Y-9164143D01*
X19987857Y-9135572D01*
X19973571Y-9078429D01*
X19973571Y-9007000D01*
X19987857Y-8949857D01*
X20002143Y-8921286D01*
X20016428Y-8907000D01*
X20045000Y-8892714D01*
X20273571Y-9164143D02*
X20287857Y-9178429D01*
X20273571Y-9192714D01*
X20259286Y-9178429D01*
X20273571Y-9164143D01*
X20273571Y-9192714D01*
X20473571Y-8892714D02*
X20502143Y-8892714D01*
X20530714Y-8907000D01*
X20545000Y-8921286D01*
X20559286Y-8949857D01*
X20573571Y-9007000D01*
X20573571Y-9078429D01*
X20559286Y-9135572D01*
X20545000Y-9164143D01*
X20530714Y-9178429D01*
X20502143Y-9192714D01*
X20473571Y-9192714D01*
X20445000Y-9178429D01*
X20430714Y-9164143D01*
X20416428Y-9135572D01*
X20402143Y-9078429D01*
X20402143Y-9007000D01*
X20416428Y-8949857D01*
X20430714Y-8921286D01*
X20445000Y-8907000D01*
X20473571Y-8892714D01*
X20830714Y-8992714D02*
X20830714Y-9192714D01*
X20759286Y-8878429D02*
X20687857Y-9092714D01*
X20873571Y-9092714D01*
X21045000Y-8892714D02*
X21073571Y-8892714D01*
X21102143Y-8907000D01*
X21116428Y-8921286D01*
X21130714Y-8949857D01*
X21145000Y-9007000D01*
X21145000Y-9078429D01*
X21130714Y-9135572D01*
X21116428Y-9164143D01*
X21102143Y-9178429D01*
X21073571Y-9192714D01*
X21045000Y-9192714D01*
X21016428Y-9178429D01*
X21002143Y-9164143D01*
X20987857Y-9135572D01*
X20973571Y-9078429D01*
X20973571Y-9007000D01*
X20987857Y-8949857D01*
X21002143Y-8921286D01*
X21016428Y-8907000D01*
X21045000Y-8892714D01*
X21259286Y-8892714D02*
X21259286Y-8949857D01*
X21373571Y-8892714D02*
X21373571Y-8949857D01*
X21816428Y-9307000D02*
X21802143Y-9292714D01*
X21773571Y-9249857D01*
X21759286Y-9221286D01*
X21745000Y-9178429D01*
X21730714Y-9107000D01*
X21730714Y-9049857D01*
X21745000Y-8978429D01*
X21759286Y-8935572D01*
X21773571Y-8907000D01*
X21802143Y-8864143D01*
X21816428Y-8849857D01*
X22059286Y-8892714D02*
X22002143Y-8892714D01*
X21973571Y-8907000D01*
X21959286Y-8921286D01*
X21930714Y-8964143D01*
X21916428Y-9021286D01*
X21916428Y-9135572D01*
X21930714Y-9164143D01*
X21945000Y-9178429D01*
X21973571Y-9192714D01*
X22030714Y-9192714D01*
X22059286Y-9178429D01*
X22073571Y-9164143D01*
X22087857Y-9135572D01*
X22087857Y-9064143D01*
X22073571Y-9035572D01*
X22059286Y-9021286D01*
X22030714Y-9007000D01*
X21973571Y-9007000D01*
X21945000Y-9021286D01*
X21930714Y-9035572D01*
X21916428Y-9064143D01*
X22445000Y-9192714D02*
X22445000Y-8892714D01*
X22573571Y-9192714D02*
X22573571Y-9035572D01*
X22559285Y-9007000D01*
X22530714Y-8992714D01*
X22487857Y-8992714D01*
X22459285Y-9007000D01*
X22445000Y-9021286D01*
X22759285Y-9192714D02*
X22730714Y-9178429D01*
X22716428Y-9164143D01*
X22702143Y-9135572D01*
X22702143Y-9049857D01*
X22716428Y-9021286D01*
X22730714Y-9007000D01*
X22759285Y-8992714D01*
X22802143Y-8992714D01*
X22830714Y-9007000D01*
X22845000Y-9021286D01*
X22859285Y-9049857D01*
X22859285Y-9135572D01*
X22845000Y-9164143D01*
X22830714Y-9178429D01*
X22802143Y-9192714D01*
X22759285Y-9192714D01*
X23030714Y-9192714D02*
X23002143Y-9178429D01*
X22987857Y-9149857D01*
X22987857Y-8892714D01*
X23259286Y-9178429D02*
X23230714Y-9192714D01*
X23173571Y-9192714D01*
X23145000Y-9178429D01*
X23130714Y-9149857D01*
X23130714Y-9035572D01*
X23145000Y-9007000D01*
X23173571Y-8992714D01*
X23230714Y-8992714D01*
X23259286Y-9007000D01*
X23273571Y-9035572D01*
X23273571Y-9064143D01*
X23130714Y-9092714D01*
X23387857Y-9178429D02*
X23416428Y-9192714D01*
X23473571Y-9192714D01*
X23502143Y-9178429D01*
X23516428Y-9149857D01*
X23516428Y-9135572D01*
X23502143Y-9107000D01*
X23473571Y-9092714D01*
X23430714Y-9092714D01*
X23402143Y-9078429D01*
X23387857Y-9049857D01*
X23387857Y-9035572D01*
X23402143Y-9007000D01*
X23430714Y-8992714D01*
X23473571Y-8992714D01*
X23502143Y-9007000D01*
X23616428Y-9307000D02*
X23630714Y-9292714D01*
X23659286Y-9249857D01*
X23673571Y-9221286D01*
X23687857Y-9178429D01*
X23702143Y-9107000D01*
X23702143Y-9049857D01*
X23687857Y-8978429D01*
X23673571Y-8935572D01*
X23659286Y-8907000D01*
X23630714Y-8864143D01*
X23616428Y-8849857D01*
M02*
