M48
;DRILL file {KiCad 4.0.4+e1-6308~48~ubuntu16.04.1-stable} date Thu Oct 27 02:54:48 2016
;FORMAT={-:-/ absolute / metric / decimal}
FMAT,2
METRIC,TZ
T1C0.400
T2C0.800
T3C1.016
%
G90
G05
M71
T1
X173.5Y-67.25
X174.Y-72.25
X178.25Y-67.5
X189.25Y-58.25
X190.25Y-66.5
X190.5Y-53.25
X194.Y-68.75
T2
X180.88Y-62.42
X180.88Y-64.96
X180.88Y-67.5
X180.88Y-70.04
X188.5Y-62.42
X188.5Y-64.96
X188.5Y-67.5
X188.5Y-70.04
T3
X177.241Y-61.62
X179.1Y-57.85
X182.7Y-51.3
X194.361Y-57.15
X194.361Y-59.69
X194.361Y-62.23
T0
M30
