%TF.GenerationSoftware,KiCad,Pcbnew,4.0.4+e1-6308~48~ubuntu16.04.1-stable*%
%TF.CreationDate,2016-10-27T02:54:46-07:00*%
%TF.ProjectId,envelope-gen_LM358_DIP,656E76656C6F70652D67656E5F4C4D33,rev?*%
%TF.FileFunction,Copper,L1,Top,Signal*%
%FSLAX46Y46*%
G04 Gerber Fmt 4.6, Leading zero omitted, Abs format (unit mm)*
G04 Created by KiCad (PCBNEW 4.0.4+e1-6308~48~ubuntu16.04.1-stable) date Thu Oct 27 02:54:46 2016*
%MOMM*%
%LPD*%
G01*
G04 APERTURE LIST*
%ADD10C,0.100000*%
%ADD11R,2.235200X2.235200*%
%ADD12O,1.600000X1.600000*%
%ADD13R,0.750000X0.800000*%
%ADD14R,1.220000X0.910000*%
%ADD15R,0.800100X0.800100*%
%ADD16R,0.900000X0.500000*%
%ADD17C,0.600000*%
%ADD18C,0.250000*%
G04 APERTURE END LIST*
D10*
D11*
X177241200Y-61620400D03*
D12*
X180880000Y-62420000D03*
X180880000Y-64960000D03*
X180880000Y-67500000D03*
X180880000Y-70040000D03*
X188500000Y-70040000D03*
X188500000Y-67500000D03*
X188500000Y-64960000D03*
X188500000Y-62420000D03*
D13*
X176000000Y-66250000D03*
X176000000Y-64750000D03*
X178000000Y-70500000D03*
X178000000Y-72000000D03*
X188275200Y-49851600D03*
X188275200Y-51351600D03*
X189275200Y-57351600D03*
X189275200Y-55851600D03*
D14*
X190275200Y-48966600D03*
X190275200Y-52236600D03*
X194275200Y-52236600D03*
X194275200Y-48966600D03*
X195000000Y-65365000D03*
X195000000Y-68635000D03*
D15*
X192950000Y-66499240D03*
X191050000Y-66499240D03*
X192000000Y-68498220D03*
D16*
X174000000Y-61750000D03*
X174000000Y-63250000D03*
X174000000Y-64750000D03*
X174000000Y-66250000D03*
X175000000Y-67750000D03*
X175000000Y-69250000D03*
X175000000Y-70750000D03*
X175000000Y-72250000D03*
X178000000Y-64750000D03*
X178000000Y-66250000D03*
X186275200Y-51351600D03*
X186275200Y-49851600D03*
X192275200Y-49851600D03*
X192275200Y-51351600D03*
X187275200Y-55851600D03*
X187275200Y-57351600D03*
X191500000Y-64750000D03*
X191500000Y-63250000D03*
X193750000Y-70250000D03*
X193750000Y-71750000D03*
X191750000Y-70250000D03*
X191750000Y-71750000D03*
D11*
X194360800Y-59690000D03*
X194360800Y-57150000D03*
X194360800Y-62230000D03*
X179100000Y-57850000D03*
X182700000Y-51300000D03*
D17*
X174000000Y-72250000D03*
X173500000Y-67250000D03*
X194000000Y-68750000D03*
X190500000Y-53250000D03*
X189250000Y-58250000D03*
X178250000Y-67500000D03*
X190250000Y-66500000D03*
D18*
X190275200Y-48966600D02*
X189160200Y-48966600D01*
X189160200Y-48966600D02*
X188275200Y-49851600D01*
X192275200Y-49851600D02*
X192275200Y-49351600D01*
X192275200Y-49351600D02*
X191890200Y-48966600D01*
X191890200Y-48966600D02*
X191135200Y-48966600D01*
X191135200Y-48966600D02*
X190275200Y-48966600D01*
X194275200Y-48966600D02*
X192660200Y-48966600D01*
X192660200Y-48966600D02*
X192275200Y-49351600D01*
X183250000Y-58079802D02*
X183250000Y-60050000D01*
X183250000Y-60050000D02*
X180880000Y-62420000D01*
X186275200Y-51351600D02*
X186275200Y-55054602D01*
X186275200Y-55054602D02*
X183250000Y-58079802D01*
X188275200Y-51351600D02*
X186275200Y-51351600D01*
X175000000Y-72250000D02*
X174000000Y-72250000D01*
X175000000Y-72250000D02*
X177750000Y-72250000D01*
X177750000Y-72250000D02*
X178000000Y-72000000D01*
X174000000Y-66750000D02*
X173500000Y-67250000D01*
X174000000Y-66250000D02*
X174000000Y-66750000D01*
X195000000Y-68635000D02*
X194115000Y-68635000D01*
X194115000Y-68635000D02*
X194000000Y-68750000D01*
X195000000Y-68635000D02*
X195000000Y-70700000D01*
X195000000Y-70700000D02*
X193950000Y-71750000D01*
X193950000Y-71750000D02*
X193750000Y-71750000D01*
X190275200Y-52236600D02*
X190275200Y-53025200D01*
X190275200Y-53025200D02*
X190500000Y-53250000D01*
X190275200Y-52236600D02*
X191390200Y-52236600D01*
X191390200Y-52236600D02*
X192275200Y-51351600D01*
X189275200Y-57351600D02*
X189275200Y-58224800D01*
X189275200Y-58224800D02*
X189250000Y-58250000D01*
X189275200Y-57351600D02*
X187275200Y-57351600D01*
X195000000Y-65365000D02*
X195000000Y-62869200D01*
X195000000Y-62869200D02*
X194360800Y-62230000D01*
X196000000Y-72000000D02*
X196000000Y-67070000D01*
X196000000Y-67070000D02*
X195000000Y-66070000D01*
X195000000Y-66070000D02*
X195000000Y-65365000D01*
X195674999Y-72325001D02*
X196000000Y-72000000D01*
X191750000Y-72000000D02*
X192075001Y-72325001D01*
X192075001Y-72325001D02*
X195674999Y-72325001D01*
X191750000Y-71750000D02*
X191750000Y-72000000D01*
X175000000Y-67750000D02*
X178000000Y-67750000D01*
X178000000Y-67750000D02*
X178250000Y-67500000D01*
X191050000Y-66499240D02*
X190250760Y-66499240D01*
X190250760Y-66499240D02*
X190250000Y-66500000D01*
X194360800Y-57150000D02*
X192993200Y-57150000D01*
X192993200Y-57150000D02*
X188500000Y-61643200D01*
X188500000Y-61643200D02*
X188500000Y-62420000D01*
X174000000Y-61750000D02*
X177241200Y-61750000D01*
X176000000Y-66250000D02*
X178000000Y-66250000D01*
X174000000Y-64750000D02*
X174000000Y-63250000D01*
X176000000Y-64750000D02*
X174000000Y-64750000D01*
X178000000Y-70500000D02*
X178000000Y-70380000D01*
X178000000Y-70380000D02*
X180080001Y-68299999D01*
X180080001Y-68299999D02*
X180880000Y-67500000D01*
X175000000Y-70750000D02*
X175700000Y-70750000D01*
X175700000Y-70750000D02*
X175950000Y-70500000D01*
X175950000Y-70500000D02*
X177375000Y-70500000D01*
X177375000Y-70500000D02*
X178000000Y-70500000D01*
X175000000Y-70750000D02*
X175000000Y-69250000D01*
X189275200Y-55851600D02*
X190505200Y-55851600D01*
X190505200Y-55851600D02*
X194120200Y-52236600D01*
X194120200Y-52236600D02*
X194275200Y-52236600D01*
X187275200Y-55851600D02*
X189275200Y-55851600D01*
X186000000Y-67540000D02*
X186000000Y-56926800D01*
X186000000Y-56926800D02*
X187075200Y-55851600D01*
X187075200Y-55851600D02*
X187275200Y-55851600D01*
X188500000Y-70040000D02*
X186000000Y-67540000D01*
X192950000Y-66499240D02*
X192950000Y-65849190D01*
X191850810Y-64750000D02*
X191500000Y-64750000D01*
X192950000Y-65849190D02*
X191850810Y-64750000D01*
X192000000Y-68498220D02*
X192000000Y-70000000D01*
X192000000Y-70000000D02*
X191750000Y-70250000D01*
X191750000Y-70250000D02*
X193750000Y-70250000D01*
X188500000Y-64960000D02*
X188500000Y-67500000D01*
X191500000Y-63250000D02*
X190210000Y-63250000D01*
X190210000Y-63250000D02*
X189299999Y-64160001D01*
X189299999Y-64160001D02*
X188500000Y-64960000D01*
X179100000Y-57850000D02*
X179100000Y-60600000D01*
X179100000Y-60600000D02*
X179250000Y-60750000D01*
X178000000Y-64750000D02*
X179250000Y-64750000D01*
X179250000Y-64750000D02*
X180670000Y-64750000D01*
X179250000Y-63750000D02*
X179250000Y-64750000D01*
X179250000Y-60750000D02*
X179250000Y-63750000D01*
X180670000Y-64750000D02*
X180880000Y-64960000D01*
X182700000Y-51300000D02*
X184626800Y-51300000D01*
X184626800Y-51300000D02*
X186075200Y-49851600D01*
X186075200Y-49851600D02*
X186275200Y-49851600D01*
M02*
