%TF.GenerationSoftware,KiCad,Pcbnew,4.0.4+e1-6308~48~ubuntu16.04.1-stable*%
%TF.CreationDate,2016-10-26T09:32:56-07:00*%
%TF.ProjectId,AT42QT1012-TSHR,415434325154313031322D545348522E,rev?*%
%TF.FileFunction,Copper,L2,Bot,Signal*%
%FSLAX46Y46*%
G04 Gerber Fmt 4.6, Leading zero omitted, Abs format (unit mm)*
G04 Created by KiCad (PCBNEW 4.0.4+e1-6308~48~ubuntu16.04.1-stable) date Wed Oct 26 09:32:56 2016*
%MOMM*%
%LPD*%
G01*
G04 APERTURE LIST*
%ADD10C,0.050000*%
%ADD11R,2.032000X2.032000*%
%ADD12O,2.032000X2.032000*%
%ADD13R,2.235200X2.235200*%
%ADD14R,1.727200X2.032000*%
%ADD15O,1.727200X2.032000*%
%ADD16C,0.600000*%
%ADD17C,0.254000*%
G04 APERTURE END LIST*
D10*
D11*
X149110000Y-101100000D03*
D12*
X151650000Y-101100000D03*
D13*
X140500000Y-110500000D03*
X140500000Y-107000000D03*
D14*
X145300000Y-101100000D03*
D15*
X142760000Y-101100000D03*
X140220000Y-101100000D03*
D16*
X147050000Y-105675000D03*
X151750000Y-108950000D03*
D17*
G36*
X147459000Y-100814250D02*
X147617750Y-100973000D01*
X148983000Y-100973000D01*
X148983000Y-100953000D01*
X149237000Y-100953000D01*
X149237000Y-100973000D01*
X149257000Y-100973000D01*
X149257000Y-101227000D01*
X149237000Y-101227000D01*
X149237000Y-102592250D01*
X149395750Y-102751000D01*
X150252310Y-102751000D01*
X150485699Y-102654327D01*
X150664327Y-102475698D01*
X150681999Y-102433034D01*
X151018190Y-102657670D01*
X151650000Y-102783345D01*
X152281810Y-102657670D01*
X152817433Y-102299778D01*
X153040000Y-101966683D01*
X153040000Y-111640000D01*
X147177000Y-111640000D01*
X147177000Y-104550000D01*
X147166994Y-104500590D01*
X147138553Y-104458965D01*
X147096159Y-104431685D01*
X147050000Y-104423000D01*
X139360000Y-104423000D01*
X139360000Y-102477830D01*
X139646511Y-102669271D01*
X140220000Y-102783345D01*
X140793489Y-102669271D01*
X141279670Y-102344415D01*
X141490000Y-102029634D01*
X141700330Y-102344415D01*
X142186511Y-102669271D01*
X142760000Y-102783345D01*
X143333489Y-102669271D01*
X143819670Y-102344415D01*
X143834500Y-102322220D01*
X143898073Y-102475698D01*
X144076701Y-102654327D01*
X144310090Y-102751000D01*
X145014250Y-102751000D01*
X145173000Y-102592250D01*
X145173000Y-101227000D01*
X145427000Y-101227000D01*
X145427000Y-102592250D01*
X145585750Y-102751000D01*
X146289910Y-102751000D01*
X146523299Y-102654327D01*
X146701927Y-102475698D01*
X146798600Y-102242309D01*
X146798600Y-101385750D01*
X147459000Y-101385750D01*
X147459000Y-102242309D01*
X147555673Y-102475698D01*
X147734301Y-102654327D01*
X147967690Y-102751000D01*
X148824250Y-102751000D01*
X148983000Y-102592250D01*
X148983000Y-101227000D01*
X147617750Y-101227000D01*
X147459000Y-101385750D01*
X146798600Y-101385750D01*
X146639850Y-101227000D01*
X145427000Y-101227000D01*
X145173000Y-101227000D01*
X145153000Y-101227000D01*
X145153000Y-100973000D01*
X145173000Y-100973000D01*
X145173000Y-100953000D01*
X145427000Y-100953000D01*
X145427000Y-100973000D01*
X146639850Y-100973000D01*
X146798600Y-100814250D01*
X146798600Y-99960000D01*
X147459000Y-99960000D01*
X147459000Y-100814250D01*
X147459000Y-100814250D01*
G37*
X147459000Y-100814250D02*
X147617750Y-100973000D01*
X148983000Y-100973000D01*
X148983000Y-100953000D01*
X149237000Y-100953000D01*
X149237000Y-100973000D01*
X149257000Y-100973000D01*
X149257000Y-101227000D01*
X149237000Y-101227000D01*
X149237000Y-102592250D01*
X149395750Y-102751000D01*
X150252310Y-102751000D01*
X150485699Y-102654327D01*
X150664327Y-102475698D01*
X150681999Y-102433034D01*
X151018190Y-102657670D01*
X151650000Y-102783345D01*
X152281810Y-102657670D01*
X152817433Y-102299778D01*
X153040000Y-101966683D01*
X153040000Y-111640000D01*
X147177000Y-111640000D01*
X147177000Y-104550000D01*
X147166994Y-104500590D01*
X147138553Y-104458965D01*
X147096159Y-104431685D01*
X147050000Y-104423000D01*
X139360000Y-104423000D01*
X139360000Y-102477830D01*
X139646511Y-102669271D01*
X140220000Y-102783345D01*
X140793489Y-102669271D01*
X141279670Y-102344415D01*
X141490000Y-102029634D01*
X141700330Y-102344415D01*
X142186511Y-102669271D01*
X142760000Y-102783345D01*
X143333489Y-102669271D01*
X143819670Y-102344415D01*
X143834500Y-102322220D01*
X143898073Y-102475698D01*
X144076701Y-102654327D01*
X144310090Y-102751000D01*
X145014250Y-102751000D01*
X145173000Y-102592250D01*
X145173000Y-101227000D01*
X145427000Y-101227000D01*
X145427000Y-102592250D01*
X145585750Y-102751000D01*
X146289910Y-102751000D01*
X146523299Y-102654327D01*
X146701927Y-102475698D01*
X146798600Y-102242309D01*
X146798600Y-101385750D01*
X147459000Y-101385750D01*
X147459000Y-102242309D01*
X147555673Y-102475698D01*
X147734301Y-102654327D01*
X147967690Y-102751000D01*
X148824250Y-102751000D01*
X148983000Y-102592250D01*
X148983000Y-101227000D01*
X147617750Y-101227000D01*
X147459000Y-101385750D01*
X146798600Y-101385750D01*
X146639850Y-101227000D01*
X145427000Y-101227000D01*
X145173000Y-101227000D01*
X145153000Y-101227000D01*
X145153000Y-100973000D01*
X145173000Y-100973000D01*
X145173000Y-100953000D01*
X145427000Y-100953000D01*
X145427000Y-100973000D01*
X146639850Y-100973000D01*
X146798600Y-100814250D01*
X146798600Y-99960000D01*
X147459000Y-99960000D01*
X147459000Y-100814250D01*
M02*
