G04 (Genere par PCBNEW (2007-05-25)) le 6/3/2008-19:56:09*
G01*
G70*
G90*
%MOIN*%
G04 Gerber Fmt 3.4, Leading zero omitted, Abs format*
%FSLAX34Y34*%
G04 APERTURE LIST*
%ADD10C,0.015000*%
%ADD11C,0.078700*%
%ADD12R,0.045000X0.025000*%
%ADD13R,0.025000X0.045000*%
%ADD14R,0.080000X0.060000*%
%ADD15R,0.036000X0.036000*%
%ADD16C,0.017000*%
G04 APERTURE END LIST*
G54D10*
X53650Y-33350D02*
X55350Y-33350D01*
X52450Y-33350D02*
X52450Y-33250D01*
X50750Y-33350D02*
X52450Y-33350D01*
X53650Y-30650D02*
X53650Y-33350D01*
X52450Y-30650D02*
X53650Y-30650D01*
X52450Y-32150D02*
X52450Y-30650D01*
X52450Y-33350D02*
X52450Y-32150D01*
X50750Y-40550D02*
X50750Y-33350D01*
X55350Y-40550D02*
X50750Y-40550D01*
X55350Y-33350D02*
X55350Y-40550D01*
G54D11*
X51950Y-39850D03*
X54300Y-39800D03*
X53150Y-39900D03*
X53050Y-33650D03*
X54750Y-34100D03*
X51550Y-34100D03*
G54D12*
X51500Y-35700D03*
X51500Y-35100D03*
G54D13*
X52700Y-35700D03*
X52100Y-35700D03*
X53400Y-35700D03*
X54000Y-35700D03*
G54D12*
X54850Y-35400D03*
X54850Y-36000D03*
G54D13*
X52700Y-39100D03*
X53300Y-39100D03*
G54D14*
X51700Y-38900D03*
X51700Y-37600D03*
X54500Y-37600D03*
X54500Y-38900D03*
G54D12*
X52750Y-34950D03*
X52750Y-34350D03*
X53650Y-34350D03*
X53650Y-34950D03*
G54D15*
X52700Y-38450D03*
X52700Y-37750D03*
X53500Y-38100D03*
X53450Y-37050D03*
X53450Y-36350D03*
X54250Y-36700D03*
X52650Y-36350D03*
X52650Y-37050D03*
X51850Y-36700D03*
G54D16*
X51950Y-39850D02*
X51950Y-39150D01*
X51950Y-39150D02*
X51700Y-38900D01*
X54300Y-39800D02*
X54300Y-39100D01*
X54300Y-39100D02*
X54500Y-38900D01*
X53150Y-40450D02*
X53150Y-40400D01*
X51000Y-40450D02*
X53200Y-40450D01*
X53200Y-40450D02*
X53150Y-40400D01*
X51000Y-35100D02*
X51000Y-40450D01*
X51000Y-34600D02*
X51000Y-35100D01*
X54850Y-36000D02*
X55200Y-36000D01*
X55200Y-40450D02*
X53150Y-40450D01*
X55200Y-36000D02*
X55200Y-40450D01*
X53300Y-39100D02*
X53500Y-38900D01*
X53500Y-38900D02*
X53500Y-38100D01*
X51000Y-34600D02*
X51000Y-34600D01*
X51550Y-34100D02*
X51500Y-34100D01*
X51500Y-34100D02*
X51000Y-34600D01*
X51500Y-35100D02*
X51000Y-35100D01*
X53300Y-39100D02*
X53300Y-39750D01*
X53300Y-39750D02*
X53150Y-39900D01*
X53150Y-39900D02*
X53150Y-40450D01*
X52700Y-35700D02*
X52700Y-36300D01*
X52700Y-36300D02*
X52650Y-36350D01*
X52700Y-35700D02*
X52700Y-35000D01*
X52700Y-35000D02*
X52750Y-34950D01*
X52750Y-34950D02*
X52550Y-34950D01*
X52450Y-33650D02*
X53050Y-33650D01*
X52550Y-34950D02*
X52200Y-34600D01*
X52200Y-34600D02*
X52200Y-33900D01*
X52200Y-33900D02*
X52450Y-33650D01*
X53400Y-35700D02*
X53400Y-36300D01*
X53400Y-36300D02*
X53450Y-36350D01*
X53400Y-35700D02*
X53400Y-35200D01*
X53400Y-35200D02*
X53650Y-34950D01*
X53650Y-34950D02*
X54200Y-34950D01*
X54750Y-34400D02*
X54750Y-34100D01*
X54200Y-34950D02*
X54750Y-34400D01*
X52100Y-35700D02*
X52100Y-36450D01*
X52100Y-36450D02*
X51850Y-36700D01*
X51700Y-37600D02*
X51700Y-36850D01*
X51700Y-36850D02*
X51850Y-36700D01*
X52100Y-35700D02*
X51500Y-35700D01*
X54000Y-35700D02*
X54000Y-36450D01*
X54000Y-36450D02*
X54250Y-36700D01*
X54000Y-35700D02*
X54000Y-35400D01*
X54000Y-35400D02*
X54850Y-35400D01*
X54500Y-37600D02*
X54500Y-36950D01*
X54500Y-36950D02*
X54250Y-36700D01*
X52700Y-39100D02*
X52700Y-38450D01*
X52750Y-34350D02*
X53650Y-34350D01*
X52650Y-37050D02*
X53450Y-37050D01*
X52700Y-37750D02*
X52700Y-37100D01*
X52700Y-37100D02*
X52650Y-37050D01*
M02*
