G04 #@! TF.FileFunction,Soldermask,Top*
%FSLAX46Y46*%
G04 Gerber Fmt 4.6, Leading zero omitted, Abs format (unit mm)*
G04 Created by KiCad (PCBNEW 4.0.4+e1-6308~48~ubuntu16.04.1-stable) date Thu Nov  3 23:15:19 2016*
%MOMM*%
%LPD*%
G01*
G04 APERTURE LIST*
%ADD10C,0.100000*%
%ADD11R,0.750000X0.800000*%
%ADD12R,1.220000X0.910000*%
%ADD13R,0.800100X0.800100*%
%ADD14R,0.900000X0.500000*%
%ADD15R,2.235200X2.235200*%
%ADD16R,0.850000X0.300000*%
G04 APERTURE END LIST*
D10*
D11*
X176000000Y-66250000D03*
X176000000Y-64750000D03*
X178000000Y-70500000D03*
X178000000Y-72000000D03*
X188275200Y-49851600D03*
X188275200Y-51351600D03*
X189275200Y-57351600D03*
X189275200Y-55851600D03*
D12*
X190275200Y-48966600D03*
X190275200Y-52236600D03*
X194275200Y-52236600D03*
X194275200Y-48966600D03*
X195000000Y-65365000D03*
X195000000Y-68635000D03*
D13*
X192950000Y-66499240D03*
X191050000Y-66499240D03*
X192000000Y-68498220D03*
D14*
X174000000Y-61750000D03*
X174000000Y-63250000D03*
X174000000Y-64750000D03*
X174000000Y-66250000D03*
X175000000Y-67750000D03*
X175000000Y-69250000D03*
X175000000Y-70750000D03*
X175000000Y-72250000D03*
X178000000Y-64750000D03*
X178000000Y-66250000D03*
X186275200Y-51351600D03*
X186275200Y-49851600D03*
X192275200Y-49851600D03*
X192275200Y-51351600D03*
X187275200Y-55851600D03*
X187275200Y-57351600D03*
X191500000Y-64750000D03*
X191500000Y-63250000D03*
X193750000Y-70250000D03*
X193750000Y-71750000D03*
X191750000Y-70250000D03*
X191750000Y-71750000D03*
D15*
X194360800Y-59690000D03*
X177241200Y-61620400D03*
X194360800Y-57150000D03*
X194360800Y-62230000D03*
D16*
X182550000Y-64750000D03*
X182550000Y-65250000D03*
X182550000Y-65750000D03*
X182550000Y-66250000D03*
X184450000Y-66250000D03*
X184450000Y-65750000D03*
X184450000Y-65250000D03*
X184450000Y-64750000D03*
D15*
X175550000Y-56700000D03*
X181950000Y-51850000D03*
M02*
