G04 #@! TF.FileFunction,Copper,L2,Bot,Signal*
%FSLAX46Y46*%
G04 Gerber Fmt 4.6, Leading zero omitted, Abs format (unit mm)*
G04 Created by KiCad (PCBNEW 4.0.4+e1-6308~48~ubuntu16.04.1-stable) date Thu Nov  3 23:15:19 2016*
%MOMM*%
%LPD*%
G01*
G04 APERTURE LIST*
%ADD10C,0.100000*%
%ADD11R,2.235200X2.235200*%
%ADD12C,0.600000*%
%ADD13C,0.250000*%
%ADD14C,0.254000*%
G04 APERTURE END LIST*
D10*
D11*
X194360800Y-59690000D03*
X177241200Y-61620400D03*
X194360800Y-57150000D03*
X194360800Y-62230000D03*
X175550000Y-56700000D03*
X181950000Y-51850000D03*
D12*
X181554480Y-66903165D03*
X174000000Y-72250000D03*
X173500000Y-67250000D03*
X194000000Y-68750000D03*
X190500000Y-53250000D03*
X189250000Y-58250000D03*
X188500000Y-62420000D03*
X185374990Y-63779513D03*
X178258003Y-67739757D03*
X190250000Y-66500000D03*
X188500000Y-64960000D03*
X185500000Y-65500000D03*
D13*
X186080000Y-62420000D02*
X185374990Y-63125010D01*
X185374990Y-63125010D02*
X185374990Y-63779513D01*
X188500000Y-62420000D02*
X186080000Y-62420000D01*
X178682267Y-67739757D02*
X178258003Y-67739757D01*
X189010243Y-67739757D02*
X178682267Y-67739757D01*
X190250000Y-66500000D02*
X189010243Y-67739757D01*
X188500000Y-64960000D02*
X186040000Y-64960000D01*
X186040000Y-64960000D02*
X185500000Y-65500000D01*
D14*
G36*
X195815000Y-55493849D02*
X195730290Y-55435969D01*
X195478400Y-55384960D01*
X193243200Y-55384960D01*
X193007883Y-55429238D01*
X192791759Y-55568310D01*
X192646769Y-55780510D01*
X192595760Y-56032400D01*
X192595760Y-58267600D01*
X192622740Y-58410987D01*
X192608200Y-58446090D01*
X192608200Y-59404250D01*
X192766950Y-59563000D01*
X194233800Y-59563000D01*
X194233800Y-59543000D01*
X194487800Y-59543000D01*
X194487800Y-59563000D01*
X194507800Y-59563000D01*
X194507800Y-59817000D01*
X194487800Y-59817000D01*
X194487800Y-59837000D01*
X194233800Y-59837000D01*
X194233800Y-59817000D01*
X192766950Y-59817000D01*
X192608200Y-59975750D01*
X192608200Y-60933910D01*
X192624121Y-60972347D01*
X192595760Y-61112400D01*
X192595760Y-63347600D01*
X192640038Y-63582917D01*
X192779110Y-63799041D01*
X192991310Y-63944031D01*
X193243200Y-63995040D01*
X195478400Y-63995040D01*
X195713717Y-63950762D01*
X195815000Y-63885588D01*
X195815000Y-72315000D01*
X172185000Y-72315000D01*
X172185000Y-67924924D01*
X177322841Y-67924924D01*
X177464886Y-68268700D01*
X177727676Y-68531949D01*
X178071204Y-68674595D01*
X178443170Y-68674919D01*
X178786946Y-68532874D01*
X178820121Y-68499757D01*
X189010243Y-68499757D01*
X189301082Y-68441905D01*
X189547644Y-68277158D01*
X190389680Y-67435122D01*
X190435167Y-67435162D01*
X190778943Y-67293117D01*
X191042192Y-67030327D01*
X191184838Y-66686799D01*
X191185162Y-66314833D01*
X191043117Y-65971057D01*
X190780327Y-65707808D01*
X190436799Y-65565162D01*
X190064833Y-65564838D01*
X189721057Y-65706883D01*
X189457808Y-65969673D01*
X189315162Y-66313201D01*
X189315121Y-66360077D01*
X188695441Y-66979757D01*
X178820466Y-66979757D01*
X178788330Y-66947565D01*
X178444802Y-66804919D01*
X178072836Y-66804595D01*
X177729060Y-66946640D01*
X177465811Y-67209430D01*
X177323165Y-67552958D01*
X177322841Y-67924924D01*
X172185000Y-67924924D01*
X172185000Y-63964680D01*
X184439828Y-63964680D01*
X184581873Y-64308456D01*
X184844663Y-64571705D01*
X185070878Y-64665638D01*
X184971057Y-64706883D01*
X184707808Y-64969673D01*
X184565162Y-65313201D01*
X184564838Y-65685167D01*
X184706883Y-66028943D01*
X184969673Y-66292192D01*
X185313201Y-66434838D01*
X185685167Y-66435162D01*
X186028943Y-66293117D01*
X186292192Y-66030327D01*
X186421052Y-65720000D01*
X187937537Y-65720000D01*
X187969673Y-65752192D01*
X188313201Y-65894838D01*
X188685167Y-65895162D01*
X189028943Y-65753117D01*
X189292192Y-65490327D01*
X189434838Y-65146799D01*
X189435162Y-64774833D01*
X189293117Y-64431057D01*
X189030327Y-64167808D01*
X188686799Y-64025162D01*
X188314833Y-64024838D01*
X187971057Y-64166883D01*
X187937882Y-64200000D01*
X186212792Y-64200000D01*
X186309828Y-63966312D01*
X186310152Y-63594346D01*
X186213755Y-63361047D01*
X186394802Y-63180000D01*
X187937537Y-63180000D01*
X187969673Y-63212192D01*
X188313201Y-63354838D01*
X188685167Y-63355162D01*
X189028943Y-63213117D01*
X189292192Y-62950327D01*
X189434838Y-62606799D01*
X189435162Y-62234833D01*
X189293117Y-61891057D01*
X189030327Y-61627808D01*
X188686799Y-61485162D01*
X188314833Y-61484838D01*
X187971057Y-61626883D01*
X187937882Y-61660000D01*
X186080000Y-61660000D01*
X185789161Y-61717852D01*
X185542599Y-61882599D01*
X184837589Y-62587609D01*
X184672842Y-62834171D01*
X184614990Y-63125010D01*
X184614990Y-63217050D01*
X184582798Y-63249186D01*
X184440152Y-63592714D01*
X184439828Y-63964680D01*
X172185000Y-63964680D01*
X172185000Y-60502800D01*
X175476160Y-60502800D01*
X175476160Y-62738000D01*
X175520438Y-62973317D01*
X175659510Y-63189441D01*
X175871710Y-63334431D01*
X176123600Y-63385440D01*
X178358800Y-63385440D01*
X178594117Y-63341162D01*
X178810241Y-63202090D01*
X178955231Y-62989890D01*
X179006240Y-62738000D01*
X179006240Y-60502800D01*
X178961962Y-60267483D01*
X178822890Y-60051359D01*
X178610690Y-59906369D01*
X178358800Y-59855360D01*
X176123600Y-59855360D01*
X175888283Y-59899638D01*
X175672159Y-60038710D01*
X175527169Y-60250910D01*
X175476160Y-60502800D01*
X172185000Y-60502800D01*
X172185000Y-55582400D01*
X173784960Y-55582400D01*
X173784960Y-57817600D01*
X173829238Y-58052917D01*
X173968310Y-58269041D01*
X174180510Y-58414031D01*
X174432400Y-58465040D01*
X176667600Y-58465040D01*
X176902917Y-58420762D01*
X177119041Y-58281690D01*
X177264031Y-58069490D01*
X177315040Y-57817600D01*
X177315040Y-55582400D01*
X177270762Y-55347083D01*
X177131690Y-55130959D01*
X176919490Y-54985969D01*
X176667600Y-54934960D01*
X174432400Y-54934960D01*
X174197083Y-54979238D01*
X173980959Y-55118310D01*
X173835969Y-55330510D01*
X173784960Y-55582400D01*
X172185000Y-55582400D01*
X172185000Y-50732400D01*
X180184960Y-50732400D01*
X180184960Y-52967600D01*
X180229238Y-53202917D01*
X180368310Y-53419041D01*
X180580510Y-53564031D01*
X180832400Y-53615040D01*
X183067600Y-53615040D01*
X183302917Y-53570762D01*
X183519041Y-53431690D01*
X183664031Y-53219490D01*
X183715040Y-52967600D01*
X183715040Y-50732400D01*
X183670762Y-50497083D01*
X183531690Y-50280959D01*
X183319490Y-50135969D01*
X183067600Y-50084960D01*
X180832400Y-50084960D01*
X180597083Y-50129238D01*
X180380959Y-50268310D01*
X180235969Y-50480510D01*
X180184960Y-50732400D01*
X172185000Y-50732400D01*
X172185000Y-46685000D01*
X195815000Y-46685000D01*
X195815000Y-55493849D01*
X195815000Y-55493849D01*
G37*
X195815000Y-55493849D02*
X195730290Y-55435969D01*
X195478400Y-55384960D01*
X193243200Y-55384960D01*
X193007883Y-55429238D01*
X192791759Y-55568310D01*
X192646769Y-55780510D01*
X192595760Y-56032400D01*
X192595760Y-58267600D01*
X192622740Y-58410987D01*
X192608200Y-58446090D01*
X192608200Y-59404250D01*
X192766950Y-59563000D01*
X194233800Y-59563000D01*
X194233800Y-59543000D01*
X194487800Y-59543000D01*
X194487800Y-59563000D01*
X194507800Y-59563000D01*
X194507800Y-59817000D01*
X194487800Y-59817000D01*
X194487800Y-59837000D01*
X194233800Y-59837000D01*
X194233800Y-59817000D01*
X192766950Y-59817000D01*
X192608200Y-59975750D01*
X192608200Y-60933910D01*
X192624121Y-60972347D01*
X192595760Y-61112400D01*
X192595760Y-63347600D01*
X192640038Y-63582917D01*
X192779110Y-63799041D01*
X192991310Y-63944031D01*
X193243200Y-63995040D01*
X195478400Y-63995040D01*
X195713717Y-63950762D01*
X195815000Y-63885588D01*
X195815000Y-72315000D01*
X172185000Y-72315000D01*
X172185000Y-67924924D01*
X177322841Y-67924924D01*
X177464886Y-68268700D01*
X177727676Y-68531949D01*
X178071204Y-68674595D01*
X178443170Y-68674919D01*
X178786946Y-68532874D01*
X178820121Y-68499757D01*
X189010243Y-68499757D01*
X189301082Y-68441905D01*
X189547644Y-68277158D01*
X190389680Y-67435122D01*
X190435167Y-67435162D01*
X190778943Y-67293117D01*
X191042192Y-67030327D01*
X191184838Y-66686799D01*
X191185162Y-66314833D01*
X191043117Y-65971057D01*
X190780327Y-65707808D01*
X190436799Y-65565162D01*
X190064833Y-65564838D01*
X189721057Y-65706883D01*
X189457808Y-65969673D01*
X189315162Y-66313201D01*
X189315121Y-66360077D01*
X188695441Y-66979757D01*
X178820466Y-66979757D01*
X178788330Y-66947565D01*
X178444802Y-66804919D01*
X178072836Y-66804595D01*
X177729060Y-66946640D01*
X177465811Y-67209430D01*
X177323165Y-67552958D01*
X177322841Y-67924924D01*
X172185000Y-67924924D01*
X172185000Y-63964680D01*
X184439828Y-63964680D01*
X184581873Y-64308456D01*
X184844663Y-64571705D01*
X185070878Y-64665638D01*
X184971057Y-64706883D01*
X184707808Y-64969673D01*
X184565162Y-65313201D01*
X184564838Y-65685167D01*
X184706883Y-66028943D01*
X184969673Y-66292192D01*
X185313201Y-66434838D01*
X185685167Y-66435162D01*
X186028943Y-66293117D01*
X186292192Y-66030327D01*
X186421052Y-65720000D01*
X187937537Y-65720000D01*
X187969673Y-65752192D01*
X188313201Y-65894838D01*
X188685167Y-65895162D01*
X189028943Y-65753117D01*
X189292192Y-65490327D01*
X189434838Y-65146799D01*
X189435162Y-64774833D01*
X189293117Y-64431057D01*
X189030327Y-64167808D01*
X188686799Y-64025162D01*
X188314833Y-64024838D01*
X187971057Y-64166883D01*
X187937882Y-64200000D01*
X186212792Y-64200000D01*
X186309828Y-63966312D01*
X186310152Y-63594346D01*
X186213755Y-63361047D01*
X186394802Y-63180000D01*
X187937537Y-63180000D01*
X187969673Y-63212192D01*
X188313201Y-63354838D01*
X188685167Y-63355162D01*
X189028943Y-63213117D01*
X189292192Y-62950327D01*
X189434838Y-62606799D01*
X189435162Y-62234833D01*
X189293117Y-61891057D01*
X189030327Y-61627808D01*
X188686799Y-61485162D01*
X188314833Y-61484838D01*
X187971057Y-61626883D01*
X187937882Y-61660000D01*
X186080000Y-61660000D01*
X185789161Y-61717852D01*
X185542599Y-61882599D01*
X184837589Y-62587609D01*
X184672842Y-62834171D01*
X184614990Y-63125010D01*
X184614990Y-63217050D01*
X184582798Y-63249186D01*
X184440152Y-63592714D01*
X184439828Y-63964680D01*
X172185000Y-63964680D01*
X172185000Y-60502800D01*
X175476160Y-60502800D01*
X175476160Y-62738000D01*
X175520438Y-62973317D01*
X175659510Y-63189441D01*
X175871710Y-63334431D01*
X176123600Y-63385440D01*
X178358800Y-63385440D01*
X178594117Y-63341162D01*
X178810241Y-63202090D01*
X178955231Y-62989890D01*
X179006240Y-62738000D01*
X179006240Y-60502800D01*
X178961962Y-60267483D01*
X178822890Y-60051359D01*
X178610690Y-59906369D01*
X178358800Y-59855360D01*
X176123600Y-59855360D01*
X175888283Y-59899638D01*
X175672159Y-60038710D01*
X175527169Y-60250910D01*
X175476160Y-60502800D01*
X172185000Y-60502800D01*
X172185000Y-55582400D01*
X173784960Y-55582400D01*
X173784960Y-57817600D01*
X173829238Y-58052917D01*
X173968310Y-58269041D01*
X174180510Y-58414031D01*
X174432400Y-58465040D01*
X176667600Y-58465040D01*
X176902917Y-58420762D01*
X177119041Y-58281690D01*
X177264031Y-58069490D01*
X177315040Y-57817600D01*
X177315040Y-55582400D01*
X177270762Y-55347083D01*
X177131690Y-55130959D01*
X176919490Y-54985969D01*
X176667600Y-54934960D01*
X174432400Y-54934960D01*
X174197083Y-54979238D01*
X173980959Y-55118310D01*
X173835969Y-55330510D01*
X173784960Y-55582400D01*
X172185000Y-55582400D01*
X172185000Y-50732400D01*
X180184960Y-50732400D01*
X180184960Y-52967600D01*
X180229238Y-53202917D01*
X180368310Y-53419041D01*
X180580510Y-53564031D01*
X180832400Y-53615040D01*
X183067600Y-53615040D01*
X183302917Y-53570762D01*
X183519041Y-53431690D01*
X183664031Y-53219490D01*
X183715040Y-52967600D01*
X183715040Y-50732400D01*
X183670762Y-50497083D01*
X183531690Y-50280959D01*
X183319490Y-50135969D01*
X183067600Y-50084960D01*
X180832400Y-50084960D01*
X180597083Y-50129238D01*
X180380959Y-50268310D01*
X180235969Y-50480510D01*
X180184960Y-50732400D01*
X172185000Y-50732400D01*
X172185000Y-46685000D01*
X195815000Y-46685000D01*
X195815000Y-55493849D01*
M02*
