M48
;DRILL file {KiCad 4.0.4+e1-6308~48~ubuntu16.04.1-stable} date Wed Oct 26 09:11:46 2016
;FORMAT={-:-/ absolute / metric / decimal}
FMAT,2
METRIC,TZ
T1C0.400
T2C1.016
%
G90
G05
M71
T1
X134.325Y-113.8
X144.85Y-108.5
X146.075Y-101.
X146.175Y-107.469
X146.196Y-108.521
X146.4Y-102.4
X147.Y-100.95
X148.4Y-104.
X148.703Y-101.7
X151.2Y-99.975
X161.1Y-94.375
X162.75Y-107.225
T2
X134.391Y-102.298
X136.931Y-99.758
X136.931Y-102.298
X136.931Y-104.838
X137.008Y-110.325
X139.446Y-96.139
X139.471Y-102.298
X139.548Y-107.785
X139.548Y-110.325
X139.548Y-112.865
X141.986Y-96.139
X142.088Y-110.325
X142.494Y-115.189
X144.526Y-96.139
X147.066Y-96.139
X147.574Y-115.189
X150.622Y-94.894
X152.463Y-115.189
X153.162Y-94.894
X155.245Y-101.905
X155.499Y-107.937
X155.499Y-110.477
X155.499Y-113.017
X156.718Y-93.65
X156.718Y-96.19
X156.718Y-98.73
X157.785Y-101.905
X159.258Y-96.19
X159.766Y-104.838
T0
M30
