%TF.GenerationSoftware,KiCad,Pcbnew,4.0.4+e1-6308~48~ubuntu16.04.1-stable*%
%TF.CreationDate,2016-10-26T09:11:57-07:00*%
%TF.ProjectId,CY8CMBR2044,435938434D4252323034342E6B696361,rev?*%
%TF.FileFunction,Paste,Top*%
%FSLAX46Y46*%
G04 Gerber Fmt 4.6, Leading zero omitted, Abs format (unit mm)*
G04 Created by KiCad (PCBNEW 4.0.4+e1-6308~48~ubuntu16.04.1-stable) date Wed Oct 26 09:11:57 2016*
%MOMM*%
%LPD*%
G01*
G04 APERTURE LIST*
%ADD10C,0.100000*%
%ADD11R,1.600000X2.000000*%
%ADD12R,0.750000X1.200000*%
%ADD13R,1.700000X2.000000*%
%ADD14R,2.000000X1.700000*%
%ADD15O,0.950000X0.250000*%
%ADD16O,0.250000X0.950000*%
G04 APERTURE END LIST*
D10*
D11*
X152332400Y-101979400D03*
X152332400Y-97979400D03*
X150032400Y-101979400D03*
X150032400Y-97979400D03*
D12*
X147828000Y-99872800D03*
X147828000Y-101772800D03*
D13*
X162610800Y-97409000D03*
X162610800Y-93409000D03*
D14*
X152972000Y-104838500D03*
X156972000Y-104838500D03*
D13*
X152527000Y-108521500D03*
X152527000Y-112521500D03*
X150114000Y-108521500D03*
X150114000Y-112521500D03*
X147701000Y-108521500D03*
X147701000Y-112521500D03*
D14*
X136499600Y-107315000D03*
X132499600Y-107315000D03*
X138938000Y-115570000D03*
X134938000Y-115570000D03*
D13*
X132410200Y-109880400D03*
X132410200Y-113880400D03*
D14*
X136525000Y-94361000D03*
X132525000Y-94361000D03*
X136525000Y-96748600D03*
X132525000Y-96748600D03*
X162496000Y-111760000D03*
X158496000Y-111760000D03*
X158496000Y-109220000D03*
X162496000Y-109220000D03*
D15*
X144050000Y-104150000D03*
X144050000Y-104650000D03*
X144050000Y-105150000D03*
X144050000Y-105650000D03*
D16*
X144750000Y-106350000D03*
X145250000Y-106350000D03*
X145750000Y-106350000D03*
X146250000Y-106350000D03*
D15*
X146950000Y-105650000D03*
X146950000Y-105150000D03*
X146950000Y-104650000D03*
X146950000Y-104150000D03*
D16*
X146250000Y-103450000D03*
X145750000Y-103450000D03*
X145250000Y-103450000D03*
X144750000Y-103450000D03*
M02*
