G04 #@! TF.FileFunction,Copper,L2,Bot,Signal*
%FSLAX46Y46*%
G04 Gerber Fmt 4.6, Leading zero omitted, Abs format (unit mm)*
G04 Created by KiCad (PCBNEW 4.0.4+e1-6308~48~ubuntu16.04.1-stable) date Thu Nov  3 23:11:18 2016*
%MOMM*%
%LPD*%
G01*
G04 APERTURE LIST*
%ADD10C,0.100000*%
%ADD11R,2.032000X2.032000*%
%ADD12O,2.032000X2.032000*%
%ADD13R,2.235200X2.235200*%
%ADD14R,2.032000X1.727200*%
%ADD15O,2.032000X1.727200*%
%ADD16C,2.235200*%
%ADD17C,2.032000*%
%ADD18R,1.727200X2.032000*%
%ADD19O,1.727200X2.032000*%
%ADD20C,0.600000*%
%ADD21C,0.250000*%
%ADD22C,0.254000*%
G04 APERTURE END LIST*
D10*
D11*
X150622000Y-94894400D03*
D12*
X153162000Y-94894400D03*
D13*
X159258000Y-96189800D03*
D14*
X156718000Y-93649800D03*
D15*
X156718000Y-96189800D03*
X156718000Y-98729800D03*
D13*
X159766000Y-104838500D03*
X152463500Y-115189000D03*
X147574000Y-115189000D03*
X142494000Y-115189000D03*
D16*
X142087600Y-110324900D03*
D17*
X139547600Y-107784900D03*
D15*
X139547600Y-110324900D03*
X139547600Y-112864900D03*
D16*
X137007600Y-110324900D03*
D18*
X139446000Y-96139000D03*
D19*
X141986000Y-96139000D03*
X144526000Y-96139000D03*
X147066000Y-96139000D03*
D13*
X136931400Y-99758500D03*
D18*
X134391400Y-102298500D03*
D19*
X136931400Y-102298500D03*
X139471400Y-102298500D03*
D13*
X136931400Y-104838500D03*
D14*
X155498800Y-107937300D03*
D15*
X155498800Y-110477300D03*
X155498800Y-113017300D03*
D11*
X155244800Y-101904800D03*
D12*
X157784800Y-101904800D03*
D20*
X146400000Y-102400000D03*
X162750000Y-107225000D03*
X134325000Y-113800000D03*
X161100000Y-94375000D03*
X147000000Y-100950000D03*
X151200000Y-99975000D03*
X146175010Y-107469457D03*
X148703002Y-101700001D03*
X148400000Y-104000000D03*
X146196500Y-108521500D03*
X144850000Y-108500000D03*
X146075000Y-101000000D03*
D21*
X146226500Y-102298500D02*
X146298500Y-102298500D01*
X146298500Y-102298500D02*
X146400000Y-102400000D01*
X139471400Y-102298500D02*
X146226500Y-102298500D01*
X147000000Y-100950000D02*
X147975000Y-99975000D01*
X147975000Y-99975000D02*
X151200000Y-99975000D01*
X148699999Y-103700001D02*
X148703002Y-101700001D01*
X148699999Y-101700001D02*
X148703002Y-101700001D01*
X148400000Y-104000000D02*
X148699999Y-103700001D01*
X144850000Y-108500000D02*
X146175000Y-108500000D01*
X146175000Y-108500000D02*
X146196500Y-108521500D01*
X146075000Y-101000000D02*
X146075000Y-97130000D01*
X146075000Y-97130000D02*
X147066000Y-96139000D01*
D22*
G36*
X155067000Y-92659890D02*
X155067000Y-93364050D01*
X155225750Y-93522800D01*
X156591000Y-93522800D01*
X156591000Y-93502800D01*
X156845000Y-93502800D01*
X156845000Y-93522800D01*
X158210250Y-93522800D01*
X158369000Y-93364050D01*
X158369000Y-92659890D01*
X158286203Y-92460000D01*
X163540000Y-92460000D01*
X163540000Y-116290000D01*
X154228540Y-116290000D01*
X154228540Y-114071400D01*
X154219868Y-114025311D01*
X154254385Y-114076970D01*
X154740566Y-114401826D01*
X155314055Y-114515900D01*
X155683545Y-114515900D01*
X156257034Y-114401826D01*
X156743215Y-114076970D01*
X157068071Y-113590789D01*
X157182145Y-113017300D01*
X157068071Y-112443811D01*
X156743215Y-111957630D01*
X156428434Y-111747300D01*
X156743215Y-111536970D01*
X157068071Y-111050789D01*
X157182145Y-110477300D01*
X157068071Y-109903811D01*
X156743215Y-109417630D01*
X156728887Y-109408057D01*
X156750117Y-109404062D01*
X156966241Y-109264990D01*
X157111231Y-109052790D01*
X157162240Y-108800900D01*
X157162240Y-107073700D01*
X157117962Y-106838383D01*
X156978890Y-106622259D01*
X156766690Y-106477269D01*
X156514800Y-106426260D01*
X154482800Y-106426260D01*
X154247483Y-106470538D01*
X154031359Y-106609610D01*
X153886369Y-106821810D01*
X153835360Y-107073700D01*
X153835360Y-108800900D01*
X153879638Y-109036217D01*
X154018710Y-109252341D01*
X154230910Y-109397331D01*
X154272239Y-109405700D01*
X154254385Y-109417630D01*
X153929529Y-109903811D01*
X153815455Y-110477300D01*
X153929529Y-111050789D01*
X154254385Y-111536970D01*
X154569166Y-111747300D01*
X154254385Y-111957630D01*
X153929529Y-112443811D01*
X153815455Y-113017300D01*
X153918052Y-113533089D01*
X153832990Y-113474969D01*
X153581100Y-113423960D01*
X151345900Y-113423960D01*
X151110583Y-113468238D01*
X150894459Y-113607310D01*
X150749469Y-113819510D01*
X150698460Y-114071400D01*
X150698460Y-116290000D01*
X149339040Y-116290000D01*
X149339040Y-114071400D01*
X149294762Y-113836083D01*
X149155690Y-113619959D01*
X148943490Y-113474969D01*
X148691600Y-113423960D01*
X146456400Y-113423960D01*
X146221083Y-113468238D01*
X146004959Y-113607310D01*
X145859969Y-113819510D01*
X145808960Y-114071400D01*
X145808960Y-116290000D01*
X144259040Y-116290000D01*
X144259040Y-114071400D01*
X144214762Y-113836083D01*
X144075690Y-113619959D01*
X143863490Y-113474969D01*
X143611600Y-113423960D01*
X141376400Y-113423960D01*
X141141083Y-113468238D01*
X141063621Y-113518084D01*
X141116871Y-113438389D01*
X141230945Y-112864900D01*
X141116871Y-112291411D01*
X140792015Y-111805230D01*
X140477234Y-111594900D01*
X140525731Y-111562495D01*
X141029610Y-111562495D01*
X141142668Y-111841554D01*
X141794994Y-112087715D01*
X142491867Y-112065504D01*
X143032532Y-111841554D01*
X143145590Y-111562495D01*
X142087600Y-110504505D01*
X141029610Y-111562495D01*
X140525731Y-111562495D01*
X140792015Y-111384570D01*
X140805252Y-111364759D01*
X140850005Y-111382890D01*
X141907995Y-110324900D01*
X142267205Y-110324900D01*
X143325195Y-111382890D01*
X143604254Y-111269832D01*
X143850415Y-110617506D01*
X143828204Y-109920633D01*
X143604254Y-109379968D01*
X143325195Y-109266910D01*
X142267205Y-110324900D01*
X141907995Y-110324900D01*
X140850005Y-109266910D01*
X140805252Y-109285041D01*
X140792015Y-109265230D01*
X140558137Y-109108958D01*
X140579827Y-109087305D01*
X141029610Y-109087305D01*
X142087600Y-110145295D01*
X143145590Y-109087305D01*
X143032532Y-108808246D01*
X142706373Y-108685167D01*
X143914838Y-108685167D01*
X144056883Y-109028943D01*
X144319673Y-109292192D01*
X144663201Y-109434838D01*
X145035167Y-109435162D01*
X145378943Y-109293117D01*
X145412118Y-109260000D01*
X145612575Y-109260000D01*
X145666173Y-109313692D01*
X146009701Y-109456338D01*
X146381667Y-109456662D01*
X146725443Y-109314617D01*
X146988692Y-109051827D01*
X147131338Y-108708299D01*
X147131662Y-108336333D01*
X146989617Y-107992557D01*
X146726827Y-107729308D01*
X146383299Y-107586662D01*
X146011333Y-107586338D01*
X145667557Y-107728383D01*
X145655920Y-107740000D01*
X145412463Y-107740000D01*
X145380327Y-107707808D01*
X145036799Y-107565162D01*
X144664833Y-107564838D01*
X144321057Y-107706883D01*
X144057808Y-107969673D01*
X143915162Y-108313201D01*
X143914838Y-108685167D01*
X142706373Y-108685167D01*
X142380206Y-108562085D01*
X141683333Y-108584296D01*
X141142668Y-108808246D01*
X141029610Y-109087305D01*
X140579827Y-109087305D01*
X140946434Y-108721337D01*
X141198313Y-108114745D01*
X141198886Y-107457937D01*
X140948066Y-106850905D01*
X140484037Y-106386066D01*
X139877445Y-106134187D01*
X139220637Y-106133614D01*
X138613605Y-106384434D01*
X138148766Y-106848463D01*
X137896887Y-107455055D01*
X137896314Y-108111863D01*
X138147134Y-108718895D01*
X138536735Y-109109176D01*
X138376959Y-109215936D01*
X138001664Y-108839985D01*
X137357743Y-108572605D01*
X136660516Y-108571997D01*
X136016129Y-108838252D01*
X135522685Y-109330836D01*
X135255305Y-109974757D01*
X135254697Y-110671984D01*
X135520952Y-111316371D01*
X136013536Y-111809815D01*
X136657457Y-112077195D01*
X137354684Y-112077803D01*
X137999071Y-111811548D01*
X138377232Y-111434046D01*
X138617966Y-111594900D01*
X138303185Y-111805230D01*
X137978329Y-112291411D01*
X137864255Y-112864900D01*
X137978329Y-113438389D01*
X138303185Y-113924570D01*
X138789366Y-114249426D01*
X139362855Y-114363500D01*
X139732345Y-114363500D01*
X140305834Y-114249426D01*
X140753480Y-113950319D01*
X140728960Y-114071400D01*
X140728960Y-116290000D01*
X131460000Y-116290000D01*
X131460000Y-102584250D01*
X132892800Y-102584250D01*
X132892800Y-103440809D01*
X132989473Y-103674198D01*
X133168101Y-103852827D01*
X133401490Y-103949500D01*
X134105650Y-103949500D01*
X134264400Y-103790750D01*
X134264400Y-102425500D01*
X133051550Y-102425500D01*
X132892800Y-102584250D01*
X131460000Y-102584250D01*
X131460000Y-101156191D01*
X132892800Y-101156191D01*
X132892800Y-102012750D01*
X133051550Y-102171500D01*
X134264400Y-102171500D01*
X134264400Y-100806250D01*
X134518400Y-100806250D01*
X134518400Y-102171500D01*
X134538400Y-102171500D01*
X134538400Y-102425500D01*
X134518400Y-102425500D01*
X134518400Y-103790750D01*
X134677150Y-103949500D01*
X135166360Y-103949500D01*
X135166360Y-105956100D01*
X135210638Y-106191417D01*
X135349710Y-106407541D01*
X135561910Y-106552531D01*
X135813800Y-106603540D01*
X138049000Y-106603540D01*
X138284317Y-106559262D01*
X138500441Y-106420190D01*
X138645431Y-106207990D01*
X138696440Y-105956100D01*
X138696440Y-104185167D01*
X147464838Y-104185167D01*
X147606883Y-104528943D01*
X147869673Y-104792192D01*
X148213201Y-104934838D01*
X148585167Y-104935162D01*
X148928943Y-104793117D01*
X149192192Y-104530327D01*
X149334838Y-104186799D01*
X149334921Y-104091526D01*
X149401710Y-103991894D01*
X149401825Y-103991323D01*
X149402147Y-103990840D01*
X149430943Y-103846074D01*
X149459998Y-103701142D01*
X149462157Y-102263307D01*
X149495194Y-102230328D01*
X149637840Y-101886800D01*
X149638164Y-101514834D01*
X149496119Y-101171058D01*
X149233329Y-100907809D01*
X149187551Y-100888800D01*
X153581360Y-100888800D01*
X153581360Y-102920800D01*
X153625638Y-103156117D01*
X153764710Y-103372241D01*
X153976910Y-103517231D01*
X154228800Y-103568240D01*
X156260800Y-103568240D01*
X156496117Y-103523962D01*
X156712241Y-103384890D01*
X156813998Y-103235963D01*
X157152990Y-103462470D01*
X157784800Y-103588145D01*
X158038044Y-103537771D01*
X158000960Y-103720900D01*
X158000960Y-105956100D01*
X158045238Y-106191417D01*
X158184310Y-106407541D01*
X158396510Y-106552531D01*
X158648400Y-106603540D01*
X160883600Y-106603540D01*
X161118917Y-106559262D01*
X161335041Y-106420190D01*
X161480031Y-106207990D01*
X161531040Y-105956100D01*
X161531040Y-103720900D01*
X161486762Y-103485583D01*
X161347690Y-103269459D01*
X161135490Y-103124469D01*
X160883600Y-103073460D01*
X158973025Y-103073460D01*
X159310125Y-102568955D01*
X159435800Y-101937145D01*
X159435800Y-101872455D01*
X159310125Y-101240645D01*
X158952233Y-100705022D01*
X158416610Y-100347130D01*
X157784800Y-100221455D01*
X157152990Y-100347130D01*
X156813008Y-100574299D01*
X156724890Y-100437359D01*
X156512690Y-100292369D01*
X156260800Y-100241360D01*
X154228800Y-100241360D01*
X153993483Y-100285638D01*
X153777359Y-100424710D01*
X153632369Y-100636910D01*
X153581360Y-100888800D01*
X149187551Y-100888800D01*
X148889801Y-100765163D01*
X148517835Y-100764839D01*
X148174059Y-100906884D01*
X147910810Y-101169674D01*
X147768164Y-101513202D01*
X147767840Y-101885168D01*
X147909885Y-102228944D01*
X147942159Y-102261274D01*
X147940782Y-103178073D01*
X147871057Y-103206883D01*
X147607808Y-103469673D01*
X147465162Y-103813201D01*
X147464838Y-104185167D01*
X138696440Y-104185167D01*
X138696440Y-103733152D01*
X138897911Y-103867771D01*
X139471400Y-103981845D01*
X140044889Y-103867771D01*
X140531070Y-103542915D01*
X140854746Y-103058500D01*
X145736214Y-103058500D01*
X145869673Y-103192192D01*
X146213201Y-103334838D01*
X146585167Y-103335162D01*
X146928943Y-103193117D01*
X147192192Y-102930327D01*
X147334838Y-102586799D01*
X147335162Y-102214833D01*
X147193117Y-101871057D01*
X146930327Y-101607808D01*
X146830924Y-101566532D01*
X146867192Y-101530327D01*
X147009838Y-101186799D01*
X147010162Y-100814833D01*
X146868117Y-100471057D01*
X146835000Y-100437882D01*
X146835000Y-97776396D01*
X147066000Y-97822345D01*
X147639489Y-97708271D01*
X148125670Y-97383415D01*
X148450526Y-96897234D01*
X148564600Y-96323745D01*
X148564600Y-95954255D01*
X148450526Y-95380766D01*
X148125670Y-94894585D01*
X147639489Y-94569729D01*
X147066000Y-94455655D01*
X146492511Y-94569729D01*
X146006330Y-94894585D01*
X145796000Y-95209366D01*
X145585670Y-94894585D01*
X145099489Y-94569729D01*
X144526000Y-94455655D01*
X143952511Y-94569729D01*
X143466330Y-94894585D01*
X143256000Y-95209366D01*
X143045670Y-94894585D01*
X142559489Y-94569729D01*
X141986000Y-94455655D01*
X141412511Y-94569729D01*
X140926330Y-94894585D01*
X140916757Y-94908913D01*
X140912762Y-94887683D01*
X140773690Y-94671559D01*
X140561490Y-94526569D01*
X140309600Y-94475560D01*
X138582400Y-94475560D01*
X138347083Y-94519838D01*
X138130959Y-94658910D01*
X137985969Y-94871110D01*
X137934960Y-95123000D01*
X137934960Y-97155000D01*
X137979238Y-97390317D01*
X138118310Y-97606441D01*
X138330510Y-97751431D01*
X138582400Y-97802440D01*
X140309600Y-97802440D01*
X140544917Y-97758162D01*
X140761041Y-97619090D01*
X140906031Y-97406890D01*
X140914400Y-97365561D01*
X140926330Y-97383415D01*
X141412511Y-97708271D01*
X141986000Y-97822345D01*
X142559489Y-97708271D01*
X143045670Y-97383415D01*
X143256000Y-97068634D01*
X143466330Y-97383415D01*
X143952511Y-97708271D01*
X144526000Y-97822345D01*
X145099489Y-97708271D01*
X145315000Y-97564271D01*
X145315000Y-100437537D01*
X145282808Y-100469673D01*
X145140162Y-100813201D01*
X145139838Y-101185167D01*
X145281883Y-101528943D01*
X145291423Y-101538500D01*
X140854746Y-101538500D01*
X140531070Y-101054085D01*
X140044889Y-100729229D01*
X139471400Y-100615155D01*
X138897911Y-100729229D01*
X138696440Y-100863848D01*
X138696440Y-98640900D01*
X138652162Y-98405583D01*
X138513090Y-98189459D01*
X138300890Y-98044469D01*
X138049000Y-97993460D01*
X135813800Y-97993460D01*
X135578483Y-98037738D01*
X135362359Y-98176810D01*
X135217369Y-98389010D01*
X135166360Y-98640900D01*
X135166360Y-100647500D01*
X134677150Y-100647500D01*
X134518400Y-100806250D01*
X134264400Y-100806250D01*
X134105650Y-100647500D01*
X133401490Y-100647500D01*
X133168101Y-100744173D01*
X132989473Y-100922802D01*
X132892800Y-101156191D01*
X131460000Y-101156191D01*
X131460000Y-93878400D01*
X148958560Y-93878400D01*
X148958560Y-95910400D01*
X149002838Y-96145717D01*
X149141910Y-96361841D01*
X149354110Y-96506831D01*
X149606000Y-96557840D01*
X151638000Y-96557840D01*
X151873317Y-96513562D01*
X152089441Y-96374490D01*
X152200840Y-96211452D01*
X152297182Y-96300785D01*
X152779056Y-96500375D01*
X153035000Y-96381236D01*
X153035000Y-95021400D01*
X153289000Y-95021400D01*
X153289000Y-96381236D01*
X153544944Y-96500375D01*
X154026818Y-96300785D01*
X154146510Y-96189800D01*
X155034655Y-96189800D01*
X155148729Y-96763289D01*
X155473585Y-97249470D01*
X155788366Y-97459800D01*
X155473585Y-97670130D01*
X155148729Y-98156311D01*
X155034655Y-98729800D01*
X155148729Y-99303289D01*
X155473585Y-99789470D01*
X155959766Y-100114326D01*
X156533255Y-100228400D01*
X156902745Y-100228400D01*
X157476234Y-100114326D01*
X157962415Y-99789470D01*
X158287271Y-99303289D01*
X158401345Y-98729800D01*
X158287271Y-98156311D01*
X158152652Y-97954840D01*
X160375600Y-97954840D01*
X160610917Y-97910562D01*
X160827041Y-97771490D01*
X160972031Y-97559290D01*
X161023040Y-97307400D01*
X161023040Y-95072200D01*
X160978762Y-94836883D01*
X160839690Y-94620759D01*
X160627490Y-94475769D01*
X160375600Y-94424760D01*
X158369000Y-94424760D01*
X158369000Y-93935550D01*
X158210250Y-93776800D01*
X156845000Y-93776800D01*
X156845000Y-93796800D01*
X156591000Y-93796800D01*
X156591000Y-93776800D01*
X155225750Y-93776800D01*
X155067000Y-93935550D01*
X155067000Y-94639710D01*
X155163673Y-94873099D01*
X155342302Y-95051727D01*
X155495780Y-95115300D01*
X155473585Y-95130130D01*
X155148729Y-95616311D01*
X155034655Y-96189800D01*
X154146510Y-96189800D01*
X154499188Y-95862779D01*
X154767983Y-95277346D01*
X154649367Y-95021400D01*
X153289000Y-95021400D01*
X153035000Y-95021400D01*
X153015000Y-95021400D01*
X153015000Y-94767400D01*
X153035000Y-94767400D01*
X153035000Y-93407564D01*
X153289000Y-93407564D01*
X153289000Y-94767400D01*
X154649367Y-94767400D01*
X154767983Y-94511454D01*
X154499188Y-93926021D01*
X154026818Y-93488015D01*
X153544944Y-93288425D01*
X153289000Y-93407564D01*
X153035000Y-93407564D01*
X152779056Y-93288425D01*
X152297182Y-93488015D01*
X152199602Y-93578497D01*
X152102090Y-93426959D01*
X151889890Y-93281969D01*
X151638000Y-93230960D01*
X149606000Y-93230960D01*
X149370683Y-93275238D01*
X149154559Y-93414310D01*
X149009569Y-93626510D01*
X148958560Y-93878400D01*
X131460000Y-93878400D01*
X131460000Y-92460000D01*
X155149797Y-92460000D01*
X155067000Y-92659890D01*
X155067000Y-92659890D01*
G37*
X155067000Y-92659890D02*
X155067000Y-93364050D01*
X155225750Y-93522800D01*
X156591000Y-93522800D01*
X156591000Y-93502800D01*
X156845000Y-93502800D01*
X156845000Y-93522800D01*
X158210250Y-93522800D01*
X158369000Y-93364050D01*
X158369000Y-92659890D01*
X158286203Y-92460000D01*
X163540000Y-92460000D01*
X163540000Y-116290000D01*
X154228540Y-116290000D01*
X154228540Y-114071400D01*
X154219868Y-114025311D01*
X154254385Y-114076970D01*
X154740566Y-114401826D01*
X155314055Y-114515900D01*
X155683545Y-114515900D01*
X156257034Y-114401826D01*
X156743215Y-114076970D01*
X157068071Y-113590789D01*
X157182145Y-113017300D01*
X157068071Y-112443811D01*
X156743215Y-111957630D01*
X156428434Y-111747300D01*
X156743215Y-111536970D01*
X157068071Y-111050789D01*
X157182145Y-110477300D01*
X157068071Y-109903811D01*
X156743215Y-109417630D01*
X156728887Y-109408057D01*
X156750117Y-109404062D01*
X156966241Y-109264990D01*
X157111231Y-109052790D01*
X157162240Y-108800900D01*
X157162240Y-107073700D01*
X157117962Y-106838383D01*
X156978890Y-106622259D01*
X156766690Y-106477269D01*
X156514800Y-106426260D01*
X154482800Y-106426260D01*
X154247483Y-106470538D01*
X154031359Y-106609610D01*
X153886369Y-106821810D01*
X153835360Y-107073700D01*
X153835360Y-108800900D01*
X153879638Y-109036217D01*
X154018710Y-109252341D01*
X154230910Y-109397331D01*
X154272239Y-109405700D01*
X154254385Y-109417630D01*
X153929529Y-109903811D01*
X153815455Y-110477300D01*
X153929529Y-111050789D01*
X154254385Y-111536970D01*
X154569166Y-111747300D01*
X154254385Y-111957630D01*
X153929529Y-112443811D01*
X153815455Y-113017300D01*
X153918052Y-113533089D01*
X153832990Y-113474969D01*
X153581100Y-113423960D01*
X151345900Y-113423960D01*
X151110583Y-113468238D01*
X150894459Y-113607310D01*
X150749469Y-113819510D01*
X150698460Y-114071400D01*
X150698460Y-116290000D01*
X149339040Y-116290000D01*
X149339040Y-114071400D01*
X149294762Y-113836083D01*
X149155690Y-113619959D01*
X148943490Y-113474969D01*
X148691600Y-113423960D01*
X146456400Y-113423960D01*
X146221083Y-113468238D01*
X146004959Y-113607310D01*
X145859969Y-113819510D01*
X145808960Y-114071400D01*
X145808960Y-116290000D01*
X144259040Y-116290000D01*
X144259040Y-114071400D01*
X144214762Y-113836083D01*
X144075690Y-113619959D01*
X143863490Y-113474969D01*
X143611600Y-113423960D01*
X141376400Y-113423960D01*
X141141083Y-113468238D01*
X141063621Y-113518084D01*
X141116871Y-113438389D01*
X141230945Y-112864900D01*
X141116871Y-112291411D01*
X140792015Y-111805230D01*
X140477234Y-111594900D01*
X140525731Y-111562495D01*
X141029610Y-111562495D01*
X141142668Y-111841554D01*
X141794994Y-112087715D01*
X142491867Y-112065504D01*
X143032532Y-111841554D01*
X143145590Y-111562495D01*
X142087600Y-110504505D01*
X141029610Y-111562495D01*
X140525731Y-111562495D01*
X140792015Y-111384570D01*
X140805252Y-111364759D01*
X140850005Y-111382890D01*
X141907995Y-110324900D01*
X142267205Y-110324900D01*
X143325195Y-111382890D01*
X143604254Y-111269832D01*
X143850415Y-110617506D01*
X143828204Y-109920633D01*
X143604254Y-109379968D01*
X143325195Y-109266910D01*
X142267205Y-110324900D01*
X141907995Y-110324900D01*
X140850005Y-109266910D01*
X140805252Y-109285041D01*
X140792015Y-109265230D01*
X140558137Y-109108958D01*
X140579827Y-109087305D01*
X141029610Y-109087305D01*
X142087600Y-110145295D01*
X143145590Y-109087305D01*
X143032532Y-108808246D01*
X142706373Y-108685167D01*
X143914838Y-108685167D01*
X144056883Y-109028943D01*
X144319673Y-109292192D01*
X144663201Y-109434838D01*
X145035167Y-109435162D01*
X145378943Y-109293117D01*
X145412118Y-109260000D01*
X145612575Y-109260000D01*
X145666173Y-109313692D01*
X146009701Y-109456338D01*
X146381667Y-109456662D01*
X146725443Y-109314617D01*
X146988692Y-109051827D01*
X147131338Y-108708299D01*
X147131662Y-108336333D01*
X146989617Y-107992557D01*
X146726827Y-107729308D01*
X146383299Y-107586662D01*
X146011333Y-107586338D01*
X145667557Y-107728383D01*
X145655920Y-107740000D01*
X145412463Y-107740000D01*
X145380327Y-107707808D01*
X145036799Y-107565162D01*
X144664833Y-107564838D01*
X144321057Y-107706883D01*
X144057808Y-107969673D01*
X143915162Y-108313201D01*
X143914838Y-108685167D01*
X142706373Y-108685167D01*
X142380206Y-108562085D01*
X141683333Y-108584296D01*
X141142668Y-108808246D01*
X141029610Y-109087305D01*
X140579827Y-109087305D01*
X140946434Y-108721337D01*
X141198313Y-108114745D01*
X141198886Y-107457937D01*
X140948066Y-106850905D01*
X140484037Y-106386066D01*
X139877445Y-106134187D01*
X139220637Y-106133614D01*
X138613605Y-106384434D01*
X138148766Y-106848463D01*
X137896887Y-107455055D01*
X137896314Y-108111863D01*
X138147134Y-108718895D01*
X138536735Y-109109176D01*
X138376959Y-109215936D01*
X138001664Y-108839985D01*
X137357743Y-108572605D01*
X136660516Y-108571997D01*
X136016129Y-108838252D01*
X135522685Y-109330836D01*
X135255305Y-109974757D01*
X135254697Y-110671984D01*
X135520952Y-111316371D01*
X136013536Y-111809815D01*
X136657457Y-112077195D01*
X137354684Y-112077803D01*
X137999071Y-111811548D01*
X138377232Y-111434046D01*
X138617966Y-111594900D01*
X138303185Y-111805230D01*
X137978329Y-112291411D01*
X137864255Y-112864900D01*
X137978329Y-113438389D01*
X138303185Y-113924570D01*
X138789366Y-114249426D01*
X139362855Y-114363500D01*
X139732345Y-114363500D01*
X140305834Y-114249426D01*
X140753480Y-113950319D01*
X140728960Y-114071400D01*
X140728960Y-116290000D01*
X131460000Y-116290000D01*
X131460000Y-102584250D01*
X132892800Y-102584250D01*
X132892800Y-103440809D01*
X132989473Y-103674198D01*
X133168101Y-103852827D01*
X133401490Y-103949500D01*
X134105650Y-103949500D01*
X134264400Y-103790750D01*
X134264400Y-102425500D01*
X133051550Y-102425500D01*
X132892800Y-102584250D01*
X131460000Y-102584250D01*
X131460000Y-101156191D01*
X132892800Y-101156191D01*
X132892800Y-102012750D01*
X133051550Y-102171500D01*
X134264400Y-102171500D01*
X134264400Y-100806250D01*
X134518400Y-100806250D01*
X134518400Y-102171500D01*
X134538400Y-102171500D01*
X134538400Y-102425500D01*
X134518400Y-102425500D01*
X134518400Y-103790750D01*
X134677150Y-103949500D01*
X135166360Y-103949500D01*
X135166360Y-105956100D01*
X135210638Y-106191417D01*
X135349710Y-106407541D01*
X135561910Y-106552531D01*
X135813800Y-106603540D01*
X138049000Y-106603540D01*
X138284317Y-106559262D01*
X138500441Y-106420190D01*
X138645431Y-106207990D01*
X138696440Y-105956100D01*
X138696440Y-104185167D01*
X147464838Y-104185167D01*
X147606883Y-104528943D01*
X147869673Y-104792192D01*
X148213201Y-104934838D01*
X148585167Y-104935162D01*
X148928943Y-104793117D01*
X149192192Y-104530327D01*
X149334838Y-104186799D01*
X149334921Y-104091526D01*
X149401710Y-103991894D01*
X149401825Y-103991323D01*
X149402147Y-103990840D01*
X149430943Y-103846074D01*
X149459998Y-103701142D01*
X149462157Y-102263307D01*
X149495194Y-102230328D01*
X149637840Y-101886800D01*
X149638164Y-101514834D01*
X149496119Y-101171058D01*
X149233329Y-100907809D01*
X149187551Y-100888800D01*
X153581360Y-100888800D01*
X153581360Y-102920800D01*
X153625638Y-103156117D01*
X153764710Y-103372241D01*
X153976910Y-103517231D01*
X154228800Y-103568240D01*
X156260800Y-103568240D01*
X156496117Y-103523962D01*
X156712241Y-103384890D01*
X156813998Y-103235963D01*
X157152990Y-103462470D01*
X157784800Y-103588145D01*
X158038044Y-103537771D01*
X158000960Y-103720900D01*
X158000960Y-105956100D01*
X158045238Y-106191417D01*
X158184310Y-106407541D01*
X158396510Y-106552531D01*
X158648400Y-106603540D01*
X160883600Y-106603540D01*
X161118917Y-106559262D01*
X161335041Y-106420190D01*
X161480031Y-106207990D01*
X161531040Y-105956100D01*
X161531040Y-103720900D01*
X161486762Y-103485583D01*
X161347690Y-103269459D01*
X161135490Y-103124469D01*
X160883600Y-103073460D01*
X158973025Y-103073460D01*
X159310125Y-102568955D01*
X159435800Y-101937145D01*
X159435800Y-101872455D01*
X159310125Y-101240645D01*
X158952233Y-100705022D01*
X158416610Y-100347130D01*
X157784800Y-100221455D01*
X157152990Y-100347130D01*
X156813008Y-100574299D01*
X156724890Y-100437359D01*
X156512690Y-100292369D01*
X156260800Y-100241360D01*
X154228800Y-100241360D01*
X153993483Y-100285638D01*
X153777359Y-100424710D01*
X153632369Y-100636910D01*
X153581360Y-100888800D01*
X149187551Y-100888800D01*
X148889801Y-100765163D01*
X148517835Y-100764839D01*
X148174059Y-100906884D01*
X147910810Y-101169674D01*
X147768164Y-101513202D01*
X147767840Y-101885168D01*
X147909885Y-102228944D01*
X147942159Y-102261274D01*
X147940782Y-103178073D01*
X147871057Y-103206883D01*
X147607808Y-103469673D01*
X147465162Y-103813201D01*
X147464838Y-104185167D01*
X138696440Y-104185167D01*
X138696440Y-103733152D01*
X138897911Y-103867771D01*
X139471400Y-103981845D01*
X140044889Y-103867771D01*
X140531070Y-103542915D01*
X140854746Y-103058500D01*
X145736214Y-103058500D01*
X145869673Y-103192192D01*
X146213201Y-103334838D01*
X146585167Y-103335162D01*
X146928943Y-103193117D01*
X147192192Y-102930327D01*
X147334838Y-102586799D01*
X147335162Y-102214833D01*
X147193117Y-101871057D01*
X146930327Y-101607808D01*
X146830924Y-101566532D01*
X146867192Y-101530327D01*
X147009838Y-101186799D01*
X147010162Y-100814833D01*
X146868117Y-100471057D01*
X146835000Y-100437882D01*
X146835000Y-97776396D01*
X147066000Y-97822345D01*
X147639489Y-97708271D01*
X148125670Y-97383415D01*
X148450526Y-96897234D01*
X148564600Y-96323745D01*
X148564600Y-95954255D01*
X148450526Y-95380766D01*
X148125670Y-94894585D01*
X147639489Y-94569729D01*
X147066000Y-94455655D01*
X146492511Y-94569729D01*
X146006330Y-94894585D01*
X145796000Y-95209366D01*
X145585670Y-94894585D01*
X145099489Y-94569729D01*
X144526000Y-94455655D01*
X143952511Y-94569729D01*
X143466330Y-94894585D01*
X143256000Y-95209366D01*
X143045670Y-94894585D01*
X142559489Y-94569729D01*
X141986000Y-94455655D01*
X141412511Y-94569729D01*
X140926330Y-94894585D01*
X140916757Y-94908913D01*
X140912762Y-94887683D01*
X140773690Y-94671559D01*
X140561490Y-94526569D01*
X140309600Y-94475560D01*
X138582400Y-94475560D01*
X138347083Y-94519838D01*
X138130959Y-94658910D01*
X137985969Y-94871110D01*
X137934960Y-95123000D01*
X137934960Y-97155000D01*
X137979238Y-97390317D01*
X138118310Y-97606441D01*
X138330510Y-97751431D01*
X138582400Y-97802440D01*
X140309600Y-97802440D01*
X140544917Y-97758162D01*
X140761041Y-97619090D01*
X140906031Y-97406890D01*
X140914400Y-97365561D01*
X140926330Y-97383415D01*
X141412511Y-97708271D01*
X141986000Y-97822345D01*
X142559489Y-97708271D01*
X143045670Y-97383415D01*
X143256000Y-97068634D01*
X143466330Y-97383415D01*
X143952511Y-97708271D01*
X144526000Y-97822345D01*
X145099489Y-97708271D01*
X145315000Y-97564271D01*
X145315000Y-100437537D01*
X145282808Y-100469673D01*
X145140162Y-100813201D01*
X145139838Y-101185167D01*
X145281883Y-101528943D01*
X145291423Y-101538500D01*
X140854746Y-101538500D01*
X140531070Y-101054085D01*
X140044889Y-100729229D01*
X139471400Y-100615155D01*
X138897911Y-100729229D01*
X138696440Y-100863848D01*
X138696440Y-98640900D01*
X138652162Y-98405583D01*
X138513090Y-98189459D01*
X138300890Y-98044469D01*
X138049000Y-97993460D01*
X135813800Y-97993460D01*
X135578483Y-98037738D01*
X135362359Y-98176810D01*
X135217369Y-98389010D01*
X135166360Y-98640900D01*
X135166360Y-100647500D01*
X134677150Y-100647500D01*
X134518400Y-100806250D01*
X134264400Y-100806250D01*
X134105650Y-100647500D01*
X133401490Y-100647500D01*
X133168101Y-100744173D01*
X132989473Y-100922802D01*
X132892800Y-101156191D01*
X131460000Y-101156191D01*
X131460000Y-93878400D01*
X148958560Y-93878400D01*
X148958560Y-95910400D01*
X149002838Y-96145717D01*
X149141910Y-96361841D01*
X149354110Y-96506831D01*
X149606000Y-96557840D01*
X151638000Y-96557840D01*
X151873317Y-96513562D01*
X152089441Y-96374490D01*
X152200840Y-96211452D01*
X152297182Y-96300785D01*
X152779056Y-96500375D01*
X153035000Y-96381236D01*
X153035000Y-95021400D01*
X153289000Y-95021400D01*
X153289000Y-96381236D01*
X153544944Y-96500375D01*
X154026818Y-96300785D01*
X154146510Y-96189800D01*
X155034655Y-96189800D01*
X155148729Y-96763289D01*
X155473585Y-97249470D01*
X155788366Y-97459800D01*
X155473585Y-97670130D01*
X155148729Y-98156311D01*
X155034655Y-98729800D01*
X155148729Y-99303289D01*
X155473585Y-99789470D01*
X155959766Y-100114326D01*
X156533255Y-100228400D01*
X156902745Y-100228400D01*
X157476234Y-100114326D01*
X157962415Y-99789470D01*
X158287271Y-99303289D01*
X158401345Y-98729800D01*
X158287271Y-98156311D01*
X158152652Y-97954840D01*
X160375600Y-97954840D01*
X160610917Y-97910562D01*
X160827041Y-97771490D01*
X160972031Y-97559290D01*
X161023040Y-97307400D01*
X161023040Y-95072200D01*
X160978762Y-94836883D01*
X160839690Y-94620759D01*
X160627490Y-94475769D01*
X160375600Y-94424760D01*
X158369000Y-94424760D01*
X158369000Y-93935550D01*
X158210250Y-93776800D01*
X156845000Y-93776800D01*
X156845000Y-93796800D01*
X156591000Y-93796800D01*
X156591000Y-93776800D01*
X155225750Y-93776800D01*
X155067000Y-93935550D01*
X155067000Y-94639710D01*
X155163673Y-94873099D01*
X155342302Y-95051727D01*
X155495780Y-95115300D01*
X155473585Y-95130130D01*
X155148729Y-95616311D01*
X155034655Y-96189800D01*
X154146510Y-96189800D01*
X154499188Y-95862779D01*
X154767983Y-95277346D01*
X154649367Y-95021400D01*
X153289000Y-95021400D01*
X153035000Y-95021400D01*
X153015000Y-95021400D01*
X153015000Y-94767400D01*
X153035000Y-94767400D01*
X153035000Y-93407564D01*
X153289000Y-93407564D01*
X153289000Y-94767400D01*
X154649367Y-94767400D01*
X154767983Y-94511454D01*
X154499188Y-93926021D01*
X154026818Y-93488015D01*
X153544944Y-93288425D01*
X153289000Y-93407564D01*
X153035000Y-93407564D01*
X152779056Y-93288425D01*
X152297182Y-93488015D01*
X152199602Y-93578497D01*
X152102090Y-93426959D01*
X151889890Y-93281969D01*
X151638000Y-93230960D01*
X149606000Y-93230960D01*
X149370683Y-93275238D01*
X149154559Y-93414310D01*
X149009569Y-93626510D01*
X148958560Y-93878400D01*
X131460000Y-93878400D01*
X131460000Y-92460000D01*
X155149797Y-92460000D01*
X155067000Y-92659890D01*
M02*
