G04 #@! TF.FileFunction,Copper,L1,Top,Signal*
%FSLAX46Y46*%
G04 Gerber Fmt 4.6, Leading zero omitted, Abs format (unit mm)*
G04 Created by KiCad (PCBNEW 4.0.4+e1-6308~48~ubuntu16.04.1-stable) date Thu Nov  3 23:11:18 2016*
%MOMM*%
%LPD*%
G01*
G04 APERTURE LIST*
%ADD10C,0.100000*%
%ADD11R,1.600000X2.000000*%
%ADD12R,0.750000X1.200000*%
%ADD13R,2.032000X2.032000*%
%ADD14O,2.032000X2.032000*%
%ADD15R,2.235200X2.235200*%
%ADD16R,2.032000X1.727200*%
%ADD17O,2.032000X1.727200*%
%ADD18C,2.235200*%
%ADD19C,2.032000*%
%ADD20R,1.727200X2.032000*%
%ADD21O,1.727200X2.032000*%
%ADD22R,1.700000X2.000000*%
%ADD23R,2.000000X1.700000*%
%ADD24O,0.950000X0.250000*%
%ADD25O,0.250000X0.950000*%
%ADD26C,0.600000*%
%ADD27C,0.250000*%
%ADD28C,0.254000*%
G04 APERTURE END LIST*
D10*
D11*
X152332400Y-101979400D03*
X152332400Y-97979400D03*
X150032400Y-101979400D03*
X150032400Y-97979400D03*
D12*
X147828000Y-99872800D03*
X147828000Y-101772800D03*
D13*
X150622000Y-94894400D03*
D14*
X153162000Y-94894400D03*
D15*
X159258000Y-96189800D03*
D16*
X156718000Y-93649800D03*
D17*
X156718000Y-96189800D03*
X156718000Y-98729800D03*
D15*
X159766000Y-104838500D03*
X152463500Y-115189000D03*
X147574000Y-115189000D03*
X142494000Y-115189000D03*
D18*
X142087600Y-110324900D03*
D19*
X139547600Y-107784900D03*
D17*
X139547600Y-110324900D03*
X139547600Y-112864900D03*
D18*
X137007600Y-110324900D03*
D20*
X139446000Y-96139000D03*
D21*
X141986000Y-96139000D03*
X144526000Y-96139000D03*
X147066000Y-96139000D03*
D15*
X136931400Y-99758500D03*
D20*
X134391400Y-102298500D03*
D21*
X136931400Y-102298500D03*
X139471400Y-102298500D03*
D15*
X136931400Y-104838500D03*
D16*
X155498800Y-107937300D03*
D17*
X155498800Y-110477300D03*
X155498800Y-113017300D03*
D22*
X162610800Y-97409000D03*
X162610800Y-93409000D03*
D23*
X152972000Y-104838500D03*
X156972000Y-104838500D03*
D22*
X152527000Y-108521500D03*
X152527000Y-112521500D03*
X150114000Y-108521500D03*
X150114000Y-112521500D03*
X147701000Y-108521500D03*
X147701000Y-112521500D03*
D23*
X136499600Y-107315000D03*
X132499600Y-107315000D03*
X138938000Y-115570000D03*
X134938000Y-115570000D03*
D22*
X132410200Y-109880400D03*
X132410200Y-113880400D03*
D23*
X136525000Y-94361000D03*
X132525000Y-94361000D03*
X136525000Y-96748600D03*
X132525000Y-96748600D03*
X162496000Y-111760000D03*
X158496000Y-111760000D03*
X158496000Y-109220000D03*
X162496000Y-109220000D03*
D13*
X155244800Y-101904800D03*
D14*
X157784800Y-101904800D03*
D24*
X144050000Y-104150000D03*
X144050000Y-104650000D03*
X144050000Y-105150000D03*
X144050000Y-105650000D03*
D25*
X144750000Y-106350000D03*
X145250000Y-106350000D03*
X145750000Y-106350000D03*
X146250000Y-106350000D03*
D24*
X146950000Y-105650000D03*
X146950000Y-105150000D03*
X146950000Y-104650000D03*
X146950000Y-104150000D03*
D25*
X146250000Y-103450000D03*
X145750000Y-103450000D03*
X145250000Y-103450000D03*
X144750000Y-103450000D03*
D26*
X146400000Y-102400000D03*
X162750000Y-107225000D03*
X134325000Y-113800000D03*
X161100000Y-94375000D03*
X147000000Y-100950000D03*
X151200000Y-99975000D03*
X146175010Y-107469457D03*
X148703002Y-101700001D03*
X148400000Y-104000000D03*
X146196500Y-108521500D03*
X144850000Y-108500000D03*
X146075000Y-101000000D03*
D27*
X146400000Y-102400000D02*
X146400000Y-102575000D01*
X146400000Y-102575000D02*
X146375000Y-102600000D01*
X146250000Y-103450000D02*
X146250000Y-102725000D01*
X146250000Y-102725000D02*
X146375000Y-102600000D01*
X146375000Y-102600000D02*
X147000000Y-102600000D01*
X147000000Y-102600000D02*
X147629400Y-103229400D01*
X147629400Y-103229400D02*
X148982400Y-103229400D01*
X148982400Y-103229400D02*
X150032400Y-102179400D01*
X150032400Y-102179400D02*
X150032400Y-101979400D01*
X157784800Y-101904800D02*
X158800799Y-102920799D01*
X158800799Y-102920799D02*
X161250078Y-102920799D01*
X161533145Y-103203866D02*
X161533145Y-106995557D01*
X161250078Y-102920799D02*
X161533145Y-103203866D01*
X161533145Y-106995557D02*
X160713617Y-107815085D01*
X160713617Y-107815085D02*
X160713617Y-111453784D01*
X160713617Y-111453784D02*
X161019833Y-111760000D01*
X161019833Y-111760000D02*
X162496000Y-111760000D01*
X157784800Y-101904800D02*
X157784800Y-99796600D01*
X157784800Y-99796600D02*
X156718000Y-98729800D01*
X150861600Y-96400000D02*
X154235800Y-96400000D01*
X154235800Y-96400000D02*
X156565600Y-98729800D01*
X150622000Y-94894400D02*
X150622000Y-96160400D01*
X150622000Y-96160400D02*
X150861600Y-96400000D01*
X156565600Y-98729800D02*
X156718000Y-98729800D01*
X156718000Y-98729800D02*
X155382000Y-98729800D01*
X155382000Y-98729800D02*
X152332400Y-101779400D01*
X152332400Y-101779400D02*
X152332400Y-101979400D01*
X150032400Y-101979400D02*
X152332400Y-101979400D01*
X162496000Y-109220000D02*
X162496000Y-107479000D01*
X162496000Y-107479000D02*
X162750000Y-107225000D01*
X132410200Y-113880400D02*
X134244600Y-113880400D01*
X134244600Y-113880400D02*
X134325000Y-113800000D01*
X162610800Y-93409000D02*
X162066000Y-93409000D01*
X162066000Y-93409000D02*
X161100000Y-94375000D01*
X147828000Y-101772800D02*
X147822800Y-101772800D01*
X147822800Y-101772800D02*
X147000000Y-100950000D01*
X150032400Y-97979400D02*
X150032400Y-98807400D01*
X150032400Y-98807400D02*
X151200000Y-99975000D01*
X154700000Y-92897800D02*
X154700000Y-92725000D01*
X156718000Y-93649800D02*
X155452000Y-93649800D01*
X155452000Y-93649800D02*
X154700000Y-92897800D01*
X145750000Y-106350000D02*
X145750000Y-106913590D01*
X146175010Y-107338600D02*
X146175010Y-107469457D01*
X145750000Y-106913590D02*
X146175010Y-107338600D01*
X147828000Y-99872800D02*
X145952200Y-99872800D01*
X145952200Y-99872800D02*
X145250000Y-100575000D01*
X145250000Y-100575000D02*
X145250000Y-102725000D01*
X145250000Y-102725000D02*
X145250000Y-103450000D01*
X146950000Y-104650000D02*
X150725498Y-104650000D01*
X150725498Y-104650000D02*
X152071097Y-103304401D01*
X152071097Y-103304401D02*
X155111199Y-103304401D01*
X155111199Y-103304401D02*
X155244800Y-103170800D01*
X155244800Y-103170800D02*
X155244800Y-101904800D01*
X159258000Y-96189800D02*
X161391600Y-96189800D01*
X161391600Y-96189800D02*
X161422400Y-96159000D01*
X161422400Y-96159000D02*
X161510800Y-96159000D01*
X161510800Y-96159000D02*
X162610800Y-97259000D01*
X162610800Y-97259000D02*
X162610800Y-97409000D01*
X148703002Y-101700001D02*
X148703002Y-101275737D01*
X148703002Y-101275737D02*
X148699351Y-101272086D01*
X148699351Y-101272086D02*
X148699351Y-93649777D01*
X146950000Y-104150000D02*
X148250000Y-104150000D01*
X148250000Y-104150000D02*
X148400000Y-104000000D01*
X146950000Y-104150000D02*
X147300000Y-104150000D01*
X153626799Y-93250999D02*
X156565600Y-96189800D01*
X149098129Y-93250999D02*
X153626799Y-93250999D01*
X148699351Y-93649777D02*
X149098129Y-93250999D01*
X156565600Y-96189800D02*
X156718000Y-96189800D01*
X159766000Y-104838500D02*
X158398400Y-104838500D01*
X158398400Y-104838500D02*
X156972000Y-104838500D01*
X152463500Y-115189000D02*
X152463500Y-112585000D01*
X152463500Y-112585000D02*
X152527000Y-112521500D01*
X147574000Y-115189000D02*
X148941600Y-115189000D01*
X148941600Y-115189000D02*
X150114000Y-114016600D01*
X150114000Y-114016600D02*
X150114000Y-113771500D01*
X150114000Y-113771500D02*
X150114000Y-112521500D01*
X147701000Y-112521500D02*
X143793900Y-112521500D01*
X143793900Y-112521500D02*
X142494000Y-113821400D01*
X142494000Y-113821400D02*
X142494000Y-115189000D01*
X144050000Y-105650000D02*
X143325000Y-105650000D01*
X142975000Y-107049900D02*
X139700000Y-110324900D01*
X139700000Y-110324900D02*
X139547600Y-110324900D01*
X143325000Y-105650000D02*
X142975000Y-106000000D01*
X142975000Y-106000000D02*
X142975000Y-107049900D01*
X139547600Y-112864900D02*
X139547600Y-114960400D01*
X139547600Y-114960400D02*
X138938000Y-115570000D01*
X137007600Y-110324900D02*
X132854700Y-110324900D01*
X132854700Y-110324900D02*
X132410200Y-109880400D01*
X136525000Y-94361000D02*
X136675000Y-94361000D01*
X136675000Y-94361000D02*
X137850001Y-95536001D01*
X137850001Y-95536001D02*
X137850001Y-98839899D01*
X137850001Y-98839899D02*
X136931400Y-99758500D01*
X137213102Y-102300000D02*
X136932900Y-102300000D01*
X136932900Y-102300000D02*
X136931400Y-102298500D01*
X144050000Y-105150000D02*
X140063102Y-105150000D01*
X140063102Y-105150000D02*
X137213102Y-102300000D01*
X132300000Y-104350000D02*
X132788500Y-104838500D01*
X132788500Y-104838500D02*
X136931400Y-104838500D01*
X132300000Y-100823600D02*
X132300000Y-104350000D01*
X136525000Y-96748600D02*
X136375000Y-96748600D01*
X136375000Y-96748600D02*
X132300000Y-100823600D01*
X155498800Y-107937300D02*
X158313300Y-107937300D01*
X158313300Y-107937300D02*
X158496000Y-108120000D01*
X158496000Y-108120000D02*
X158496000Y-109220000D01*
X146950000Y-105650000D02*
X150599121Y-105650000D01*
X150599121Y-105650000D02*
X151666039Y-106716918D01*
X151666039Y-106716918D02*
X153305093Y-106716918D01*
X155346400Y-110477300D02*
X155498800Y-110477300D01*
X153305093Y-106716918D02*
X153927934Y-107339759D01*
X153927934Y-107339759D02*
X153927934Y-109058834D01*
X153927934Y-109058834D02*
X155346400Y-110477300D01*
X155498800Y-113017300D02*
X158338700Y-113017300D01*
X158338700Y-113017300D02*
X158496000Y-112860000D01*
X158496000Y-112860000D02*
X158496000Y-111760000D01*
X152972000Y-104838500D02*
X151722000Y-104838500D01*
X151722000Y-104838500D02*
X151410500Y-105150000D01*
X151410500Y-105150000D02*
X147675000Y-105150000D01*
X147675000Y-105150000D02*
X146950000Y-105150000D01*
X146250000Y-106350000D02*
X150355500Y-106350000D01*
X150355500Y-106350000D02*
X152527000Y-108521500D01*
X147044498Y-110300000D02*
X148485500Y-110300000D01*
X148485500Y-110300000D02*
X150114000Y-108671500D01*
X150114000Y-108671500D02*
X150114000Y-108521500D01*
X145550000Y-107375000D02*
X145550000Y-108805502D01*
X145550000Y-108805502D02*
X147044498Y-110300000D01*
X145250000Y-106350000D02*
X145250000Y-107075000D01*
X145250000Y-107075000D02*
X145550000Y-107375000D01*
X144750000Y-107075000D02*
X144750000Y-108400000D01*
X144750000Y-108400000D02*
X144850000Y-108500000D01*
X146196500Y-108521500D02*
X146601000Y-108521500D01*
X144750000Y-106350000D02*
X144750000Y-107075000D01*
X146601000Y-108521500D02*
X147701000Y-108521500D01*
X136499600Y-107315000D02*
X139077700Y-107315000D01*
X139077700Y-107315000D02*
X139547600Y-107784900D01*
X141535989Y-98381389D02*
X139446000Y-96291400D01*
X139446000Y-96291400D02*
X139446000Y-96139000D01*
X144050000Y-104650000D02*
X142863590Y-104650000D01*
X142863590Y-104650000D02*
X141535989Y-103322400D01*
X141535989Y-103322400D02*
X141535989Y-98381389D01*
X141986000Y-103136000D02*
X141986000Y-96139000D01*
X143000000Y-104150000D02*
X141986000Y-103136000D01*
X144050000Y-104150000D02*
X143000000Y-104150000D01*
X144750000Y-103450000D02*
X144750000Y-96363000D01*
X144750000Y-96363000D02*
X144526000Y-96139000D01*
X145750000Y-103450000D02*
X145750000Y-101325000D01*
X145750000Y-101325000D02*
X146075000Y-101000000D01*
D28*
G36*
X135520952Y-111316371D02*
X136013536Y-111809815D01*
X136657457Y-112077195D01*
X137354684Y-112077803D01*
X137999071Y-111811548D01*
X138377232Y-111434046D01*
X138617966Y-111594900D01*
X138303185Y-111805230D01*
X137978329Y-112291411D01*
X137864255Y-112864900D01*
X137978329Y-113438389D01*
X138303185Y-113924570D01*
X138524668Y-114072560D01*
X137938000Y-114072560D01*
X137702683Y-114116838D01*
X137486559Y-114255910D01*
X137341569Y-114468110D01*
X137290560Y-114720000D01*
X137290560Y-116290000D01*
X136573000Y-116290000D01*
X136573000Y-115855750D01*
X136414250Y-115697000D01*
X135065000Y-115697000D01*
X135065000Y-115717000D01*
X134811000Y-115717000D01*
X134811000Y-115697000D01*
X133461750Y-115697000D01*
X133303000Y-115855750D01*
X133303000Y-116290000D01*
X131460000Y-116290000D01*
X131460000Y-115515400D01*
X132124450Y-115515400D01*
X132283200Y-115356650D01*
X132283200Y-114007400D01*
X132537200Y-114007400D01*
X132537200Y-115356650D01*
X132695950Y-115515400D01*
X133386510Y-115515400D01*
X133561299Y-115443000D01*
X134811000Y-115443000D01*
X134811000Y-114243750D01*
X135065000Y-114243750D01*
X135065000Y-115443000D01*
X136414250Y-115443000D01*
X136573000Y-115284250D01*
X136573000Y-114593690D01*
X136476327Y-114360301D01*
X136297698Y-114181673D01*
X136064309Y-114085000D01*
X135223750Y-114085000D01*
X135065000Y-114243750D01*
X134811000Y-114243750D01*
X134652250Y-114085000D01*
X133814050Y-114085000D01*
X133736450Y-114007400D01*
X132537200Y-114007400D01*
X132283200Y-114007400D01*
X132263200Y-114007400D01*
X132263200Y-113753400D01*
X132283200Y-113753400D01*
X132283200Y-112404150D01*
X132537200Y-112404150D01*
X132537200Y-113753400D01*
X133736450Y-113753400D01*
X133895200Y-113594650D01*
X133895200Y-112754091D01*
X133798527Y-112520702D01*
X133619899Y-112342073D01*
X133386510Y-112245400D01*
X132695950Y-112245400D01*
X132537200Y-112404150D01*
X132283200Y-112404150D01*
X132124450Y-112245400D01*
X131460000Y-112245400D01*
X131460000Y-111507549D01*
X131560200Y-111527840D01*
X133260200Y-111527840D01*
X133495517Y-111483562D01*
X133711641Y-111344490D01*
X133856631Y-111132290D01*
X133866228Y-111084900D01*
X135425310Y-111084900D01*
X135520952Y-111316371D01*
X135520952Y-111316371D01*
G37*
X135520952Y-111316371D02*
X136013536Y-111809815D01*
X136657457Y-112077195D01*
X137354684Y-112077803D01*
X137999071Y-111811548D01*
X138377232Y-111434046D01*
X138617966Y-111594900D01*
X138303185Y-111805230D01*
X137978329Y-112291411D01*
X137864255Y-112864900D01*
X137978329Y-113438389D01*
X138303185Y-113924570D01*
X138524668Y-114072560D01*
X137938000Y-114072560D01*
X137702683Y-114116838D01*
X137486559Y-114255910D01*
X137341569Y-114468110D01*
X137290560Y-114720000D01*
X137290560Y-116290000D01*
X136573000Y-116290000D01*
X136573000Y-115855750D01*
X136414250Y-115697000D01*
X135065000Y-115697000D01*
X135065000Y-115717000D01*
X134811000Y-115717000D01*
X134811000Y-115697000D01*
X133461750Y-115697000D01*
X133303000Y-115855750D01*
X133303000Y-116290000D01*
X131460000Y-116290000D01*
X131460000Y-115515400D01*
X132124450Y-115515400D01*
X132283200Y-115356650D01*
X132283200Y-114007400D01*
X132537200Y-114007400D01*
X132537200Y-115356650D01*
X132695950Y-115515400D01*
X133386510Y-115515400D01*
X133561299Y-115443000D01*
X134811000Y-115443000D01*
X134811000Y-114243750D01*
X135065000Y-114243750D01*
X135065000Y-115443000D01*
X136414250Y-115443000D01*
X136573000Y-115284250D01*
X136573000Y-114593690D01*
X136476327Y-114360301D01*
X136297698Y-114181673D01*
X136064309Y-114085000D01*
X135223750Y-114085000D01*
X135065000Y-114243750D01*
X134811000Y-114243750D01*
X134652250Y-114085000D01*
X133814050Y-114085000D01*
X133736450Y-114007400D01*
X132537200Y-114007400D01*
X132283200Y-114007400D01*
X132263200Y-114007400D01*
X132263200Y-113753400D01*
X132283200Y-113753400D01*
X132283200Y-112404150D01*
X132537200Y-112404150D01*
X132537200Y-113753400D01*
X133736450Y-113753400D01*
X133895200Y-113594650D01*
X133895200Y-112754091D01*
X133798527Y-112520702D01*
X133619899Y-112342073D01*
X133386510Y-112245400D01*
X132695950Y-112245400D01*
X132537200Y-112404150D01*
X132283200Y-112404150D01*
X132124450Y-112245400D01*
X131460000Y-112245400D01*
X131460000Y-111507549D01*
X131560200Y-111527840D01*
X133260200Y-111527840D01*
X133495517Y-111483562D01*
X133711641Y-111344490D01*
X133856631Y-111132290D01*
X133866228Y-111084900D01*
X135425310Y-111084900D01*
X135520952Y-111316371D01*
G36*
X143990000Y-108132972D02*
X143915162Y-108313201D01*
X143914838Y-108685167D01*
X144056883Y-109028943D01*
X144319673Y-109292192D01*
X144663201Y-109434838D01*
X145035167Y-109435162D01*
X145084482Y-109414786D01*
X146507097Y-110837401D01*
X146625471Y-110916496D01*
X146615683Y-110918338D01*
X146399559Y-111057410D01*
X146254569Y-111269610D01*
X146203560Y-111521500D01*
X146203560Y-111761500D01*
X143793900Y-111761500D01*
X143503060Y-111819352D01*
X143256499Y-111984099D01*
X141956599Y-113283999D01*
X141863080Y-113423960D01*
X141376400Y-113423960D01*
X141141083Y-113468238D01*
X141063621Y-113518084D01*
X141116871Y-113438389D01*
X141230945Y-112864900D01*
X141116871Y-112291411D01*
X140792015Y-111805230D01*
X140477234Y-111594900D01*
X140525731Y-111562495D01*
X141029610Y-111562495D01*
X141142668Y-111841554D01*
X141794994Y-112087715D01*
X142491867Y-112065504D01*
X143032532Y-111841554D01*
X143145590Y-111562495D01*
X142087600Y-110504505D01*
X141029610Y-111562495D01*
X140525731Y-111562495D01*
X140792015Y-111384570D01*
X140805252Y-111364759D01*
X140850005Y-111382890D01*
X141907995Y-110324900D01*
X142267205Y-110324900D01*
X143325195Y-111382890D01*
X143604254Y-111269832D01*
X143850415Y-110617506D01*
X143828204Y-109920633D01*
X143604254Y-109379968D01*
X143325195Y-109266910D01*
X142267205Y-110324900D01*
X141907995Y-110324900D01*
X141893853Y-110310758D01*
X142073458Y-110131153D01*
X142087600Y-110145295D01*
X143145590Y-109087305D01*
X143032532Y-108808246D01*
X142494491Y-108605211D01*
X143512401Y-107587301D01*
X143677148Y-107340740D01*
X143688000Y-107286183D01*
X143735000Y-107049900D01*
X143735000Y-106410000D01*
X143990000Y-106410000D01*
X143990000Y-108132972D01*
X143990000Y-108132972D01*
G37*
X143990000Y-108132972D02*
X143915162Y-108313201D01*
X143914838Y-108685167D01*
X144056883Y-109028943D01*
X144319673Y-109292192D01*
X144663201Y-109434838D01*
X145035167Y-109435162D01*
X145084482Y-109414786D01*
X146507097Y-110837401D01*
X146625471Y-110916496D01*
X146615683Y-110918338D01*
X146399559Y-111057410D01*
X146254569Y-111269610D01*
X146203560Y-111521500D01*
X146203560Y-111761500D01*
X143793900Y-111761500D01*
X143503060Y-111819352D01*
X143256499Y-111984099D01*
X141956599Y-113283999D01*
X141863080Y-113423960D01*
X141376400Y-113423960D01*
X141141083Y-113468238D01*
X141063621Y-113518084D01*
X141116871Y-113438389D01*
X141230945Y-112864900D01*
X141116871Y-112291411D01*
X140792015Y-111805230D01*
X140477234Y-111594900D01*
X140525731Y-111562495D01*
X141029610Y-111562495D01*
X141142668Y-111841554D01*
X141794994Y-112087715D01*
X142491867Y-112065504D01*
X143032532Y-111841554D01*
X143145590Y-111562495D01*
X142087600Y-110504505D01*
X141029610Y-111562495D01*
X140525731Y-111562495D01*
X140792015Y-111384570D01*
X140805252Y-111364759D01*
X140850005Y-111382890D01*
X141907995Y-110324900D01*
X142267205Y-110324900D01*
X143325195Y-111382890D01*
X143604254Y-111269832D01*
X143850415Y-110617506D01*
X143828204Y-109920633D01*
X143604254Y-109379968D01*
X143325195Y-109266910D01*
X142267205Y-110324900D01*
X141907995Y-110324900D01*
X141893853Y-110310758D01*
X142073458Y-110131153D01*
X142087600Y-110145295D01*
X143145590Y-109087305D01*
X143032532Y-108808246D01*
X142494491Y-108605211D01*
X143512401Y-107587301D01*
X143677148Y-107340740D01*
X143688000Y-107286183D01*
X143735000Y-107049900D01*
X143735000Y-106410000D01*
X143990000Y-106410000D01*
X143990000Y-108132972D01*
G36*
X155067000Y-92659890D02*
X155067000Y-93364050D01*
X155225748Y-93522798D01*
X155067000Y-93522798D01*
X155067000Y-93616398D01*
X154164200Y-92713598D01*
X153917638Y-92548851D01*
X153626799Y-92490999D01*
X149098129Y-92490999D01*
X148807289Y-92548851D01*
X148560728Y-92713598D01*
X148161950Y-93112376D01*
X147997203Y-93358938D01*
X147939351Y-93649777D01*
X147939351Y-94770091D01*
X147639489Y-94569729D01*
X147066000Y-94455655D01*
X146492511Y-94569729D01*
X146006330Y-94894585D01*
X145796000Y-95209366D01*
X145585670Y-94894585D01*
X145099489Y-94569729D01*
X144526000Y-94455655D01*
X143952511Y-94569729D01*
X143466330Y-94894585D01*
X143256000Y-95209366D01*
X143045670Y-94894585D01*
X142559489Y-94569729D01*
X141986000Y-94455655D01*
X141412511Y-94569729D01*
X140926330Y-94894585D01*
X140916757Y-94908913D01*
X140912762Y-94887683D01*
X140773690Y-94671559D01*
X140561490Y-94526569D01*
X140309600Y-94475560D01*
X138582400Y-94475560D01*
X138347083Y-94519838D01*
X138172440Y-94632218D01*
X138172440Y-93511000D01*
X138128162Y-93275683D01*
X137989090Y-93059559D01*
X137776890Y-92914569D01*
X137525000Y-92863560D01*
X135525000Y-92863560D01*
X135289683Y-92907838D01*
X135073559Y-93046910D01*
X134928569Y-93259110D01*
X134877560Y-93511000D01*
X134877560Y-95211000D01*
X134921838Y-95446317D01*
X134991511Y-95554592D01*
X134928569Y-95646710D01*
X134877560Y-95898600D01*
X134877560Y-97171238D01*
X131762599Y-100286199D01*
X131597852Y-100532761D01*
X131540000Y-100823600D01*
X131540000Y-104350000D01*
X131597852Y-104640839D01*
X131762599Y-104887401D01*
X132251099Y-105375901D01*
X132497660Y-105540648D01*
X132788500Y-105598500D01*
X135166360Y-105598500D01*
X135166360Y-105924850D01*
X135048159Y-106000910D01*
X134903169Y-106213110D01*
X134852160Y-106465000D01*
X134852160Y-108165000D01*
X134896438Y-108400317D01*
X135035510Y-108616441D01*
X135247710Y-108761431D01*
X135499600Y-108812440D01*
X136078599Y-108812440D01*
X136016129Y-108838252D01*
X135522685Y-109330836D01*
X135425493Y-109564900D01*
X133907640Y-109564900D01*
X133907640Y-108880400D01*
X133871942Y-108690683D01*
X134037927Y-108524699D01*
X134134600Y-108291310D01*
X134134600Y-107600750D01*
X133975850Y-107442000D01*
X132626600Y-107442000D01*
X132626600Y-107462000D01*
X132372600Y-107462000D01*
X132372600Y-107442000D01*
X132352600Y-107442000D01*
X132352600Y-107188000D01*
X132372600Y-107188000D01*
X132372600Y-105988750D01*
X132626600Y-105988750D01*
X132626600Y-107188000D01*
X133975850Y-107188000D01*
X134134600Y-107029250D01*
X134134600Y-106338690D01*
X134037927Y-106105301D01*
X133859298Y-105926673D01*
X133625909Y-105830000D01*
X132785350Y-105830000D01*
X132626600Y-105988750D01*
X132372600Y-105988750D01*
X132213850Y-105830000D01*
X131460000Y-105830000D01*
X131460000Y-98233600D01*
X132239250Y-98233600D01*
X132398000Y-98074850D01*
X132398000Y-96875600D01*
X132652000Y-96875600D01*
X132652000Y-98074850D01*
X132810750Y-98233600D01*
X133651309Y-98233600D01*
X133884698Y-98136927D01*
X134063327Y-97958299D01*
X134160000Y-97724910D01*
X134160000Y-97034350D01*
X134001250Y-96875600D01*
X132652000Y-96875600D01*
X132398000Y-96875600D01*
X132378000Y-96875600D01*
X132378000Y-96621600D01*
X132398000Y-96621600D01*
X132398000Y-94488000D01*
X132652000Y-94488000D01*
X132652000Y-96621600D01*
X134001250Y-96621600D01*
X134160000Y-96462850D01*
X134160000Y-95772290D01*
X134069913Y-95554800D01*
X134160000Y-95337310D01*
X134160000Y-94646750D01*
X134001250Y-94488000D01*
X132652000Y-94488000D01*
X132398000Y-94488000D01*
X132378000Y-94488000D01*
X132378000Y-94234000D01*
X132398000Y-94234000D01*
X132398000Y-93034750D01*
X132652000Y-93034750D01*
X132652000Y-94234000D01*
X134001250Y-94234000D01*
X134160000Y-94075250D01*
X134160000Y-93384690D01*
X134063327Y-93151301D01*
X133884698Y-92972673D01*
X133651309Y-92876000D01*
X132810750Y-92876000D01*
X132652000Y-93034750D01*
X132398000Y-93034750D01*
X132239250Y-92876000D01*
X131460000Y-92876000D01*
X131460000Y-92460000D01*
X155149797Y-92460000D01*
X155067000Y-92659890D01*
X155067000Y-92659890D01*
G37*
X155067000Y-92659890D02*
X155067000Y-93364050D01*
X155225748Y-93522798D01*
X155067000Y-93522798D01*
X155067000Y-93616398D01*
X154164200Y-92713598D01*
X153917638Y-92548851D01*
X153626799Y-92490999D01*
X149098129Y-92490999D01*
X148807289Y-92548851D01*
X148560728Y-92713598D01*
X148161950Y-93112376D01*
X147997203Y-93358938D01*
X147939351Y-93649777D01*
X147939351Y-94770091D01*
X147639489Y-94569729D01*
X147066000Y-94455655D01*
X146492511Y-94569729D01*
X146006330Y-94894585D01*
X145796000Y-95209366D01*
X145585670Y-94894585D01*
X145099489Y-94569729D01*
X144526000Y-94455655D01*
X143952511Y-94569729D01*
X143466330Y-94894585D01*
X143256000Y-95209366D01*
X143045670Y-94894585D01*
X142559489Y-94569729D01*
X141986000Y-94455655D01*
X141412511Y-94569729D01*
X140926330Y-94894585D01*
X140916757Y-94908913D01*
X140912762Y-94887683D01*
X140773690Y-94671559D01*
X140561490Y-94526569D01*
X140309600Y-94475560D01*
X138582400Y-94475560D01*
X138347083Y-94519838D01*
X138172440Y-94632218D01*
X138172440Y-93511000D01*
X138128162Y-93275683D01*
X137989090Y-93059559D01*
X137776890Y-92914569D01*
X137525000Y-92863560D01*
X135525000Y-92863560D01*
X135289683Y-92907838D01*
X135073559Y-93046910D01*
X134928569Y-93259110D01*
X134877560Y-93511000D01*
X134877560Y-95211000D01*
X134921838Y-95446317D01*
X134991511Y-95554592D01*
X134928569Y-95646710D01*
X134877560Y-95898600D01*
X134877560Y-97171238D01*
X131762599Y-100286199D01*
X131597852Y-100532761D01*
X131540000Y-100823600D01*
X131540000Y-104350000D01*
X131597852Y-104640839D01*
X131762599Y-104887401D01*
X132251099Y-105375901D01*
X132497660Y-105540648D01*
X132788500Y-105598500D01*
X135166360Y-105598500D01*
X135166360Y-105924850D01*
X135048159Y-106000910D01*
X134903169Y-106213110D01*
X134852160Y-106465000D01*
X134852160Y-108165000D01*
X134896438Y-108400317D01*
X135035510Y-108616441D01*
X135247710Y-108761431D01*
X135499600Y-108812440D01*
X136078599Y-108812440D01*
X136016129Y-108838252D01*
X135522685Y-109330836D01*
X135425493Y-109564900D01*
X133907640Y-109564900D01*
X133907640Y-108880400D01*
X133871942Y-108690683D01*
X134037927Y-108524699D01*
X134134600Y-108291310D01*
X134134600Y-107600750D01*
X133975850Y-107442000D01*
X132626600Y-107442000D01*
X132626600Y-107462000D01*
X132372600Y-107462000D01*
X132372600Y-107442000D01*
X132352600Y-107442000D01*
X132352600Y-107188000D01*
X132372600Y-107188000D01*
X132372600Y-105988750D01*
X132626600Y-105988750D01*
X132626600Y-107188000D01*
X133975850Y-107188000D01*
X134134600Y-107029250D01*
X134134600Y-106338690D01*
X134037927Y-106105301D01*
X133859298Y-105926673D01*
X133625909Y-105830000D01*
X132785350Y-105830000D01*
X132626600Y-105988750D01*
X132372600Y-105988750D01*
X132213850Y-105830000D01*
X131460000Y-105830000D01*
X131460000Y-98233600D01*
X132239250Y-98233600D01*
X132398000Y-98074850D01*
X132398000Y-96875600D01*
X132652000Y-96875600D01*
X132652000Y-98074850D01*
X132810750Y-98233600D01*
X133651309Y-98233600D01*
X133884698Y-98136927D01*
X134063327Y-97958299D01*
X134160000Y-97724910D01*
X134160000Y-97034350D01*
X134001250Y-96875600D01*
X132652000Y-96875600D01*
X132398000Y-96875600D01*
X132378000Y-96875600D01*
X132378000Y-96621600D01*
X132398000Y-96621600D01*
X132398000Y-94488000D01*
X132652000Y-94488000D01*
X132652000Y-96621600D01*
X134001250Y-96621600D01*
X134160000Y-96462850D01*
X134160000Y-95772290D01*
X134069913Y-95554800D01*
X134160000Y-95337310D01*
X134160000Y-94646750D01*
X134001250Y-94488000D01*
X132652000Y-94488000D01*
X132398000Y-94488000D01*
X132378000Y-94488000D01*
X132378000Y-94234000D01*
X132398000Y-94234000D01*
X132398000Y-93034750D01*
X132652000Y-93034750D01*
X132652000Y-94234000D01*
X134001250Y-94234000D01*
X134160000Y-94075250D01*
X134160000Y-93384690D01*
X134063327Y-93151301D01*
X133884698Y-92972673D01*
X133651309Y-92876000D01*
X132810750Y-92876000D01*
X132652000Y-93034750D01*
X132398000Y-93034750D01*
X132239250Y-92876000D01*
X131460000Y-92876000D01*
X131460000Y-92460000D01*
X155149797Y-92460000D01*
X155067000Y-92659890D01*
G36*
X161113360Y-98409000D02*
X161157638Y-98644317D01*
X161296710Y-98860441D01*
X161508910Y-99005431D01*
X161760800Y-99056440D01*
X163460800Y-99056440D01*
X163540000Y-99041537D01*
X163540000Y-107735000D01*
X162781750Y-107735000D01*
X162623000Y-107893750D01*
X162623000Y-109093000D01*
X162643000Y-109093000D01*
X162643000Y-109347000D01*
X162623000Y-109347000D01*
X162623000Y-109367000D01*
X162369000Y-109367000D01*
X162369000Y-109347000D01*
X162349000Y-109347000D01*
X162349000Y-109093000D01*
X162369000Y-109093000D01*
X162369000Y-107893750D01*
X162210250Y-107735000D01*
X161868504Y-107735000D01*
X162070546Y-107532958D01*
X162235293Y-107286396D01*
X162293145Y-106995557D01*
X162293145Y-103203866D01*
X162279924Y-103137401D01*
X162235293Y-102913026D01*
X162070546Y-102666465D01*
X161787479Y-102383398D01*
X161540917Y-102218651D01*
X161250078Y-102160799D01*
X159391312Y-102160799D01*
X159435800Y-101937145D01*
X159435800Y-101872455D01*
X159310125Y-101240645D01*
X158952233Y-100705022D01*
X158544800Y-100432784D01*
X158544800Y-99796600D01*
X158486948Y-99505761D01*
X158322201Y-99259199D01*
X158300381Y-99237379D01*
X158401345Y-98729800D01*
X158287271Y-98156311D01*
X158152652Y-97954840D01*
X160375600Y-97954840D01*
X160610917Y-97910562D01*
X160827041Y-97771490D01*
X160972031Y-97559290D01*
X161023040Y-97307400D01*
X161023040Y-96949800D01*
X161113360Y-96949800D01*
X161113360Y-98409000D01*
X161113360Y-98409000D01*
G37*
X161113360Y-98409000D02*
X161157638Y-98644317D01*
X161296710Y-98860441D01*
X161508910Y-99005431D01*
X161760800Y-99056440D01*
X163460800Y-99056440D01*
X163540000Y-99041537D01*
X163540000Y-107735000D01*
X162781750Y-107735000D01*
X162623000Y-107893750D01*
X162623000Y-109093000D01*
X162643000Y-109093000D01*
X162643000Y-109347000D01*
X162623000Y-109347000D01*
X162623000Y-109367000D01*
X162369000Y-109367000D01*
X162369000Y-109347000D01*
X162349000Y-109347000D01*
X162349000Y-109093000D01*
X162369000Y-109093000D01*
X162369000Y-107893750D01*
X162210250Y-107735000D01*
X161868504Y-107735000D01*
X162070546Y-107532958D01*
X162235293Y-107286396D01*
X162293145Y-106995557D01*
X162293145Y-103203866D01*
X162279924Y-103137401D01*
X162235293Y-102913026D01*
X162070546Y-102666465D01*
X161787479Y-102383398D01*
X161540917Y-102218651D01*
X161250078Y-102160799D01*
X159391312Y-102160799D01*
X159435800Y-101937145D01*
X159435800Y-101872455D01*
X159310125Y-101240645D01*
X158952233Y-100705022D01*
X158544800Y-100432784D01*
X158544800Y-99796600D01*
X158486948Y-99505761D01*
X158322201Y-99259199D01*
X158300381Y-99237379D01*
X158401345Y-98729800D01*
X158287271Y-98156311D01*
X158152652Y-97954840D01*
X160375600Y-97954840D01*
X160610917Y-97910562D01*
X160827041Y-97771490D01*
X160972031Y-97559290D01*
X161023040Y-97307400D01*
X161023040Y-96949800D01*
X161113360Y-96949800D01*
X161113360Y-98409000D01*
G36*
X135166360Y-100647500D02*
X134677150Y-100647500D01*
X134518400Y-100806250D01*
X134518400Y-102171500D01*
X134538400Y-102171500D01*
X134538400Y-102425500D01*
X134518400Y-102425500D01*
X134518400Y-103790750D01*
X134677150Y-103949500D01*
X135166360Y-103949500D01*
X135166360Y-104078500D01*
X133103302Y-104078500D01*
X133060000Y-104035198D01*
X133060000Y-103744725D01*
X133168101Y-103852827D01*
X133401490Y-103949500D01*
X134105650Y-103949500D01*
X134264400Y-103790750D01*
X134264400Y-102425500D01*
X134244400Y-102425500D01*
X134244400Y-102171500D01*
X134264400Y-102171500D01*
X134264400Y-100806250D01*
X134105650Y-100647500D01*
X133550902Y-100647500D01*
X135166360Y-99032042D01*
X135166360Y-100647500D01*
X135166360Y-100647500D01*
G37*
X135166360Y-100647500D02*
X134677150Y-100647500D01*
X134518400Y-100806250D01*
X134518400Y-102171500D01*
X134538400Y-102171500D01*
X134538400Y-102425500D01*
X134518400Y-102425500D01*
X134518400Y-103790750D01*
X134677150Y-103949500D01*
X135166360Y-103949500D01*
X135166360Y-104078500D01*
X133103302Y-104078500D01*
X133060000Y-104035198D01*
X133060000Y-103744725D01*
X133168101Y-103852827D01*
X133401490Y-103949500D01*
X134105650Y-103949500D01*
X134264400Y-103790750D01*
X134264400Y-102425500D01*
X134244400Y-102425500D01*
X134244400Y-102171500D01*
X134264400Y-102171500D01*
X134264400Y-100806250D01*
X134105650Y-100647500D01*
X133550902Y-100647500D01*
X135166360Y-99032042D01*
X135166360Y-100647500D01*
G36*
X154909819Y-98148821D02*
X154844599Y-98192399D01*
X152705038Y-100331960D01*
X151532400Y-100331960D01*
X151297083Y-100376238D01*
X151182422Y-100450020D01*
X151084290Y-100382969D01*
X150832400Y-100331960D01*
X149459351Y-100331960D01*
X149459351Y-99614400D01*
X149746650Y-99614400D01*
X149905400Y-99455650D01*
X149905400Y-98106400D01*
X150159400Y-98106400D01*
X150159400Y-99455650D01*
X150318150Y-99614400D01*
X150958710Y-99614400D01*
X151182400Y-99521744D01*
X151406090Y-99614400D01*
X152046650Y-99614400D01*
X152205400Y-99455650D01*
X152205400Y-98106400D01*
X152459400Y-98106400D01*
X152459400Y-99455650D01*
X152618150Y-99614400D01*
X153258710Y-99614400D01*
X153492099Y-99517727D01*
X153670727Y-99339098D01*
X153767400Y-99105709D01*
X153767400Y-98265150D01*
X153608650Y-98106400D01*
X152459400Y-98106400D01*
X152205400Y-98106400D01*
X150159400Y-98106400D01*
X149905400Y-98106400D01*
X149885400Y-98106400D01*
X149885400Y-97852400D01*
X149905400Y-97852400D01*
X149905400Y-97832400D01*
X150159400Y-97832400D01*
X150159400Y-97852400D01*
X152205400Y-97852400D01*
X152205400Y-97832400D01*
X152459400Y-97832400D01*
X152459400Y-97852400D01*
X153608650Y-97852400D01*
X153767400Y-97693650D01*
X153767400Y-97160000D01*
X153920998Y-97160000D01*
X154909819Y-98148821D01*
X154909819Y-98148821D01*
G37*
X154909819Y-98148821D02*
X154844599Y-98192399D01*
X152705038Y-100331960D01*
X151532400Y-100331960D01*
X151297083Y-100376238D01*
X151182422Y-100450020D01*
X151084290Y-100382969D01*
X150832400Y-100331960D01*
X149459351Y-100331960D01*
X149459351Y-99614400D01*
X149746650Y-99614400D01*
X149905400Y-99455650D01*
X149905400Y-98106400D01*
X150159400Y-98106400D01*
X150159400Y-99455650D01*
X150318150Y-99614400D01*
X150958710Y-99614400D01*
X151182400Y-99521744D01*
X151406090Y-99614400D01*
X152046650Y-99614400D01*
X152205400Y-99455650D01*
X152205400Y-98106400D01*
X152459400Y-98106400D01*
X152459400Y-99455650D01*
X152618150Y-99614400D01*
X153258710Y-99614400D01*
X153492099Y-99517727D01*
X153670727Y-99339098D01*
X153767400Y-99105709D01*
X153767400Y-98265150D01*
X153608650Y-98106400D01*
X152459400Y-98106400D01*
X152205400Y-98106400D01*
X150159400Y-98106400D01*
X149905400Y-98106400D01*
X149885400Y-98106400D01*
X149885400Y-97852400D01*
X149905400Y-97852400D01*
X149905400Y-97832400D01*
X150159400Y-97832400D01*
X150159400Y-97852400D01*
X152205400Y-97852400D01*
X152205400Y-97832400D01*
X152459400Y-97832400D01*
X152459400Y-97852400D01*
X153608650Y-97852400D01*
X153767400Y-97693650D01*
X153767400Y-97160000D01*
X153920998Y-97160000D01*
X154909819Y-98148821D01*
G36*
X161125800Y-93123250D02*
X161284550Y-93282000D01*
X162483800Y-93282000D01*
X162483800Y-93262000D01*
X162737800Y-93262000D01*
X162737800Y-93282000D01*
X162757800Y-93282000D01*
X162757800Y-93536000D01*
X162737800Y-93536000D01*
X162737800Y-94885250D01*
X162896550Y-95044000D01*
X163540000Y-95044000D01*
X163540000Y-95777598D01*
X163460800Y-95761560D01*
X162188162Y-95761560D01*
X162048201Y-95621599D01*
X161801639Y-95456852D01*
X161510800Y-95399000D01*
X161422400Y-95399000D01*
X161267559Y-95429800D01*
X161023040Y-95429800D01*
X161023040Y-95072200D01*
X160978762Y-94836883D01*
X160839690Y-94620759D01*
X160627490Y-94475769D01*
X160375600Y-94424760D01*
X158369000Y-94424760D01*
X158369000Y-93935550D01*
X158210250Y-93776800D01*
X156845000Y-93776800D01*
X156845000Y-93796800D01*
X156591000Y-93796800D01*
X156591000Y-93776800D01*
X156571000Y-93776800D01*
X156571000Y-93694750D01*
X161125800Y-93694750D01*
X161125800Y-94535309D01*
X161222473Y-94768698D01*
X161401101Y-94947327D01*
X161634490Y-95044000D01*
X162325050Y-95044000D01*
X162483800Y-94885250D01*
X162483800Y-93536000D01*
X161284550Y-93536000D01*
X161125800Y-93694750D01*
X156571000Y-93694750D01*
X156571000Y-93522800D01*
X156591000Y-93522800D01*
X156591000Y-93502800D01*
X156845000Y-93502800D01*
X156845000Y-93522800D01*
X158210250Y-93522800D01*
X158369000Y-93364050D01*
X158369000Y-92659890D01*
X158286203Y-92460000D01*
X161125800Y-92460000D01*
X161125800Y-93123250D01*
X161125800Y-93123250D01*
G37*
X161125800Y-93123250D02*
X161284550Y-93282000D01*
X162483800Y-93282000D01*
X162483800Y-93262000D01*
X162737800Y-93262000D01*
X162737800Y-93282000D01*
X162757800Y-93282000D01*
X162757800Y-93536000D01*
X162737800Y-93536000D01*
X162737800Y-94885250D01*
X162896550Y-95044000D01*
X163540000Y-95044000D01*
X163540000Y-95777598D01*
X163460800Y-95761560D01*
X162188162Y-95761560D01*
X162048201Y-95621599D01*
X161801639Y-95456852D01*
X161510800Y-95399000D01*
X161422400Y-95399000D01*
X161267559Y-95429800D01*
X161023040Y-95429800D01*
X161023040Y-95072200D01*
X160978762Y-94836883D01*
X160839690Y-94620759D01*
X160627490Y-94475769D01*
X160375600Y-94424760D01*
X158369000Y-94424760D01*
X158369000Y-93935550D01*
X158210250Y-93776800D01*
X156845000Y-93776800D01*
X156845000Y-93796800D01*
X156591000Y-93796800D01*
X156591000Y-93776800D01*
X156571000Y-93776800D01*
X156571000Y-93694750D01*
X161125800Y-93694750D01*
X161125800Y-94535309D01*
X161222473Y-94768698D01*
X161401101Y-94947327D01*
X161634490Y-95044000D01*
X162325050Y-95044000D01*
X162483800Y-94885250D01*
X162483800Y-93536000D01*
X161284550Y-93536000D01*
X161125800Y-93694750D01*
X156571000Y-93694750D01*
X156571000Y-93522800D01*
X156591000Y-93522800D01*
X156591000Y-93502800D01*
X156845000Y-93502800D01*
X156845000Y-93522800D01*
X158210250Y-93522800D01*
X158369000Y-93364050D01*
X158369000Y-92659890D01*
X158286203Y-92460000D01*
X161125800Y-92460000D01*
X161125800Y-93123250D01*
G36*
X153289000Y-94767400D02*
X153309000Y-94767400D01*
X153309000Y-95021400D01*
X153289000Y-95021400D01*
X153289000Y-95041400D01*
X153035000Y-95041400D01*
X153035000Y-95021400D01*
X153015000Y-95021400D01*
X153015000Y-94767400D01*
X153035000Y-94767400D01*
X153035000Y-94747400D01*
X153289000Y-94747400D01*
X153289000Y-94767400D01*
X153289000Y-94767400D01*
G37*
X153289000Y-94767400D02*
X153309000Y-94767400D01*
X153309000Y-95021400D01*
X153289000Y-95021400D01*
X153289000Y-95041400D01*
X153035000Y-95041400D01*
X153035000Y-95021400D01*
X153015000Y-95021400D01*
X153015000Y-94767400D01*
X153035000Y-94767400D01*
X153035000Y-94747400D01*
X153289000Y-94747400D01*
X153289000Y-94767400D01*
M02*
