%FSLAX45Y45*%
G04 Gerber Fmt 4.5, Leading zero omitted, Abs format (unit mm)*
G04 Created by KiCad (PCBNEW 4.0.4+e1-6308~48~ubuntu16.04.1-stable) date Thu Nov  3 23:11:22 2016*
%MOMM*%
%LPD*%
G01*
G04 APERTURE LIST*
%ADD10C,0.127000*%
%ADD11C,0.150000*%
%ADD12C,0.200000*%
%ADD13C,0.300000*%
G04 APERTURE END LIST*
D10*
D11*
X13075000Y-11700000D02*
X13075000Y-9175000D01*
X16425000Y-11700000D02*
X13075000Y-11700000D01*
X16425000Y-11675000D02*
X16425000Y-11700000D01*
X16425000Y-9175000D02*
X16425000Y-11675000D01*
X13075000Y-9175000D02*
X16425000Y-9175000D01*
D12*
X13412500Y-11360000D02*
X13452500Y-11400000D01*
X13452500Y-11360000D02*
X13412500Y-11400000D01*
X14465000Y-10830000D02*
X14505000Y-10870000D01*
X14505000Y-10830000D02*
X14465000Y-10870000D01*
X14587500Y-10080000D02*
X14627500Y-10120000D01*
X14627500Y-10080000D02*
X14587500Y-10120000D01*
X14597501Y-10726946D02*
X14637501Y-10766946D01*
X14637501Y-10726946D02*
X14597501Y-10766946D01*
X14599650Y-10832150D02*
X14639650Y-10872150D01*
X14639650Y-10832150D02*
X14599650Y-10872150D01*
X14620000Y-10220000D02*
X14660000Y-10260000D01*
X14660000Y-10220000D02*
X14620000Y-10260000D01*
X14680000Y-10075000D02*
X14720000Y-10115000D01*
X14720000Y-10075000D02*
X14680000Y-10115000D01*
X14820000Y-10380000D02*
X14860000Y-10420000D01*
X14860000Y-10380000D02*
X14820000Y-10420000D01*
X14850300Y-10150000D02*
X14890300Y-10190000D01*
X14890300Y-10150000D02*
X14850300Y-10190000D01*
X15100000Y-9977500D02*
X15140000Y-10017500D01*
X15140000Y-9977500D02*
X15100000Y-10017500D01*
X16090000Y-9417500D02*
X16130000Y-9457500D01*
X16130000Y-9417500D02*
X16090000Y-9457500D01*
X16255000Y-10702500D02*
X16295000Y-10742500D01*
X16295000Y-10702500D02*
X16255000Y-10742500D01*
X13489940Y-10229850D02*
G75*
G03X13489940Y-10229850I-50800J0D01*
G01*
X13743940Y-9975850D02*
G75*
G03X13743940Y-9975850I-50800J0D01*
G01*
X13743940Y-10229850D02*
G75*
G03X13743940Y-10229850I-50800J0D01*
G01*
X13743940Y-10483850D02*
G75*
G03X13743940Y-10483850I-50800J0D01*
G01*
X13751560Y-11032490D02*
G75*
G03X13751560Y-11032490I-50800J0D01*
G01*
X13995400Y-9613900D02*
G75*
G03X13995400Y-9613900I-50800J0D01*
G01*
X13997940Y-10229850D02*
G75*
G03X13997940Y-10229850I-50800J0D01*
G01*
X14005560Y-10778490D02*
G75*
G03X14005560Y-10778490I-50800J0D01*
G01*
X14005560Y-11032490D02*
G75*
G03X14005560Y-11032490I-50800J0D01*
G01*
X14005560Y-11286490D02*
G75*
G03X14005560Y-11286490I-50800J0D01*
G01*
X14249400Y-9613900D02*
G75*
G03X14249400Y-9613900I-50800J0D01*
G01*
X14259560Y-11032490D02*
G75*
G03X14259560Y-11032490I-50800J0D01*
G01*
X14300200Y-11518900D02*
G75*
G03X14300200Y-11518900I-50800J0D01*
G01*
X14503400Y-9613900D02*
G75*
G03X14503400Y-9613900I-50800J0D01*
G01*
X14757400Y-9613900D02*
G75*
G03X14757400Y-9613900I-50800J0D01*
G01*
X14808200Y-11518900D02*
G75*
G03X14808200Y-11518900I-50800J0D01*
G01*
X15113000Y-9489440D02*
G75*
G03X15113000Y-9489440I-50800J0D01*
G01*
X15297150Y-11518900D02*
G75*
G03X15297150Y-11518900I-50800J0D01*
G01*
X15367000Y-9489440D02*
G75*
G03X15367000Y-9489440I-50800J0D01*
G01*
X15575280Y-10190480D02*
G75*
G03X15575280Y-10190480I-50800J0D01*
G01*
X15600680Y-10793730D02*
G75*
G03X15600680Y-10793730I-50800J0D01*
G01*
X15600680Y-11047730D02*
G75*
G03X15600680Y-11047730I-50800J0D01*
G01*
X15600680Y-11301730D02*
G75*
G03X15600680Y-11301730I-50800J0D01*
G01*
X15722600Y-9364980D02*
G75*
G03X15722600Y-9364980I-50800J0D01*
G01*
X15722600Y-9618980D02*
G75*
G03X15722600Y-9618980I-50800J0D01*
G01*
X15722600Y-9872980D02*
G75*
G03X15722600Y-9872980I-50800J0D01*
G01*
X15829280Y-10190480D02*
G75*
G03X15829280Y-10190480I-50800J0D01*
G01*
X15976600Y-9618980D02*
G75*
G03X15976600Y-9618980I-50800J0D01*
G01*
X16027400Y-10483850D02*
G75*
G03X16027400Y-10483850I-50800J0D01*
G01*
D13*
X13338928Y-12173214D02*
X13338928Y-11873214D01*
X13410357Y-11873214D01*
X13453214Y-11887500D01*
X13481786Y-11916071D01*
X13496071Y-11944643D01*
X13510357Y-12001786D01*
X13510357Y-12044643D01*
X13496071Y-12101786D01*
X13481786Y-12130357D01*
X13453214Y-12158929D01*
X13410357Y-12173214D01*
X13338928Y-12173214D01*
X13638928Y-12173214D02*
X13638928Y-11973214D01*
X13638928Y-12030357D02*
X13653214Y-12001786D01*
X13667500Y-11987500D01*
X13696071Y-11973214D01*
X13724643Y-11973214D01*
X13824643Y-12173214D02*
X13824643Y-11973214D01*
X13824643Y-11873214D02*
X13810357Y-11887500D01*
X13824643Y-11901786D01*
X13838928Y-11887500D01*
X13824643Y-11873214D01*
X13824643Y-11901786D01*
X14010357Y-12173214D02*
X13981786Y-12158929D01*
X13967500Y-12130357D01*
X13967500Y-11873214D01*
X14167500Y-12173214D02*
X14138928Y-12158929D01*
X14124643Y-12130357D01*
X14124643Y-11873214D01*
X14510357Y-12173214D02*
X14510357Y-11873214D01*
X14610357Y-12087500D01*
X14710357Y-11873214D01*
X14710357Y-12173214D01*
X14981786Y-12173214D02*
X14981786Y-12016071D01*
X14967500Y-11987500D01*
X14938928Y-11973214D01*
X14881786Y-11973214D01*
X14853214Y-11987500D01*
X14981786Y-12158929D02*
X14953214Y-12173214D01*
X14881786Y-12173214D01*
X14853214Y-12158929D01*
X14838928Y-12130357D01*
X14838928Y-12101786D01*
X14853214Y-12073214D01*
X14881786Y-12058929D01*
X14953214Y-12058929D01*
X14981786Y-12044643D01*
X15124643Y-11973214D02*
X15124643Y-12273214D01*
X15124643Y-11987500D02*
X15153214Y-11973214D01*
X15210357Y-11973214D01*
X15238928Y-11987500D01*
X15253214Y-12001786D01*
X15267500Y-12030357D01*
X15267500Y-12116071D01*
X15253214Y-12144643D01*
X15238928Y-12158929D01*
X15210357Y-12173214D01*
X15153214Y-12173214D01*
X15124643Y-12158929D01*
X15396071Y-12144643D02*
X15410357Y-12158929D01*
X15396071Y-12173214D01*
X15381786Y-12158929D01*
X15396071Y-12144643D01*
X15396071Y-12173214D01*
X15396071Y-11987500D02*
X15410357Y-12001786D01*
X15396071Y-12016071D01*
X15381786Y-12001786D01*
X15396071Y-11987500D01*
X15396071Y-12016071D01*
X13027500Y-12647500D02*
X13067500Y-12687500D01*
X13067500Y-12647500D02*
X13027500Y-12687500D01*
X13396071Y-12503214D02*
X13424643Y-12503214D01*
X13453214Y-12517500D01*
X13467500Y-12531786D01*
X13481786Y-12560357D01*
X13496071Y-12617500D01*
X13496071Y-12688929D01*
X13481786Y-12746071D01*
X13467500Y-12774643D01*
X13453214Y-12788929D01*
X13424643Y-12803214D01*
X13396071Y-12803214D01*
X13367500Y-12788929D01*
X13353214Y-12774643D01*
X13338928Y-12746071D01*
X13324643Y-12688929D01*
X13324643Y-12617500D01*
X13338928Y-12560357D01*
X13353214Y-12531786D01*
X13367500Y-12517500D01*
X13396071Y-12503214D01*
X13624643Y-12774643D02*
X13638928Y-12788929D01*
X13624643Y-12803214D01*
X13610357Y-12788929D01*
X13624643Y-12774643D01*
X13624643Y-12803214D01*
X13896071Y-12603214D02*
X13896071Y-12803214D01*
X13824643Y-12488929D02*
X13753214Y-12703214D01*
X13938928Y-12703214D01*
X14110357Y-12503214D02*
X14138928Y-12503214D01*
X14167500Y-12517500D01*
X14181786Y-12531786D01*
X14196071Y-12560357D01*
X14210357Y-12617500D01*
X14210357Y-12688929D01*
X14196071Y-12746071D01*
X14181786Y-12774643D01*
X14167500Y-12788929D01*
X14138928Y-12803214D01*
X14110357Y-12803214D01*
X14081786Y-12788929D01*
X14067500Y-12774643D01*
X14053214Y-12746071D01*
X14038928Y-12688929D01*
X14038928Y-12617500D01*
X14053214Y-12560357D01*
X14067500Y-12531786D01*
X14081786Y-12517500D01*
X14110357Y-12503214D01*
X14338928Y-12803214D02*
X14338928Y-12603214D01*
X14338928Y-12631786D02*
X14353214Y-12617500D01*
X14381786Y-12603214D01*
X14424643Y-12603214D01*
X14453214Y-12617500D01*
X14467500Y-12646071D01*
X14467500Y-12803214D01*
X14467500Y-12646071D02*
X14481786Y-12617500D01*
X14510357Y-12603214D01*
X14553214Y-12603214D01*
X14581786Y-12617500D01*
X14596071Y-12646071D01*
X14596071Y-12803214D01*
X14738928Y-12803214D02*
X14738928Y-12603214D01*
X14738928Y-12631786D02*
X14753214Y-12617500D01*
X14781786Y-12603214D01*
X14824643Y-12603214D01*
X14853214Y-12617500D01*
X14867500Y-12646071D01*
X14867500Y-12803214D01*
X14867500Y-12646071D02*
X14881786Y-12617500D01*
X14910357Y-12603214D01*
X14953214Y-12603214D01*
X14981786Y-12617500D01*
X14996071Y-12646071D01*
X14996071Y-12803214D01*
X15581786Y-12488929D02*
X15324643Y-12874643D01*
X15967500Y-12503214D02*
X15996071Y-12503214D01*
X16024643Y-12517500D01*
X16038928Y-12531786D01*
X16053214Y-12560357D01*
X16067500Y-12617500D01*
X16067500Y-12688929D01*
X16053214Y-12746071D01*
X16038928Y-12774643D01*
X16024643Y-12788929D01*
X15996071Y-12803214D01*
X15967500Y-12803214D01*
X15938928Y-12788929D01*
X15924643Y-12774643D01*
X15910357Y-12746071D01*
X15896071Y-12688929D01*
X15896071Y-12617500D01*
X15910357Y-12560357D01*
X15924643Y-12531786D01*
X15938928Y-12517500D01*
X15967500Y-12503214D01*
X16196071Y-12774643D02*
X16210357Y-12788929D01*
X16196071Y-12803214D01*
X16181786Y-12788929D01*
X16196071Y-12774643D01*
X16196071Y-12803214D01*
X16396071Y-12503214D02*
X16424643Y-12503214D01*
X16453214Y-12517500D01*
X16467500Y-12531786D01*
X16481785Y-12560357D01*
X16496071Y-12617500D01*
X16496071Y-12688929D01*
X16481785Y-12746071D01*
X16467500Y-12774643D01*
X16453214Y-12788929D01*
X16424643Y-12803214D01*
X16396071Y-12803214D01*
X16367500Y-12788929D01*
X16353214Y-12774643D01*
X16338928Y-12746071D01*
X16324643Y-12688929D01*
X16324643Y-12617500D01*
X16338928Y-12560357D01*
X16353214Y-12531786D01*
X16367500Y-12517500D01*
X16396071Y-12503214D01*
X16781786Y-12803214D02*
X16610357Y-12803214D01*
X16696071Y-12803214D02*
X16696071Y-12503214D01*
X16667500Y-12546071D01*
X16638928Y-12574643D01*
X16610357Y-12588929D01*
X17038928Y-12503214D02*
X16981786Y-12503214D01*
X16953214Y-12517500D01*
X16938928Y-12531786D01*
X16910357Y-12574643D01*
X16896071Y-12631786D01*
X16896071Y-12746071D01*
X16910357Y-12774643D01*
X16924643Y-12788929D01*
X16953214Y-12803214D01*
X17010357Y-12803214D01*
X17038928Y-12788929D01*
X17053214Y-12774643D01*
X17067500Y-12746071D01*
X17067500Y-12674643D01*
X17053214Y-12646071D01*
X17038928Y-12631786D01*
X17010357Y-12617500D01*
X16953214Y-12617500D01*
X16924643Y-12631786D01*
X16910357Y-12646071D01*
X16896071Y-12674643D01*
X17181786Y-12503214D02*
X17181786Y-12560357D01*
X17296071Y-12503214D02*
X17296071Y-12560357D01*
X17738928Y-12917500D02*
X17724643Y-12903214D01*
X17696071Y-12860357D01*
X17681786Y-12831786D01*
X17667500Y-12788929D01*
X17653214Y-12717500D01*
X17653214Y-12660357D01*
X17667500Y-12588929D01*
X17681786Y-12546071D01*
X17696071Y-12517500D01*
X17724643Y-12474643D01*
X17738928Y-12460357D01*
X18010357Y-12803214D02*
X17838928Y-12803214D01*
X17924643Y-12803214D02*
X17924643Y-12503214D01*
X17896071Y-12546071D01*
X17867500Y-12574643D01*
X17838928Y-12588929D01*
X18124643Y-12531786D02*
X18138928Y-12517500D01*
X18167500Y-12503214D01*
X18238928Y-12503214D01*
X18267500Y-12517500D01*
X18281786Y-12531786D01*
X18296071Y-12560357D01*
X18296071Y-12588929D01*
X18281786Y-12631786D01*
X18110357Y-12803214D01*
X18296071Y-12803214D01*
X18653214Y-12803214D02*
X18653214Y-12503214D01*
X18781786Y-12803214D02*
X18781786Y-12646071D01*
X18767500Y-12617500D01*
X18738928Y-12603214D01*
X18696071Y-12603214D01*
X18667500Y-12617500D01*
X18653214Y-12631786D01*
X18967500Y-12803214D02*
X18938928Y-12788929D01*
X18924643Y-12774643D01*
X18910357Y-12746071D01*
X18910357Y-12660357D01*
X18924643Y-12631786D01*
X18938928Y-12617500D01*
X18967500Y-12603214D01*
X19010357Y-12603214D01*
X19038928Y-12617500D01*
X19053214Y-12631786D01*
X19067500Y-12660357D01*
X19067500Y-12746071D01*
X19053214Y-12774643D01*
X19038928Y-12788929D01*
X19010357Y-12803214D01*
X18967500Y-12803214D01*
X19238928Y-12803214D02*
X19210357Y-12788929D01*
X19196071Y-12760357D01*
X19196071Y-12503214D01*
X19467500Y-12788929D02*
X19438929Y-12803214D01*
X19381786Y-12803214D01*
X19353214Y-12788929D01*
X19338929Y-12760357D01*
X19338929Y-12646071D01*
X19353214Y-12617500D01*
X19381786Y-12603214D01*
X19438929Y-12603214D01*
X19467500Y-12617500D01*
X19481786Y-12646071D01*
X19481786Y-12674643D01*
X19338929Y-12703214D01*
X19596071Y-12788929D02*
X19624643Y-12803214D01*
X19681786Y-12803214D01*
X19710357Y-12788929D01*
X19724643Y-12760357D01*
X19724643Y-12746071D01*
X19710357Y-12717500D01*
X19681786Y-12703214D01*
X19638929Y-12703214D01*
X19610357Y-12688929D01*
X19596071Y-12660357D01*
X19596071Y-12646071D01*
X19610357Y-12617500D01*
X19638929Y-12603214D01*
X19681786Y-12603214D01*
X19710357Y-12617500D01*
X19824643Y-12917500D02*
X19838929Y-12903214D01*
X19867500Y-12860357D01*
X19881786Y-12831786D01*
X19896071Y-12788929D01*
X19910357Y-12717500D01*
X19910357Y-12660357D01*
X19896071Y-12588929D01*
X19881786Y-12546071D01*
X19867500Y-12517500D01*
X19838929Y-12474643D01*
X19824643Y-12460357D01*
X13067500Y-13063500D02*
G75*
G03X13067500Y-13063500I-50800J0D01*
G01*
X13496071Y-13199214D02*
X13324643Y-13199214D01*
X13410357Y-13199214D02*
X13410357Y-12899214D01*
X13381786Y-12942071D01*
X13353214Y-12970643D01*
X13324643Y-12984929D01*
X13624643Y-13170643D02*
X13638928Y-13184929D01*
X13624643Y-13199214D01*
X13610357Y-13184929D01*
X13624643Y-13170643D01*
X13624643Y-13199214D01*
X13824643Y-12899214D02*
X13853214Y-12899214D01*
X13881786Y-12913500D01*
X13896071Y-12927786D01*
X13910357Y-12956357D01*
X13924643Y-13013500D01*
X13924643Y-13084929D01*
X13910357Y-13142071D01*
X13896071Y-13170643D01*
X13881786Y-13184929D01*
X13853214Y-13199214D01*
X13824643Y-13199214D01*
X13796071Y-13184929D01*
X13781786Y-13170643D01*
X13767500Y-13142071D01*
X13753214Y-13084929D01*
X13753214Y-13013500D01*
X13767500Y-12956357D01*
X13781786Y-12927786D01*
X13796071Y-12913500D01*
X13824643Y-12899214D01*
X14038928Y-12927786D02*
X14053214Y-12913500D01*
X14081786Y-12899214D01*
X14153214Y-12899214D01*
X14181786Y-12913500D01*
X14196071Y-12927786D01*
X14210357Y-12956357D01*
X14210357Y-12984929D01*
X14196071Y-13027786D01*
X14024643Y-13199214D01*
X14210357Y-13199214D01*
X14338928Y-13199214D02*
X14338928Y-12999214D01*
X14338928Y-13027786D02*
X14353214Y-13013500D01*
X14381786Y-12999214D01*
X14424643Y-12999214D01*
X14453214Y-13013500D01*
X14467500Y-13042071D01*
X14467500Y-13199214D01*
X14467500Y-13042071D02*
X14481786Y-13013500D01*
X14510357Y-12999214D01*
X14553214Y-12999214D01*
X14581786Y-13013500D01*
X14596071Y-13042071D01*
X14596071Y-13199214D01*
X14738928Y-13199214D02*
X14738928Y-12999214D01*
X14738928Y-13027786D02*
X14753214Y-13013500D01*
X14781786Y-12999214D01*
X14824643Y-12999214D01*
X14853214Y-13013500D01*
X14867500Y-13042071D01*
X14867500Y-13199214D01*
X14867500Y-13042071D02*
X14881786Y-13013500D01*
X14910357Y-12999214D01*
X14953214Y-12999214D01*
X14981786Y-13013500D01*
X14996071Y-13042071D01*
X14996071Y-13199214D01*
X15581786Y-12884929D02*
X15324643Y-13270643D01*
X15967500Y-12899214D02*
X15996071Y-12899214D01*
X16024643Y-12913500D01*
X16038928Y-12927786D01*
X16053214Y-12956357D01*
X16067500Y-13013500D01*
X16067500Y-13084929D01*
X16053214Y-13142071D01*
X16038928Y-13170643D01*
X16024643Y-13184929D01*
X15996071Y-13199214D01*
X15967500Y-13199214D01*
X15938928Y-13184929D01*
X15924643Y-13170643D01*
X15910357Y-13142071D01*
X15896071Y-13084929D01*
X15896071Y-13013500D01*
X15910357Y-12956357D01*
X15924643Y-12927786D01*
X15938928Y-12913500D01*
X15967500Y-12899214D01*
X16196071Y-13170643D02*
X16210357Y-13184929D01*
X16196071Y-13199214D01*
X16181786Y-13184929D01*
X16196071Y-13170643D01*
X16196071Y-13199214D01*
X16396071Y-12899214D02*
X16424643Y-12899214D01*
X16453214Y-12913500D01*
X16467500Y-12927786D01*
X16481785Y-12956357D01*
X16496071Y-13013500D01*
X16496071Y-13084929D01*
X16481785Y-13142071D01*
X16467500Y-13170643D01*
X16453214Y-13184929D01*
X16424643Y-13199214D01*
X16396071Y-13199214D01*
X16367500Y-13184929D01*
X16353214Y-13170643D01*
X16338928Y-13142071D01*
X16324643Y-13084929D01*
X16324643Y-13013500D01*
X16338928Y-12956357D01*
X16353214Y-12927786D01*
X16367500Y-12913500D01*
X16396071Y-12899214D01*
X16753214Y-12999214D02*
X16753214Y-13199214D01*
X16681785Y-12884929D02*
X16610357Y-13099214D01*
X16796071Y-13099214D01*
X16967500Y-12899214D02*
X16996071Y-12899214D01*
X17024643Y-12913500D01*
X17038928Y-12927786D01*
X17053214Y-12956357D01*
X17067500Y-13013500D01*
X17067500Y-13084929D01*
X17053214Y-13142071D01*
X17038928Y-13170643D01*
X17024643Y-13184929D01*
X16996071Y-13199214D01*
X16967500Y-13199214D01*
X16938928Y-13184929D01*
X16924643Y-13170643D01*
X16910357Y-13142071D01*
X16896071Y-13084929D01*
X16896071Y-13013500D01*
X16910357Y-12956357D01*
X16924643Y-12927786D01*
X16938928Y-12913500D01*
X16967500Y-12899214D01*
X17181786Y-12899214D02*
X17181786Y-12956357D01*
X17296071Y-12899214D02*
X17296071Y-12956357D01*
X17738928Y-13313500D02*
X17724643Y-13299214D01*
X17696071Y-13256357D01*
X17681786Y-13227786D01*
X17667500Y-13184929D01*
X17653214Y-13113500D01*
X17653214Y-13056357D01*
X17667500Y-12984929D01*
X17681786Y-12942071D01*
X17696071Y-12913500D01*
X17724643Y-12870643D01*
X17738928Y-12856357D01*
X17838928Y-12927786D02*
X17853214Y-12913500D01*
X17881786Y-12899214D01*
X17953214Y-12899214D01*
X17981786Y-12913500D01*
X17996071Y-12927786D01*
X18010357Y-12956357D01*
X18010357Y-12984929D01*
X17996071Y-13027786D01*
X17824643Y-13199214D01*
X18010357Y-13199214D01*
X18153214Y-13199214D02*
X18210357Y-13199214D01*
X18238928Y-13184929D01*
X18253214Y-13170643D01*
X18281786Y-13127786D01*
X18296071Y-13070643D01*
X18296071Y-12956357D01*
X18281786Y-12927786D01*
X18267500Y-12913500D01*
X18238928Y-12899214D01*
X18181786Y-12899214D01*
X18153214Y-12913500D01*
X18138928Y-12927786D01*
X18124643Y-12956357D01*
X18124643Y-13027786D01*
X18138928Y-13056357D01*
X18153214Y-13070643D01*
X18181786Y-13084929D01*
X18238928Y-13084929D01*
X18267500Y-13070643D01*
X18281786Y-13056357D01*
X18296071Y-13027786D01*
X18653214Y-13199214D02*
X18653214Y-12899214D01*
X18781786Y-13199214D02*
X18781786Y-13042071D01*
X18767500Y-13013500D01*
X18738928Y-12999214D01*
X18696071Y-12999214D01*
X18667500Y-13013500D01*
X18653214Y-13027786D01*
X18967500Y-13199214D02*
X18938928Y-13184929D01*
X18924643Y-13170643D01*
X18910357Y-13142071D01*
X18910357Y-13056357D01*
X18924643Y-13027786D01*
X18938928Y-13013500D01*
X18967500Y-12999214D01*
X19010357Y-12999214D01*
X19038928Y-13013500D01*
X19053214Y-13027786D01*
X19067500Y-13056357D01*
X19067500Y-13142071D01*
X19053214Y-13170643D01*
X19038928Y-13184929D01*
X19010357Y-13199214D01*
X18967500Y-13199214D01*
X19238928Y-13199214D02*
X19210357Y-13184929D01*
X19196071Y-13156357D01*
X19196071Y-12899214D01*
X19467500Y-13184929D02*
X19438929Y-13199214D01*
X19381786Y-13199214D01*
X19353214Y-13184929D01*
X19338929Y-13156357D01*
X19338929Y-13042071D01*
X19353214Y-13013500D01*
X19381786Y-12999214D01*
X19438929Y-12999214D01*
X19467500Y-13013500D01*
X19481786Y-13042071D01*
X19481786Y-13070643D01*
X19338929Y-13099214D01*
X19596071Y-13184929D02*
X19624643Y-13199214D01*
X19681786Y-13199214D01*
X19710357Y-13184929D01*
X19724643Y-13156357D01*
X19724643Y-13142071D01*
X19710357Y-13113500D01*
X19681786Y-13099214D01*
X19638929Y-13099214D01*
X19610357Y-13084929D01*
X19596071Y-13056357D01*
X19596071Y-13042071D01*
X19610357Y-13013500D01*
X19638929Y-12999214D01*
X19681786Y-12999214D01*
X19710357Y-13013500D01*
X19824643Y-13313500D02*
X19838929Y-13299214D01*
X19867500Y-13256357D01*
X19881786Y-13227786D01*
X19896071Y-13184929D01*
X19910357Y-13113500D01*
X19910357Y-13056357D01*
X19896071Y-12984929D01*
X19881786Y-12942071D01*
X19867500Y-12913500D01*
X19838929Y-12870643D01*
X19824643Y-12856357D01*
M02*
