%FSLAX45Y45*%
G04 Gerber Fmt 4.5, Leading zero omitted, Abs format (unit mm)*
G04 Created by KiCad (PCBNEW 4.0.4+e1-6308~48~ubuntu16.04.1-stable) date Thu Oct 27 03:01:03 2016*
%MOMM*%
%LPD*%
G01*
G04 APERTURE LIST*
%ADD10C,0.127000*%
%ADD11C,0.150000*%
%ADD12C,0.200000*%
%ADD13C,0.300000*%
G04 APERTURE END LIST*
D10*
D11*
X13865000Y-11235000D02*
X15375000Y-11235000D01*
X13865000Y-9925000D02*
X13865000Y-11235000D01*
X15375000Y-9925000D02*
X13865000Y-9925000D01*
X15375000Y-11235000D02*
X15375000Y-9925000D01*
D12*
X14685000Y-10547500D02*
X14725000Y-10587500D01*
X14725000Y-10547500D02*
X14685000Y-10587500D01*
X15155000Y-10875000D02*
X15195000Y-10915000D01*
X15195000Y-10875000D02*
X15155000Y-10915000D01*
X14072800Y-10110000D02*
G75*
G03X14072800Y-10110000I-50800J0D01*
G01*
X14100800Y-10700000D02*
G75*
G03X14100800Y-10700000I-50800J0D01*
G01*
X14100800Y-11050000D02*
G75*
G03X14100800Y-11050000I-50800J0D01*
G01*
X14326800Y-10110000D02*
G75*
G03X14326800Y-10110000I-50800J0D01*
G01*
X14580800Y-10110000D02*
G75*
G03X14580800Y-10110000I-50800J0D01*
G01*
X14961800Y-10110000D02*
G75*
G03X14961800Y-10110000I-50800J0D01*
G01*
X15215800Y-10110000D02*
G75*
G03X15215800Y-10110000I-50800J0D01*
G01*
D13*
X14128928Y-11708214D02*
X14128928Y-11408214D01*
X14200357Y-11408214D01*
X14243214Y-11422500D01*
X14271786Y-11451071D01*
X14286071Y-11479643D01*
X14300357Y-11536786D01*
X14300357Y-11579643D01*
X14286071Y-11636786D01*
X14271786Y-11665357D01*
X14243214Y-11693929D01*
X14200357Y-11708214D01*
X14128928Y-11708214D01*
X14428928Y-11708214D02*
X14428928Y-11508214D01*
X14428928Y-11565357D02*
X14443214Y-11536786D01*
X14457500Y-11522500D01*
X14486071Y-11508214D01*
X14514643Y-11508214D01*
X14614643Y-11708214D02*
X14614643Y-11508214D01*
X14614643Y-11408214D02*
X14600357Y-11422500D01*
X14614643Y-11436786D01*
X14628928Y-11422500D01*
X14614643Y-11408214D01*
X14614643Y-11436786D01*
X14800357Y-11708214D02*
X14771786Y-11693929D01*
X14757500Y-11665357D01*
X14757500Y-11408214D01*
X14957500Y-11708214D02*
X14928928Y-11693929D01*
X14914643Y-11665357D01*
X14914643Y-11408214D01*
X15300357Y-11708214D02*
X15300357Y-11408214D01*
X15400357Y-11622500D01*
X15500357Y-11408214D01*
X15500357Y-11708214D01*
X15771786Y-11708214D02*
X15771786Y-11551071D01*
X15757500Y-11522500D01*
X15728928Y-11508214D01*
X15671786Y-11508214D01*
X15643214Y-11522500D01*
X15771786Y-11693929D02*
X15743214Y-11708214D01*
X15671786Y-11708214D01*
X15643214Y-11693929D01*
X15628928Y-11665357D01*
X15628928Y-11636786D01*
X15643214Y-11608214D01*
X15671786Y-11593929D01*
X15743214Y-11593929D01*
X15771786Y-11579643D01*
X15914643Y-11508214D02*
X15914643Y-11808214D01*
X15914643Y-11522500D02*
X15943214Y-11508214D01*
X16000357Y-11508214D01*
X16028928Y-11522500D01*
X16043214Y-11536786D01*
X16057500Y-11565357D01*
X16057500Y-11651071D01*
X16043214Y-11679643D01*
X16028928Y-11693929D01*
X16000357Y-11708214D01*
X15943214Y-11708214D01*
X15914643Y-11693929D01*
X16186071Y-11679643D02*
X16200357Y-11693929D01*
X16186071Y-11708214D01*
X16171786Y-11693929D01*
X16186071Y-11679643D01*
X16186071Y-11708214D01*
X16186071Y-11522500D02*
X16200357Y-11536786D01*
X16186071Y-11551071D01*
X16171786Y-11536786D01*
X16186071Y-11522500D01*
X16186071Y-11551071D01*
X13817500Y-12182500D02*
X13857500Y-12222500D01*
X13857500Y-12182500D02*
X13817500Y-12222500D01*
X14186071Y-12038214D02*
X14214643Y-12038214D01*
X14243214Y-12052500D01*
X14257500Y-12066786D01*
X14271786Y-12095357D01*
X14286071Y-12152500D01*
X14286071Y-12223929D01*
X14271786Y-12281071D01*
X14257500Y-12309643D01*
X14243214Y-12323929D01*
X14214643Y-12338214D01*
X14186071Y-12338214D01*
X14157500Y-12323929D01*
X14143214Y-12309643D01*
X14128928Y-12281071D01*
X14114643Y-12223929D01*
X14114643Y-12152500D01*
X14128928Y-12095357D01*
X14143214Y-12066786D01*
X14157500Y-12052500D01*
X14186071Y-12038214D01*
X14414643Y-12309643D02*
X14428928Y-12323929D01*
X14414643Y-12338214D01*
X14400357Y-12323929D01*
X14414643Y-12309643D01*
X14414643Y-12338214D01*
X14686071Y-12138214D02*
X14686071Y-12338214D01*
X14614643Y-12023929D02*
X14543214Y-12238214D01*
X14728928Y-12238214D01*
X14900357Y-12038214D02*
X14928928Y-12038214D01*
X14957500Y-12052500D01*
X14971786Y-12066786D01*
X14986071Y-12095357D01*
X15000357Y-12152500D01*
X15000357Y-12223929D01*
X14986071Y-12281071D01*
X14971786Y-12309643D01*
X14957500Y-12323929D01*
X14928928Y-12338214D01*
X14900357Y-12338214D01*
X14871786Y-12323929D01*
X14857500Y-12309643D01*
X14843214Y-12281071D01*
X14828928Y-12223929D01*
X14828928Y-12152500D01*
X14843214Y-12095357D01*
X14857500Y-12066786D01*
X14871786Y-12052500D01*
X14900357Y-12038214D01*
X15128928Y-12338214D02*
X15128928Y-12138214D01*
X15128928Y-12166786D02*
X15143214Y-12152500D01*
X15171786Y-12138214D01*
X15214643Y-12138214D01*
X15243214Y-12152500D01*
X15257500Y-12181071D01*
X15257500Y-12338214D01*
X15257500Y-12181071D02*
X15271786Y-12152500D01*
X15300357Y-12138214D01*
X15343214Y-12138214D01*
X15371786Y-12152500D01*
X15386071Y-12181071D01*
X15386071Y-12338214D01*
X15528928Y-12338214D02*
X15528928Y-12138214D01*
X15528928Y-12166786D02*
X15543214Y-12152500D01*
X15571786Y-12138214D01*
X15614643Y-12138214D01*
X15643214Y-12152500D01*
X15657500Y-12181071D01*
X15657500Y-12338214D01*
X15657500Y-12181071D02*
X15671786Y-12152500D01*
X15700357Y-12138214D01*
X15743214Y-12138214D01*
X15771786Y-12152500D01*
X15786071Y-12181071D01*
X15786071Y-12338214D01*
X16371786Y-12023929D02*
X16114643Y-12409643D01*
X16757500Y-12038214D02*
X16786071Y-12038214D01*
X16814643Y-12052500D01*
X16828928Y-12066786D01*
X16843214Y-12095357D01*
X16857500Y-12152500D01*
X16857500Y-12223929D01*
X16843214Y-12281071D01*
X16828928Y-12309643D01*
X16814643Y-12323929D01*
X16786071Y-12338214D01*
X16757500Y-12338214D01*
X16728928Y-12323929D01*
X16714643Y-12309643D01*
X16700357Y-12281071D01*
X16686071Y-12223929D01*
X16686071Y-12152500D01*
X16700357Y-12095357D01*
X16714643Y-12066786D01*
X16728928Y-12052500D01*
X16757500Y-12038214D01*
X16986071Y-12309643D02*
X17000357Y-12323929D01*
X16986071Y-12338214D01*
X16971786Y-12323929D01*
X16986071Y-12309643D01*
X16986071Y-12338214D01*
X17186071Y-12038214D02*
X17214643Y-12038214D01*
X17243214Y-12052500D01*
X17257500Y-12066786D01*
X17271786Y-12095357D01*
X17286071Y-12152500D01*
X17286071Y-12223929D01*
X17271786Y-12281071D01*
X17257500Y-12309643D01*
X17243214Y-12323929D01*
X17214643Y-12338214D01*
X17186071Y-12338214D01*
X17157500Y-12323929D01*
X17143214Y-12309643D01*
X17128928Y-12281071D01*
X17114643Y-12223929D01*
X17114643Y-12152500D01*
X17128928Y-12095357D01*
X17143214Y-12066786D01*
X17157500Y-12052500D01*
X17186071Y-12038214D01*
X17571786Y-12338214D02*
X17400357Y-12338214D01*
X17486071Y-12338214D02*
X17486071Y-12038214D01*
X17457500Y-12081071D01*
X17428928Y-12109643D01*
X17400357Y-12123929D01*
X17828928Y-12038214D02*
X17771786Y-12038214D01*
X17743214Y-12052500D01*
X17728928Y-12066786D01*
X17700357Y-12109643D01*
X17686071Y-12166786D01*
X17686071Y-12281071D01*
X17700357Y-12309643D01*
X17714643Y-12323929D01*
X17743214Y-12338214D01*
X17800357Y-12338214D01*
X17828928Y-12323929D01*
X17843214Y-12309643D01*
X17857500Y-12281071D01*
X17857500Y-12209643D01*
X17843214Y-12181071D01*
X17828928Y-12166786D01*
X17800357Y-12152500D01*
X17743214Y-12152500D01*
X17714643Y-12166786D01*
X17700357Y-12181071D01*
X17686071Y-12209643D01*
X17971786Y-12038214D02*
X17971786Y-12095357D01*
X18086071Y-12038214D02*
X18086071Y-12095357D01*
X18528928Y-12452500D02*
X18514643Y-12438214D01*
X18486071Y-12395357D01*
X18471786Y-12366786D01*
X18457500Y-12323929D01*
X18443214Y-12252500D01*
X18443214Y-12195357D01*
X18457500Y-12123929D01*
X18471786Y-12081071D01*
X18486071Y-12052500D01*
X18514643Y-12009643D01*
X18528928Y-11995357D01*
X18628928Y-12066786D02*
X18643214Y-12052500D01*
X18671786Y-12038214D01*
X18743214Y-12038214D01*
X18771786Y-12052500D01*
X18786071Y-12066786D01*
X18800357Y-12095357D01*
X18800357Y-12123929D01*
X18786071Y-12166786D01*
X18614643Y-12338214D01*
X18800357Y-12338214D01*
X19157500Y-12338214D02*
X19157500Y-12038214D01*
X19286071Y-12338214D02*
X19286071Y-12181071D01*
X19271786Y-12152500D01*
X19243214Y-12138214D01*
X19200357Y-12138214D01*
X19171786Y-12152500D01*
X19157500Y-12166786D01*
X19471786Y-12338214D02*
X19443214Y-12323929D01*
X19428928Y-12309643D01*
X19414643Y-12281071D01*
X19414643Y-12195357D01*
X19428928Y-12166786D01*
X19443214Y-12152500D01*
X19471786Y-12138214D01*
X19514643Y-12138214D01*
X19543214Y-12152500D01*
X19557500Y-12166786D01*
X19571786Y-12195357D01*
X19571786Y-12281071D01*
X19557500Y-12309643D01*
X19543214Y-12323929D01*
X19514643Y-12338214D01*
X19471786Y-12338214D01*
X19743214Y-12338214D02*
X19714643Y-12323929D01*
X19700357Y-12295357D01*
X19700357Y-12038214D01*
X19971786Y-12323929D02*
X19943214Y-12338214D01*
X19886071Y-12338214D01*
X19857500Y-12323929D01*
X19843214Y-12295357D01*
X19843214Y-12181071D01*
X19857500Y-12152500D01*
X19886071Y-12138214D01*
X19943214Y-12138214D01*
X19971786Y-12152500D01*
X19986071Y-12181071D01*
X19986071Y-12209643D01*
X19843214Y-12238214D01*
X20100357Y-12323929D02*
X20128929Y-12338214D01*
X20186071Y-12338214D01*
X20214643Y-12323929D01*
X20228929Y-12295357D01*
X20228929Y-12281071D01*
X20214643Y-12252500D01*
X20186071Y-12238214D01*
X20143214Y-12238214D01*
X20114643Y-12223929D01*
X20100357Y-12195357D01*
X20100357Y-12181071D01*
X20114643Y-12152500D01*
X20143214Y-12138214D01*
X20186071Y-12138214D01*
X20214643Y-12152500D01*
X20328928Y-12452500D02*
X20343214Y-12438214D01*
X20371786Y-12395357D01*
X20386071Y-12366786D01*
X20400357Y-12323929D01*
X20414643Y-12252500D01*
X20414643Y-12195357D01*
X20400357Y-12123929D01*
X20386071Y-12081071D01*
X20371786Y-12052500D01*
X20343214Y-12009643D01*
X20328928Y-11995357D01*
X13857500Y-12598500D02*
G75*
G03X13857500Y-12598500I-50800J0D01*
G01*
X14286071Y-12734214D02*
X14114643Y-12734214D01*
X14200357Y-12734214D02*
X14200357Y-12434214D01*
X14171786Y-12477071D01*
X14143214Y-12505643D01*
X14114643Y-12519929D01*
X14414643Y-12705643D02*
X14428928Y-12719929D01*
X14414643Y-12734214D01*
X14400357Y-12719929D01*
X14414643Y-12705643D01*
X14414643Y-12734214D01*
X14614643Y-12434214D02*
X14643214Y-12434214D01*
X14671786Y-12448500D01*
X14686071Y-12462786D01*
X14700357Y-12491357D01*
X14714643Y-12548500D01*
X14714643Y-12619929D01*
X14700357Y-12677071D01*
X14686071Y-12705643D01*
X14671786Y-12719929D01*
X14643214Y-12734214D01*
X14614643Y-12734214D01*
X14586071Y-12719929D01*
X14571786Y-12705643D01*
X14557500Y-12677071D01*
X14543214Y-12619929D01*
X14543214Y-12548500D01*
X14557500Y-12491357D01*
X14571786Y-12462786D01*
X14586071Y-12448500D01*
X14614643Y-12434214D01*
X14828928Y-12462786D02*
X14843214Y-12448500D01*
X14871786Y-12434214D01*
X14943214Y-12434214D01*
X14971786Y-12448500D01*
X14986071Y-12462786D01*
X15000357Y-12491357D01*
X15000357Y-12519929D01*
X14986071Y-12562786D01*
X14814643Y-12734214D01*
X15000357Y-12734214D01*
X15128928Y-12734214D02*
X15128928Y-12534214D01*
X15128928Y-12562786D02*
X15143214Y-12548500D01*
X15171786Y-12534214D01*
X15214643Y-12534214D01*
X15243214Y-12548500D01*
X15257500Y-12577071D01*
X15257500Y-12734214D01*
X15257500Y-12577071D02*
X15271786Y-12548500D01*
X15300357Y-12534214D01*
X15343214Y-12534214D01*
X15371786Y-12548500D01*
X15386071Y-12577071D01*
X15386071Y-12734214D01*
X15528928Y-12734214D02*
X15528928Y-12534214D01*
X15528928Y-12562786D02*
X15543214Y-12548500D01*
X15571786Y-12534214D01*
X15614643Y-12534214D01*
X15643214Y-12548500D01*
X15657500Y-12577071D01*
X15657500Y-12734214D01*
X15657500Y-12577071D02*
X15671786Y-12548500D01*
X15700357Y-12534214D01*
X15743214Y-12534214D01*
X15771786Y-12548500D01*
X15786071Y-12577071D01*
X15786071Y-12734214D01*
X16371786Y-12419929D02*
X16114643Y-12805643D01*
X16757500Y-12434214D02*
X16786071Y-12434214D01*
X16814643Y-12448500D01*
X16828928Y-12462786D01*
X16843214Y-12491357D01*
X16857500Y-12548500D01*
X16857500Y-12619929D01*
X16843214Y-12677071D01*
X16828928Y-12705643D01*
X16814643Y-12719929D01*
X16786071Y-12734214D01*
X16757500Y-12734214D01*
X16728928Y-12719929D01*
X16714643Y-12705643D01*
X16700357Y-12677071D01*
X16686071Y-12619929D01*
X16686071Y-12548500D01*
X16700357Y-12491357D01*
X16714643Y-12462786D01*
X16728928Y-12448500D01*
X16757500Y-12434214D01*
X16986071Y-12705643D02*
X17000357Y-12719929D01*
X16986071Y-12734214D01*
X16971786Y-12719929D01*
X16986071Y-12705643D01*
X16986071Y-12734214D01*
X17186071Y-12434214D02*
X17214643Y-12434214D01*
X17243214Y-12448500D01*
X17257500Y-12462786D01*
X17271786Y-12491357D01*
X17286071Y-12548500D01*
X17286071Y-12619929D01*
X17271786Y-12677071D01*
X17257500Y-12705643D01*
X17243214Y-12719929D01*
X17214643Y-12734214D01*
X17186071Y-12734214D01*
X17157500Y-12719929D01*
X17143214Y-12705643D01*
X17128928Y-12677071D01*
X17114643Y-12619929D01*
X17114643Y-12548500D01*
X17128928Y-12491357D01*
X17143214Y-12462786D01*
X17157500Y-12448500D01*
X17186071Y-12434214D01*
X17543214Y-12534214D02*
X17543214Y-12734214D01*
X17471786Y-12419929D02*
X17400357Y-12634214D01*
X17586071Y-12634214D01*
X17757500Y-12434214D02*
X17786071Y-12434214D01*
X17814643Y-12448500D01*
X17828928Y-12462786D01*
X17843214Y-12491357D01*
X17857500Y-12548500D01*
X17857500Y-12619929D01*
X17843214Y-12677071D01*
X17828928Y-12705643D01*
X17814643Y-12719929D01*
X17786071Y-12734214D01*
X17757500Y-12734214D01*
X17728928Y-12719929D01*
X17714643Y-12705643D01*
X17700357Y-12677071D01*
X17686071Y-12619929D01*
X17686071Y-12548500D01*
X17700357Y-12491357D01*
X17714643Y-12462786D01*
X17728928Y-12448500D01*
X17757500Y-12434214D01*
X17971786Y-12434214D02*
X17971786Y-12491357D01*
X18086071Y-12434214D02*
X18086071Y-12491357D01*
X18528928Y-12848500D02*
X18514643Y-12834214D01*
X18486071Y-12791357D01*
X18471786Y-12762786D01*
X18457500Y-12719929D01*
X18443214Y-12648500D01*
X18443214Y-12591357D01*
X18457500Y-12519929D01*
X18471786Y-12477071D01*
X18486071Y-12448500D01*
X18514643Y-12405643D01*
X18528928Y-12391357D01*
X18614643Y-12434214D02*
X18814643Y-12434214D01*
X18686071Y-12734214D01*
X19157500Y-12734214D02*
X19157500Y-12434214D01*
X19286071Y-12734214D02*
X19286071Y-12577071D01*
X19271786Y-12548500D01*
X19243214Y-12534214D01*
X19200357Y-12534214D01*
X19171786Y-12548500D01*
X19157500Y-12562786D01*
X19471786Y-12734214D02*
X19443214Y-12719929D01*
X19428928Y-12705643D01*
X19414643Y-12677071D01*
X19414643Y-12591357D01*
X19428928Y-12562786D01*
X19443214Y-12548500D01*
X19471786Y-12534214D01*
X19514643Y-12534214D01*
X19543214Y-12548500D01*
X19557500Y-12562786D01*
X19571786Y-12591357D01*
X19571786Y-12677071D01*
X19557500Y-12705643D01*
X19543214Y-12719929D01*
X19514643Y-12734214D01*
X19471786Y-12734214D01*
X19743214Y-12734214D02*
X19714643Y-12719929D01*
X19700357Y-12691357D01*
X19700357Y-12434214D01*
X19971786Y-12719929D02*
X19943214Y-12734214D01*
X19886071Y-12734214D01*
X19857500Y-12719929D01*
X19843214Y-12691357D01*
X19843214Y-12577071D01*
X19857500Y-12548500D01*
X19886071Y-12534214D01*
X19943214Y-12534214D01*
X19971786Y-12548500D01*
X19986071Y-12577071D01*
X19986071Y-12605643D01*
X19843214Y-12634214D01*
X20100357Y-12719929D02*
X20128929Y-12734214D01*
X20186071Y-12734214D01*
X20214643Y-12719929D01*
X20228929Y-12691357D01*
X20228929Y-12677071D01*
X20214643Y-12648500D01*
X20186071Y-12634214D01*
X20143214Y-12634214D01*
X20114643Y-12619929D01*
X20100357Y-12591357D01*
X20100357Y-12577071D01*
X20114643Y-12548500D01*
X20143214Y-12534214D01*
X20186071Y-12534214D01*
X20214643Y-12548500D01*
X20328928Y-12848500D02*
X20343214Y-12834214D01*
X20371786Y-12791357D01*
X20386071Y-12762786D01*
X20400357Y-12719929D01*
X20414643Y-12648500D01*
X20414643Y-12591357D01*
X20400357Y-12519929D01*
X20386071Y-12477071D01*
X20371786Y-12448500D01*
X20343214Y-12405643D01*
X20328928Y-12391357D01*
M02*
