%TF.GenerationSoftware,KiCad,Pcbnew,4.0.4+e1-6308~48~ubuntu16.04.1-stable*%
%TF.CreationDate,2016-10-27T02:21:23-07:00*%
%TF.ProjectId,74AHC1G66GW_TSSOP,37344148433147363647575F5453534F,rev?*%
%TF.FileFunction,Legend,Top*%
%FSLAX46Y46*%
G04 Gerber Fmt 4.6, Leading zero omitted, Abs format (unit mm)*
G04 Created by KiCad (PCBNEW 4.0.4+e1-6308~48~ubuntu16.04.1-stable) date Thu Oct 27 02:21:23 2016*
%MOMM*%
%LPD*%
G01*
G04 APERTURE LIST*
%ADD10C,0.100000*%
%ADD11C,0.050000*%
%ADD12C,0.075000*%
%ADD13C,0.125000*%
%ADD14C,0.150000*%
%ADD15C,0.250000*%
%ADD16R,2.132000X2.132000*%
%ADD17O,2.132000X2.132000*%
%ADD18R,2.335200X2.335200*%
%ADD19R,1.100000X1.350000*%
%ADD20R,1.200000X0.500000*%
G04 APERTURE END LIST*
D10*
D11*
X240242858Y-86498429D02*
X240471429Y-86498429D01*
X240328572Y-86898429D02*
X240328572Y-86384143D01*
X240357144Y-86327000D01*
X240414286Y-86298429D01*
X240471429Y-86298429D01*
X240757143Y-86898429D02*
X240700001Y-86869857D01*
X240671429Y-86841286D01*
X240642858Y-86784143D01*
X240642858Y-86612714D01*
X240671429Y-86555571D01*
X240700001Y-86527000D01*
X240757143Y-86498429D01*
X240842858Y-86498429D01*
X240900001Y-86527000D01*
X240928572Y-86555571D01*
X240957143Y-86612714D01*
X240957143Y-86784143D01*
X240928572Y-86841286D01*
X240900001Y-86869857D01*
X240842858Y-86898429D01*
X240757143Y-86898429D01*
X241300000Y-86898429D02*
X241242858Y-86869857D01*
X241214286Y-86812714D01*
X241214286Y-86298429D01*
X241528572Y-86898429D02*
X241528572Y-86298429D01*
X241585715Y-86669857D02*
X241757144Y-86898429D01*
X241757144Y-86498429D02*
X241528572Y-86727000D01*
X241928572Y-86498429D02*
X242157143Y-86498429D01*
X242014286Y-86298429D02*
X242014286Y-86812714D01*
X242042858Y-86869857D01*
X242100000Y-86898429D01*
X242157143Y-86898429D01*
X242585715Y-86869857D02*
X242528572Y-86898429D01*
X242414286Y-86898429D01*
X242357143Y-86869857D01*
X242328572Y-86812714D01*
X242328572Y-86584143D01*
X242357143Y-86527000D01*
X242414286Y-86498429D01*
X242528572Y-86498429D01*
X242585715Y-86527000D01*
X242614286Y-86584143D01*
X242614286Y-86641286D01*
X242328572Y-86698429D01*
X242871429Y-86898429D02*
X242871429Y-86298429D01*
X242928572Y-86669857D02*
X243100001Y-86898429D01*
X243100001Y-86498429D02*
X242871429Y-86727000D01*
D12*
X240242858Y-85598429D02*
X240471429Y-85598429D01*
X240328572Y-85998429D02*
X240328572Y-85484143D01*
X240357144Y-85427000D01*
X240414286Y-85398429D01*
X240471429Y-85398429D01*
X240757143Y-85998429D02*
X240700001Y-85969857D01*
X240671429Y-85941286D01*
X240642858Y-85884143D01*
X240642858Y-85712714D01*
X240671429Y-85655571D01*
X240700001Y-85627000D01*
X240757143Y-85598429D01*
X240842858Y-85598429D01*
X240900001Y-85627000D01*
X240928572Y-85655571D01*
X240957143Y-85712714D01*
X240957143Y-85884143D01*
X240928572Y-85941286D01*
X240900001Y-85969857D01*
X240842858Y-85998429D01*
X240757143Y-85998429D01*
X241300000Y-85998429D02*
X241242858Y-85969857D01*
X241214286Y-85912714D01*
X241214286Y-85398429D01*
X241528572Y-85998429D02*
X241528572Y-85398429D01*
X241585715Y-85769857D02*
X241757144Y-85998429D01*
X241757144Y-85598429D02*
X241528572Y-85827000D01*
X241928572Y-85598429D02*
X242157143Y-85598429D01*
X242014286Y-85398429D02*
X242014286Y-85912714D01*
X242042858Y-85969857D01*
X242100000Y-85998429D01*
X242157143Y-85998429D01*
X242585715Y-85969857D02*
X242528572Y-85998429D01*
X242414286Y-85998429D01*
X242357143Y-85969857D01*
X242328572Y-85912714D01*
X242328572Y-85684143D01*
X242357143Y-85627000D01*
X242414286Y-85598429D01*
X242528572Y-85598429D01*
X242585715Y-85627000D01*
X242614286Y-85684143D01*
X242614286Y-85741286D01*
X242328572Y-85798429D01*
X242871429Y-85998429D02*
X242871429Y-85398429D01*
X242928572Y-85769857D02*
X243100001Y-85998429D01*
X243100001Y-85598429D02*
X242871429Y-85827000D01*
D10*
X240242858Y-84698429D02*
X240471429Y-84698429D01*
X240328572Y-85098429D02*
X240328572Y-84584143D01*
X240357144Y-84527000D01*
X240414286Y-84498429D01*
X240471429Y-84498429D01*
X240757143Y-85098429D02*
X240700001Y-85069857D01*
X240671429Y-85041286D01*
X240642858Y-84984143D01*
X240642858Y-84812714D01*
X240671429Y-84755571D01*
X240700001Y-84727000D01*
X240757143Y-84698429D01*
X240842858Y-84698429D01*
X240900001Y-84727000D01*
X240928572Y-84755571D01*
X240957143Y-84812714D01*
X240957143Y-84984143D01*
X240928572Y-85041286D01*
X240900001Y-85069857D01*
X240842858Y-85098429D01*
X240757143Y-85098429D01*
X241300000Y-85098429D02*
X241242858Y-85069857D01*
X241214286Y-85012714D01*
X241214286Y-84498429D01*
X241528572Y-85098429D02*
X241528572Y-84498429D01*
X241585715Y-84869857D02*
X241757144Y-85098429D01*
X241757144Y-84698429D02*
X241528572Y-84927000D01*
X241928572Y-84698429D02*
X242157143Y-84698429D01*
X242014286Y-84498429D02*
X242014286Y-85012714D01*
X242042858Y-85069857D01*
X242100000Y-85098429D01*
X242157143Y-85098429D01*
X242585715Y-85069857D02*
X242528572Y-85098429D01*
X242414286Y-85098429D01*
X242357143Y-85069857D01*
X242328572Y-85012714D01*
X242328572Y-84784143D01*
X242357143Y-84727000D01*
X242414286Y-84698429D01*
X242528572Y-84698429D01*
X242585715Y-84727000D01*
X242614286Y-84784143D01*
X242614286Y-84841286D01*
X242328572Y-84898429D01*
X242871429Y-85098429D02*
X242871429Y-84498429D01*
X242928572Y-84869857D02*
X243100001Y-85098429D01*
X243100001Y-84698429D02*
X242871429Y-84927000D01*
D13*
X240242858Y-83798429D02*
X240471429Y-83798429D01*
X240328572Y-84198429D02*
X240328572Y-83684143D01*
X240357144Y-83627000D01*
X240414286Y-83598429D01*
X240471429Y-83598429D01*
X240757143Y-84198429D02*
X240700001Y-84169857D01*
X240671429Y-84141286D01*
X240642858Y-84084143D01*
X240642858Y-83912714D01*
X240671429Y-83855571D01*
X240700001Y-83827000D01*
X240757143Y-83798429D01*
X240842858Y-83798429D01*
X240900001Y-83827000D01*
X240928572Y-83855571D01*
X240957143Y-83912714D01*
X240957143Y-84084143D01*
X240928572Y-84141286D01*
X240900001Y-84169857D01*
X240842858Y-84198429D01*
X240757143Y-84198429D01*
X241300000Y-84198429D02*
X241242858Y-84169857D01*
X241214286Y-84112714D01*
X241214286Y-83598429D01*
X241528572Y-84198429D02*
X241528572Y-83598429D01*
X241585715Y-83969857D02*
X241757144Y-84198429D01*
X241757144Y-83798429D02*
X241528572Y-84027000D01*
X241928572Y-83798429D02*
X242157143Y-83798429D01*
X242014286Y-83598429D02*
X242014286Y-84112714D01*
X242042858Y-84169857D01*
X242100000Y-84198429D01*
X242157143Y-84198429D01*
X242585715Y-84169857D02*
X242528572Y-84198429D01*
X242414286Y-84198429D01*
X242357143Y-84169857D01*
X242328572Y-84112714D01*
X242328572Y-83884143D01*
X242357143Y-83827000D01*
X242414286Y-83798429D01*
X242528572Y-83798429D01*
X242585715Y-83827000D01*
X242614286Y-83884143D01*
X242614286Y-83941286D01*
X242328572Y-83998429D01*
X242871429Y-84198429D02*
X242871429Y-83598429D01*
X242928572Y-83969857D02*
X243100001Y-84198429D01*
X243100001Y-83798429D02*
X242871429Y-84027000D01*
D14*
X240242858Y-82898429D02*
X240471429Y-82898429D01*
X240328572Y-83298429D02*
X240328572Y-82784143D01*
X240357144Y-82727000D01*
X240414286Y-82698429D01*
X240471429Y-82698429D01*
X240757143Y-83298429D02*
X240700001Y-83269857D01*
X240671429Y-83241286D01*
X240642858Y-83184143D01*
X240642858Y-83012714D01*
X240671429Y-82955571D01*
X240700001Y-82927000D01*
X240757143Y-82898429D01*
X240842858Y-82898429D01*
X240900001Y-82927000D01*
X240928572Y-82955571D01*
X240957143Y-83012714D01*
X240957143Y-83184143D01*
X240928572Y-83241286D01*
X240900001Y-83269857D01*
X240842858Y-83298429D01*
X240757143Y-83298429D01*
X241300000Y-83298429D02*
X241242858Y-83269857D01*
X241214286Y-83212714D01*
X241214286Y-82698429D01*
X241528572Y-83298429D02*
X241528572Y-82698429D01*
X241585715Y-83069857D02*
X241757144Y-83298429D01*
X241757144Y-82898429D02*
X241528572Y-83127000D01*
X241928572Y-82898429D02*
X242157143Y-82898429D01*
X242014286Y-82698429D02*
X242014286Y-83212714D01*
X242042858Y-83269857D01*
X242100000Y-83298429D01*
X242157143Y-83298429D01*
X242585715Y-83269857D02*
X242528572Y-83298429D01*
X242414286Y-83298429D01*
X242357143Y-83269857D01*
X242328572Y-83212714D01*
X242328572Y-82984143D01*
X242357143Y-82927000D01*
X242414286Y-82898429D01*
X242528572Y-82898429D01*
X242585715Y-82927000D01*
X242614286Y-82984143D01*
X242614286Y-83041286D01*
X242328572Y-83098429D01*
X242871429Y-83298429D02*
X242871429Y-82698429D01*
X242928572Y-83069857D02*
X243100001Y-83298429D01*
X243100001Y-82898429D02*
X242871429Y-83127000D01*
D15*
X232914806Y-84907699D02*
X232881134Y-84806684D01*
X232780119Y-84705669D01*
X232645431Y-84638325D01*
X232510745Y-84638325D01*
X232409729Y-84671996D01*
X232241371Y-84773012D01*
X232140355Y-84874027D01*
X232039340Y-85042386D01*
X232005668Y-85143401D01*
X232005668Y-85278088D01*
X232073012Y-85412776D01*
X232140356Y-85480119D01*
X232275043Y-85547462D01*
X232342386Y-85547462D01*
X232578088Y-85311760D01*
X232443401Y-85177074D01*
X232578088Y-85917851D02*
X233285195Y-85210745D01*
X232982149Y-86321913D01*
X233689256Y-85614806D01*
X233318867Y-86658630D02*
X234025973Y-85951523D01*
X234194332Y-86119882D01*
X234261676Y-86254569D01*
X234261676Y-86389256D01*
X234228004Y-86490271D01*
X234126989Y-86658630D01*
X234025973Y-86759646D01*
X233857615Y-86860661D01*
X233756600Y-86894333D01*
X233621913Y-86894333D01*
X233487225Y-86826988D01*
X233318867Y-86658630D01*
X232709524Y-83152381D02*
X232233333Y-83152381D01*
X232185714Y-83628571D01*
X232233333Y-83580952D01*
X232328571Y-83533333D01*
X232566667Y-83533333D01*
X232661905Y-83580952D01*
X232709524Y-83628571D01*
X232757143Y-83723810D01*
X232757143Y-83961905D01*
X232709524Y-84057143D01*
X232661905Y-84104762D01*
X232566667Y-84152381D01*
X232328571Y-84152381D01*
X232233333Y-84104762D01*
X232185714Y-84057143D01*
X233042857Y-83152381D02*
X233376190Y-84152381D01*
X233709524Y-83152381D01*
D14*
X237490000Y-82550000D02*
X240030000Y-82550000D01*
X234670000Y-82270000D02*
X236220000Y-82270000D01*
X237490000Y-82550000D02*
X237490000Y-85090000D01*
X236220000Y-85370000D02*
X234670000Y-85370000D01*
X234670000Y-85370000D02*
X234670000Y-82270000D01*
X237490000Y-85090000D02*
X240030000Y-85090000D01*
X240030000Y-85090000D02*
X240030000Y-82550000D01*
X237490000Y-85090000D02*
X240030000Y-85090000D01*
X234670000Y-84810000D02*
X236220000Y-84810000D01*
X237490000Y-85090000D02*
X237490000Y-87630000D01*
X236220000Y-87910000D02*
X234670000Y-87910000D01*
X234670000Y-87910000D02*
X234670000Y-84810000D01*
X237490000Y-87630000D02*
X240030000Y-87630000D01*
X240030000Y-87630000D02*
X240030000Y-85090000D01*
X242850000Y-90450000D02*
X241300000Y-90450000D01*
X241300000Y-87350000D02*
X242850000Y-87350000D01*
X242850000Y-87350000D02*
X242850000Y-90450000D01*
X240030000Y-87630000D02*
X240030000Y-90170000D01*
X232130000Y-87350000D02*
X233680000Y-87350000D01*
X233680000Y-90450000D02*
X232130000Y-90450000D01*
X232130000Y-90450000D02*
X232130000Y-87350000D01*
X234950000Y-90170000D02*
X234950000Y-87630000D01*
X232130000Y-92430000D02*
X233680000Y-92430000D01*
X233680000Y-95530000D02*
X232130000Y-95530000D01*
X232130000Y-95530000D02*
X232130000Y-92430000D01*
X234950000Y-95250000D02*
X234950000Y-92710000D01*
X242850000Y-95530000D02*
X241300000Y-95530000D01*
X241300000Y-92430000D02*
X242850000Y-92430000D01*
X242850000Y-92430000D02*
X242850000Y-95530000D01*
X240030000Y-92710000D02*
X240030000Y-95250000D01*
X232130000Y-100050000D02*
X233680000Y-100050000D01*
X233680000Y-103150000D02*
X232130000Y-103150000D01*
X232130000Y-103150000D02*
X232130000Y-100050000D01*
X234950000Y-102870000D02*
X234950000Y-100330000D01*
X242850000Y-103150000D02*
X241300000Y-103150000D01*
X241300000Y-100050000D02*
X242850000Y-100050000D01*
X242850000Y-100050000D02*
X242850000Y-103150000D01*
X240030000Y-100330000D02*
X240030000Y-102870000D01*
X242850000Y-98070000D02*
X241300000Y-98070000D01*
X241300000Y-94970000D02*
X242850000Y-94970000D01*
X242850000Y-94970000D02*
X242850000Y-98070000D01*
X240030000Y-95250000D02*
X240030000Y-97790000D01*
X232130000Y-94970000D02*
X233680000Y-94970000D01*
X233680000Y-98070000D02*
X232130000Y-98070000D01*
X232130000Y-98070000D02*
X232130000Y-94970000D01*
X234950000Y-97790000D02*
X234950000Y-95250000D01*
X242850000Y-92990000D02*
X241300000Y-92990000D01*
X241300000Y-89890000D02*
X242850000Y-89890000D01*
X242850000Y-89890000D02*
X242850000Y-92990000D01*
X240030000Y-90170000D02*
X240030000Y-92710000D01*
X232130000Y-89890000D02*
X233680000Y-89890000D01*
X233680000Y-92990000D02*
X232130000Y-92990000D01*
X232130000Y-92990000D02*
X232130000Y-89890000D01*
X234950000Y-92710000D02*
X234950000Y-90170000D01*
X232130000Y-97510000D02*
X233680000Y-97510000D01*
X233680000Y-100610000D02*
X232130000Y-100610000D01*
X232130000Y-100610000D02*
X232130000Y-97510000D01*
X234950000Y-100330000D02*
X234950000Y-97790000D01*
X242850000Y-100610000D02*
X241300000Y-100610000D01*
X241300000Y-97510000D02*
X242850000Y-97510000D01*
X242850000Y-97510000D02*
X242850000Y-100610000D01*
X240030000Y-97790000D02*
X240030000Y-100330000D01*
X238000000Y-90450000D02*
X237000000Y-90450000D01*
X237000000Y-92150000D02*
X238000000Y-92150000D01*
X237000000Y-96550000D02*
X238000000Y-96550000D01*
X238000000Y-94850000D02*
X237000000Y-94850000D01*
X238250000Y-90400000D02*
X238250000Y-90250000D01*
X236750000Y-90400000D02*
X236750000Y-90250000D01*
X235900000Y-87850000D02*
X235900000Y-87950000D01*
X239150000Y-87850000D02*
X239150000Y-87950000D01*
X238250000Y-90400000D02*
X236750000Y-90400000D01*
X239150000Y-87850000D02*
X235900000Y-87850000D01*
X238250000Y-90250000D02*
X239325000Y-90250000D01*
X236750000Y-92200000D02*
X236750000Y-92350000D01*
X238250000Y-92200000D02*
X238250000Y-92350000D01*
X239100000Y-94750000D02*
X239100000Y-94650000D01*
X235850000Y-94750000D02*
X235850000Y-94650000D01*
X236750000Y-92200000D02*
X238250000Y-92200000D01*
X235850000Y-94750000D02*
X239100000Y-94750000D01*
X236750000Y-92350000D02*
X235675000Y-92350000D01*
X236750000Y-101000000D02*
X236750000Y-101150000D01*
X238250000Y-101000000D02*
X238250000Y-101150000D01*
X239100000Y-103550000D02*
X239100000Y-103450000D01*
X235850000Y-103550000D02*
X235850000Y-103450000D01*
X236750000Y-101000000D02*
X238250000Y-101000000D01*
X235850000Y-103550000D02*
X239100000Y-103550000D01*
X236750000Y-101150000D02*
X235675000Y-101150000D01*
X238250000Y-99200000D02*
X238250000Y-99050000D01*
X236750000Y-99200000D02*
X236750000Y-99050000D01*
X235900000Y-96650000D02*
X235900000Y-96750000D01*
X239150000Y-96650000D02*
X239150000Y-96750000D01*
X238250000Y-99200000D02*
X236750000Y-99200000D01*
X239150000Y-96650000D02*
X235900000Y-96650000D01*
X238250000Y-99050000D02*
X239325000Y-99050000D01*
X236900000Y-100950000D02*
X237900000Y-100950000D01*
X237900000Y-99250000D02*
X236900000Y-99250000D01*
%LPC*%
D16*
X236220000Y-83820000D03*
D17*
X238760000Y-83820000D03*
D16*
X236220000Y-86360000D03*
D17*
X238760000Y-86360000D03*
D18*
X241300000Y-88900000D03*
X233680000Y-88900000D03*
X233680000Y-93980000D03*
X241300000Y-93980000D03*
X233680000Y-101600000D03*
X241300000Y-101600000D03*
X241300000Y-96520000D03*
X233680000Y-96520000D03*
X241300000Y-91440000D03*
X233680000Y-91440000D03*
X233680000Y-99060000D03*
X241300000Y-99060000D03*
D19*
X236500000Y-91300000D03*
X238500000Y-91300000D03*
X238500000Y-95700000D03*
X236500000Y-95700000D03*
D20*
X238650000Y-89750000D03*
X238650000Y-89100000D03*
X238650000Y-88450000D03*
X236350000Y-88450000D03*
X236350000Y-89750000D03*
X236350000Y-92850000D03*
X236350000Y-93500000D03*
X236350000Y-94150000D03*
X238650000Y-94150000D03*
X238650000Y-92850000D03*
X236350000Y-101650000D03*
X236350000Y-102300000D03*
X236350000Y-102950000D03*
X238650000Y-102950000D03*
X238650000Y-101650000D03*
X238650000Y-98550000D03*
X238650000Y-97900000D03*
X238650000Y-97250000D03*
X236350000Y-97250000D03*
X236350000Y-98550000D03*
D19*
X238400000Y-100100000D03*
X236400000Y-100100000D03*
M02*
