%TF.GenerationSoftware,KiCad,Pcbnew,4.0.4+e1-6308~48~ubuntu16.04.1-stable*%
%TF.CreationDate,2016-10-27T02:21:23-07:00*%
%TF.ProjectId,74AHC1G66GW_TSSOP,37344148433147363647575F5453534F,rev?*%
%TF.FileFunction,Copper,L1,Top,Signal*%
%FSLAX46Y46*%
G04 Gerber Fmt 4.6, Leading zero omitted, Abs format (unit mm)*
G04 Created by KiCad (PCBNEW 4.0.4+e1-6308~48~ubuntu16.04.1-stable) date Thu Oct 27 02:21:23 2016*
%MOMM*%
%LPD*%
G01*
G04 APERTURE LIST*
%ADD10C,0.100000*%
%ADD11R,2.032000X2.032000*%
%ADD12O,2.032000X2.032000*%
%ADD13R,2.235200X2.235200*%
%ADD14R,1.000000X1.250000*%
%ADD15R,1.100000X0.400000*%
%ADD16C,0.600000*%
%ADD17C,0.250000*%
%ADD18C,0.254000*%
G04 APERTURE END LIST*
D10*
D11*
X236220000Y-83820000D03*
D12*
X238760000Y-83820000D03*
D11*
X236220000Y-86360000D03*
D12*
X238760000Y-86360000D03*
D13*
X241300000Y-88900000D03*
X233680000Y-88900000D03*
X233680000Y-93980000D03*
X241300000Y-93980000D03*
X233680000Y-101600000D03*
X241300000Y-101600000D03*
X241300000Y-96520000D03*
X233680000Y-96520000D03*
X241300000Y-91440000D03*
X233680000Y-91440000D03*
X233680000Y-99060000D03*
X241300000Y-99060000D03*
D14*
X236500000Y-91300000D03*
X238500000Y-91300000D03*
X238500000Y-95700000D03*
X236500000Y-95700000D03*
D15*
X238650000Y-89750000D03*
X238650000Y-89100000D03*
X238650000Y-88450000D03*
X236350000Y-88450000D03*
X236350000Y-89750000D03*
X236350000Y-92850000D03*
X236350000Y-93500000D03*
X236350000Y-94150000D03*
X238650000Y-94150000D03*
X238650000Y-92850000D03*
X236350000Y-101650000D03*
X236350000Y-102300000D03*
X236350000Y-102950000D03*
X238650000Y-102950000D03*
X238650000Y-101650000D03*
X238650000Y-98550000D03*
X238650000Y-97900000D03*
X238650000Y-97250000D03*
X236350000Y-97250000D03*
X236350000Y-98550000D03*
D14*
X238400000Y-100100000D03*
X236400000Y-100100000D03*
D16*
X237500000Y-90125000D03*
X235775000Y-99350000D03*
X235446445Y-102853555D03*
X239375000Y-96700000D03*
X235800000Y-94725000D03*
X239100000Y-90550000D03*
D17*
X238400000Y-100100000D02*
X238400000Y-101400000D01*
X238400000Y-101400000D02*
X238650000Y-101650000D01*
X237850000Y-99150000D02*
X238325000Y-99150000D01*
X238325000Y-99150000D02*
X238400000Y-99225000D01*
X238400000Y-99225000D02*
X238400000Y-100100000D01*
X237250000Y-98550000D02*
X237850000Y-99150000D01*
X237200000Y-98550000D02*
X237250000Y-98550000D01*
X237500000Y-98250000D02*
X237200000Y-98550000D01*
X237200000Y-98550000D02*
X236350000Y-98550000D01*
X237500000Y-96825000D02*
X237500000Y-98250000D01*
X238500000Y-95700000D02*
X238500000Y-95825000D01*
X238500000Y-95825000D02*
X237500000Y-96825000D01*
X237500000Y-92200000D02*
X237650000Y-92200000D01*
X236650000Y-92200000D02*
X237500000Y-92200000D01*
X237500000Y-92200000D02*
X237500000Y-94575000D01*
X237500000Y-94575000D02*
X238500000Y-95575000D01*
X238500000Y-95575000D02*
X238500000Y-95700000D01*
X236500000Y-91300000D02*
X236500000Y-91425000D01*
X238300000Y-92850000D02*
X238650000Y-92850000D01*
X236500000Y-91425000D02*
X236525000Y-91450000D01*
X236525000Y-91450000D02*
X236525000Y-92075000D01*
X237650000Y-92200000D02*
X238300000Y-92850000D01*
X236525000Y-92075000D02*
X236650000Y-92200000D01*
X236350000Y-89750000D02*
X236350000Y-91150000D01*
X236350000Y-91150000D02*
X236500000Y-91300000D01*
X236350000Y-89750000D02*
X237125000Y-89750000D01*
X237125000Y-89750000D02*
X237500000Y-90125000D01*
X236220000Y-83820000D02*
X238760000Y-83820000D01*
X238650000Y-88450000D02*
X238650000Y-86470000D01*
X238650000Y-86470000D02*
X238760000Y-86360000D01*
X238500000Y-91300000D02*
X238500000Y-91150000D01*
X238500000Y-91150000D02*
X239100000Y-90550000D01*
X236400000Y-100100000D02*
X236400000Y-99975000D01*
X236400000Y-99975000D02*
X235775000Y-99350000D01*
X236350000Y-102950000D02*
X235542890Y-102950000D01*
X235542890Y-102950000D02*
X235446445Y-102853555D01*
X238650000Y-97250000D02*
X238825000Y-97250000D01*
X238825000Y-97250000D02*
X239375000Y-96700000D01*
X236350000Y-94900000D02*
X236350000Y-95550000D01*
X236350000Y-94900000D02*
X235975000Y-94900000D01*
X236350000Y-94150000D02*
X236350000Y-94900000D01*
X235975000Y-94900000D02*
X235800000Y-94725000D01*
X236350000Y-95550000D02*
X236500000Y-95700000D01*
X241300000Y-88900000D02*
X239932400Y-88900000D01*
X239932400Y-88900000D02*
X239732400Y-89100000D01*
X239732400Y-89100000D02*
X239450000Y-89100000D01*
X239450000Y-89100000D02*
X238650000Y-89100000D01*
X236350000Y-88450000D02*
X234130000Y-88450000D01*
X234130000Y-88450000D02*
X233680000Y-88900000D01*
X236350000Y-93500000D02*
X235950000Y-93500000D01*
X235950000Y-93500000D02*
X235825001Y-93624999D01*
X235825001Y-93624999D02*
X235402601Y-93624999D01*
X235402601Y-93624999D02*
X235047600Y-93980000D01*
X235047600Y-93980000D02*
X233680000Y-93980000D01*
X238650000Y-94150000D02*
X241130000Y-94150000D01*
X241130000Y-94150000D02*
X241300000Y-93980000D01*
X236350000Y-102300000D02*
X236278554Y-102228554D01*
X236278554Y-102228554D02*
X235676154Y-102228554D01*
X235676154Y-102228554D02*
X235047600Y-101600000D01*
X235047600Y-101600000D02*
X233680000Y-101600000D01*
X238650000Y-102950000D02*
X239950000Y-102950000D01*
X239950000Y-102950000D02*
X241300000Y-101600000D01*
X238650000Y-97900000D02*
X239450000Y-97900000D01*
X239450000Y-97900000D02*
X240830000Y-96520000D01*
X240830000Y-96520000D02*
X241300000Y-96520000D01*
X236350000Y-97250000D02*
X234410000Y-97250000D01*
X234410000Y-97250000D02*
X233680000Y-96520000D01*
X238650000Y-89750000D02*
X239450000Y-89750000D01*
X239450000Y-89750000D02*
X241140000Y-91440000D01*
X241140000Y-91440000D02*
X241300000Y-91440000D01*
X236350000Y-92850000D02*
X236000000Y-92850000D01*
X236000000Y-92850000D02*
X234590000Y-91440000D01*
X234590000Y-91440000D02*
X233680000Y-91440000D01*
X236350000Y-101650000D02*
X236000000Y-101650000D01*
X236000000Y-101650000D02*
X235122601Y-100772601D01*
X235122601Y-100772601D02*
X235122601Y-99135001D01*
X235122601Y-99135001D02*
X235047600Y-99060000D01*
X235047600Y-99060000D02*
X233680000Y-99060000D01*
X238650000Y-98550000D02*
X240790000Y-98550000D01*
X240790000Y-98550000D02*
X241300000Y-99060000D01*
D18*
G36*
X236527000Y-99973000D02*
X236547000Y-99973000D01*
X236547000Y-100227000D01*
X236527000Y-100227000D01*
X236527000Y-100247000D01*
X236273000Y-100247000D01*
X236273000Y-100227000D01*
X236253000Y-100227000D01*
X236253000Y-99973000D01*
X236273000Y-99973000D01*
X236273000Y-99953000D01*
X236527000Y-99953000D01*
X236527000Y-99973000D01*
X236527000Y-99973000D01*
G37*
X236527000Y-99973000D02*
X236547000Y-99973000D01*
X236547000Y-100227000D01*
X236527000Y-100227000D01*
X236527000Y-100247000D01*
X236273000Y-100247000D01*
X236273000Y-100227000D01*
X236253000Y-100227000D01*
X236253000Y-99973000D01*
X236273000Y-99973000D01*
X236273000Y-99953000D01*
X236527000Y-99953000D01*
X236527000Y-99973000D01*
G36*
X236627000Y-95573000D02*
X236647000Y-95573000D01*
X236647000Y-95827000D01*
X236627000Y-95827000D01*
X236627000Y-95847000D01*
X236373000Y-95847000D01*
X236373000Y-95827000D01*
X236353000Y-95827000D01*
X236353000Y-95573000D01*
X236373000Y-95573000D01*
X236373000Y-95553000D01*
X236627000Y-95553000D01*
X236627000Y-95573000D01*
X236627000Y-95573000D01*
G37*
X236627000Y-95573000D02*
X236647000Y-95573000D01*
X236647000Y-95827000D01*
X236627000Y-95827000D01*
X236627000Y-95847000D01*
X236373000Y-95847000D01*
X236373000Y-95827000D01*
X236353000Y-95827000D01*
X236353000Y-95573000D01*
X236373000Y-95573000D01*
X236373000Y-95553000D01*
X236627000Y-95553000D01*
X236627000Y-95573000D01*
G36*
X238627000Y-91173000D02*
X238647000Y-91173000D01*
X238647000Y-91427000D01*
X238627000Y-91427000D01*
X238627000Y-91447000D01*
X238373000Y-91447000D01*
X238373000Y-91427000D01*
X238353000Y-91427000D01*
X238353000Y-91173000D01*
X238373000Y-91173000D01*
X238373000Y-91153000D01*
X238627000Y-91153000D01*
X238627000Y-91173000D01*
X238627000Y-91173000D01*
G37*
X238627000Y-91173000D02*
X238647000Y-91173000D01*
X238647000Y-91427000D01*
X238627000Y-91427000D01*
X238627000Y-91447000D01*
X238373000Y-91447000D01*
X238373000Y-91427000D01*
X238353000Y-91427000D01*
X238353000Y-91173000D01*
X238373000Y-91173000D01*
X238373000Y-91153000D01*
X238627000Y-91153000D01*
X238627000Y-91173000D01*
G36*
X234556560Y-84836000D02*
X234600838Y-85071317D01*
X234618355Y-85098539D01*
X234569000Y-85217691D01*
X234569000Y-86074250D01*
X234727750Y-86233000D01*
X236093000Y-86233000D01*
X236093000Y-86213000D01*
X236347000Y-86213000D01*
X236347000Y-86233000D01*
X238633000Y-86233000D01*
X238633000Y-86213000D01*
X238887000Y-86213000D01*
X238887000Y-86233000D01*
X240247367Y-86233000D01*
X240365983Y-85977054D01*
X240097188Y-85391621D01*
X239793026Y-85109586D01*
X239927433Y-85019778D01*
X240285325Y-84484155D01*
X240411000Y-83852345D01*
X240411000Y-83787655D01*
X240285325Y-83155845D01*
X240185202Y-83006000D01*
X242622000Y-83006000D01*
X242622000Y-87176352D01*
X242417600Y-87134960D01*
X240185994Y-87134960D01*
X240365983Y-86742946D01*
X240247367Y-86487000D01*
X238887000Y-86487000D01*
X238887000Y-87663750D01*
X238777000Y-87773750D01*
X238777000Y-88252560D01*
X238523000Y-88252560D01*
X238523000Y-87898040D01*
X238633000Y-87846836D01*
X238633000Y-86487000D01*
X236347000Y-86487000D01*
X236347000Y-86507000D01*
X236093000Y-86507000D01*
X236093000Y-86487000D01*
X234727750Y-86487000D01*
X234569000Y-86645750D01*
X234569000Y-87134960D01*
X232562400Y-87134960D01*
X232358000Y-87173421D01*
X232358000Y-83006000D01*
X234556560Y-83006000D01*
X234556560Y-84836000D01*
X234556560Y-84836000D01*
G37*
X234556560Y-84836000D02*
X234600838Y-85071317D01*
X234618355Y-85098539D01*
X234569000Y-85217691D01*
X234569000Y-86074250D01*
X234727750Y-86233000D01*
X236093000Y-86233000D01*
X236093000Y-86213000D01*
X236347000Y-86213000D01*
X236347000Y-86233000D01*
X238633000Y-86233000D01*
X238633000Y-86213000D01*
X238887000Y-86213000D01*
X238887000Y-86233000D01*
X240247367Y-86233000D01*
X240365983Y-85977054D01*
X240097188Y-85391621D01*
X239793026Y-85109586D01*
X239927433Y-85019778D01*
X240285325Y-84484155D01*
X240411000Y-83852345D01*
X240411000Y-83787655D01*
X240285325Y-83155845D01*
X240185202Y-83006000D01*
X242622000Y-83006000D01*
X242622000Y-87176352D01*
X242417600Y-87134960D01*
X240185994Y-87134960D01*
X240365983Y-86742946D01*
X240247367Y-86487000D01*
X238887000Y-86487000D01*
X238887000Y-87663750D01*
X238777000Y-87773750D01*
X238777000Y-88252560D01*
X238523000Y-88252560D01*
X238523000Y-87898040D01*
X238633000Y-87846836D01*
X238633000Y-86487000D01*
X236347000Y-86487000D01*
X236347000Y-86507000D01*
X236093000Y-86507000D01*
X236093000Y-86487000D01*
X234727750Y-86487000D01*
X234569000Y-86645750D01*
X234569000Y-87134960D01*
X232562400Y-87134960D01*
X232358000Y-87173421D01*
X232358000Y-83006000D01*
X234556560Y-83006000D01*
X234556560Y-84836000D01*
M02*
