%TF.GenerationSoftware,KiCad,Pcbnew,4.0.4+e1-6308~48~ubuntu16.04.1-stable*%
%TF.CreationDate,2016-10-27T02:21:23-07:00*%
%TF.ProjectId,74AHC1G66GW_TSSOP,37344148433147363647575F5453534F,rev?*%
%TF.FileFunction,Legend,Bot*%
%FSLAX46Y46*%
G04 Gerber Fmt 4.6, Leading zero omitted, Abs format (unit mm)*
G04 Created by KiCad (PCBNEW 4.0.4+e1-6308~48~ubuntu16.04.1-stable) date Thu Oct 27 02:21:23 2016*
%MOMM*%
%LPD*%
G01*
G04 APERTURE LIST*
%ADD10C,0.100000*%
%ADD11C,0.187500*%
%ADD12C,0.033000*%
%ADD13C,0.075000*%
%ADD14C,0.150000*%
%ADD15C,0.250000*%
%ADD16R,2.132000X2.132000*%
%ADD17O,2.132000X2.132000*%
%ADD18R,2.335200X2.335200*%
G04 APERTURE END LIST*
D10*
D11*
X237333286Y-87620571D02*
X237333286Y-88120571D01*
X238083286Y-87799142D01*
X237583286Y-88727714D02*
X238083286Y-88727714D01*
X237297571Y-88549143D02*
X237833286Y-88370571D01*
X237833286Y-88834857D01*
X237869000Y-89084857D02*
X237869000Y-89442000D01*
X238083286Y-89013429D02*
X237333286Y-89263429D01*
X238083286Y-89513429D01*
X238083286Y-89763428D02*
X237333286Y-89763428D01*
X237690429Y-89763428D02*
X237690429Y-90192000D01*
X238083286Y-90192000D02*
X237333286Y-90192000D01*
X238011857Y-90977714D02*
X238047571Y-90942000D01*
X238083286Y-90834857D01*
X238083286Y-90763428D01*
X238047571Y-90656285D01*
X237976143Y-90584857D01*
X237904714Y-90549142D01*
X237761857Y-90513428D01*
X237654714Y-90513428D01*
X237511857Y-90549142D01*
X237440429Y-90584857D01*
X237369000Y-90656285D01*
X237333286Y-90763428D01*
X237333286Y-90834857D01*
X237369000Y-90942000D01*
X237404714Y-90977714D01*
X238083286Y-91692000D02*
X238083286Y-91263428D01*
X238083286Y-91477714D02*
X237333286Y-91477714D01*
X237440429Y-91406285D01*
X237511857Y-91334857D01*
X237547571Y-91263428D01*
X237369000Y-92406286D02*
X237333286Y-92334857D01*
X237333286Y-92227714D01*
X237369000Y-92120571D01*
X237440429Y-92049143D01*
X237511857Y-92013428D01*
X237654714Y-91977714D01*
X237761857Y-91977714D01*
X237904714Y-92013428D01*
X237976143Y-92049143D01*
X238047571Y-92120571D01*
X238083286Y-92227714D01*
X238083286Y-92299143D01*
X238047571Y-92406286D01*
X238011857Y-92442000D01*
X237761857Y-92442000D01*
X237761857Y-92299143D01*
X237333286Y-93084857D02*
X237333286Y-92942000D01*
X237369000Y-92870571D01*
X237404714Y-92834857D01*
X237511857Y-92763428D01*
X237654714Y-92727714D01*
X237940429Y-92727714D01*
X238011857Y-92763428D01*
X238047571Y-92799143D01*
X238083286Y-92870571D01*
X238083286Y-93013428D01*
X238047571Y-93084857D01*
X238011857Y-93120571D01*
X237940429Y-93156286D01*
X237761857Y-93156286D01*
X237690429Y-93120571D01*
X237654714Y-93084857D01*
X237619000Y-93013428D01*
X237619000Y-92870571D01*
X237654714Y-92799143D01*
X237690429Y-92763428D01*
X237761857Y-92727714D01*
X237333286Y-93799143D02*
X237333286Y-93656286D01*
X237369000Y-93584857D01*
X237404714Y-93549143D01*
X237511857Y-93477714D01*
X237654714Y-93442000D01*
X237940429Y-93442000D01*
X238011857Y-93477714D01*
X238047571Y-93513429D01*
X238083286Y-93584857D01*
X238083286Y-93727714D01*
X238047571Y-93799143D01*
X238011857Y-93834857D01*
X237940429Y-93870572D01*
X237761857Y-93870572D01*
X237690429Y-93834857D01*
X237654714Y-93799143D01*
X237619000Y-93727714D01*
X237619000Y-93584857D01*
X237654714Y-93513429D01*
X237690429Y-93477714D01*
X237761857Y-93442000D01*
X237369000Y-94584858D02*
X237333286Y-94513429D01*
X237333286Y-94406286D01*
X237369000Y-94299143D01*
X237440429Y-94227715D01*
X237511857Y-94192000D01*
X237654714Y-94156286D01*
X237761857Y-94156286D01*
X237904714Y-94192000D01*
X237976143Y-94227715D01*
X238047571Y-94299143D01*
X238083286Y-94406286D01*
X238083286Y-94477715D01*
X238047571Y-94584858D01*
X238011857Y-94620572D01*
X237761857Y-94620572D01*
X237761857Y-94477715D01*
X237333286Y-94870572D02*
X238083286Y-95049143D01*
X237547571Y-95192000D01*
X238083286Y-95334858D01*
X237333286Y-95513429D01*
D12*
X236825286Y-95494571D02*
X236825286Y-95994571D01*
X237575286Y-95673142D01*
X237075286Y-96601714D02*
X237575286Y-96601714D01*
X236789571Y-96423143D02*
X237325286Y-96244571D01*
X237325286Y-96708857D01*
X237361000Y-96958857D02*
X237361000Y-97316000D01*
X237575286Y-96887429D02*
X236825286Y-97137429D01*
X237575286Y-97387429D01*
X237575286Y-97637428D02*
X236825286Y-97637428D01*
X237182429Y-97637428D02*
X237182429Y-98066000D01*
X237575286Y-98066000D02*
X236825286Y-98066000D01*
X237503857Y-98851714D02*
X237539571Y-98816000D01*
X237575286Y-98708857D01*
X237575286Y-98637428D01*
X237539571Y-98530285D01*
X237468143Y-98458857D01*
X237396714Y-98423142D01*
X237253857Y-98387428D01*
X237146714Y-98387428D01*
X237003857Y-98423142D01*
X236932429Y-98458857D01*
X236861000Y-98530285D01*
X236825286Y-98637428D01*
X236825286Y-98708857D01*
X236861000Y-98816000D01*
X236896714Y-98851714D01*
X237575286Y-99566000D02*
X237575286Y-99137428D01*
X237575286Y-99351714D02*
X236825286Y-99351714D01*
X236932429Y-99280285D01*
X237003857Y-99208857D01*
X237039571Y-99137428D01*
X236861000Y-100280286D02*
X236825286Y-100208857D01*
X236825286Y-100101714D01*
X236861000Y-99994571D01*
X236932429Y-99923143D01*
X237003857Y-99887428D01*
X237146714Y-99851714D01*
X237253857Y-99851714D01*
X237396714Y-99887428D01*
X237468143Y-99923143D01*
X237539571Y-99994571D01*
X237575286Y-100101714D01*
X237575286Y-100173143D01*
X237539571Y-100280286D01*
X237503857Y-100316000D01*
X237253857Y-100316000D01*
X237253857Y-100173143D01*
X236825286Y-100958857D02*
X236825286Y-100816000D01*
X236861000Y-100744571D01*
X236896714Y-100708857D01*
X237003857Y-100637428D01*
X237146714Y-100601714D01*
X237432429Y-100601714D01*
X237503857Y-100637428D01*
X237539571Y-100673143D01*
X237575286Y-100744571D01*
X237575286Y-100887428D01*
X237539571Y-100958857D01*
X237503857Y-100994571D01*
X237432429Y-101030286D01*
X237253857Y-101030286D01*
X237182429Y-100994571D01*
X237146714Y-100958857D01*
X237111000Y-100887428D01*
X237111000Y-100744571D01*
X237146714Y-100673143D01*
X237182429Y-100637428D01*
X237253857Y-100601714D01*
X236825286Y-101673143D02*
X236825286Y-101530286D01*
X236861000Y-101458857D01*
X236896714Y-101423143D01*
X237003857Y-101351714D01*
X237146714Y-101316000D01*
X237432429Y-101316000D01*
X237503857Y-101351714D01*
X237539571Y-101387429D01*
X237575286Y-101458857D01*
X237575286Y-101601714D01*
X237539571Y-101673143D01*
X237503857Y-101708857D01*
X237432429Y-101744572D01*
X237253857Y-101744572D01*
X237182429Y-101708857D01*
X237146714Y-101673143D01*
X237111000Y-101601714D01*
X237111000Y-101458857D01*
X237146714Y-101387429D01*
X237182429Y-101351714D01*
X237253857Y-101316000D01*
X236861000Y-102458858D02*
X236825286Y-102387429D01*
X236825286Y-102280286D01*
X236861000Y-102173143D01*
X236932429Y-102101715D01*
X237003857Y-102066000D01*
X237146714Y-102030286D01*
X237253857Y-102030286D01*
X237396714Y-102066000D01*
X237468143Y-102101715D01*
X237539571Y-102173143D01*
X237575286Y-102280286D01*
X237575286Y-102351715D01*
X237539571Y-102458858D01*
X237503857Y-102494572D01*
X237253857Y-102494572D01*
X237253857Y-102351715D01*
X236825286Y-102744572D02*
X237575286Y-102923143D01*
X237039571Y-103066000D01*
X237575286Y-103208858D01*
X236825286Y-103387429D01*
D13*
X240785714Y-82571428D02*
X240785714Y-82952380D01*
X241452381Y-82714285D02*
X240595238Y-82714285D01*
X240500000Y-82761904D01*
X240452381Y-82857142D01*
X240452381Y-82952380D01*
X241452381Y-83428571D02*
X241404762Y-83333333D01*
X241357143Y-83285714D01*
X241261905Y-83238095D01*
X240976190Y-83238095D01*
X240880952Y-83285714D01*
X240833333Y-83333333D01*
X240785714Y-83428571D01*
X240785714Y-83571429D01*
X240833333Y-83666667D01*
X240880952Y-83714286D01*
X240976190Y-83761905D01*
X241261905Y-83761905D01*
X241357143Y-83714286D01*
X241404762Y-83666667D01*
X241452381Y-83571429D01*
X241452381Y-83428571D01*
X241452381Y-84333333D02*
X241404762Y-84238095D01*
X241309524Y-84190476D01*
X240452381Y-84190476D01*
X241452381Y-84714286D02*
X240452381Y-84714286D01*
X241071429Y-84809524D02*
X241452381Y-85095239D01*
X240785714Y-85095239D02*
X241166667Y-84714286D01*
X240785714Y-85380953D02*
X240785714Y-85761905D01*
X240452381Y-85523810D02*
X241309524Y-85523810D01*
X241404762Y-85571429D01*
X241452381Y-85666667D01*
X241452381Y-85761905D01*
X241404762Y-86476192D02*
X241452381Y-86380954D01*
X241452381Y-86190477D01*
X241404762Y-86095239D01*
X241309524Y-86047620D01*
X240928571Y-86047620D01*
X240833333Y-86095239D01*
X240785714Y-86190477D01*
X240785714Y-86380954D01*
X240833333Y-86476192D01*
X240928571Y-86523811D01*
X241023810Y-86523811D01*
X241119048Y-86047620D01*
X241452381Y-86952382D02*
X240452381Y-86952382D01*
X241071429Y-87047620D02*
X241452381Y-87333335D01*
X240785714Y-87333335D02*
X241166667Y-86952382D01*
D14*
X242185714Y-82571428D02*
X242185714Y-82952380D01*
X242852381Y-82714285D02*
X241995238Y-82714285D01*
X241900000Y-82761904D01*
X241852381Y-82857142D01*
X241852381Y-82952380D01*
X242852381Y-83428571D02*
X242804762Y-83333333D01*
X242757143Y-83285714D01*
X242661905Y-83238095D01*
X242376190Y-83238095D01*
X242280952Y-83285714D01*
X242233333Y-83333333D01*
X242185714Y-83428571D01*
X242185714Y-83571429D01*
X242233333Y-83666667D01*
X242280952Y-83714286D01*
X242376190Y-83761905D01*
X242661905Y-83761905D01*
X242757143Y-83714286D01*
X242804762Y-83666667D01*
X242852381Y-83571429D01*
X242852381Y-83428571D01*
X242852381Y-84333333D02*
X242804762Y-84238095D01*
X242709524Y-84190476D01*
X241852381Y-84190476D01*
X242852381Y-84714286D02*
X241852381Y-84714286D01*
X242471429Y-84809524D02*
X242852381Y-85095239D01*
X242185714Y-85095239D02*
X242566667Y-84714286D01*
X242185714Y-85380953D02*
X242185714Y-85761905D01*
X241852381Y-85523810D02*
X242709524Y-85523810D01*
X242804762Y-85571429D01*
X242852381Y-85666667D01*
X242852381Y-85761905D01*
X242804762Y-86476192D02*
X242852381Y-86380954D01*
X242852381Y-86190477D01*
X242804762Y-86095239D01*
X242709524Y-86047620D01*
X242328571Y-86047620D01*
X242233333Y-86095239D01*
X242185714Y-86190477D01*
X242185714Y-86380954D01*
X242233333Y-86476192D01*
X242328571Y-86523811D01*
X242423810Y-86523811D01*
X242519048Y-86047620D01*
X242852381Y-86952382D02*
X241852381Y-86952382D01*
X242471429Y-87047620D02*
X242852381Y-87333335D01*
X242185714Y-87333335D02*
X242566667Y-86952382D01*
D15*
X236529476Y-88828571D02*
X236196142Y-88828571D01*
X236053285Y-89352381D02*
X236529476Y-89352381D01*
X236529476Y-88352381D01*
X236053285Y-88352381D01*
X235100904Y-89352381D02*
X235672333Y-89352381D01*
X235386619Y-89352381D02*
X235386619Y-88352381D01*
X235481857Y-88495238D01*
X235577095Y-88590476D01*
X235672333Y-88638095D01*
X239617190Y-96972381D02*
X239617190Y-95972381D01*
X238712428Y-96305714D02*
X238712428Y-96972381D01*
X238950524Y-95924762D02*
X239188619Y-96639048D01*
X238569571Y-96639048D01*
X239831476Y-93908571D02*
X239498142Y-93908571D01*
X239355285Y-94432381D02*
X239831476Y-94432381D01*
X239831476Y-93432381D01*
X239355285Y-93432381D01*
X238974333Y-93527619D02*
X238926714Y-93480000D01*
X238831476Y-93432381D01*
X238593380Y-93432381D01*
X238498142Y-93480000D01*
X238450523Y-93527619D01*
X238402904Y-93622857D01*
X238402904Y-93718095D01*
X238450523Y-93860952D01*
X239021952Y-94432381D01*
X238402904Y-94432381D01*
X239712429Y-90892381D02*
X239521952Y-90892381D01*
X239426714Y-90940000D01*
X239331476Y-91035238D01*
X239283857Y-91225714D01*
X239283857Y-91559048D01*
X239331476Y-91749524D01*
X239426714Y-91844762D01*
X239521952Y-91892381D01*
X239712429Y-91892381D01*
X239807667Y-91844762D01*
X239902905Y-91749524D01*
X239950524Y-91559048D01*
X239950524Y-91225714D01*
X239902905Y-91035238D01*
X239807667Y-90940000D01*
X239712429Y-90892381D01*
X238331476Y-91892381D02*
X238902905Y-91892381D01*
X238617191Y-91892381D02*
X238617191Y-90892381D01*
X238712429Y-91035238D01*
X238807667Y-91130476D01*
X238902905Y-91178095D01*
X239831476Y-101528571D02*
X239498142Y-101528571D01*
X239355285Y-102052381D02*
X239831476Y-102052381D01*
X239831476Y-101052381D01*
X239355285Y-101052381D01*
X239021952Y-101052381D02*
X238402904Y-101052381D01*
X238736238Y-101433333D01*
X238593380Y-101433333D01*
X238498142Y-101480952D01*
X238450523Y-101528571D01*
X238402904Y-101623810D01*
X238402904Y-101861905D01*
X238450523Y-101957143D01*
X238498142Y-102004762D01*
X238593380Y-102052381D01*
X238879095Y-102052381D01*
X238974333Y-102004762D01*
X239021952Y-101957143D01*
X239712429Y-98512381D02*
X239521952Y-98512381D01*
X239426714Y-98560000D01*
X239331476Y-98655238D01*
X239283857Y-98845714D01*
X239283857Y-99179048D01*
X239331476Y-99369524D01*
X239426714Y-99464762D01*
X239521952Y-99512381D01*
X239712429Y-99512381D01*
X239807667Y-99464762D01*
X239902905Y-99369524D01*
X239950524Y-99179048D01*
X239950524Y-98845714D01*
X239902905Y-98655238D01*
X239807667Y-98560000D01*
X239712429Y-98512381D01*
X238426714Y-98845714D02*
X238426714Y-99512381D01*
X238664810Y-98464762D02*
X238902905Y-99179048D01*
X238283857Y-99179048D01*
X236315190Y-102052381D02*
X236315190Y-101052381D01*
X235934238Y-101052381D02*
X235315190Y-101052381D01*
X235648524Y-101433333D01*
X235505666Y-101433333D01*
X235410428Y-101480952D01*
X235362809Y-101528571D01*
X235315190Y-101623810D01*
X235315190Y-101861905D01*
X235362809Y-101957143D01*
X235410428Y-102004762D01*
X235505666Y-102052381D01*
X235791381Y-102052381D01*
X235886619Y-102004762D01*
X235934238Y-101957143D01*
X236410429Y-98512381D02*
X236219952Y-98512381D01*
X236124714Y-98560000D01*
X236029476Y-98655238D01*
X235981857Y-98845714D01*
X235981857Y-99179048D01*
X236029476Y-99369524D01*
X236124714Y-99464762D01*
X236219952Y-99512381D01*
X236410429Y-99512381D01*
X236505667Y-99464762D01*
X236600905Y-99369524D01*
X236648524Y-99179048D01*
X236648524Y-98845714D01*
X236600905Y-98655238D01*
X236505667Y-98560000D01*
X236410429Y-98512381D01*
X235648524Y-98512381D02*
X235029476Y-98512381D01*
X235362810Y-98893333D01*
X235219952Y-98893333D01*
X235124714Y-98940952D01*
X235077095Y-98988571D01*
X235029476Y-99083810D01*
X235029476Y-99321905D01*
X235077095Y-99417143D01*
X235124714Y-99464762D01*
X235219952Y-99512381D01*
X235505667Y-99512381D01*
X235600905Y-99464762D01*
X235648524Y-99417143D01*
X236529476Y-96448571D02*
X236196142Y-96448571D01*
X236053285Y-96972381D02*
X236529476Y-96972381D01*
X236529476Y-95972381D01*
X236053285Y-95972381D01*
X235196142Y-96305714D02*
X235196142Y-96972381D01*
X235434238Y-95924762D02*
X235672333Y-96639048D01*
X235053285Y-96639048D01*
X236315190Y-94432381D02*
X236315190Y-93432381D01*
X235886619Y-93527619D02*
X235839000Y-93480000D01*
X235743762Y-93432381D01*
X235505666Y-93432381D01*
X235410428Y-93480000D01*
X235362809Y-93527619D01*
X235315190Y-93622857D01*
X235315190Y-93718095D01*
X235362809Y-93860952D01*
X235934238Y-94432381D01*
X235315190Y-94432381D01*
X236410429Y-90892381D02*
X236219952Y-90892381D01*
X236124714Y-90940000D01*
X236029476Y-91035238D01*
X235981857Y-91225714D01*
X235981857Y-91559048D01*
X236029476Y-91749524D01*
X236124714Y-91844762D01*
X236219952Y-91892381D01*
X236410429Y-91892381D01*
X236505667Y-91844762D01*
X236600905Y-91749524D01*
X236648524Y-91559048D01*
X236648524Y-91225714D01*
X236600905Y-91035238D01*
X236505667Y-90940000D01*
X236410429Y-90892381D01*
X235600905Y-90987619D02*
X235553286Y-90940000D01*
X235458048Y-90892381D01*
X235219952Y-90892381D01*
X235124714Y-90940000D01*
X235077095Y-90987619D01*
X235029476Y-91082857D01*
X235029476Y-91178095D01*
X235077095Y-91320952D01*
X235648524Y-91892381D01*
X235029476Y-91892381D01*
X239617190Y-89352381D02*
X239617190Y-88352381D01*
X238617190Y-89352381D02*
X239188619Y-89352381D01*
X238902905Y-89352381D02*
X238902905Y-88352381D01*
X238998143Y-88495238D01*
X239093381Y-88590476D01*
X239188619Y-88638095D01*
X233890476Y-83152381D02*
X234366667Y-83152381D01*
X234414286Y-83628571D01*
X234366667Y-83580952D01*
X234271429Y-83533333D01*
X234033333Y-83533333D01*
X233938095Y-83580952D01*
X233890476Y-83628571D01*
X233842857Y-83723810D01*
X233842857Y-83961905D01*
X233890476Y-84057143D01*
X233938095Y-84104762D01*
X234033333Y-84152381D01*
X234271429Y-84152381D01*
X234366667Y-84104762D01*
X234414286Y-84057143D01*
X233557143Y-83152381D02*
X233223810Y-84152381D01*
X232890476Y-83152381D01*
X233585194Y-85107699D02*
X233618866Y-85006684D01*
X233719881Y-84905669D01*
X233854569Y-84838325D01*
X233989255Y-84838325D01*
X234090271Y-84871996D01*
X234258629Y-84973012D01*
X234359645Y-85074027D01*
X234460660Y-85242386D01*
X234494332Y-85343401D01*
X234494332Y-85478088D01*
X234426988Y-85612776D01*
X234359644Y-85680119D01*
X234224957Y-85747462D01*
X234157614Y-85747462D01*
X233921912Y-85511760D01*
X234056599Y-85377074D01*
X233921912Y-86117851D02*
X233214805Y-85410745D01*
X233517851Y-86521913D01*
X232810744Y-85814806D01*
X233181133Y-86858630D02*
X232474027Y-86151523D01*
X232305668Y-86319882D01*
X232238324Y-86454569D01*
X232238324Y-86589256D01*
X232271996Y-86690271D01*
X232373011Y-86858630D01*
X232474027Y-86959646D01*
X232642385Y-87060661D01*
X232743400Y-87094333D01*
X232878087Y-87094333D01*
X233012775Y-87026988D01*
X233181133Y-86858630D01*
%LPC*%
D16*
X236220000Y-83820000D03*
D17*
X238760000Y-83820000D03*
D16*
X236220000Y-86360000D03*
D17*
X238760000Y-86360000D03*
D18*
X241300000Y-88900000D03*
X233680000Y-88900000D03*
X233680000Y-93980000D03*
X241300000Y-93980000D03*
X233680000Y-101600000D03*
X241300000Y-101600000D03*
X241300000Y-96520000D03*
X233680000Y-96520000D03*
X241300000Y-91440000D03*
X233680000Y-91440000D03*
X233680000Y-99060000D03*
X241300000Y-99060000D03*
M02*
