%FSLAX45Y45*%
G04 Gerber Fmt 4.5, Leading zero omitted, Abs format (unit mm)*
G04 Created by KiCad (PCBNEW 4.0.4+e1-6308~48~ubuntu16.04.1-stable) date Thu Oct 27 03:00:03 2016*
%MOMM*%
%LPD*%
G01*
G04 APERTURE LIST*
%ADD10C,0.127000*%
%ADD11C,0.150000*%
%ADD12C,0.200000*%
%ADD13C,0.300000*%
G04 APERTURE END LIST*
D10*
D11*
X15280000Y-10900000D02*
X15280000Y-10040000D01*
X13580000Y-10900000D02*
X15280000Y-10900000D01*
X13580000Y-10040000D02*
X13580000Y-10900000D01*
X15280000Y-10040000D02*
X13580000Y-10040000D01*
D12*
X14000000Y-10570000D02*
X14040000Y-10610000D01*
X14040000Y-10570000D02*
X14000000Y-10610000D01*
X13815800Y-10232000D02*
G75*
G03X13815800Y-10232000I-50800J0D01*
G01*
X13815800Y-10486000D02*
G75*
G03X13815800Y-10486000I-50800J0D01*
G01*
X13815800Y-10740000D02*
G75*
G03X13815800Y-10740000I-50800J0D01*
G01*
X14896800Y-10220000D02*
G75*
G03X14896800Y-10220000I-50800J0D01*
G01*
X15150800Y-10220000D02*
G75*
G03X15150800Y-10220000I-50800J0D01*
G01*
D13*
X13843928Y-11373214D02*
X13843928Y-11073214D01*
X13915357Y-11073214D01*
X13958214Y-11087500D01*
X13986786Y-11116072D01*
X14001071Y-11144643D01*
X14015357Y-11201786D01*
X14015357Y-11244643D01*
X14001071Y-11301786D01*
X13986786Y-11330357D01*
X13958214Y-11358929D01*
X13915357Y-11373214D01*
X13843928Y-11373214D01*
X14143928Y-11373214D02*
X14143928Y-11173214D01*
X14143928Y-11230357D02*
X14158214Y-11201786D01*
X14172500Y-11187500D01*
X14201071Y-11173214D01*
X14229643Y-11173214D01*
X14329643Y-11373214D02*
X14329643Y-11173214D01*
X14329643Y-11073214D02*
X14315357Y-11087500D01*
X14329643Y-11101786D01*
X14343928Y-11087500D01*
X14329643Y-11073214D01*
X14329643Y-11101786D01*
X14515357Y-11373214D02*
X14486786Y-11358929D01*
X14472500Y-11330357D01*
X14472500Y-11073214D01*
X14672500Y-11373214D02*
X14643928Y-11358929D01*
X14629643Y-11330357D01*
X14629643Y-11073214D01*
X15015357Y-11373214D02*
X15015357Y-11073214D01*
X15115357Y-11287500D01*
X15215357Y-11073214D01*
X15215357Y-11373214D01*
X15486786Y-11373214D02*
X15486786Y-11216071D01*
X15472500Y-11187500D01*
X15443928Y-11173214D01*
X15386786Y-11173214D01*
X15358214Y-11187500D01*
X15486786Y-11358929D02*
X15458214Y-11373214D01*
X15386786Y-11373214D01*
X15358214Y-11358929D01*
X15343928Y-11330357D01*
X15343928Y-11301786D01*
X15358214Y-11273214D01*
X15386786Y-11258929D01*
X15458214Y-11258929D01*
X15486786Y-11244643D01*
X15629643Y-11173214D02*
X15629643Y-11473214D01*
X15629643Y-11187500D02*
X15658214Y-11173214D01*
X15715357Y-11173214D01*
X15743928Y-11187500D01*
X15758214Y-11201786D01*
X15772500Y-11230357D01*
X15772500Y-11316071D01*
X15758214Y-11344643D01*
X15743928Y-11358929D01*
X15715357Y-11373214D01*
X15658214Y-11373214D01*
X15629643Y-11358929D01*
X15901071Y-11344643D02*
X15915357Y-11358929D01*
X15901071Y-11373214D01*
X15886786Y-11358929D01*
X15901071Y-11344643D01*
X15901071Y-11373214D01*
X15901071Y-11187500D02*
X15915357Y-11201786D01*
X15901071Y-11216071D01*
X15886786Y-11201786D01*
X15901071Y-11187500D01*
X15901071Y-11216071D01*
X13532500Y-11847500D02*
X13572500Y-11887500D01*
X13572500Y-11847500D02*
X13532500Y-11887500D01*
X13901071Y-11703214D02*
X13929643Y-11703214D01*
X13958214Y-11717500D01*
X13972500Y-11731786D01*
X13986786Y-11760357D01*
X14001071Y-11817500D01*
X14001071Y-11888929D01*
X13986786Y-11946071D01*
X13972500Y-11974643D01*
X13958214Y-11988929D01*
X13929643Y-12003214D01*
X13901071Y-12003214D01*
X13872500Y-11988929D01*
X13858214Y-11974643D01*
X13843928Y-11946071D01*
X13829643Y-11888929D01*
X13829643Y-11817500D01*
X13843928Y-11760357D01*
X13858214Y-11731786D01*
X13872500Y-11717500D01*
X13901071Y-11703214D01*
X14129643Y-11974643D02*
X14143928Y-11988929D01*
X14129643Y-12003214D01*
X14115357Y-11988929D01*
X14129643Y-11974643D01*
X14129643Y-12003214D01*
X14401071Y-11803214D02*
X14401071Y-12003214D01*
X14329643Y-11688929D02*
X14258214Y-11903214D01*
X14443928Y-11903214D01*
X14615357Y-11703214D02*
X14643928Y-11703214D01*
X14672500Y-11717500D01*
X14686786Y-11731786D01*
X14701071Y-11760357D01*
X14715357Y-11817500D01*
X14715357Y-11888929D01*
X14701071Y-11946071D01*
X14686786Y-11974643D01*
X14672500Y-11988929D01*
X14643928Y-12003214D01*
X14615357Y-12003214D01*
X14586786Y-11988929D01*
X14572500Y-11974643D01*
X14558214Y-11946071D01*
X14543928Y-11888929D01*
X14543928Y-11817500D01*
X14558214Y-11760357D01*
X14572500Y-11731786D01*
X14586786Y-11717500D01*
X14615357Y-11703214D01*
X14843928Y-12003214D02*
X14843928Y-11803214D01*
X14843928Y-11831786D02*
X14858214Y-11817500D01*
X14886786Y-11803214D01*
X14929643Y-11803214D01*
X14958214Y-11817500D01*
X14972500Y-11846071D01*
X14972500Y-12003214D01*
X14972500Y-11846071D02*
X14986786Y-11817500D01*
X15015357Y-11803214D01*
X15058214Y-11803214D01*
X15086786Y-11817500D01*
X15101071Y-11846071D01*
X15101071Y-12003214D01*
X15243928Y-12003214D02*
X15243928Y-11803214D01*
X15243928Y-11831786D02*
X15258214Y-11817500D01*
X15286786Y-11803214D01*
X15329643Y-11803214D01*
X15358214Y-11817500D01*
X15372500Y-11846071D01*
X15372500Y-12003214D01*
X15372500Y-11846071D02*
X15386786Y-11817500D01*
X15415357Y-11803214D01*
X15458214Y-11803214D01*
X15486786Y-11817500D01*
X15501071Y-11846071D01*
X15501071Y-12003214D01*
X16086786Y-11688929D02*
X15829643Y-12074643D01*
X16472500Y-11703214D02*
X16501071Y-11703214D01*
X16529643Y-11717500D01*
X16543928Y-11731786D01*
X16558214Y-11760357D01*
X16572500Y-11817500D01*
X16572500Y-11888929D01*
X16558214Y-11946071D01*
X16543928Y-11974643D01*
X16529643Y-11988929D01*
X16501071Y-12003214D01*
X16472500Y-12003214D01*
X16443928Y-11988929D01*
X16429643Y-11974643D01*
X16415357Y-11946071D01*
X16401071Y-11888929D01*
X16401071Y-11817500D01*
X16415357Y-11760357D01*
X16429643Y-11731786D01*
X16443928Y-11717500D01*
X16472500Y-11703214D01*
X16701071Y-11974643D02*
X16715357Y-11988929D01*
X16701071Y-12003214D01*
X16686786Y-11988929D01*
X16701071Y-11974643D01*
X16701071Y-12003214D01*
X16901071Y-11703214D02*
X16929643Y-11703214D01*
X16958214Y-11717500D01*
X16972500Y-11731786D01*
X16986786Y-11760357D01*
X17001071Y-11817500D01*
X17001071Y-11888929D01*
X16986786Y-11946071D01*
X16972500Y-11974643D01*
X16958214Y-11988929D01*
X16929643Y-12003214D01*
X16901071Y-12003214D01*
X16872500Y-11988929D01*
X16858214Y-11974643D01*
X16843928Y-11946071D01*
X16829643Y-11888929D01*
X16829643Y-11817500D01*
X16843928Y-11760357D01*
X16858214Y-11731786D01*
X16872500Y-11717500D01*
X16901071Y-11703214D01*
X17286786Y-12003214D02*
X17115357Y-12003214D01*
X17201071Y-12003214D02*
X17201071Y-11703214D01*
X17172500Y-11746071D01*
X17143928Y-11774643D01*
X17115357Y-11788929D01*
X17543928Y-11703214D02*
X17486786Y-11703214D01*
X17458214Y-11717500D01*
X17443928Y-11731786D01*
X17415357Y-11774643D01*
X17401071Y-11831786D01*
X17401071Y-11946071D01*
X17415357Y-11974643D01*
X17429643Y-11988929D01*
X17458214Y-12003214D01*
X17515357Y-12003214D01*
X17543928Y-11988929D01*
X17558214Y-11974643D01*
X17572500Y-11946071D01*
X17572500Y-11874643D01*
X17558214Y-11846071D01*
X17543928Y-11831786D01*
X17515357Y-11817500D01*
X17458214Y-11817500D01*
X17429643Y-11831786D01*
X17415357Y-11846071D01*
X17401071Y-11874643D01*
X17686786Y-11703214D02*
X17686786Y-11760357D01*
X17801071Y-11703214D02*
X17801071Y-11760357D01*
X18243928Y-12117500D02*
X18229643Y-12103214D01*
X18201071Y-12060357D01*
X18186786Y-12031786D01*
X18172500Y-11988929D01*
X18158214Y-11917500D01*
X18158214Y-11860357D01*
X18172500Y-11788929D01*
X18186786Y-11746071D01*
X18201071Y-11717500D01*
X18229643Y-11674643D01*
X18243928Y-11660357D01*
X18515357Y-12003214D02*
X18343928Y-12003214D01*
X18429643Y-12003214D02*
X18429643Y-11703214D01*
X18401071Y-11746071D01*
X18372500Y-11774643D01*
X18343928Y-11788929D01*
X18872500Y-12003214D02*
X18872500Y-11703214D01*
X19001071Y-12003214D02*
X19001071Y-11846071D01*
X18986786Y-11817500D01*
X18958214Y-11803214D01*
X18915357Y-11803214D01*
X18886786Y-11817500D01*
X18872500Y-11831786D01*
X19186786Y-12003214D02*
X19158214Y-11988929D01*
X19143928Y-11974643D01*
X19129643Y-11946071D01*
X19129643Y-11860357D01*
X19143928Y-11831786D01*
X19158214Y-11817500D01*
X19186786Y-11803214D01*
X19229643Y-11803214D01*
X19258214Y-11817500D01*
X19272500Y-11831786D01*
X19286786Y-11860357D01*
X19286786Y-11946071D01*
X19272500Y-11974643D01*
X19258214Y-11988929D01*
X19229643Y-12003214D01*
X19186786Y-12003214D01*
X19458214Y-12003214D02*
X19429643Y-11988929D01*
X19415357Y-11960357D01*
X19415357Y-11703214D01*
X19686786Y-11988929D02*
X19658214Y-12003214D01*
X19601071Y-12003214D01*
X19572500Y-11988929D01*
X19558214Y-11960357D01*
X19558214Y-11846071D01*
X19572500Y-11817500D01*
X19601071Y-11803214D01*
X19658214Y-11803214D01*
X19686786Y-11817500D01*
X19701071Y-11846071D01*
X19701071Y-11874643D01*
X19558214Y-11903214D01*
X19801071Y-12117500D02*
X19815357Y-12103214D01*
X19843929Y-12060357D01*
X19858214Y-12031786D01*
X19872500Y-11988929D01*
X19886786Y-11917500D01*
X19886786Y-11860357D01*
X19872500Y-11788929D01*
X19858214Y-11746071D01*
X19843929Y-11717500D01*
X19815357Y-11674643D01*
X19801071Y-11660357D01*
X13572500Y-12263500D02*
G75*
G03X13572500Y-12263500I-50800J0D01*
G01*
X14001071Y-12399214D02*
X13829643Y-12399214D01*
X13915357Y-12399214D02*
X13915357Y-12099214D01*
X13886786Y-12142071D01*
X13858214Y-12170643D01*
X13829643Y-12184929D01*
X14129643Y-12370643D02*
X14143928Y-12384929D01*
X14129643Y-12399214D01*
X14115357Y-12384929D01*
X14129643Y-12370643D01*
X14129643Y-12399214D01*
X14329643Y-12099214D02*
X14358214Y-12099214D01*
X14386786Y-12113500D01*
X14401071Y-12127786D01*
X14415357Y-12156357D01*
X14429643Y-12213500D01*
X14429643Y-12284929D01*
X14415357Y-12342071D01*
X14401071Y-12370643D01*
X14386786Y-12384929D01*
X14358214Y-12399214D01*
X14329643Y-12399214D01*
X14301071Y-12384929D01*
X14286786Y-12370643D01*
X14272500Y-12342071D01*
X14258214Y-12284929D01*
X14258214Y-12213500D01*
X14272500Y-12156357D01*
X14286786Y-12127786D01*
X14301071Y-12113500D01*
X14329643Y-12099214D01*
X14543928Y-12127786D02*
X14558214Y-12113500D01*
X14586786Y-12099214D01*
X14658214Y-12099214D01*
X14686786Y-12113500D01*
X14701071Y-12127786D01*
X14715357Y-12156357D01*
X14715357Y-12184929D01*
X14701071Y-12227786D01*
X14529643Y-12399214D01*
X14715357Y-12399214D01*
X14843928Y-12399214D02*
X14843928Y-12199214D01*
X14843928Y-12227786D02*
X14858214Y-12213500D01*
X14886786Y-12199214D01*
X14929643Y-12199214D01*
X14958214Y-12213500D01*
X14972500Y-12242071D01*
X14972500Y-12399214D01*
X14972500Y-12242071D02*
X14986786Y-12213500D01*
X15015357Y-12199214D01*
X15058214Y-12199214D01*
X15086786Y-12213500D01*
X15101071Y-12242071D01*
X15101071Y-12399214D01*
X15243928Y-12399214D02*
X15243928Y-12199214D01*
X15243928Y-12227786D02*
X15258214Y-12213500D01*
X15286786Y-12199214D01*
X15329643Y-12199214D01*
X15358214Y-12213500D01*
X15372500Y-12242071D01*
X15372500Y-12399214D01*
X15372500Y-12242071D02*
X15386786Y-12213500D01*
X15415357Y-12199214D01*
X15458214Y-12199214D01*
X15486786Y-12213500D01*
X15501071Y-12242071D01*
X15501071Y-12399214D01*
X16086786Y-12084929D02*
X15829643Y-12470643D01*
X16472500Y-12099214D02*
X16501071Y-12099214D01*
X16529643Y-12113500D01*
X16543928Y-12127786D01*
X16558214Y-12156357D01*
X16572500Y-12213500D01*
X16572500Y-12284929D01*
X16558214Y-12342071D01*
X16543928Y-12370643D01*
X16529643Y-12384929D01*
X16501071Y-12399214D01*
X16472500Y-12399214D01*
X16443928Y-12384929D01*
X16429643Y-12370643D01*
X16415357Y-12342071D01*
X16401071Y-12284929D01*
X16401071Y-12213500D01*
X16415357Y-12156357D01*
X16429643Y-12127786D01*
X16443928Y-12113500D01*
X16472500Y-12099214D01*
X16701071Y-12370643D02*
X16715357Y-12384929D01*
X16701071Y-12399214D01*
X16686786Y-12384929D01*
X16701071Y-12370643D01*
X16701071Y-12399214D01*
X16901071Y-12099214D02*
X16929643Y-12099214D01*
X16958214Y-12113500D01*
X16972500Y-12127786D01*
X16986786Y-12156357D01*
X17001071Y-12213500D01*
X17001071Y-12284929D01*
X16986786Y-12342071D01*
X16972500Y-12370643D01*
X16958214Y-12384929D01*
X16929643Y-12399214D01*
X16901071Y-12399214D01*
X16872500Y-12384929D01*
X16858214Y-12370643D01*
X16843928Y-12342071D01*
X16829643Y-12284929D01*
X16829643Y-12213500D01*
X16843928Y-12156357D01*
X16858214Y-12127786D01*
X16872500Y-12113500D01*
X16901071Y-12099214D01*
X17258214Y-12199214D02*
X17258214Y-12399214D01*
X17186786Y-12084929D02*
X17115357Y-12299214D01*
X17301071Y-12299214D01*
X17472500Y-12099214D02*
X17501071Y-12099214D01*
X17529643Y-12113500D01*
X17543928Y-12127786D01*
X17558214Y-12156357D01*
X17572500Y-12213500D01*
X17572500Y-12284929D01*
X17558214Y-12342071D01*
X17543928Y-12370643D01*
X17529643Y-12384929D01*
X17501071Y-12399214D01*
X17472500Y-12399214D01*
X17443928Y-12384929D01*
X17429643Y-12370643D01*
X17415357Y-12342071D01*
X17401071Y-12284929D01*
X17401071Y-12213500D01*
X17415357Y-12156357D01*
X17429643Y-12127786D01*
X17443928Y-12113500D01*
X17472500Y-12099214D01*
X17686786Y-12099214D02*
X17686786Y-12156357D01*
X17801071Y-12099214D02*
X17801071Y-12156357D01*
X18243928Y-12513500D02*
X18229643Y-12499214D01*
X18201071Y-12456357D01*
X18186786Y-12427786D01*
X18172500Y-12384929D01*
X18158214Y-12313500D01*
X18158214Y-12256357D01*
X18172500Y-12184929D01*
X18186786Y-12142071D01*
X18201071Y-12113500D01*
X18229643Y-12070643D01*
X18243928Y-12056357D01*
X18501071Y-12099214D02*
X18358214Y-12099214D01*
X18343928Y-12242071D01*
X18358214Y-12227786D01*
X18386786Y-12213500D01*
X18458214Y-12213500D01*
X18486786Y-12227786D01*
X18501071Y-12242071D01*
X18515357Y-12270643D01*
X18515357Y-12342071D01*
X18501071Y-12370643D01*
X18486786Y-12384929D01*
X18458214Y-12399214D01*
X18386786Y-12399214D01*
X18358214Y-12384929D01*
X18343928Y-12370643D01*
X18872500Y-12399214D02*
X18872500Y-12099214D01*
X19001071Y-12399214D02*
X19001071Y-12242071D01*
X18986786Y-12213500D01*
X18958214Y-12199214D01*
X18915357Y-12199214D01*
X18886786Y-12213500D01*
X18872500Y-12227786D01*
X19186786Y-12399214D02*
X19158214Y-12384929D01*
X19143928Y-12370643D01*
X19129643Y-12342071D01*
X19129643Y-12256357D01*
X19143928Y-12227786D01*
X19158214Y-12213500D01*
X19186786Y-12199214D01*
X19229643Y-12199214D01*
X19258214Y-12213500D01*
X19272500Y-12227786D01*
X19286786Y-12256357D01*
X19286786Y-12342071D01*
X19272500Y-12370643D01*
X19258214Y-12384929D01*
X19229643Y-12399214D01*
X19186786Y-12399214D01*
X19458214Y-12399214D02*
X19429643Y-12384929D01*
X19415357Y-12356357D01*
X19415357Y-12099214D01*
X19686786Y-12384929D02*
X19658214Y-12399214D01*
X19601071Y-12399214D01*
X19572500Y-12384929D01*
X19558214Y-12356357D01*
X19558214Y-12242071D01*
X19572500Y-12213500D01*
X19601071Y-12199214D01*
X19658214Y-12199214D01*
X19686786Y-12213500D01*
X19701071Y-12242071D01*
X19701071Y-12270643D01*
X19558214Y-12299214D01*
X19815357Y-12384929D02*
X19843929Y-12399214D01*
X19901071Y-12399214D01*
X19929643Y-12384929D01*
X19943929Y-12356357D01*
X19943929Y-12342071D01*
X19929643Y-12313500D01*
X19901071Y-12299214D01*
X19858214Y-12299214D01*
X19829643Y-12284929D01*
X19815357Y-12256357D01*
X19815357Y-12242071D01*
X19829643Y-12213500D01*
X19858214Y-12199214D01*
X19901071Y-12199214D01*
X19929643Y-12213500D01*
X20043928Y-12513500D02*
X20058214Y-12499214D01*
X20086786Y-12456357D01*
X20101071Y-12427786D01*
X20115357Y-12384929D01*
X20129643Y-12313500D01*
X20129643Y-12256357D01*
X20115357Y-12184929D01*
X20101071Y-12142071D01*
X20086786Y-12113500D01*
X20058214Y-12070643D01*
X20043928Y-12056357D01*
M02*
