G04 #@! TF.FileFunction,Copper,L1,Top,Signal*
%FSLAX46Y46*%
G04 Gerber Fmt 4.6, Leading zero omitted, Abs format (unit mm)*
G04 Created by KiCad (PCBNEW 4.0.4+e1-6308~48~ubuntu16.04.1-stable) date Thu Nov  3 23:09:12 2016*
%MOMM*%
%LPD*%
G01*
G04 APERTURE LIST*
%ADD10C,0.100000*%
%ADD11R,2.000000X1.600000*%
%ADD12R,2.032000X1.727200*%
%ADD13O,2.032000X1.727200*%
%ADD14R,2.032000X2.032000*%
%ADD15O,2.032000X2.032000*%
%ADD16R,2.000000X1.700000*%
%ADD17R,1.060000X0.650000*%
%ADD18C,0.600000*%
%ADD19C,0.250000*%
G04 APERTURE END LIST*
D10*
D11*
X147250000Y-105200000D03*
X151250000Y-105200000D03*
X147250000Y-107700000D03*
X151250000Y-107700000D03*
D12*
X137650000Y-102320000D03*
D13*
X137650000Y-104860000D03*
X137650000Y-107400000D03*
D14*
X151000000Y-102200000D03*
D15*
X148460000Y-102200000D03*
D16*
X145400000Y-102000000D03*
X141400000Y-102000000D03*
D17*
X141600000Y-104950000D03*
X141600000Y-105900000D03*
X141600000Y-106850000D03*
X143800000Y-106850000D03*
X143800000Y-104950000D03*
X143800000Y-105900000D03*
D18*
X140200000Y-105900000D03*
D19*
X143800000Y-105900000D02*
X146550000Y-105900000D01*
X146550000Y-105900000D02*
X147250000Y-105200000D01*
X147250000Y-105200000D02*
X147250000Y-103410000D01*
X147250000Y-103410000D02*
X148460000Y-102200000D01*
X151250000Y-107700000D02*
X151250000Y-105200000D01*
X151250000Y-105200000D02*
X151250000Y-102450000D01*
X151250000Y-102450000D02*
X151000000Y-102200000D01*
X141600000Y-105900000D02*
X140200000Y-105900000D01*
X143800000Y-106850000D02*
X146400000Y-106850000D01*
X146400000Y-106850000D02*
X147250000Y-107700000D01*
X137650000Y-102320000D02*
X141080000Y-102320000D01*
X141080000Y-102320000D02*
X141400000Y-102000000D01*
X141600000Y-104950000D02*
X137740000Y-104950000D01*
X137740000Y-104950000D02*
X137650000Y-104860000D01*
X141600000Y-106850000D02*
X138200000Y-106850000D01*
X138200000Y-106850000D02*
X137650000Y-107400000D01*
X143800000Y-104950000D02*
X143800000Y-103450000D01*
X143800000Y-103450000D02*
X145250000Y-102000000D01*
X145250000Y-102000000D02*
X145400000Y-102000000D01*
M02*
