M48
;DRILL file {KiCad 4.0.4+e1-6308~48~ubuntu16.04.1-stable} date Thu Nov  3 23:07:23 2016
;FORMAT={-:-/ absolute / metric / decimal}
FMAT,2
METRIC,TZ
T1C0.400
T2C1.016
%
G90
G05
M71
T1
X215.491Y-102.542
X216.461Y-90.5
X219.6Y-96.95
X223.875Y-101.75
X224.03Y-90.576
X224.717Y-89.922
T2
X211.074Y-88.9
X211.074Y-91.44
X211.074Y-93.98
X211.074Y-96.52
X211.074Y-99.06
X211.074Y-101.6
X217.526Y-101.702
X219.329Y-88.849
X220.066Y-101.702
X221.869Y-88.849
X228.524Y-88.9
X228.524Y-91.44
X228.524Y-93.98
X228.524Y-96.52
X228.524Y-99.06
X228.524Y-101.6
T0
M30
