%TF.GenerationSoftware,KiCad,Pcbnew,4.0.4+e1-6308~48~ubuntu16.04.1-stable*%
%TF.CreationDate,2016-10-27T02:24:33-07:00*%
%TF.ProjectId,cd4066_tssop,6364343036365F7473736F702E6B6963,rev?*%
%TF.FileFunction,Copper,L1,Top,Signal*%
%FSLAX46Y46*%
G04 Gerber Fmt 4.6, Leading zero omitted, Abs format (unit mm)*
G04 Created by KiCad (PCBNEW 4.0.4+e1-6308~48~ubuntu16.04.1-stable) date Thu Oct 27 02:24:33 2016*
%MOMM*%
%LPD*%
G01*
G04 APERTURE LIST*
%ADD10C,0.100000*%
%ADD11R,2.032000X2.032000*%
%ADD12O,2.032000X2.032000*%
%ADD13R,2.235200X2.235200*%
%ADD14R,1.450000X0.450000*%
%ADD15R,1.250000X1.000000*%
%ADD16C,0.600000*%
%ADD17C,0.250000*%
%ADD18C,0.254000*%
G04 APERTURE END LIST*
D10*
D11*
X219329000Y-88849200D03*
D12*
X221869000Y-88849200D03*
D11*
X217525600Y-101701600D03*
D12*
X220065600Y-101701600D03*
D13*
X211074000Y-88900000D03*
X228523800Y-88900000D03*
X211074000Y-96520000D03*
X211074000Y-99060000D03*
X228523800Y-101600000D03*
X211074000Y-101600000D03*
X228523800Y-93980000D03*
X228523800Y-91440000D03*
X211074000Y-91440000D03*
X211074000Y-93980000D03*
X228523800Y-99060000D03*
X228523800Y-96520000D03*
D14*
X216760000Y-95154200D03*
X216760000Y-95804200D03*
X216760000Y-96454200D03*
X216760000Y-97104200D03*
X216760000Y-97754200D03*
X216760000Y-98404200D03*
X216760000Y-99054200D03*
X222660000Y-99054200D03*
X222660000Y-98404200D03*
X222660000Y-97754200D03*
X222660000Y-97104200D03*
X222660000Y-96454200D03*
X222660000Y-95804200D03*
X222660000Y-95154200D03*
D15*
X222625700Y-93374200D03*
X222625700Y-91374200D03*
X220573600Y-93379800D03*
X220573600Y-91379800D03*
D16*
X224717394Y-89922398D03*
X224030492Y-90576328D03*
X215490513Y-102542047D03*
X223875000Y-101750000D03*
X219600000Y-96950000D03*
X216461169Y-90500460D03*
D17*
X222660000Y-95154200D02*
X223635000Y-95154200D01*
X223635000Y-95154200D02*
X224050000Y-94739200D01*
X224050000Y-94739200D02*
X224050000Y-93923500D01*
X224050000Y-93923500D02*
X223500700Y-93374200D01*
X223500700Y-93374200D02*
X222625700Y-93374200D01*
X219329000Y-88849200D02*
X220595000Y-88849200D01*
X220595000Y-88849200D02*
X221869000Y-88849200D01*
X220573600Y-93379800D02*
X219698600Y-93379800D01*
X219698600Y-93379800D02*
X219329000Y-93010200D01*
X219329000Y-93010200D02*
X219329000Y-90115200D01*
X219329000Y-90115200D02*
X219329000Y-88849200D01*
X222625700Y-93374200D02*
X220579200Y-93374200D01*
X220579200Y-93374200D02*
X220573600Y-93379800D01*
X224684422Y-89922398D02*
X224717394Y-89922398D01*
X224030492Y-90576328D02*
X224684422Y-89922398D01*
X223606228Y-90576328D02*
X224030492Y-90576328D01*
X223548572Y-90576328D02*
X223606228Y-90576328D01*
X222750700Y-91374200D02*
X223548572Y-90576328D01*
X222625700Y-91374200D02*
X222750700Y-91374200D01*
X220065600Y-101701600D02*
X223826600Y-101701600D01*
X223826600Y-101701600D02*
X223875000Y-101750000D01*
X220573600Y-91379800D02*
X222620100Y-91379800D01*
X222620100Y-91379800D02*
X222625700Y-91374200D01*
X220065600Y-101701600D02*
X218628760Y-101701600D01*
X218628760Y-101701600D02*
X217525600Y-101701600D01*
X215500000Y-101550000D02*
X215651600Y-101701600D01*
X215651600Y-101701600D02*
X217525600Y-101701600D01*
X215500000Y-99200000D02*
X215500000Y-101550000D01*
X215645800Y-99054200D02*
X215500000Y-99200000D01*
X216760000Y-99054200D02*
X215645800Y-99054200D01*
X215000000Y-94700000D02*
X215454200Y-95154200D01*
X215454200Y-95154200D02*
X216760000Y-95154200D01*
X215000000Y-91458400D02*
X215000000Y-94700000D01*
X211074000Y-88900000D02*
X212441600Y-88900000D01*
X212441600Y-88900000D02*
X215000000Y-91458400D01*
X224900000Y-94800000D02*
X223895800Y-95804200D01*
X223895800Y-95804200D02*
X222660000Y-95804200D01*
X224900000Y-91156200D02*
X224900000Y-94800000D01*
X228523800Y-88900000D02*
X227156200Y-88900000D01*
X227156200Y-88900000D02*
X224900000Y-91156200D01*
X211074000Y-96520000D02*
X212441600Y-96520000D01*
X212441600Y-96520000D02*
X213025800Y-97104200D01*
X215785000Y-97104200D02*
X216760000Y-97104200D01*
X213025800Y-97104200D02*
X215785000Y-97104200D01*
X211074000Y-99060000D02*
X212441600Y-99060000D01*
X212441600Y-99060000D02*
X213747400Y-97754200D01*
X213747400Y-97754200D02*
X215785000Y-97754200D01*
X215785000Y-97754200D02*
X216760000Y-97754200D01*
X228523800Y-101600000D02*
X227156200Y-101600000D01*
X227156200Y-101600000D02*
X224610400Y-99054200D01*
X224610400Y-99054200D02*
X222660000Y-99054200D01*
X211074000Y-101600000D02*
X212441600Y-101600000D01*
X212441600Y-101600000D02*
X215637400Y-98404200D01*
X215637400Y-98404200D02*
X215785000Y-98404200D01*
X215785000Y-98404200D02*
X216760000Y-98404200D01*
X228523800Y-93980000D02*
X227156200Y-93980000D01*
X227156200Y-93980000D02*
X226250000Y-94886200D01*
X226250000Y-94886200D02*
X226250000Y-95850000D01*
X226250000Y-95850000D02*
X224995800Y-97104200D01*
X224995800Y-97104200D02*
X222660000Y-97104200D01*
X222660000Y-96454200D02*
X224093163Y-96454200D01*
X224093163Y-96454200D02*
X225548158Y-94999205D01*
X225548158Y-94999205D02*
X225548158Y-93048042D01*
X225548158Y-93048042D02*
X227156200Y-91440000D01*
X227156200Y-91440000D02*
X228523800Y-91440000D01*
X214549990Y-94999990D02*
X215354200Y-95804200D01*
X215354200Y-95804200D02*
X216760000Y-95804200D01*
X211074000Y-91440000D02*
X212441600Y-91440000D01*
X212441600Y-91440000D02*
X214549990Y-93548390D01*
X214549990Y-93548390D02*
X214549990Y-94999990D01*
X213600000Y-95550000D02*
X214504200Y-96454200D01*
X214504200Y-96454200D02*
X216760000Y-96454200D01*
X213600000Y-95138400D02*
X213600000Y-95550000D01*
X211074000Y-93980000D02*
X212441600Y-93980000D01*
X212441600Y-93980000D02*
X213600000Y-95138400D01*
X228523800Y-99060000D02*
X227156200Y-99060000D01*
X227156200Y-99060000D02*
X226500400Y-98404200D01*
X223635000Y-98404200D02*
X222660000Y-98404200D01*
X226500400Y-98404200D02*
X223635000Y-98404200D01*
X228523800Y-96520000D02*
X227156200Y-96520000D01*
X227156200Y-96520000D02*
X225922000Y-97754200D01*
X225922000Y-97754200D02*
X222660000Y-97754200D01*
D18*
G36*
X217716569Y-87581310D02*
X217665560Y-87833200D01*
X217665560Y-89865200D01*
X217709838Y-90100517D01*
X217848910Y-90316641D01*
X218061110Y-90461631D01*
X218313000Y-90512640D01*
X218569000Y-90512640D01*
X218569000Y-93010200D01*
X218626852Y-93301039D01*
X218791599Y-93547601D01*
X219161199Y-93917201D01*
X219329337Y-94029547D01*
X219345438Y-94115117D01*
X219484510Y-94331241D01*
X219696710Y-94476231D01*
X219948600Y-94527240D01*
X221198600Y-94527240D01*
X221433917Y-94482962D01*
X221605379Y-94372629D01*
X221616001Y-94379886D01*
X221483559Y-94465110D01*
X221338569Y-94677310D01*
X221287560Y-94929200D01*
X221287560Y-95379200D01*
X221307067Y-95482871D01*
X221287560Y-95579200D01*
X221287560Y-96029200D01*
X221307067Y-96132871D01*
X221287560Y-96229200D01*
X221287560Y-96679200D01*
X221307067Y-96782871D01*
X221287560Y-96879200D01*
X221287560Y-97329200D01*
X221307067Y-97432871D01*
X221287560Y-97529200D01*
X221287560Y-97979200D01*
X221307067Y-98082871D01*
X221287560Y-98179200D01*
X221287560Y-98629200D01*
X221307067Y-98732871D01*
X221287560Y-98829200D01*
X221287560Y-99279200D01*
X221331838Y-99514517D01*
X221470910Y-99730641D01*
X221683110Y-99875631D01*
X221935000Y-99926640D01*
X223385000Y-99926640D01*
X223620317Y-99882362D01*
X223726244Y-99814200D01*
X224295598Y-99814200D01*
X226618799Y-102137401D01*
X226758760Y-102230920D01*
X226758760Y-102717600D01*
X226803038Y-102952917D01*
X226859074Y-103040000D01*
X221003737Y-103040000D01*
X221402788Y-102669979D01*
X221671583Y-102084546D01*
X221552967Y-101828600D01*
X220192600Y-101828600D01*
X220192600Y-101848600D01*
X219938600Y-101848600D01*
X219938600Y-101828600D01*
X217652600Y-101828600D01*
X217652600Y-101848600D01*
X217398600Y-101848600D01*
X217398600Y-101828600D01*
X216033350Y-101828600D01*
X215874600Y-101987350D01*
X215874600Y-102843909D01*
X215955824Y-103040000D01*
X212739854Y-103040000D01*
X212788031Y-102969490D01*
X212839040Y-102717600D01*
X212839040Y-102230920D01*
X212979001Y-102137401D01*
X214557111Y-100559291D01*
X215874600Y-100559291D01*
X215874600Y-101415850D01*
X216033350Y-101574600D01*
X217398600Y-101574600D01*
X217398600Y-100209350D01*
X217652600Y-100209350D01*
X217652600Y-101574600D01*
X219938600Y-101574600D01*
X219938600Y-100214764D01*
X220192600Y-100214764D01*
X220192600Y-101574600D01*
X221552967Y-101574600D01*
X221671583Y-101318654D01*
X221402788Y-100733221D01*
X220930418Y-100295215D01*
X220448544Y-100095625D01*
X220192600Y-100214764D01*
X219938600Y-100214764D01*
X219682656Y-100095625D01*
X219200782Y-100295215D01*
X219104280Y-100384696D01*
X219079927Y-100325902D01*
X218901299Y-100147273D01*
X218667910Y-100050600D01*
X217811350Y-100050600D01*
X217652600Y-100209350D01*
X217398600Y-100209350D01*
X217239850Y-100050600D01*
X216383290Y-100050600D01*
X216149901Y-100147273D01*
X215971273Y-100325902D01*
X215874600Y-100559291D01*
X214557111Y-100559291D01*
X215491058Y-99625344D01*
X215496673Y-99638899D01*
X215675302Y-99817527D01*
X215908691Y-99914200D01*
X216474250Y-99914200D01*
X216633000Y-99755450D01*
X216633000Y-99276640D01*
X216887000Y-99276640D01*
X216887000Y-99755450D01*
X217045750Y-99914200D01*
X217611309Y-99914200D01*
X217844698Y-99817527D01*
X218023327Y-99638899D01*
X218120000Y-99405510D01*
X218120000Y-99325450D01*
X217961250Y-99166700D01*
X217822359Y-99166700D01*
X217936441Y-99093290D01*
X218081431Y-98881090D01*
X218096558Y-98806392D01*
X218120000Y-98782950D01*
X218120000Y-98702890D01*
X218118333Y-98698865D01*
X218132440Y-98629200D01*
X218132440Y-98179200D01*
X218112933Y-98075529D01*
X218132440Y-97979200D01*
X218132440Y-97529200D01*
X218112933Y-97425529D01*
X218132440Y-97329200D01*
X218132440Y-96879200D01*
X218112933Y-96775529D01*
X218132440Y-96679200D01*
X218132440Y-96229200D01*
X218112933Y-96125529D01*
X218132440Y-96029200D01*
X218132440Y-95579200D01*
X218112933Y-95475529D01*
X218132440Y-95379200D01*
X218132440Y-94929200D01*
X218088162Y-94693883D01*
X217949090Y-94477759D01*
X217736890Y-94332769D01*
X217485000Y-94281760D01*
X216035000Y-94281760D01*
X215799683Y-94326038D01*
X215760000Y-94351573D01*
X215760000Y-91458400D01*
X215702148Y-91167561D01*
X215537401Y-90920999D01*
X212979001Y-88362599D01*
X212839040Y-88269080D01*
X212839040Y-87782400D01*
X212794762Y-87547083D01*
X212738726Y-87460000D01*
X217799457Y-87460000D01*
X217716569Y-87581310D01*
X217716569Y-87581310D01*
G37*
X217716569Y-87581310D02*
X217665560Y-87833200D01*
X217665560Y-89865200D01*
X217709838Y-90100517D01*
X217848910Y-90316641D01*
X218061110Y-90461631D01*
X218313000Y-90512640D01*
X218569000Y-90512640D01*
X218569000Y-93010200D01*
X218626852Y-93301039D01*
X218791599Y-93547601D01*
X219161199Y-93917201D01*
X219329337Y-94029547D01*
X219345438Y-94115117D01*
X219484510Y-94331241D01*
X219696710Y-94476231D01*
X219948600Y-94527240D01*
X221198600Y-94527240D01*
X221433917Y-94482962D01*
X221605379Y-94372629D01*
X221616001Y-94379886D01*
X221483559Y-94465110D01*
X221338569Y-94677310D01*
X221287560Y-94929200D01*
X221287560Y-95379200D01*
X221307067Y-95482871D01*
X221287560Y-95579200D01*
X221287560Y-96029200D01*
X221307067Y-96132871D01*
X221287560Y-96229200D01*
X221287560Y-96679200D01*
X221307067Y-96782871D01*
X221287560Y-96879200D01*
X221287560Y-97329200D01*
X221307067Y-97432871D01*
X221287560Y-97529200D01*
X221287560Y-97979200D01*
X221307067Y-98082871D01*
X221287560Y-98179200D01*
X221287560Y-98629200D01*
X221307067Y-98732871D01*
X221287560Y-98829200D01*
X221287560Y-99279200D01*
X221331838Y-99514517D01*
X221470910Y-99730641D01*
X221683110Y-99875631D01*
X221935000Y-99926640D01*
X223385000Y-99926640D01*
X223620317Y-99882362D01*
X223726244Y-99814200D01*
X224295598Y-99814200D01*
X226618799Y-102137401D01*
X226758760Y-102230920D01*
X226758760Y-102717600D01*
X226803038Y-102952917D01*
X226859074Y-103040000D01*
X221003737Y-103040000D01*
X221402788Y-102669979D01*
X221671583Y-102084546D01*
X221552967Y-101828600D01*
X220192600Y-101828600D01*
X220192600Y-101848600D01*
X219938600Y-101848600D01*
X219938600Y-101828600D01*
X217652600Y-101828600D01*
X217652600Y-101848600D01*
X217398600Y-101848600D01*
X217398600Y-101828600D01*
X216033350Y-101828600D01*
X215874600Y-101987350D01*
X215874600Y-102843909D01*
X215955824Y-103040000D01*
X212739854Y-103040000D01*
X212788031Y-102969490D01*
X212839040Y-102717600D01*
X212839040Y-102230920D01*
X212979001Y-102137401D01*
X214557111Y-100559291D01*
X215874600Y-100559291D01*
X215874600Y-101415850D01*
X216033350Y-101574600D01*
X217398600Y-101574600D01*
X217398600Y-100209350D01*
X217652600Y-100209350D01*
X217652600Y-101574600D01*
X219938600Y-101574600D01*
X219938600Y-100214764D01*
X220192600Y-100214764D01*
X220192600Y-101574600D01*
X221552967Y-101574600D01*
X221671583Y-101318654D01*
X221402788Y-100733221D01*
X220930418Y-100295215D01*
X220448544Y-100095625D01*
X220192600Y-100214764D01*
X219938600Y-100214764D01*
X219682656Y-100095625D01*
X219200782Y-100295215D01*
X219104280Y-100384696D01*
X219079927Y-100325902D01*
X218901299Y-100147273D01*
X218667910Y-100050600D01*
X217811350Y-100050600D01*
X217652600Y-100209350D01*
X217398600Y-100209350D01*
X217239850Y-100050600D01*
X216383290Y-100050600D01*
X216149901Y-100147273D01*
X215971273Y-100325902D01*
X215874600Y-100559291D01*
X214557111Y-100559291D01*
X215491058Y-99625344D01*
X215496673Y-99638899D01*
X215675302Y-99817527D01*
X215908691Y-99914200D01*
X216474250Y-99914200D01*
X216633000Y-99755450D01*
X216633000Y-99276640D01*
X216887000Y-99276640D01*
X216887000Y-99755450D01*
X217045750Y-99914200D01*
X217611309Y-99914200D01*
X217844698Y-99817527D01*
X218023327Y-99638899D01*
X218120000Y-99405510D01*
X218120000Y-99325450D01*
X217961250Y-99166700D01*
X217822359Y-99166700D01*
X217936441Y-99093290D01*
X218081431Y-98881090D01*
X218096558Y-98806392D01*
X218120000Y-98782950D01*
X218120000Y-98702890D01*
X218118333Y-98698865D01*
X218132440Y-98629200D01*
X218132440Y-98179200D01*
X218112933Y-98075529D01*
X218132440Y-97979200D01*
X218132440Y-97529200D01*
X218112933Y-97425529D01*
X218132440Y-97329200D01*
X218132440Y-96879200D01*
X218112933Y-96775529D01*
X218132440Y-96679200D01*
X218132440Y-96229200D01*
X218112933Y-96125529D01*
X218132440Y-96029200D01*
X218132440Y-95579200D01*
X218112933Y-95475529D01*
X218132440Y-95379200D01*
X218132440Y-94929200D01*
X218088162Y-94693883D01*
X217949090Y-94477759D01*
X217736890Y-94332769D01*
X217485000Y-94281760D01*
X216035000Y-94281760D01*
X215799683Y-94326038D01*
X215760000Y-94351573D01*
X215760000Y-91458400D01*
X215702148Y-91167561D01*
X215537401Y-90920999D01*
X212979001Y-88362599D01*
X212839040Y-88269080D01*
X212839040Y-87782400D01*
X212794762Y-87547083D01*
X212738726Y-87460000D01*
X217799457Y-87460000D01*
X217716569Y-87581310D01*
G36*
X226809769Y-87530510D02*
X226758760Y-87782400D01*
X226758760Y-88269080D01*
X226618799Y-88362599D01*
X224362599Y-90618799D01*
X224197852Y-90865361D01*
X224140000Y-91156200D01*
X224140000Y-92938698D01*
X224038101Y-92836799D01*
X223869963Y-92724453D01*
X223853862Y-92638883D01*
X223714790Y-92422759D01*
X223646694Y-92376231D01*
X223789027Y-92233898D01*
X223885700Y-92000509D01*
X223885700Y-91659950D01*
X223726950Y-91501200D01*
X222752700Y-91501200D01*
X222752700Y-91521200D01*
X222498700Y-91521200D01*
X222498700Y-91501200D01*
X221524450Y-91501200D01*
X221518850Y-91506800D01*
X220700600Y-91506800D01*
X220700600Y-91526800D01*
X220446600Y-91526800D01*
X220446600Y-91506800D01*
X220426600Y-91506800D01*
X220426600Y-91252800D01*
X220446600Y-91252800D01*
X220446600Y-91232800D01*
X220700600Y-91232800D01*
X220700600Y-91252800D01*
X221674850Y-91252800D01*
X221680450Y-91247200D01*
X222498700Y-91247200D01*
X222498700Y-91227200D01*
X222752700Y-91227200D01*
X222752700Y-91247200D01*
X223726950Y-91247200D01*
X223885700Y-91088450D01*
X223885700Y-90747891D01*
X223789027Y-90514502D01*
X223610399Y-90335873D01*
X223377010Y-90239200D01*
X222911450Y-90239200D01*
X222752702Y-90397948D01*
X222752702Y-90239200D01*
X222751746Y-90239200D01*
X223036433Y-90048978D01*
X223394325Y-89513355D01*
X223520000Y-88881545D01*
X223520000Y-88816855D01*
X223394325Y-88185045D01*
X223036433Y-87649422D01*
X222752943Y-87460000D01*
X226857946Y-87460000D01*
X226809769Y-87530510D01*
X226809769Y-87530510D01*
G37*
X226809769Y-87530510D02*
X226758760Y-87782400D01*
X226758760Y-88269080D01*
X226618799Y-88362599D01*
X224362599Y-90618799D01*
X224197852Y-90865361D01*
X224140000Y-91156200D01*
X224140000Y-92938698D01*
X224038101Y-92836799D01*
X223869963Y-92724453D01*
X223853862Y-92638883D01*
X223714790Y-92422759D01*
X223646694Y-92376231D01*
X223789027Y-92233898D01*
X223885700Y-92000509D01*
X223885700Y-91659950D01*
X223726950Y-91501200D01*
X222752700Y-91501200D01*
X222752700Y-91521200D01*
X222498700Y-91521200D01*
X222498700Y-91501200D01*
X221524450Y-91501200D01*
X221518850Y-91506800D01*
X220700600Y-91506800D01*
X220700600Y-91526800D01*
X220446600Y-91526800D01*
X220446600Y-91506800D01*
X220426600Y-91506800D01*
X220426600Y-91252800D01*
X220446600Y-91252800D01*
X220446600Y-91232800D01*
X220700600Y-91232800D01*
X220700600Y-91252800D01*
X221674850Y-91252800D01*
X221680450Y-91247200D01*
X222498700Y-91247200D01*
X222498700Y-91227200D01*
X222752700Y-91227200D01*
X222752700Y-91247200D01*
X223726950Y-91247200D01*
X223885700Y-91088450D01*
X223885700Y-90747891D01*
X223789027Y-90514502D01*
X223610399Y-90335873D01*
X223377010Y-90239200D01*
X222911450Y-90239200D01*
X222752702Y-90397948D01*
X222752702Y-90239200D01*
X222751746Y-90239200D01*
X223036433Y-90048978D01*
X223394325Y-89513355D01*
X223520000Y-88881545D01*
X223520000Y-88816855D01*
X223394325Y-88185045D01*
X223036433Y-87649422D01*
X222752943Y-87460000D01*
X226857946Y-87460000D01*
X226809769Y-87530510D01*
M02*
