%TF.GenerationSoftware,KiCad,Pcbnew,4.0.4+e1-6308~48~ubuntu16.04.1-stable*%
%TF.CreationDate,2016-10-27T02:24:33-07:00*%
%TF.ProjectId,cd4066_tssop,6364343036365F7473736F702E6B6963,rev?*%
%TF.FileFunction,Legend,Bot*%
%FSLAX46Y46*%
G04 Gerber Fmt 4.6, Leading zero omitted, Abs format (unit mm)*
G04 Created by KiCad (PCBNEW 4.0.4+e1-6308~48~ubuntu16.04.1-stable) date Thu Oct 27 02:24:33 2016*
%MOMM*%
%LPD*%
G01*
G04 APERTURE LIST*
%ADD10C,0.100000*%
%ADD11C,0.250000*%
%ADD12R,2.132000X2.132000*%
%ADD13O,2.132000X2.132000*%
%ADD14R,2.335200X2.335200*%
G04 APERTURE END LIST*
D10*
D11*
X224421429Y-98102381D02*
X224421429Y-97578571D01*
X224469048Y-97483333D01*
X224564286Y-97435714D01*
X224754763Y-97435714D01*
X224850001Y-97483333D01*
X224421429Y-98054762D02*
X224516667Y-98102381D01*
X224754763Y-98102381D01*
X224850001Y-98054762D01*
X224897620Y-97959524D01*
X224897620Y-97864286D01*
X224850001Y-97769048D01*
X224754763Y-97721429D01*
X224516667Y-97721429D01*
X224421429Y-97673810D01*
X223945239Y-97435714D02*
X223945239Y-98102381D01*
X223945239Y-97530952D02*
X223897620Y-97483333D01*
X223802382Y-97435714D01*
X223659524Y-97435714D01*
X223564286Y-97483333D01*
X223516667Y-97578571D01*
X223516667Y-98102381D01*
X222611905Y-98102381D02*
X222611905Y-97578571D01*
X222659524Y-97483333D01*
X222754762Y-97435714D01*
X222945239Y-97435714D01*
X223040477Y-97483333D01*
X222611905Y-98054762D02*
X222707143Y-98102381D01*
X222945239Y-98102381D01*
X223040477Y-98054762D01*
X223088096Y-97959524D01*
X223088096Y-97864286D01*
X223040477Y-97769048D01*
X222945239Y-97721429D01*
X222707143Y-97721429D01*
X222611905Y-97673810D01*
X221992858Y-98102381D02*
X222088096Y-98054762D01*
X222135715Y-97959524D01*
X222135715Y-97102381D01*
X221469048Y-98102381D02*
X221564286Y-98054762D01*
X221611905Y-98007143D01*
X221659524Y-97911905D01*
X221659524Y-97626190D01*
X221611905Y-97530952D01*
X221564286Y-97483333D01*
X221469048Y-97435714D01*
X221326190Y-97435714D01*
X221230952Y-97483333D01*
X221183333Y-97530952D01*
X221135714Y-97626190D01*
X221135714Y-97911905D01*
X221183333Y-98007143D01*
X221230952Y-98054762D01*
X221326190Y-98102381D01*
X221469048Y-98102381D01*
X220278571Y-97435714D02*
X220278571Y-98245238D01*
X220326190Y-98340476D01*
X220373809Y-98388095D01*
X220469048Y-98435714D01*
X220611905Y-98435714D01*
X220707143Y-98388095D01*
X220278571Y-98054762D02*
X220373809Y-98102381D01*
X220564286Y-98102381D01*
X220659524Y-98054762D01*
X220707143Y-98007143D01*
X220754762Y-97911905D01*
X220754762Y-97626190D01*
X220707143Y-97530952D01*
X220659524Y-97483333D01*
X220564286Y-97435714D01*
X220373809Y-97435714D01*
X220278571Y-97483333D01*
X219088095Y-98054762D02*
X218992857Y-98102381D01*
X218802381Y-98102381D01*
X218707142Y-98054762D01*
X218659523Y-97959524D01*
X218659523Y-97911905D01*
X218707142Y-97816667D01*
X218802381Y-97769048D01*
X218945238Y-97769048D01*
X219040476Y-97721429D01*
X219088095Y-97626190D01*
X219088095Y-97578571D01*
X219040476Y-97483333D01*
X218945238Y-97435714D01*
X218802381Y-97435714D01*
X218707142Y-97483333D01*
X218326190Y-97435714D02*
X218135714Y-98102381D01*
X217945237Y-97626190D01*
X217754761Y-98102381D01*
X217564285Y-97435714D01*
X217183333Y-98102381D02*
X217183333Y-97435714D01*
X217183333Y-97102381D02*
X217230952Y-97150000D01*
X217183333Y-97197619D01*
X217135714Y-97150000D01*
X217183333Y-97102381D01*
X217183333Y-97197619D01*
X216850000Y-97435714D02*
X216469048Y-97435714D01*
X216707143Y-97102381D02*
X216707143Y-97959524D01*
X216659524Y-98054762D01*
X216564286Y-98102381D01*
X216469048Y-98102381D01*
X215707142Y-98054762D02*
X215802380Y-98102381D01*
X215992857Y-98102381D01*
X216088095Y-98054762D01*
X216135714Y-98007143D01*
X216183333Y-97911905D01*
X216183333Y-97626190D01*
X216135714Y-97530952D01*
X216088095Y-97483333D01*
X215992857Y-97435714D01*
X215802380Y-97435714D01*
X215707142Y-97483333D01*
X215278571Y-98102381D02*
X215278571Y-97102381D01*
X214849999Y-98102381D02*
X214849999Y-97578571D01*
X214897618Y-97483333D01*
X214992856Y-97435714D01*
X215135714Y-97435714D01*
X215230952Y-97483333D01*
X215278571Y-97530952D01*
X222870238Y-95657143D02*
X222917857Y-95704762D01*
X223060714Y-95752381D01*
X223155952Y-95752381D01*
X223298810Y-95704762D01*
X223394048Y-95609524D01*
X223441667Y-95514286D01*
X223489286Y-95323810D01*
X223489286Y-95180952D01*
X223441667Y-94990476D01*
X223394048Y-94895238D01*
X223298810Y-94800000D01*
X223155952Y-94752381D01*
X223060714Y-94752381D01*
X222917857Y-94800000D01*
X222870238Y-94847619D01*
X222441667Y-95752381D02*
X222441667Y-94752381D01*
X222203572Y-94752381D01*
X222060714Y-94800000D01*
X221965476Y-94895238D01*
X221917857Y-94990476D01*
X221870238Y-95180952D01*
X221870238Y-95323810D01*
X221917857Y-95514286D01*
X221965476Y-95609524D01*
X222060714Y-95704762D01*
X222203572Y-95752381D01*
X222441667Y-95752381D01*
X221013095Y-95085714D02*
X221013095Y-95752381D01*
X221251191Y-94704762D02*
X221489286Y-95419048D01*
X220870238Y-95419048D01*
X220298810Y-94752381D02*
X220203571Y-94752381D01*
X220108333Y-94800000D01*
X220060714Y-94847619D01*
X220013095Y-94942857D01*
X219965476Y-95133333D01*
X219965476Y-95371429D01*
X220013095Y-95561905D01*
X220060714Y-95657143D01*
X220108333Y-95704762D01*
X220203571Y-95752381D01*
X220298810Y-95752381D01*
X220394048Y-95704762D01*
X220441667Y-95657143D01*
X220489286Y-95561905D01*
X220536905Y-95371429D01*
X220536905Y-95133333D01*
X220489286Y-94942857D01*
X220441667Y-94847619D01*
X220394048Y-94800000D01*
X220298810Y-94752381D01*
X219108333Y-94752381D02*
X219298810Y-94752381D01*
X219394048Y-94800000D01*
X219441667Y-94847619D01*
X219536905Y-94990476D01*
X219584524Y-95180952D01*
X219584524Y-95561905D01*
X219536905Y-95657143D01*
X219489286Y-95704762D01*
X219394048Y-95752381D01*
X219203571Y-95752381D01*
X219108333Y-95704762D01*
X219060714Y-95657143D01*
X219013095Y-95561905D01*
X219013095Y-95323810D01*
X219060714Y-95228571D01*
X219108333Y-95180952D01*
X219203571Y-95133333D01*
X219394048Y-95133333D01*
X219489286Y-95180952D01*
X219536905Y-95228571D01*
X219584524Y-95323810D01*
X218155952Y-94752381D02*
X218346429Y-94752381D01*
X218441667Y-94800000D01*
X218489286Y-94847619D01*
X218584524Y-94990476D01*
X218632143Y-95180952D01*
X218632143Y-95561905D01*
X218584524Y-95657143D01*
X218536905Y-95704762D01*
X218441667Y-95752381D01*
X218251190Y-95752381D01*
X218155952Y-95704762D01*
X218108333Y-95657143D01*
X218060714Y-95561905D01*
X218060714Y-95323810D01*
X218108333Y-95228571D01*
X218155952Y-95180952D01*
X218251190Y-95133333D01*
X218441667Y-95133333D01*
X218536905Y-95180952D01*
X218584524Y-95228571D01*
X218632143Y-95323810D01*
X226164685Y-102302381D02*
X226164685Y-101302381D01*
X225688495Y-102207143D02*
X225640876Y-102254762D01*
X225688495Y-102302381D01*
X225736114Y-102254762D01*
X225688495Y-102207143D01*
X225688495Y-102302381D01*
X225307543Y-101302381D02*
X224688495Y-101302381D01*
X225021829Y-101683333D01*
X224878971Y-101683333D01*
X224783733Y-101730952D01*
X224736114Y-101778571D01*
X224688495Y-101873810D01*
X224688495Y-102111905D01*
X224736114Y-102207143D01*
X224783733Y-102254762D01*
X224878971Y-102302381D01*
X225164686Y-102302381D01*
X225259924Y-102254762D01*
X225307543Y-102207143D01*
X226084524Y-98512381D02*
X225894047Y-98512381D01*
X225798809Y-98560000D01*
X225703571Y-98655238D01*
X225655952Y-98845714D01*
X225655952Y-99179048D01*
X225703571Y-99369524D01*
X225798809Y-99464762D01*
X225894047Y-99512381D01*
X226084524Y-99512381D01*
X226179762Y-99464762D01*
X226275000Y-99369524D01*
X226322619Y-99179048D01*
X226322619Y-98845714D01*
X226275000Y-98655238D01*
X226179762Y-98560000D01*
X226084524Y-98512381D01*
X225227381Y-99417143D02*
X225179762Y-99464762D01*
X225227381Y-99512381D01*
X225275000Y-99464762D01*
X225227381Y-99417143D01*
X225227381Y-99512381D01*
X224846429Y-98512381D02*
X224227381Y-98512381D01*
X224560715Y-98893333D01*
X224417857Y-98893333D01*
X224322619Y-98940952D01*
X224275000Y-98988571D01*
X224227381Y-99083810D01*
X224227381Y-99321905D01*
X224275000Y-99417143D01*
X224322619Y-99464762D01*
X224417857Y-99512381D01*
X224703572Y-99512381D01*
X224798810Y-99464762D01*
X224846429Y-99417143D01*
X226159524Y-95952381D02*
X225969047Y-95952381D01*
X225873809Y-96000000D01*
X225778571Y-96095238D01*
X225730952Y-96285714D01*
X225730952Y-96619048D01*
X225778571Y-96809524D01*
X225873809Y-96904762D01*
X225969047Y-96952381D01*
X226159524Y-96952381D01*
X226254762Y-96904762D01*
X226350000Y-96809524D01*
X226397619Y-96619048D01*
X226397619Y-96285714D01*
X226350000Y-96095238D01*
X226254762Y-96000000D01*
X226159524Y-95952381D01*
X225302381Y-96857143D02*
X225254762Y-96904762D01*
X225302381Y-96952381D01*
X225350000Y-96904762D01*
X225302381Y-96857143D01*
X225302381Y-96952381D01*
X224397619Y-96285714D02*
X224397619Y-96952381D01*
X224635715Y-95904762D02*
X224873810Y-96619048D01*
X224254762Y-96619048D01*
X226089285Y-94427381D02*
X226089285Y-93760714D01*
X226089285Y-93427381D02*
X226136904Y-93475000D01*
X226089285Y-93522619D01*
X226041666Y-93475000D01*
X226089285Y-93427381D01*
X226089285Y-93522619D01*
X225613095Y-94332143D02*
X225565476Y-94379762D01*
X225613095Y-94427381D01*
X225660714Y-94379762D01*
X225613095Y-94332143D01*
X225613095Y-94427381D01*
X225184524Y-94379762D02*
X225041667Y-94427381D01*
X224803571Y-94427381D01*
X224708333Y-94379762D01*
X224660714Y-94332143D01*
X224613095Y-94236905D01*
X224613095Y-94141667D01*
X224660714Y-94046429D01*
X224708333Y-93998810D01*
X224803571Y-93951190D01*
X224994048Y-93903571D01*
X225089286Y-93855952D01*
X225136905Y-93808333D01*
X225184524Y-93713095D01*
X225184524Y-93617857D01*
X225136905Y-93522619D01*
X225089286Y-93475000D01*
X224994048Y-93427381D01*
X224755952Y-93427381D01*
X224613095Y-93475000D01*
X224898810Y-93284524D02*
X224898810Y-94570238D01*
X226403571Y-91403571D02*
X226070237Y-91403571D01*
X225927380Y-91927381D02*
X226403571Y-91927381D01*
X226403571Y-90927381D01*
X225927380Y-90927381D01*
X225498809Y-91832143D02*
X225451190Y-91879762D01*
X225498809Y-91927381D01*
X225546428Y-91879762D01*
X225498809Y-91832143D01*
X225498809Y-91927381D01*
X224594047Y-91260714D02*
X224594047Y-91927381D01*
X224832143Y-90879762D02*
X225070238Y-91594048D01*
X224451190Y-91594048D01*
X226178571Y-88778571D02*
X225845237Y-88778571D01*
X225702380Y-89302381D02*
X226178571Y-89302381D01*
X226178571Y-88302381D01*
X225702380Y-88302381D01*
X225273809Y-89207143D02*
X225226190Y-89254762D01*
X225273809Y-89302381D01*
X225321428Y-89254762D01*
X225273809Y-89207143D01*
X225273809Y-89302381D01*
X224273809Y-89302381D02*
X224845238Y-89302381D01*
X224559524Y-89302381D02*
X224559524Y-88302381D01*
X224654762Y-88445238D01*
X224750000Y-88540476D01*
X224845238Y-88588095D01*
X214584524Y-93652381D02*
X214394047Y-93652381D01*
X214298809Y-93700000D01*
X214203571Y-93795238D01*
X214155952Y-93985714D01*
X214155952Y-94319048D01*
X214203571Y-94509524D01*
X214298809Y-94604762D01*
X214394047Y-94652381D01*
X214584524Y-94652381D01*
X214679762Y-94604762D01*
X214775000Y-94509524D01*
X214822619Y-94319048D01*
X214822619Y-93985714D01*
X214775000Y-93795238D01*
X214679762Y-93700000D01*
X214584524Y-93652381D01*
X213727381Y-94557143D02*
X213679762Y-94604762D01*
X213727381Y-94652381D01*
X213775000Y-94604762D01*
X213727381Y-94557143D01*
X213727381Y-94652381D01*
X213298810Y-93747619D02*
X213251191Y-93700000D01*
X213155953Y-93652381D01*
X212917857Y-93652381D01*
X212822619Y-93700000D01*
X212775000Y-93747619D01*
X212727381Y-93842857D01*
X212727381Y-93938095D01*
X212775000Y-94080952D01*
X213346429Y-94652381D01*
X212727381Y-94652381D01*
X214439285Y-97002381D02*
X214439285Y-96002381D01*
X213963095Y-96907143D02*
X213915476Y-96954762D01*
X213963095Y-97002381D01*
X214010714Y-96954762D01*
X213963095Y-96907143D01*
X213963095Y-97002381D01*
X213534524Y-96097619D02*
X213486905Y-96050000D01*
X213391667Y-96002381D01*
X213153571Y-96002381D01*
X213058333Y-96050000D01*
X213010714Y-96097619D01*
X212963095Y-96192857D01*
X212963095Y-96288095D01*
X213010714Y-96430952D01*
X213582143Y-97002381D01*
X212963095Y-97002381D01*
X214753571Y-98978571D02*
X214420237Y-98978571D01*
X214277380Y-99502381D02*
X214753571Y-99502381D01*
X214753571Y-98502381D01*
X214277380Y-98502381D01*
X213848809Y-99407143D02*
X213801190Y-99454762D01*
X213848809Y-99502381D01*
X213896428Y-99454762D01*
X213848809Y-99407143D01*
X213848809Y-99502381D01*
X213420238Y-98597619D02*
X213372619Y-98550000D01*
X213277381Y-98502381D01*
X213039285Y-98502381D01*
X212944047Y-98550000D01*
X212896428Y-98597619D01*
X212848809Y-98692857D01*
X212848809Y-98788095D01*
X212896428Y-98930952D01*
X213467857Y-99502381D01*
X212848809Y-99502381D01*
X214853571Y-101603571D02*
X214520237Y-101603571D01*
X214377380Y-102127381D02*
X214853571Y-102127381D01*
X214853571Y-101127381D01*
X214377380Y-101127381D01*
X213948809Y-102032143D02*
X213901190Y-102079762D01*
X213948809Y-102127381D01*
X213996428Y-102079762D01*
X213948809Y-102032143D01*
X213948809Y-102127381D01*
X213567857Y-101127381D02*
X212948809Y-101127381D01*
X213282143Y-101508333D01*
X213139285Y-101508333D01*
X213044047Y-101555952D01*
X212996428Y-101603571D01*
X212948809Y-101698810D01*
X212948809Y-101936905D01*
X212996428Y-102032143D01*
X213044047Y-102079762D01*
X213139285Y-102127381D01*
X213425000Y-102127381D01*
X213520238Y-102079762D01*
X213567857Y-102032143D01*
X214039285Y-89402381D02*
X214039285Y-88402381D01*
X213563095Y-89307143D02*
X213515476Y-89354762D01*
X213563095Y-89402381D01*
X213610714Y-89354762D01*
X213563095Y-89307143D01*
X213563095Y-89402381D01*
X212563095Y-89402381D02*
X213134524Y-89402381D01*
X212848810Y-89402381D02*
X212848810Y-88402381D01*
X212944048Y-88545238D01*
X213039286Y-88640476D01*
X213134524Y-88688095D01*
X214434524Y-90952381D02*
X214244047Y-90952381D01*
X214148809Y-91000000D01*
X214053571Y-91095238D01*
X214005952Y-91285714D01*
X214005952Y-91619048D01*
X214053571Y-91809524D01*
X214148809Y-91904762D01*
X214244047Y-91952381D01*
X214434524Y-91952381D01*
X214529762Y-91904762D01*
X214625000Y-91809524D01*
X214672619Y-91619048D01*
X214672619Y-91285714D01*
X214625000Y-91095238D01*
X214529762Y-91000000D01*
X214434524Y-90952381D01*
X213577381Y-91857143D02*
X213529762Y-91904762D01*
X213577381Y-91952381D01*
X213625000Y-91904762D01*
X213577381Y-91857143D01*
X213577381Y-91952381D01*
X212577381Y-91952381D02*
X213148810Y-91952381D01*
X212863096Y-91952381D02*
X212863096Y-90952381D01*
X212958334Y-91095238D01*
X213053572Y-91190476D01*
X213148810Y-91238095D01*
X222875000Y-102436904D02*
X222922619Y-102532142D01*
X222922619Y-102674999D01*
X222875000Y-102817857D01*
X222779762Y-102913095D01*
X222684524Y-102960714D01*
X222494048Y-103008333D01*
X222351190Y-103008333D01*
X222160714Y-102960714D01*
X222065476Y-102913095D01*
X221970238Y-102817857D01*
X221922619Y-102674999D01*
X221922619Y-102579761D01*
X221970238Y-102436904D01*
X222017857Y-102389285D01*
X222351190Y-102389285D01*
X222351190Y-102579761D01*
X221922619Y-101960714D02*
X222922619Y-101960714D01*
X221922619Y-101389285D01*
X222922619Y-101389285D01*
X221922619Y-100913095D02*
X222922619Y-100913095D01*
X222922619Y-100675000D01*
X222875000Y-100532142D01*
X222779762Y-100436904D01*
X222684524Y-100389285D01*
X222494048Y-100341666D01*
X222351190Y-100341666D01*
X222160714Y-100389285D01*
X222065476Y-100436904D01*
X221970238Y-100532142D01*
X221922619Y-100675000D01*
X221922619Y-100913095D01*
X217412819Y-88988876D02*
X217412819Y-89465067D01*
X216936629Y-89512686D01*
X216984248Y-89465067D01*
X217031867Y-89369829D01*
X217031867Y-89131733D01*
X216984248Y-89036495D01*
X216936629Y-88988876D01*
X216841390Y-88941257D01*
X216603295Y-88941257D01*
X216508057Y-88988876D01*
X216460438Y-89036495D01*
X216412819Y-89131733D01*
X216412819Y-89369829D01*
X216460438Y-89465067D01*
X216508057Y-89512686D01*
X217412819Y-88655543D02*
X216412819Y-88322210D01*
X217412819Y-87988876D01*
%LPC*%
D12*
X219329000Y-88849200D03*
D13*
X221869000Y-88849200D03*
D12*
X217525600Y-101701600D03*
D13*
X220065600Y-101701600D03*
D14*
X211074000Y-88900000D03*
X228523800Y-88900000D03*
X211074000Y-96520000D03*
X211074000Y-99060000D03*
X228523800Y-101600000D03*
X211074000Y-101600000D03*
X228523800Y-93980000D03*
X228523800Y-91440000D03*
X211074000Y-91440000D03*
X211074000Y-93980000D03*
X228523800Y-99060000D03*
X228523800Y-96520000D03*
M02*
