%TF.GenerationSoftware,KiCad,Pcbnew,4.0.4+e1-6308~48~ubuntu16.04.1-stable*%
%TF.CreationDate,2016-10-27T02:24:33-07:00*%
%TF.ProjectId,cd4066_tssop,6364343036365F7473736F702E6B6963,rev?*%
%TF.FileFunction,Copper,L2,Bot,Signal*%
%FSLAX46Y46*%
G04 Gerber Fmt 4.6, Leading zero omitted, Abs format (unit mm)*
G04 Created by KiCad (PCBNEW 4.0.4+e1-6308~48~ubuntu16.04.1-stable) date Thu Oct 27 02:24:33 2016*
%MOMM*%
%LPD*%
G01*
G04 APERTURE LIST*
%ADD10C,0.100000*%
%ADD11R,2.032000X2.032000*%
%ADD12O,2.032000X2.032000*%
%ADD13R,2.235200X2.235200*%
%ADD14C,0.600000*%
%ADD15C,0.250000*%
%ADD16C,0.254000*%
G04 APERTURE END LIST*
D10*
D11*
X219329000Y-88849200D03*
D12*
X221869000Y-88849200D03*
D11*
X217525600Y-101701600D03*
D12*
X220065600Y-101701600D03*
D13*
X211074000Y-88900000D03*
X228523800Y-88900000D03*
X211074000Y-96520000D03*
X211074000Y-99060000D03*
X228523800Y-101600000D03*
X211074000Y-101600000D03*
X228523800Y-93980000D03*
X228523800Y-91440000D03*
X211074000Y-91440000D03*
X211074000Y-93980000D03*
X228523800Y-99060000D03*
X228523800Y-96520000D03*
D14*
X224717394Y-89922398D03*
X224030492Y-90576328D03*
X215490513Y-102542047D03*
X223875000Y-101750000D03*
X219600000Y-96950000D03*
X216461169Y-90500460D03*
D15*
X216259600Y-101701600D02*
X215490513Y-102470687D01*
X215490513Y-102470687D02*
X215490513Y-102542047D01*
X217525600Y-101701600D02*
X216259600Y-101701600D01*
X220065600Y-101701600D02*
X220065600Y-97415600D01*
X220065600Y-97415600D02*
X219600000Y-96950000D01*
X216761168Y-90800459D02*
X216461169Y-90500460D01*
X217525600Y-101701600D02*
X217525600Y-91564891D01*
X217525600Y-91564891D02*
X216761168Y-90800459D01*
D16*
G36*
X217716569Y-87581310D02*
X217665560Y-87833200D01*
X217665560Y-89865200D01*
X217709838Y-90100517D01*
X217848910Y-90316641D01*
X218061110Y-90461631D01*
X218313000Y-90512640D01*
X220345000Y-90512640D01*
X220580317Y-90468362D01*
X220796441Y-90329290D01*
X220898198Y-90180363D01*
X221237190Y-90406870D01*
X221869000Y-90532545D01*
X222500810Y-90406870D01*
X223036433Y-90048978D01*
X223394325Y-89513355D01*
X223520000Y-88881545D01*
X223520000Y-88816855D01*
X223394325Y-88185045D01*
X223036433Y-87649422D01*
X222752943Y-87460000D01*
X226857946Y-87460000D01*
X226809769Y-87530510D01*
X226758760Y-87782400D01*
X226758760Y-90017600D01*
X226788489Y-90175595D01*
X226758760Y-90322400D01*
X226758760Y-92557600D01*
X226788489Y-92715595D01*
X226758760Y-92862400D01*
X226758760Y-95097600D01*
X226788489Y-95255595D01*
X226758760Y-95402400D01*
X226758760Y-97637600D01*
X226788489Y-97795595D01*
X226758760Y-97942400D01*
X226758760Y-100177600D01*
X226788489Y-100335595D01*
X226758760Y-100482400D01*
X226758760Y-102717600D01*
X226803038Y-102952917D01*
X226859074Y-103040000D01*
X221003737Y-103040000D01*
X221402788Y-102669979D01*
X221671583Y-102084546D01*
X221552967Y-101828600D01*
X220192600Y-101828600D01*
X220192600Y-101848600D01*
X219938600Y-101848600D01*
X219938600Y-101828600D01*
X217652600Y-101828600D01*
X217652600Y-101848600D01*
X217398600Y-101848600D01*
X217398600Y-101828600D01*
X216033350Y-101828600D01*
X215874600Y-101987350D01*
X215874600Y-102843909D01*
X215955824Y-103040000D01*
X212739854Y-103040000D01*
X212788031Y-102969490D01*
X212839040Y-102717600D01*
X212839040Y-100559291D01*
X215874600Y-100559291D01*
X215874600Y-101415850D01*
X216033350Y-101574600D01*
X217398600Y-101574600D01*
X217398600Y-100209350D01*
X217652600Y-100209350D01*
X217652600Y-101574600D01*
X219938600Y-101574600D01*
X219938600Y-100214764D01*
X220192600Y-100214764D01*
X220192600Y-101574600D01*
X221552967Y-101574600D01*
X221671583Y-101318654D01*
X221402788Y-100733221D01*
X220930418Y-100295215D01*
X220448544Y-100095625D01*
X220192600Y-100214764D01*
X219938600Y-100214764D01*
X219682656Y-100095625D01*
X219200782Y-100295215D01*
X219104280Y-100384696D01*
X219079927Y-100325902D01*
X218901299Y-100147273D01*
X218667910Y-100050600D01*
X217811350Y-100050600D01*
X217652600Y-100209350D01*
X217398600Y-100209350D01*
X217239850Y-100050600D01*
X216383290Y-100050600D01*
X216149901Y-100147273D01*
X215971273Y-100325902D01*
X215874600Y-100559291D01*
X212839040Y-100559291D01*
X212839040Y-100482400D01*
X212809311Y-100324405D01*
X212839040Y-100177600D01*
X212839040Y-97942400D01*
X212809311Y-97784405D01*
X212839040Y-97637600D01*
X212839040Y-95402400D01*
X212809311Y-95244405D01*
X212839040Y-95097600D01*
X212839040Y-92862400D01*
X212809311Y-92704405D01*
X212839040Y-92557600D01*
X212839040Y-90322400D01*
X212809311Y-90164405D01*
X212839040Y-90017600D01*
X212839040Y-87782400D01*
X212794762Y-87547083D01*
X212738726Y-87460000D01*
X217799457Y-87460000D01*
X217716569Y-87581310D01*
X217716569Y-87581310D01*
G37*
X217716569Y-87581310D02*
X217665560Y-87833200D01*
X217665560Y-89865200D01*
X217709838Y-90100517D01*
X217848910Y-90316641D01*
X218061110Y-90461631D01*
X218313000Y-90512640D01*
X220345000Y-90512640D01*
X220580317Y-90468362D01*
X220796441Y-90329290D01*
X220898198Y-90180363D01*
X221237190Y-90406870D01*
X221869000Y-90532545D01*
X222500810Y-90406870D01*
X223036433Y-90048978D01*
X223394325Y-89513355D01*
X223520000Y-88881545D01*
X223520000Y-88816855D01*
X223394325Y-88185045D01*
X223036433Y-87649422D01*
X222752943Y-87460000D01*
X226857946Y-87460000D01*
X226809769Y-87530510D01*
X226758760Y-87782400D01*
X226758760Y-90017600D01*
X226788489Y-90175595D01*
X226758760Y-90322400D01*
X226758760Y-92557600D01*
X226788489Y-92715595D01*
X226758760Y-92862400D01*
X226758760Y-95097600D01*
X226788489Y-95255595D01*
X226758760Y-95402400D01*
X226758760Y-97637600D01*
X226788489Y-97795595D01*
X226758760Y-97942400D01*
X226758760Y-100177600D01*
X226788489Y-100335595D01*
X226758760Y-100482400D01*
X226758760Y-102717600D01*
X226803038Y-102952917D01*
X226859074Y-103040000D01*
X221003737Y-103040000D01*
X221402788Y-102669979D01*
X221671583Y-102084546D01*
X221552967Y-101828600D01*
X220192600Y-101828600D01*
X220192600Y-101848600D01*
X219938600Y-101848600D01*
X219938600Y-101828600D01*
X217652600Y-101828600D01*
X217652600Y-101848600D01*
X217398600Y-101848600D01*
X217398600Y-101828600D01*
X216033350Y-101828600D01*
X215874600Y-101987350D01*
X215874600Y-102843909D01*
X215955824Y-103040000D01*
X212739854Y-103040000D01*
X212788031Y-102969490D01*
X212839040Y-102717600D01*
X212839040Y-100559291D01*
X215874600Y-100559291D01*
X215874600Y-101415850D01*
X216033350Y-101574600D01*
X217398600Y-101574600D01*
X217398600Y-100209350D01*
X217652600Y-100209350D01*
X217652600Y-101574600D01*
X219938600Y-101574600D01*
X219938600Y-100214764D01*
X220192600Y-100214764D01*
X220192600Y-101574600D01*
X221552967Y-101574600D01*
X221671583Y-101318654D01*
X221402788Y-100733221D01*
X220930418Y-100295215D01*
X220448544Y-100095625D01*
X220192600Y-100214764D01*
X219938600Y-100214764D01*
X219682656Y-100095625D01*
X219200782Y-100295215D01*
X219104280Y-100384696D01*
X219079927Y-100325902D01*
X218901299Y-100147273D01*
X218667910Y-100050600D01*
X217811350Y-100050600D01*
X217652600Y-100209350D01*
X217398600Y-100209350D01*
X217239850Y-100050600D01*
X216383290Y-100050600D01*
X216149901Y-100147273D01*
X215971273Y-100325902D01*
X215874600Y-100559291D01*
X212839040Y-100559291D01*
X212839040Y-100482400D01*
X212809311Y-100324405D01*
X212839040Y-100177600D01*
X212839040Y-97942400D01*
X212809311Y-97784405D01*
X212839040Y-97637600D01*
X212839040Y-95402400D01*
X212809311Y-95244405D01*
X212839040Y-95097600D01*
X212839040Y-92862400D01*
X212809311Y-92704405D01*
X212839040Y-92557600D01*
X212839040Y-90322400D01*
X212809311Y-90164405D01*
X212839040Y-90017600D01*
X212839040Y-87782400D01*
X212794762Y-87547083D01*
X212738726Y-87460000D01*
X217799457Y-87460000D01*
X217716569Y-87581310D01*
M02*
