%TF.GenerationSoftware,KiCad,Pcbnew,4.0.4+e1-6308~48~ubuntu16.04.1-stable*%
%TF.CreationDate,2016-10-27T02:24:33-07:00*%
%TF.ProjectId,cd4066_tssop,6364343036365F7473736F702E6B6963,rev?*%
%TF.FileFunction,Legend,Top*%
%FSLAX46Y46*%
G04 Gerber Fmt 4.6, Leading zero omitted, Abs format (unit mm)*
G04 Created by KiCad (PCBNEW 4.0.4+e1-6308~48~ubuntu16.04.1-stable) date Thu Oct 27 02:24:33 2016*
%MOMM*%
%LPD*%
G01*
G04 APERTURE LIST*
%ADD10C,0.100000*%
%ADD11C,0.250000*%
%ADD12C,0.150000*%
%ADD13R,2.132000X2.132000*%
%ADD14O,2.132000X2.132000*%
%ADD15R,2.335200X2.335200*%
%ADD16R,1.550000X0.550000*%
%ADD17R,1.350000X1.100000*%
G04 APERTURE END LIST*
D10*
D11*
X215357143Y-92095238D02*
X215404762Y-92142857D01*
X215452381Y-92285714D01*
X215452381Y-92380952D01*
X215404762Y-92523810D01*
X215309524Y-92619048D01*
X215214286Y-92666667D01*
X215023810Y-92714286D01*
X214880952Y-92714286D01*
X214690476Y-92666667D01*
X214595238Y-92619048D01*
X214500000Y-92523810D01*
X214452381Y-92380952D01*
X214452381Y-92285714D01*
X214500000Y-92142857D01*
X214547619Y-92095238D01*
X215452381Y-91666667D02*
X214452381Y-91666667D01*
X214452381Y-91428572D01*
X214500000Y-91285714D01*
X214595238Y-91190476D01*
X214690476Y-91142857D01*
X214880952Y-91095238D01*
X215023810Y-91095238D01*
X215214286Y-91142857D01*
X215309524Y-91190476D01*
X215404762Y-91285714D01*
X215452381Y-91428572D01*
X215452381Y-91666667D01*
X214785714Y-90238095D02*
X215452381Y-90238095D01*
X214404762Y-90476191D02*
X215119048Y-90714286D01*
X215119048Y-90095238D01*
X214452381Y-89523810D02*
X214452381Y-89428571D01*
X214500000Y-89333333D01*
X214547619Y-89285714D01*
X214642857Y-89238095D01*
X214833333Y-89190476D01*
X215071429Y-89190476D01*
X215261905Y-89238095D01*
X215357143Y-89285714D01*
X215404762Y-89333333D01*
X215452381Y-89428571D01*
X215452381Y-89523810D01*
X215404762Y-89619048D01*
X215357143Y-89666667D01*
X215261905Y-89714286D01*
X215071429Y-89761905D01*
X214833333Y-89761905D01*
X214642857Y-89714286D01*
X214547619Y-89666667D01*
X214500000Y-89619048D01*
X214452381Y-89523810D01*
X214452381Y-88333333D02*
X214452381Y-88523810D01*
X214500000Y-88619048D01*
X214547619Y-88666667D01*
X214690476Y-88761905D01*
X214880952Y-88809524D01*
X215261905Y-88809524D01*
X215357143Y-88761905D01*
X215404762Y-88714286D01*
X215452381Y-88619048D01*
X215452381Y-88428571D01*
X215404762Y-88333333D01*
X215357143Y-88285714D01*
X215261905Y-88238095D01*
X215023810Y-88238095D01*
X214928571Y-88285714D01*
X214880952Y-88333333D01*
X214833333Y-88428571D01*
X214833333Y-88619048D01*
X214880952Y-88714286D01*
X214928571Y-88761905D01*
X215023810Y-88809524D01*
X214452381Y-87380952D02*
X214452381Y-87571429D01*
X214500000Y-87666667D01*
X214547619Y-87714286D01*
X214690476Y-87809524D01*
X214880952Y-87857143D01*
X215261905Y-87857143D01*
X215357143Y-87809524D01*
X215404762Y-87761905D01*
X215452381Y-87666667D01*
X215452381Y-87476190D01*
X215404762Y-87380952D01*
X215357143Y-87333333D01*
X215261905Y-87285714D01*
X215023810Y-87285714D01*
X214928571Y-87333333D01*
X214880952Y-87380952D01*
X214833333Y-87476190D01*
X214833333Y-87666667D01*
X214880952Y-87761905D01*
X214928571Y-87809524D01*
X215023810Y-87857143D01*
X224267829Y-88853971D02*
X224601163Y-88853971D01*
X224744020Y-89377781D02*
X224267829Y-89377781D01*
X224267829Y-88377781D01*
X224744020Y-88377781D01*
X225172591Y-89282543D02*
X225220210Y-89330162D01*
X225172591Y-89377781D01*
X225124972Y-89330162D01*
X225172591Y-89282543D01*
X225172591Y-89377781D01*
X226172591Y-89377781D02*
X225601162Y-89377781D01*
X225886876Y-89377781D02*
X225886876Y-88377781D01*
X225791638Y-88520638D01*
X225696400Y-88615876D01*
X225601162Y-88663495D01*
X224412276Y-95997781D02*
X224602753Y-95997781D01*
X224697991Y-96045400D01*
X224793229Y-96140638D01*
X224840848Y-96331114D01*
X224840848Y-96664448D01*
X224793229Y-96854924D01*
X224697991Y-96950162D01*
X224602753Y-96997781D01*
X224412276Y-96997781D01*
X224317038Y-96950162D01*
X224221800Y-96854924D01*
X224174181Y-96664448D01*
X224174181Y-96331114D01*
X224221800Y-96140638D01*
X224317038Y-96045400D01*
X224412276Y-95997781D01*
X225269419Y-96902543D02*
X225317038Y-96950162D01*
X225269419Y-96997781D01*
X225221800Y-96950162D01*
X225269419Y-96902543D01*
X225269419Y-96997781D01*
X226174181Y-96331114D02*
X226174181Y-96997781D01*
X225936085Y-95950162D02*
X225697990Y-96664448D01*
X226317038Y-96664448D01*
X224431315Y-94457781D02*
X224431315Y-93791114D01*
X224431315Y-93457781D02*
X224383696Y-93505400D01*
X224431315Y-93553019D01*
X224478934Y-93505400D01*
X224431315Y-93457781D01*
X224431315Y-93553019D01*
X224907505Y-94362543D02*
X224955124Y-94410162D01*
X224907505Y-94457781D01*
X224859886Y-94410162D01*
X224907505Y-94362543D01*
X224907505Y-94457781D01*
X225336076Y-94410162D02*
X225478933Y-94457781D01*
X225717029Y-94457781D01*
X225812267Y-94410162D01*
X225859886Y-94362543D01*
X225907505Y-94267305D01*
X225907505Y-94172067D01*
X225859886Y-94076829D01*
X225812267Y-94029210D01*
X225717029Y-93981590D01*
X225526552Y-93933971D01*
X225431314Y-93886352D01*
X225383695Y-93838733D01*
X225336076Y-93743495D01*
X225336076Y-93648257D01*
X225383695Y-93553019D01*
X225431314Y-93505400D01*
X225526552Y-93457781D01*
X225764648Y-93457781D01*
X225907505Y-93505400D01*
X225621790Y-93314924D02*
X225621790Y-94600638D01*
X224572629Y-91419371D02*
X224905963Y-91419371D01*
X225048820Y-91943181D02*
X224572629Y-91943181D01*
X224572629Y-90943181D01*
X225048820Y-90943181D01*
X225477391Y-91847943D02*
X225525010Y-91895562D01*
X225477391Y-91943181D01*
X225429772Y-91895562D01*
X225477391Y-91847943D01*
X225477391Y-91943181D01*
X226382153Y-91276514D02*
X226382153Y-91943181D01*
X226144057Y-90895562D02*
X225905962Y-91609848D01*
X226525010Y-91609848D01*
X224736115Y-102179381D02*
X224736115Y-101179381D01*
X225212305Y-102084143D02*
X225259924Y-102131762D01*
X225212305Y-102179381D01*
X225164686Y-102131762D01*
X225212305Y-102084143D01*
X225212305Y-102179381D01*
X225593257Y-101179381D02*
X226212305Y-101179381D01*
X225878971Y-101560333D01*
X226021829Y-101560333D01*
X226117067Y-101607952D01*
X226164686Y-101655571D01*
X226212305Y-101750810D01*
X226212305Y-101988905D01*
X226164686Y-102084143D01*
X226117067Y-102131762D01*
X226021829Y-102179381D01*
X225736114Y-102179381D01*
X225640876Y-102131762D01*
X225593257Y-102084143D01*
X224488476Y-98512381D02*
X224678953Y-98512381D01*
X224774191Y-98560000D01*
X224869429Y-98655238D01*
X224917048Y-98845714D01*
X224917048Y-99179048D01*
X224869429Y-99369524D01*
X224774191Y-99464762D01*
X224678953Y-99512381D01*
X224488476Y-99512381D01*
X224393238Y-99464762D01*
X224298000Y-99369524D01*
X224250381Y-99179048D01*
X224250381Y-98845714D01*
X224298000Y-98655238D01*
X224393238Y-98560000D01*
X224488476Y-98512381D01*
X225345619Y-99417143D02*
X225393238Y-99464762D01*
X225345619Y-99512381D01*
X225298000Y-99464762D01*
X225345619Y-99417143D01*
X225345619Y-99512381D01*
X225726571Y-98512381D02*
X226345619Y-98512381D01*
X226012285Y-98893333D01*
X226155143Y-98893333D01*
X226250381Y-98940952D01*
X226298000Y-98988571D01*
X226345619Y-99083810D01*
X226345619Y-99321905D01*
X226298000Y-99417143D01*
X226250381Y-99464762D01*
X226155143Y-99512381D01*
X225869428Y-99512381D01*
X225774190Y-99464762D01*
X225726571Y-99417143D01*
X213091829Y-101655571D02*
X213425163Y-101655571D01*
X213568020Y-102179381D02*
X213091829Y-102179381D01*
X213091829Y-101179381D01*
X213568020Y-101179381D01*
X213996591Y-102084143D02*
X214044210Y-102131762D01*
X213996591Y-102179381D01*
X213948972Y-102131762D01*
X213996591Y-102084143D01*
X213996591Y-102179381D01*
X214377543Y-101179381D02*
X214996591Y-101179381D01*
X214663257Y-101560333D01*
X214806115Y-101560333D01*
X214901353Y-101607952D01*
X214948972Y-101655571D01*
X214996591Y-101750810D01*
X214996591Y-101988905D01*
X214948972Y-102084143D01*
X214901353Y-102131762D01*
X214806115Y-102179381D01*
X214520400Y-102179381D01*
X214425162Y-102131762D01*
X214377543Y-102084143D01*
X212939429Y-98988571D02*
X213272763Y-98988571D01*
X213415620Y-99512381D02*
X212939429Y-99512381D01*
X212939429Y-98512381D01*
X213415620Y-98512381D01*
X213844191Y-99417143D02*
X213891810Y-99464762D01*
X213844191Y-99512381D01*
X213796572Y-99464762D01*
X213844191Y-99417143D01*
X213844191Y-99512381D01*
X214272762Y-98607619D02*
X214320381Y-98560000D01*
X214415619Y-98512381D01*
X214653715Y-98512381D01*
X214748953Y-98560000D01*
X214796572Y-98607619D01*
X214844191Y-98702857D01*
X214844191Y-98798095D01*
X214796572Y-98940952D01*
X214225143Y-99512381D01*
X214844191Y-99512381D01*
X213077515Y-96997781D02*
X213077515Y-95997781D01*
X213553705Y-96902543D02*
X213601324Y-96950162D01*
X213553705Y-96997781D01*
X213506086Y-96950162D01*
X213553705Y-96902543D01*
X213553705Y-96997781D01*
X213982276Y-96093019D02*
X214029895Y-96045400D01*
X214125133Y-95997781D01*
X214363229Y-95997781D01*
X214458467Y-96045400D01*
X214506086Y-96093019D01*
X214553705Y-96188257D01*
X214553705Y-96283495D01*
X214506086Y-96426352D01*
X213934657Y-96997781D01*
X214553705Y-96997781D01*
X212940476Y-93702381D02*
X213130953Y-93702381D01*
X213226191Y-93750000D01*
X213321429Y-93845238D01*
X213369048Y-94035714D01*
X213369048Y-94369048D01*
X213321429Y-94559524D01*
X213226191Y-94654762D01*
X213130953Y-94702381D01*
X212940476Y-94702381D01*
X212845238Y-94654762D01*
X212750000Y-94559524D01*
X212702381Y-94369048D01*
X212702381Y-94035714D01*
X212750000Y-93845238D01*
X212845238Y-93750000D01*
X212940476Y-93702381D01*
X213797619Y-94607143D02*
X213845238Y-94654762D01*
X213797619Y-94702381D01*
X213750000Y-94654762D01*
X213797619Y-94607143D01*
X213797619Y-94702381D01*
X214226190Y-93797619D02*
X214273809Y-93750000D01*
X214369047Y-93702381D01*
X214607143Y-93702381D01*
X214702381Y-93750000D01*
X214750000Y-93797619D01*
X214797619Y-93892857D01*
X214797619Y-93988095D01*
X214750000Y-94130952D01*
X214178571Y-94702381D01*
X214797619Y-94702381D01*
X212952381Y-92300324D02*
X212952381Y-92109847D01*
X213000000Y-92014609D01*
X213095238Y-91919371D01*
X213285714Y-91871752D01*
X213619048Y-91871752D01*
X213809524Y-91919371D01*
X213904762Y-92014609D01*
X213952381Y-92109847D01*
X213952381Y-92300324D01*
X213904762Y-92395562D01*
X213809524Y-92490800D01*
X213619048Y-92538419D01*
X213285714Y-92538419D01*
X213095238Y-92490800D01*
X213000000Y-92395562D01*
X212952381Y-92300324D01*
X213857143Y-91443181D02*
X213904762Y-91395562D01*
X213952381Y-91443181D01*
X213904762Y-91490800D01*
X213857143Y-91443181D01*
X213952381Y-91443181D01*
X213952381Y-90443181D02*
X213952381Y-91014610D01*
X213952381Y-90728896D02*
X212952381Y-90728896D01*
X213095238Y-90824134D01*
X213190476Y-90919372D01*
X213238095Y-91014610D01*
X213952381Y-89214285D02*
X212952381Y-89214285D01*
X213857143Y-88738095D02*
X213904762Y-88690476D01*
X213952381Y-88738095D01*
X213904762Y-88785714D01*
X213857143Y-88738095D01*
X213952381Y-88738095D01*
X213952381Y-87738095D02*
X213952381Y-88309524D01*
X213952381Y-88023810D02*
X212952381Y-88023810D01*
X213095238Y-88119048D01*
X213190476Y-88214286D01*
X213238095Y-88309524D01*
X216317581Y-88988876D02*
X216317581Y-89465067D01*
X216793771Y-89512686D01*
X216746152Y-89465067D01*
X216698533Y-89369829D01*
X216698533Y-89131733D01*
X216746152Y-89036495D01*
X216793771Y-88988876D01*
X216889010Y-88941257D01*
X217127105Y-88941257D01*
X217222343Y-88988876D01*
X217269962Y-89036495D01*
X217317581Y-89131733D01*
X217317581Y-89369829D01*
X217269962Y-89465067D01*
X217222343Y-89512686D01*
X216317581Y-88655543D02*
X217317581Y-88322210D01*
X216317581Y-87988876D01*
X221877000Y-102438104D02*
X221829381Y-102533342D01*
X221829381Y-102676199D01*
X221877000Y-102819057D01*
X221972238Y-102914295D01*
X222067476Y-102961914D01*
X222257952Y-103009533D01*
X222400810Y-103009533D01*
X222591286Y-102961914D01*
X222686524Y-102914295D01*
X222781762Y-102819057D01*
X222829381Y-102676199D01*
X222829381Y-102580961D01*
X222781762Y-102438104D01*
X222734143Y-102390485D01*
X222400810Y-102390485D01*
X222400810Y-102580961D01*
X222829381Y-101961914D02*
X221829381Y-101961914D01*
X222829381Y-101390485D01*
X221829381Y-101390485D01*
X222829381Y-100914295D02*
X221829381Y-100914295D01*
X221829381Y-100676200D01*
X221877000Y-100533342D01*
X221972238Y-100438104D01*
X222067476Y-100390485D01*
X222257952Y-100342866D01*
X222400810Y-100342866D01*
X222591286Y-100390485D01*
X222686524Y-100438104D01*
X222781762Y-100533342D01*
X222829381Y-100676200D01*
X222829381Y-100914295D01*
D12*
X220599000Y-87579200D02*
X223139000Y-87579200D01*
X217779000Y-87299200D02*
X219329000Y-87299200D01*
X220599000Y-87579200D02*
X220599000Y-90119200D01*
X219329000Y-90399200D02*
X217779000Y-90399200D01*
X217779000Y-90399200D02*
X217779000Y-87299200D01*
X220599000Y-90119200D02*
X223139000Y-90119200D01*
X223139000Y-90119200D02*
X223139000Y-87579200D01*
X218795600Y-100431600D02*
X221335600Y-100431600D01*
X215975600Y-100151600D02*
X217525600Y-100151600D01*
X218795600Y-100431600D02*
X218795600Y-102971600D01*
X217525600Y-103251600D02*
X215975600Y-103251600D01*
X215975600Y-103251600D02*
X215975600Y-100151600D01*
X218795600Y-102971600D02*
X221335600Y-102971600D01*
X221335600Y-102971600D02*
X221335600Y-100431600D01*
X209524000Y-87350000D02*
X211074000Y-87350000D01*
X211074000Y-90450000D02*
X209524000Y-90450000D01*
X209524000Y-90450000D02*
X209524000Y-87350000D01*
X212344000Y-90170000D02*
X212344000Y-87630000D01*
X230073800Y-87350000D02*
X230073800Y-88900000D01*
X226973800Y-88900000D02*
X226973800Y-87350000D01*
X226973800Y-87350000D02*
X230073800Y-87350000D01*
X227253800Y-90170000D02*
X229793800Y-90170000D01*
X212624000Y-98070000D02*
X211074000Y-98070000D01*
X211074000Y-94970000D02*
X212624000Y-94970000D01*
X212624000Y-94970000D02*
X212624000Y-98070000D01*
X209804000Y-95250000D02*
X209804000Y-97790000D01*
X209524000Y-97510000D02*
X211074000Y-97510000D01*
X211074000Y-100610000D02*
X209524000Y-100610000D01*
X209524000Y-100610000D02*
X209524000Y-97510000D01*
X212344000Y-100330000D02*
X212344000Y-97790000D01*
X226973800Y-103150000D02*
X226973800Y-101600000D01*
X230073800Y-101600000D02*
X230073800Y-103150000D01*
X230073800Y-103150000D02*
X226973800Y-103150000D01*
X229793800Y-100330000D02*
X227253800Y-100330000D01*
X212624000Y-103150000D02*
X211074000Y-103150000D01*
X211074000Y-100050000D02*
X212624000Y-100050000D01*
X212624000Y-100050000D02*
X212624000Y-103150000D01*
X209804000Y-100330000D02*
X209804000Y-102870000D01*
X230073800Y-92430000D02*
X230073800Y-93980000D01*
X226973800Y-93980000D02*
X226973800Y-92430000D01*
X226973800Y-92430000D02*
X230073800Y-92430000D01*
X227253800Y-95250000D02*
X229793800Y-95250000D01*
X226973800Y-92990000D02*
X226973800Y-91440000D01*
X230073800Y-91440000D02*
X230073800Y-92990000D01*
X230073800Y-92990000D02*
X226973800Y-92990000D01*
X229793800Y-90170000D02*
X227253800Y-90170000D01*
X212624000Y-92990000D02*
X211074000Y-92990000D01*
X211074000Y-89890000D02*
X212624000Y-89890000D01*
X212624000Y-89890000D02*
X212624000Y-92990000D01*
X209804000Y-90170000D02*
X209804000Y-92710000D01*
X209524000Y-92430000D02*
X211074000Y-92430000D01*
X211074000Y-95530000D02*
X209524000Y-95530000D01*
X209524000Y-95530000D02*
X209524000Y-92430000D01*
X212344000Y-95250000D02*
X212344000Y-92710000D01*
X230073800Y-97510000D02*
X230073800Y-99060000D01*
X226973800Y-99060000D02*
X226973800Y-97510000D01*
X226973800Y-97510000D02*
X230073800Y-97510000D01*
X227253800Y-100330000D02*
X229793800Y-100330000D01*
X226973800Y-98070000D02*
X226973800Y-96520000D01*
X230073800Y-96520000D02*
X230073800Y-98070000D01*
X230073800Y-98070000D02*
X226973800Y-98070000D01*
X229793800Y-95250000D02*
X227253800Y-95250000D01*
X217385000Y-94479200D02*
X217385000Y-94604200D01*
X222035000Y-94479200D02*
X222035000Y-94704200D01*
X222035000Y-99729200D02*
X222035000Y-99504200D01*
X217385000Y-99729200D02*
X217385000Y-99504200D01*
X217385000Y-94479200D02*
X222035000Y-94479200D01*
X217385000Y-99729200D02*
X222035000Y-99729200D01*
X217385000Y-94604200D02*
X216035000Y-94604200D01*
X221775700Y-91874200D02*
X221775700Y-92874200D01*
X223475700Y-92874200D02*
X223475700Y-91874200D01*
X219723600Y-91879800D02*
X219723600Y-92879800D01*
X221423600Y-92879800D02*
X221423600Y-91879800D01*
X215798095Y-93006581D02*
X215798095Y-93816105D01*
X215845714Y-93911343D01*
X215893333Y-93958962D01*
X215988571Y-94006581D01*
X216179048Y-94006581D01*
X216274286Y-93958962D01*
X216321905Y-93911343D01*
X216369524Y-93816105D01*
X216369524Y-93006581D01*
X217369524Y-94006581D02*
X216798095Y-94006581D01*
X217083809Y-94006581D02*
X217083809Y-93006581D01*
X216988571Y-93149438D01*
X216893333Y-93244676D01*
X216798095Y-93292295D01*
X219406743Y-91708266D02*
X219454362Y-91755885D01*
X219501981Y-91898742D01*
X219501981Y-91993980D01*
X219454362Y-92136838D01*
X219359124Y-92232076D01*
X219263886Y-92279695D01*
X219073410Y-92327314D01*
X218930552Y-92327314D01*
X218740076Y-92279695D01*
X218644838Y-92232076D01*
X218549600Y-92136838D01*
X218501981Y-91993980D01*
X218501981Y-91898742D01*
X218549600Y-91755885D01*
X218597219Y-91708266D01*
X219501981Y-90755885D02*
X219501981Y-91327314D01*
X219501981Y-91041600D02*
X218501981Y-91041600D01*
X218644838Y-91136838D01*
X218740076Y-91232076D01*
X218787695Y-91327314D01*
X218212943Y-91759066D02*
X218260562Y-91806685D01*
X218308181Y-91949542D01*
X218308181Y-92044780D01*
X218260562Y-92187638D01*
X218165324Y-92282876D01*
X218070086Y-92330495D01*
X217879610Y-92378114D01*
X217736752Y-92378114D01*
X217546276Y-92330495D01*
X217451038Y-92282876D01*
X217355800Y-92187638D01*
X217308181Y-92044780D01*
X217308181Y-91949542D01*
X217355800Y-91806685D01*
X217403419Y-91759066D01*
X217403419Y-91378114D02*
X217355800Y-91330495D01*
X217308181Y-91235257D01*
X217308181Y-90997161D01*
X217355800Y-90901923D01*
X217403419Y-90854304D01*
X217498657Y-90806685D01*
X217593895Y-90806685D01*
X217736752Y-90854304D01*
X218308181Y-91425733D01*
X218308181Y-90806685D01*
%LPC*%
D13*
X219329000Y-88849200D03*
D14*
X221869000Y-88849200D03*
D13*
X217525600Y-101701600D03*
D14*
X220065600Y-101701600D03*
D15*
X211074000Y-88900000D03*
X228523800Y-88900000D03*
X211074000Y-96520000D03*
X211074000Y-99060000D03*
X228523800Y-101600000D03*
X211074000Y-101600000D03*
X228523800Y-93980000D03*
X228523800Y-91440000D03*
X211074000Y-91440000D03*
X211074000Y-93980000D03*
X228523800Y-99060000D03*
X228523800Y-96520000D03*
D16*
X216760000Y-95154200D03*
X216760000Y-95804200D03*
X216760000Y-96454200D03*
X216760000Y-97104200D03*
X216760000Y-97754200D03*
X216760000Y-98404200D03*
X216760000Y-99054200D03*
X222660000Y-99054200D03*
X222660000Y-98404200D03*
X222660000Y-97754200D03*
X222660000Y-97104200D03*
X222660000Y-96454200D03*
X222660000Y-95804200D03*
X222660000Y-95154200D03*
D17*
X222625700Y-93374200D03*
X222625700Y-91374200D03*
X220573600Y-93379800D03*
X220573600Y-91379800D03*
M02*
