G04 #@! TF.FileFunction,Copper,L2,Bot,Signal*
%FSLAX46Y46*%
G04 Gerber Fmt 4.6, Leading zero omitted, Abs format (unit mm)*
G04 Created by KiCad (PCBNEW 4.0.4+e1-6308~48~ubuntu16.04.1-stable) date Thu Nov  3 23:13:48 2016*
%MOMM*%
%LPD*%
G01*
G04 APERTURE LIST*
%ADD10C,0.100000*%
%ADD11R,2.032000X2.032000*%
%ADD12O,2.032000X2.032000*%
%ADD13R,2.235200X2.235200*%
%ADD14C,0.600000*%
%ADD15C,0.250000*%
%ADD16C,0.254000*%
G04 APERTURE END LIST*
D10*
D11*
X236220000Y-83820000D03*
D12*
X238760000Y-83820000D03*
D11*
X236220000Y-86360000D03*
D12*
X238760000Y-86360000D03*
D13*
X241300000Y-91440000D03*
X241300000Y-88900000D03*
X233680000Y-91440000D03*
X233680000Y-93980000D03*
X233680000Y-99060000D03*
X233680000Y-101600000D03*
X241300000Y-99060000D03*
X241300000Y-96520000D03*
X233680000Y-88900000D03*
X241300000Y-93980000D03*
X241300000Y-101600000D03*
X233680000Y-96520000D03*
D14*
X237500000Y-88200000D03*
X237100000Y-103000000D03*
X238149998Y-97500000D03*
X235900000Y-99400000D03*
X235600000Y-95500000D03*
X239400000Y-91400000D03*
D15*
X237799999Y-87900001D02*
X237500000Y-88200000D01*
X239204682Y-87900000D02*
X237799999Y-87900001D01*
X238760000Y-83820000D02*
X240101001Y-85161001D01*
X240101001Y-85161001D02*
X240101001Y-87003681D01*
X240101001Y-87003681D02*
X239204682Y-87900000D01*
X237100000Y-103000000D02*
X237100000Y-102600000D01*
D16*
G36*
X234556560Y-84836000D02*
X234600838Y-85071317D01*
X234618355Y-85098539D01*
X234569000Y-85217691D01*
X234569000Y-86074250D01*
X234727750Y-86233000D01*
X236093000Y-86233000D01*
X236093000Y-86213000D01*
X236347000Y-86213000D01*
X236347000Y-86233000D01*
X238633000Y-86233000D01*
X238633000Y-86213000D01*
X238887000Y-86213000D01*
X238887000Y-86233000D01*
X238907000Y-86233000D01*
X238907000Y-86487000D01*
X238887000Y-86487000D01*
X238887000Y-86507000D01*
X238633000Y-86507000D01*
X238633000Y-86487000D01*
X236347000Y-86487000D01*
X236347000Y-87852250D01*
X236505750Y-88011000D01*
X236566076Y-88011000D01*
X236565162Y-88013201D01*
X236564838Y-88385167D01*
X236706883Y-88728943D01*
X236969673Y-88992192D01*
X237313201Y-89134838D01*
X237685167Y-89135162D01*
X238028943Y-88993117D01*
X238292192Y-88730327D01*
X238321394Y-88660001D01*
X239204683Y-88660000D01*
X239495521Y-88602148D01*
X239534960Y-88575796D01*
X239534960Y-90017600D01*
X239564689Y-90175595D01*
X239534960Y-90322400D01*
X239534960Y-92557600D01*
X239564689Y-92715595D01*
X239534960Y-92862400D01*
X239534960Y-95097600D01*
X239564689Y-95255595D01*
X239534960Y-95402400D01*
X239534960Y-97637600D01*
X239564689Y-97795595D01*
X239534960Y-97942400D01*
X239534960Y-100177600D01*
X239564689Y-100335595D01*
X239534960Y-100482400D01*
X239534960Y-102717600D01*
X239573421Y-102922000D01*
X235403648Y-102922000D01*
X235445040Y-102717600D01*
X235445040Y-100482400D01*
X235415311Y-100324405D01*
X235445040Y-100177600D01*
X235445040Y-97942400D01*
X235415311Y-97784405D01*
X235445040Y-97637600D01*
X235445040Y-95402400D01*
X235415311Y-95244405D01*
X235445040Y-95097600D01*
X235445040Y-92862400D01*
X235415311Y-92704405D01*
X235445040Y-92557600D01*
X235445040Y-90322400D01*
X235415311Y-90164405D01*
X235445040Y-90017600D01*
X235445040Y-88011000D01*
X235934250Y-88011000D01*
X236093000Y-87852250D01*
X236093000Y-86487000D01*
X234727750Y-86487000D01*
X234569000Y-86645750D01*
X234569000Y-87134960D01*
X232562400Y-87134960D01*
X232358000Y-87173421D01*
X232358000Y-83006000D01*
X234556560Y-83006000D01*
X234556560Y-84836000D01*
X234556560Y-84836000D01*
G37*
X234556560Y-84836000D02*
X234600838Y-85071317D01*
X234618355Y-85098539D01*
X234569000Y-85217691D01*
X234569000Y-86074250D01*
X234727750Y-86233000D01*
X236093000Y-86233000D01*
X236093000Y-86213000D01*
X236347000Y-86213000D01*
X236347000Y-86233000D01*
X238633000Y-86233000D01*
X238633000Y-86213000D01*
X238887000Y-86213000D01*
X238887000Y-86233000D01*
X238907000Y-86233000D01*
X238907000Y-86487000D01*
X238887000Y-86487000D01*
X238887000Y-86507000D01*
X238633000Y-86507000D01*
X238633000Y-86487000D01*
X236347000Y-86487000D01*
X236347000Y-87852250D01*
X236505750Y-88011000D01*
X236566076Y-88011000D01*
X236565162Y-88013201D01*
X236564838Y-88385167D01*
X236706883Y-88728943D01*
X236969673Y-88992192D01*
X237313201Y-89134838D01*
X237685167Y-89135162D01*
X238028943Y-88993117D01*
X238292192Y-88730327D01*
X238321394Y-88660001D01*
X239204683Y-88660000D01*
X239495521Y-88602148D01*
X239534960Y-88575796D01*
X239534960Y-90017600D01*
X239564689Y-90175595D01*
X239534960Y-90322400D01*
X239534960Y-92557600D01*
X239564689Y-92715595D01*
X239534960Y-92862400D01*
X239534960Y-95097600D01*
X239564689Y-95255595D01*
X239534960Y-95402400D01*
X239534960Y-97637600D01*
X239564689Y-97795595D01*
X239534960Y-97942400D01*
X239534960Y-100177600D01*
X239564689Y-100335595D01*
X239534960Y-100482400D01*
X239534960Y-102717600D01*
X239573421Y-102922000D01*
X235403648Y-102922000D01*
X235445040Y-102717600D01*
X235445040Y-100482400D01*
X235415311Y-100324405D01*
X235445040Y-100177600D01*
X235445040Y-97942400D01*
X235415311Y-97784405D01*
X235445040Y-97637600D01*
X235445040Y-95402400D01*
X235415311Y-95244405D01*
X235445040Y-95097600D01*
X235445040Y-92862400D01*
X235415311Y-92704405D01*
X235445040Y-92557600D01*
X235445040Y-90322400D01*
X235415311Y-90164405D01*
X235445040Y-90017600D01*
X235445040Y-88011000D01*
X235934250Y-88011000D01*
X236093000Y-87852250D01*
X236093000Y-86487000D01*
X234727750Y-86487000D01*
X234569000Y-86645750D01*
X234569000Y-87134960D01*
X232562400Y-87134960D01*
X232358000Y-87173421D01*
X232358000Y-83006000D01*
X234556560Y-83006000D01*
X234556560Y-84836000D01*
M02*
