%TF.GenerationSoftware,KiCad,Pcbnew,4.0.4+e1-6308~48~ubuntu16.04.1-stable*%
%TF.CreationDate,2016-10-27T02:26:11-07:00*%
%TF.ProjectId,74LVC1G79GW,37344C56433147373947572E6B696361,rev?*%
%TF.FileFunction,Soldermask,Top*%
%FSLAX46Y46*%
G04 Gerber Fmt 4.6, Leading zero omitted, Abs format (unit mm)*
G04 Created by KiCad (PCBNEW 4.0.4+e1-6308~48~ubuntu16.04.1-stable) date Thu Oct 27 02:26:11 2016*
%MOMM*%
%LPD*%
G01*
G04 APERTURE LIST*
%ADD10C,0.100000*%
%ADD11R,2.132000X2.132000*%
%ADD12O,2.132000X2.132000*%
%ADD13R,2.335200X2.335200*%
%ADD14R,1.100000X1.350000*%
%ADD15R,1.100000X0.400000*%
G04 APERTURE END LIST*
D10*
D11*
X236220000Y-83820000D03*
D12*
X238760000Y-83820000D03*
D11*
X236220000Y-86360000D03*
D12*
X238760000Y-86360000D03*
D13*
X241300000Y-91440000D03*
X241300000Y-88900000D03*
X233680000Y-91440000D03*
X233680000Y-93980000D03*
X233680000Y-99060000D03*
X233680000Y-101600000D03*
X241300000Y-99060000D03*
X241300000Y-96520000D03*
X233680000Y-88900000D03*
X241300000Y-93980000D03*
X241300000Y-101600000D03*
X233680000Y-96520000D03*
D14*
X236500000Y-91300000D03*
X238500000Y-91300000D03*
X238500000Y-95700000D03*
X236500000Y-95700000D03*
X238400000Y-100100000D03*
X236400000Y-100100000D03*
D15*
X239150000Y-89850000D03*
X239150000Y-89350000D03*
X239150000Y-88850000D03*
X239150000Y-88350000D03*
X235850000Y-88350000D03*
X235850000Y-88850000D03*
X235850000Y-89350000D03*
X235850000Y-89850000D03*
X235850000Y-92750000D03*
X235850000Y-93250000D03*
X235850000Y-93750000D03*
X235850000Y-94250000D03*
X239150000Y-94250000D03*
X239150000Y-93750000D03*
X239150000Y-93250000D03*
X239150000Y-92750000D03*
X235850000Y-101550000D03*
X235850000Y-102050000D03*
X235850000Y-102550000D03*
X235850000Y-103050000D03*
X239150000Y-103050000D03*
X239150000Y-102550000D03*
X239150000Y-102050000D03*
X239150000Y-101550000D03*
X239150000Y-98650000D03*
X239150000Y-98150000D03*
X239150000Y-97650000D03*
X239150000Y-97150000D03*
X235850000Y-97150000D03*
X235850000Y-97650000D03*
X235850000Y-98150000D03*
X235850000Y-98650000D03*
M02*
