G04 #@! TF.FileFunction,Legend,Bot*
%FSLAX46Y46*%
G04 Gerber Fmt 4.6, Leading zero omitted, Abs format (unit mm)*
G04 Created by KiCad (PCBNEW 4.0.4+e1-6308~48~ubuntu16.04.1-stable) date Thu Nov  3 23:13:48 2016*
%MOMM*%
%LPD*%
G01*
G04 APERTURE LIST*
%ADD10C,0.100000*%
%ADD11C,0.175000*%
%ADD12C,0.125000*%
%ADD13C,0.075000*%
%ADD14C,0.050000*%
%ADD15C,0.025000*%
%ADD16C,0.200000*%
%ADD17C,0.150000*%
%ADD18C,0.187500*%
%ADD19C,0.250000*%
%ADD20R,2.132000X2.132000*%
%ADD21O,2.132000X2.132000*%
%ADD22R,2.335200X2.335200*%
G04 APERTURE END LIST*
D10*
D11*
X241200000Y-85260000D02*
X241200000Y-86200000D01*
X240900000Y-85260000D02*
X240900000Y-86200000D01*
X240650000Y-85260000D02*
X240650000Y-86200000D01*
X240450000Y-85260000D02*
X240450000Y-86200000D01*
D12*
X242900000Y-84000000D02*
X242900000Y-84940000D01*
X242700000Y-84000000D02*
X242700000Y-84940000D01*
X242550000Y-84000000D02*
X242550000Y-84940000D01*
X242450000Y-84000000D02*
X242450000Y-84940000D01*
D10*
X242350000Y-84000000D02*
X242350000Y-84940000D01*
X242100000Y-84000000D02*
X242100000Y-84940000D01*
X241900000Y-84000000D02*
X241900000Y-84940000D01*
X241750000Y-84000000D02*
X241750000Y-84940000D01*
X241650000Y-84000000D02*
X241650000Y-84940000D01*
D13*
X241550000Y-84000000D02*
X241550000Y-84940000D01*
X241350000Y-84000000D02*
X241350000Y-84940000D01*
X241200000Y-84000000D02*
X241200000Y-84940000D01*
X241100000Y-84000000D02*
X241100000Y-84940000D01*
D14*
X241000000Y-84010000D02*
X241000000Y-84950000D01*
X240850000Y-84010000D02*
X240850000Y-84950000D01*
X240750000Y-84010000D02*
X240750000Y-84950000D01*
D15*
X240650000Y-84010000D02*
X240650000Y-84950000D01*
X240600000Y-84010000D02*
X240600000Y-84950000D01*
X240500000Y-84010000D02*
X240500000Y-84950000D01*
X240450000Y-84010000D02*
X240450000Y-84950000D01*
D16*
X242900000Y-82660000D02*
X242900000Y-83600000D01*
D11*
X242500000Y-82660000D02*
X242500000Y-83600000D01*
D17*
X242200000Y-82660000D02*
X242200000Y-83600000D01*
D12*
X241800000Y-82660000D02*
X241800000Y-83600000D01*
D10*
X241400000Y-82660000D02*
X241400000Y-83600000D01*
D13*
X241050000Y-82660000D02*
X241050000Y-83600000D01*
D14*
X240750000Y-82660000D02*
X240750000Y-83600000D01*
D15*
X240450000Y-82660000D02*
X240450000Y-83600000D01*
D18*
X237333286Y-87709857D02*
X237333286Y-88209857D01*
X238083286Y-87888428D01*
X237583286Y-88817000D02*
X238083286Y-88817000D01*
X237297571Y-88638429D02*
X237833286Y-88459857D01*
X237833286Y-88924143D01*
X238083286Y-89567000D02*
X238083286Y-89209857D01*
X237333286Y-89209857D01*
X237333286Y-89709858D02*
X238083286Y-89959858D01*
X237333286Y-90209858D01*
X238011857Y-90888429D02*
X238047571Y-90852715D01*
X238083286Y-90745572D01*
X238083286Y-90674143D01*
X238047571Y-90567000D01*
X237976143Y-90495572D01*
X237904714Y-90459857D01*
X237761857Y-90424143D01*
X237654714Y-90424143D01*
X237511857Y-90459857D01*
X237440429Y-90495572D01*
X237369000Y-90567000D01*
X237333286Y-90674143D01*
X237333286Y-90745572D01*
X237369000Y-90852715D01*
X237404714Y-90888429D01*
X238083286Y-91602715D02*
X238083286Y-91174143D01*
X238083286Y-91388429D02*
X237333286Y-91388429D01*
X237440429Y-91317000D01*
X237511857Y-91245572D01*
X237547571Y-91174143D01*
X237369000Y-92317001D02*
X237333286Y-92245572D01*
X237333286Y-92138429D01*
X237369000Y-92031286D01*
X237440429Y-91959858D01*
X237511857Y-91924143D01*
X237654714Y-91888429D01*
X237761857Y-91888429D01*
X237904714Y-91924143D01*
X237976143Y-91959858D01*
X238047571Y-92031286D01*
X238083286Y-92138429D01*
X238083286Y-92209858D01*
X238047571Y-92317001D01*
X238011857Y-92352715D01*
X237761857Y-92352715D01*
X237761857Y-92209858D01*
X237333286Y-92602715D02*
X237333286Y-93102715D01*
X238083286Y-92781286D01*
X238083286Y-93424144D02*
X238083286Y-93567001D01*
X238047571Y-93638429D01*
X238011857Y-93674144D01*
X237904714Y-93745572D01*
X237761857Y-93781287D01*
X237476143Y-93781287D01*
X237404714Y-93745572D01*
X237369000Y-93709858D01*
X237333286Y-93638429D01*
X237333286Y-93495572D01*
X237369000Y-93424144D01*
X237404714Y-93388429D01*
X237476143Y-93352715D01*
X237654714Y-93352715D01*
X237726143Y-93388429D01*
X237761857Y-93424144D01*
X237797571Y-93495572D01*
X237797571Y-93638429D01*
X237761857Y-93709858D01*
X237726143Y-93745572D01*
X237654714Y-93781287D01*
X237369000Y-94495573D02*
X237333286Y-94424144D01*
X237333286Y-94317001D01*
X237369000Y-94209858D01*
X237440429Y-94138430D01*
X237511857Y-94102715D01*
X237654714Y-94067001D01*
X237761857Y-94067001D01*
X237904714Y-94102715D01*
X237976143Y-94138430D01*
X238047571Y-94209858D01*
X238083286Y-94317001D01*
X238083286Y-94388430D01*
X238047571Y-94495573D01*
X238011857Y-94531287D01*
X237761857Y-94531287D01*
X237761857Y-94388430D01*
X237333286Y-94781287D02*
X238083286Y-94959858D01*
X237547571Y-95102715D01*
X238083286Y-95245573D01*
X237333286Y-95424144D01*
D17*
X237185714Y-95857142D02*
X237185714Y-96238094D01*
X236852381Y-95999999D02*
X237709524Y-95999999D01*
X237804762Y-96047618D01*
X237852381Y-96142856D01*
X237852381Y-96238094D01*
X237185714Y-97190476D02*
X237185714Y-97571428D01*
X237852381Y-97333333D02*
X236995238Y-97333333D01*
X236900000Y-97380952D01*
X236852381Y-97476190D01*
X236852381Y-97571428D01*
X237852381Y-98047619D02*
X237804762Y-97952381D01*
X237709524Y-97904762D01*
X236852381Y-97904762D01*
X237852381Y-98428572D02*
X237185714Y-98428572D01*
X236852381Y-98428572D02*
X236900000Y-98380953D01*
X236947619Y-98428572D01*
X236900000Y-98476191D01*
X236852381Y-98428572D01*
X236947619Y-98428572D01*
X237185714Y-98904762D02*
X238185714Y-98904762D01*
X237233333Y-98904762D02*
X237185714Y-99000000D01*
X237185714Y-99190477D01*
X237233333Y-99285715D01*
X237280952Y-99333334D01*
X237376190Y-99380953D01*
X237661905Y-99380953D01*
X237757143Y-99333334D01*
X237804762Y-99285715D01*
X237852381Y-99190477D01*
X237852381Y-99000000D01*
X237804762Y-98904762D01*
X237185714Y-100428572D02*
X237185714Y-100809524D01*
X237852381Y-100571429D02*
X236995238Y-100571429D01*
X236900000Y-100619048D01*
X236852381Y-100714286D01*
X236852381Y-100809524D01*
X237852381Y-101285715D02*
X237804762Y-101190477D01*
X237709524Y-101142858D01*
X236852381Y-101142858D01*
X237852381Y-101809525D02*
X237804762Y-101714287D01*
X237757143Y-101666668D01*
X237661905Y-101619049D01*
X237376190Y-101619049D01*
X237280952Y-101666668D01*
X237233333Y-101714287D01*
X237185714Y-101809525D01*
X237185714Y-101952383D01*
X237233333Y-102047621D01*
X237280952Y-102095240D01*
X237376190Y-102142859D01*
X237661905Y-102142859D01*
X237757143Y-102095240D01*
X237804762Y-102047621D01*
X237852381Y-101952383D01*
X237852381Y-101809525D01*
X237185714Y-102571430D02*
X238185714Y-102571430D01*
X237233333Y-102571430D02*
X237185714Y-102666668D01*
X237185714Y-102857145D01*
X237233333Y-102952383D01*
X237280952Y-103000002D01*
X237376190Y-103047621D01*
X237661905Y-103047621D01*
X237757143Y-103000002D01*
X237804762Y-102952383D01*
X237852381Y-102857145D01*
X237852381Y-102666668D01*
X237804762Y-102571430D01*
D19*
X235934238Y-89447619D02*
X236029476Y-89400000D01*
X236124714Y-89304762D01*
X236267571Y-89161905D01*
X236362810Y-89114286D01*
X236458048Y-89114286D01*
X236410429Y-89352381D02*
X236505667Y-89304762D01*
X236600905Y-89209524D01*
X236648524Y-89019048D01*
X236648524Y-88685714D01*
X236600905Y-88495238D01*
X236505667Y-88400000D01*
X236410429Y-88352381D01*
X236219952Y-88352381D01*
X236124714Y-88400000D01*
X236029476Y-88495238D01*
X235981857Y-88685714D01*
X235981857Y-89019048D01*
X236029476Y-89209524D01*
X236124714Y-89304762D01*
X236219952Y-89352381D01*
X236410429Y-89352381D01*
X235029476Y-89352381D02*
X235600905Y-89352381D01*
X235315191Y-89352381D02*
X235315191Y-88352381D01*
X235410429Y-88495238D01*
X235505667Y-88590476D01*
X235600905Y-88638095D01*
X239879095Y-96972381D02*
X239879095Y-95972381D01*
X239641000Y-95972381D01*
X239498142Y-96020000D01*
X239402904Y-96115238D01*
X239355285Y-96210476D01*
X239307666Y-96400952D01*
X239307666Y-96543810D01*
X239355285Y-96734286D01*
X239402904Y-96829524D01*
X239498142Y-96924762D01*
X239641000Y-96972381D01*
X239879095Y-96972381D01*
X238450523Y-96305714D02*
X238450523Y-96972381D01*
X238688619Y-95924762D02*
X238926714Y-96639048D01*
X238307666Y-96639048D01*
X239236238Y-94527619D02*
X239331476Y-94480000D01*
X239426714Y-94384762D01*
X239569571Y-94241905D01*
X239664810Y-94194286D01*
X239760048Y-94194286D01*
X239712429Y-94432381D02*
X239807667Y-94384762D01*
X239902905Y-94289524D01*
X239950524Y-94099048D01*
X239950524Y-93765714D01*
X239902905Y-93575238D01*
X239807667Y-93480000D01*
X239712429Y-93432381D01*
X239521952Y-93432381D01*
X239426714Y-93480000D01*
X239331476Y-93575238D01*
X239283857Y-93765714D01*
X239283857Y-94099048D01*
X239331476Y-94289524D01*
X239426714Y-94384762D01*
X239521952Y-94432381D01*
X239712429Y-94432381D01*
X238902905Y-93527619D02*
X238855286Y-93480000D01*
X238760048Y-93432381D01*
X238521952Y-93432381D01*
X238426714Y-93480000D01*
X238379095Y-93527619D01*
X238331476Y-93622857D01*
X238331476Y-93718095D01*
X238379095Y-93860952D01*
X238950524Y-94432381D01*
X238331476Y-94432381D01*
X239307666Y-91797143D02*
X239355285Y-91844762D01*
X239498142Y-91892381D01*
X239593380Y-91892381D01*
X239736238Y-91844762D01*
X239831476Y-91749524D01*
X239879095Y-91654286D01*
X239926714Y-91463810D01*
X239926714Y-91320952D01*
X239879095Y-91130476D01*
X239831476Y-91035238D01*
X239736238Y-90940000D01*
X239593380Y-90892381D01*
X239498142Y-90892381D01*
X239355285Y-90940000D01*
X239307666Y-90987619D01*
X238355285Y-91892381D02*
X238926714Y-91892381D01*
X238641000Y-91892381D02*
X238641000Y-90892381D01*
X238736238Y-91035238D01*
X238831476Y-91130476D01*
X238926714Y-91178095D01*
X239236238Y-102147619D02*
X239331476Y-102100000D01*
X239426714Y-102004762D01*
X239569571Y-101861905D01*
X239664810Y-101814286D01*
X239760048Y-101814286D01*
X239712429Y-102052381D02*
X239807667Y-102004762D01*
X239902905Y-101909524D01*
X239950524Y-101719048D01*
X239950524Y-101385714D01*
X239902905Y-101195238D01*
X239807667Y-101100000D01*
X239712429Y-101052381D01*
X239521952Y-101052381D01*
X239426714Y-101100000D01*
X239331476Y-101195238D01*
X239283857Y-101385714D01*
X239283857Y-101719048D01*
X239331476Y-101909524D01*
X239426714Y-102004762D01*
X239521952Y-102052381D01*
X239712429Y-102052381D01*
X238950524Y-101052381D02*
X238331476Y-101052381D01*
X238664810Y-101433333D01*
X238521952Y-101433333D01*
X238426714Y-101480952D01*
X238379095Y-101528571D01*
X238331476Y-101623810D01*
X238331476Y-101861905D01*
X238379095Y-101957143D01*
X238426714Y-102004762D01*
X238521952Y-102052381D01*
X238807667Y-102052381D01*
X238902905Y-102004762D01*
X238950524Y-101957143D01*
X239307666Y-99417143D02*
X239355285Y-99464762D01*
X239498142Y-99512381D01*
X239593380Y-99512381D01*
X239736238Y-99464762D01*
X239831476Y-99369524D01*
X239879095Y-99274286D01*
X239926714Y-99083810D01*
X239926714Y-98940952D01*
X239879095Y-98750476D01*
X239831476Y-98655238D01*
X239736238Y-98560000D01*
X239593380Y-98512381D01*
X239498142Y-98512381D01*
X239355285Y-98560000D01*
X239307666Y-98607619D01*
X238450523Y-98845714D02*
X238450523Y-99512381D01*
X238688619Y-98464762D02*
X238926714Y-99179048D01*
X238307666Y-99179048D01*
X236577095Y-102052381D02*
X236577095Y-101052381D01*
X236339000Y-101052381D01*
X236196142Y-101100000D01*
X236100904Y-101195238D01*
X236053285Y-101290476D01*
X236005666Y-101480952D01*
X236005666Y-101623810D01*
X236053285Y-101814286D01*
X236100904Y-101909524D01*
X236196142Y-102004762D01*
X236339000Y-102052381D01*
X236577095Y-102052381D01*
X235672333Y-101052381D02*
X235053285Y-101052381D01*
X235386619Y-101433333D01*
X235243761Y-101433333D01*
X235148523Y-101480952D01*
X235100904Y-101528571D01*
X235053285Y-101623810D01*
X235053285Y-101861905D01*
X235100904Y-101957143D01*
X235148523Y-102004762D01*
X235243761Y-102052381D01*
X235529476Y-102052381D01*
X235624714Y-102004762D01*
X235672333Y-101957143D01*
X236005666Y-99417143D02*
X236053285Y-99464762D01*
X236196142Y-99512381D01*
X236291380Y-99512381D01*
X236434238Y-99464762D01*
X236529476Y-99369524D01*
X236577095Y-99274286D01*
X236624714Y-99083810D01*
X236624714Y-98940952D01*
X236577095Y-98750476D01*
X236529476Y-98655238D01*
X236434238Y-98560000D01*
X236291380Y-98512381D01*
X236196142Y-98512381D01*
X236053285Y-98560000D01*
X236005666Y-98607619D01*
X235672333Y-98512381D02*
X235053285Y-98512381D01*
X235386619Y-98893333D01*
X235243761Y-98893333D01*
X235148523Y-98940952D01*
X235100904Y-98988571D01*
X235053285Y-99083810D01*
X235053285Y-99321905D01*
X235100904Y-99417143D01*
X235148523Y-99464762D01*
X235243761Y-99512381D01*
X235529476Y-99512381D01*
X235624714Y-99464762D01*
X235672333Y-99417143D01*
X235934238Y-97067619D02*
X236029476Y-97020000D01*
X236124714Y-96924762D01*
X236267571Y-96781905D01*
X236362810Y-96734286D01*
X236458048Y-96734286D01*
X236410429Y-96972381D02*
X236505667Y-96924762D01*
X236600905Y-96829524D01*
X236648524Y-96639048D01*
X236648524Y-96305714D01*
X236600905Y-96115238D01*
X236505667Y-96020000D01*
X236410429Y-95972381D01*
X236219952Y-95972381D01*
X236124714Y-96020000D01*
X236029476Y-96115238D01*
X235981857Y-96305714D01*
X235981857Y-96639048D01*
X236029476Y-96829524D01*
X236124714Y-96924762D01*
X236219952Y-96972381D01*
X236410429Y-96972381D01*
X235124714Y-96305714D02*
X235124714Y-96972381D01*
X235362810Y-95924762D02*
X235600905Y-96639048D01*
X234981857Y-96639048D01*
X236577095Y-94432381D02*
X236577095Y-93432381D01*
X236339000Y-93432381D01*
X236196142Y-93480000D01*
X236100904Y-93575238D01*
X236053285Y-93670476D01*
X236005666Y-93860952D01*
X236005666Y-94003810D01*
X236053285Y-94194286D01*
X236100904Y-94289524D01*
X236196142Y-94384762D01*
X236339000Y-94432381D01*
X236577095Y-94432381D01*
X235624714Y-93527619D02*
X235577095Y-93480000D01*
X235481857Y-93432381D01*
X235243761Y-93432381D01*
X235148523Y-93480000D01*
X235100904Y-93527619D01*
X235053285Y-93622857D01*
X235053285Y-93718095D01*
X235100904Y-93860952D01*
X235672333Y-94432381D01*
X235053285Y-94432381D01*
X236005666Y-91797143D02*
X236053285Y-91844762D01*
X236196142Y-91892381D01*
X236291380Y-91892381D01*
X236434238Y-91844762D01*
X236529476Y-91749524D01*
X236577095Y-91654286D01*
X236624714Y-91463810D01*
X236624714Y-91320952D01*
X236577095Y-91130476D01*
X236529476Y-91035238D01*
X236434238Y-90940000D01*
X236291380Y-90892381D01*
X236196142Y-90892381D01*
X236053285Y-90940000D01*
X236005666Y-90987619D01*
X235624714Y-90987619D02*
X235577095Y-90940000D01*
X235481857Y-90892381D01*
X235243761Y-90892381D01*
X235148523Y-90940000D01*
X235100904Y-90987619D01*
X235053285Y-91082857D01*
X235053285Y-91178095D01*
X235100904Y-91320952D01*
X235672333Y-91892381D01*
X235053285Y-91892381D01*
X239879095Y-89352381D02*
X239879095Y-88352381D01*
X239641000Y-88352381D01*
X239498142Y-88400000D01*
X239402904Y-88495238D01*
X239355285Y-88590476D01*
X239307666Y-88780952D01*
X239307666Y-88923810D01*
X239355285Y-89114286D01*
X239402904Y-89209524D01*
X239498142Y-89304762D01*
X239641000Y-89352381D01*
X239879095Y-89352381D01*
X238355285Y-89352381D02*
X238926714Y-89352381D01*
X238641000Y-89352381D02*
X238641000Y-88352381D01*
X238736238Y-88495238D01*
X238831476Y-88590476D01*
X238926714Y-88638095D01*
X233890476Y-83152381D02*
X234366667Y-83152381D01*
X234414286Y-83628571D01*
X234366667Y-83580952D01*
X234271429Y-83533333D01*
X234033333Y-83533333D01*
X233938095Y-83580952D01*
X233890476Y-83628571D01*
X233842857Y-83723810D01*
X233842857Y-83961905D01*
X233890476Y-84057143D01*
X233938095Y-84104762D01*
X234033333Y-84152381D01*
X234271429Y-84152381D01*
X234366667Y-84104762D01*
X234414286Y-84057143D01*
X233557143Y-83152381D02*
X233223810Y-84152381D01*
X232890476Y-83152381D01*
X233585194Y-85107699D02*
X233618866Y-85006684D01*
X233719881Y-84905669D01*
X233854569Y-84838325D01*
X233989255Y-84838325D01*
X234090271Y-84871996D01*
X234258629Y-84973012D01*
X234359645Y-85074027D01*
X234460660Y-85242386D01*
X234494332Y-85343401D01*
X234494332Y-85478088D01*
X234426988Y-85612776D01*
X234359644Y-85680119D01*
X234224957Y-85747462D01*
X234157614Y-85747462D01*
X233921912Y-85511760D01*
X234056599Y-85377074D01*
X233921912Y-86117851D02*
X233214805Y-85410745D01*
X233517851Y-86521913D01*
X232810744Y-85814806D01*
X233181133Y-86858630D02*
X232474027Y-86151523D01*
X232305668Y-86319882D01*
X232238324Y-86454569D01*
X232238324Y-86589256D01*
X232271996Y-86690271D01*
X232373011Y-86858630D01*
X232474027Y-86959646D01*
X232642385Y-87060661D01*
X232743400Y-87094333D01*
X232878087Y-87094333D01*
X233012775Y-87026988D01*
X233181133Y-86858630D01*
%LPC*%
D20*
X236220000Y-83820000D03*
D21*
X238760000Y-83820000D03*
D20*
X236220000Y-86360000D03*
D21*
X238760000Y-86360000D03*
D22*
X241300000Y-91440000D03*
X241300000Y-88900000D03*
X233680000Y-91440000D03*
X233680000Y-93980000D03*
X233680000Y-99060000D03*
X233680000Y-101600000D03*
X241300000Y-99060000D03*
X241300000Y-96520000D03*
X233680000Y-88900000D03*
X241300000Y-93980000D03*
X241300000Y-101600000D03*
X233680000Y-96520000D03*
M02*
