M48
;DRILL file {KiCad 4.0.4+e1-6308~48~ubuntu16.04.1-stable} date Thu Oct 27 02:26:13 2016
;FORMAT={-:-/ absolute / metric / decimal}
FMAT,2
METRIC,TZ
T1C0.400
T2C1.016
%
G90
G05
M71
T1
X235.6Y-95.5
X235.9Y-99.4
X237.1Y-103.
X237.5Y-88.2
X238.15Y-97.5
X239.4Y-91.4
T2
X233.68Y-88.9
X233.68Y-91.44
X233.68Y-93.98
X233.68Y-96.52
X233.68Y-99.06
X233.68Y-101.6
X236.22Y-83.82
X236.22Y-86.36
X238.76Y-83.82
X238.76Y-86.36
X241.3Y-88.9
X241.3Y-91.44
X241.3Y-93.98
X241.3Y-96.52
X241.3Y-99.06
X241.3Y-101.6
T0
M30
